0
SECTION
2
ENTITIES
0
3DFACE
8
0
10
-0.866025
20
-9.800000
30
-1.500000
11
-7.499900
21
-9.800000
31
-10.000000
12
37.500099
22
-9.800000
32
-10.000000
13
37.500099
23
-9.800000
33
-10.000000
0
3DFACE
8
0
10
14.134000
20
-9.800000
30
-1.500000
11
13.267900
21
-9.800000
31
0.000000
12
-7.499900
22
-9.800000
32
7.500000
13
-7.499900
23
-9.800000
33
7.500000
0
3DFACE
8
0
10
0.866025
20
-9.800000
30
-1.500000
11
-0.866025
21
-9.800000
31
-1.500000
12
37.500099
22
-9.800000
32
-10.000000
13
37.500099
23
-9.800000
33
-10.000000
0
3DFACE
8
0
10
-7.499900
20
-9.800000
30
7.500000
11
-7.499900
21
-9.800000
31
-10.000000
12
-0.866025
22
-9.800000
32
-1.500000
13
-0.866025
23
-9.800000
33
-1.500000
0
3DFACE
8
0
10
15.866000
20
-9.800000
30
-1.500000
11
14.134000
21
-9.800000
31
-1.500000
12
37.500099
22
-9.800000
32
-10.000000
13
37.500099
23
-9.800000
33
-10.000000
0
3DFACE
8
0
10
-7.499900
20
-9.800000
30
7.500000
11
-0.866025
21
-9.800000
31
-1.500000
12
-1.732050
22
-9.800000
32
0.000000
13
-1.732050
23
-9.800000
33
0.000000
0
3DFACE
8
0
10
1.732050
20
-9.800000
30
0.000000
11
0.866025
21
-9.800000
31
-1.500000
12
37.500099
22
-9.800000
32
-10.000000
13
37.500099
23
-9.800000
33
-10.000000
0
3DFACE
8
0
10
-7.499900
20
-9.800000
30
7.500000
11
-1.732050
21
-9.800000
31
0.000000
12
-0.866025
22
-9.800000
32
1.500000
13
-0.866025
23
-9.800000
33
1.500000
0
3DFACE
8
0
10
14.134000
20
-9.800000
30
-1.500000
11
0.866025
21
-9.800000
31
1.500000
12
37.500099
22
-9.800000
32
-10.000000
13
37.500099
23
-9.800000
33
-10.000000
0
3DFACE
8
0
10
-7.499900
20
-9.800000
30
7.500000
11
-0.866025
21
-9.800000
31
1.500000
12
0.866025
22
-9.800000
32
1.500000
13
0.866025
23
-9.800000
33
1.500000
0
3DFACE
8
0
10
15.866000
20
-9.800000
30
1.500000
11
16.732100
21
-9.800000
31
0.000000
12
37.500099
22
-9.800000
32
7.500000
13
37.500099
23
-9.800000
33
7.500000
0
3DFACE
8
0
10
-7.499900
20
-9.800000
30
7.500000
11
0.866025
21
-9.800000
31
1.500000
12
14.134000
22
-9.800000
32
-1.500000
13
14.134000
23
-9.800000
33
-1.500000
0
3DFACE
8
0
10
29.134001
20
-9.800000
30
1.500000
11
30.865999
21
-9.800000
31
1.500000
12
37.500099
22
-9.800000
32
7.500000
13
37.500099
23
-9.800000
33
7.500000
0
3DFACE
8
0
10
14.134000
20
-9.800000
30
1.500000
11
-7.499900
21
-9.800000
31
7.500000
12
13.267900
22
-9.800000
32
0.000000
13
13.267900
23
-9.800000
33
0.000000
0
3DFACE
8
0
10
37.500099
20
-9.800000
30
7.500000
11
-7.499900
21
-9.800000
31
7.500000
12
14.134000
22
-9.800000
32
1.500000
13
14.134000
23
-9.800000
33
1.500000
0
3DFACE
8
0
10
16.732100
20
-9.800000
30
0.000000
11
15.866000
21
-9.800000
31
-1.500000
12
37.500099
22
-9.800000
32
-10.000000
13
37.500099
23
-9.800000
33
-10.000000
0
3DFACE
8
0
10
37.500099
20
-9.800000
30
7.500000
11
14.134000
21
-9.800000
31
1.500000
12
15.866000
22
-9.800000
32
1.500000
13
15.866000
23
-9.800000
33
1.500000
0
3DFACE
8
0
10
29.134001
20
-9.800000
30
-1.500000
11
16.732100
21
-9.800000
31
0.000000
12
37.500099
22
-9.800000
32
-10.000000
13
37.500099
23
-9.800000
33
-10.000000
0
3DFACE
8
0
10
30.865999
20
-9.800000
30
-1.500000
11
29.134001
21
-9.800000
31
-1.500000
12
37.500099
22
-9.800000
32
-10.000000
13
37.500099
23
-9.800000
33
-10.000000
0
3DFACE
8
0
10
28.267900
20
-9.800000
30
0.000000
11
16.732100
21
-9.800000
31
0.000000
12
29.134001
22
-9.800000
32
-1.500000
13
29.134001
23
-9.800000
33
-1.500000
0
3DFACE
8
0
10
29.134001
20
-9.800000
30
1.500000
11
16.732100
21
-9.800000
31
0.000000
12
28.267900
22
-9.800000
32
0.000000
13
28.267900
23
-9.800000
33
0.000000
0
3DFACE
8
0
10
30.865999
20
-9.800000
30
1.500000
11
31.732100
21
-9.800000
31
0.000000
12
37.500099
22
-9.800000
32
7.500000
13
37.500099
23
-9.800000
33
7.500000
0
3DFACE
8
0
10
37.500099
20
-9.800000
30
7.500000
11
16.732100
21
-9.800000
31
0.000000
12
29.134001
22
-9.800000
32
1.500000
13
29.134001
23
-9.800000
33
1.500000
0
3DFACE
8
0
10
37.500099
20
-9.800000
30
7.500000
11
31.732100
21
-9.800000
31
0.000000
12
37.500099
22
-9.800000
32
-10.000000
13
37.500099
23
-9.800000
33
-10.000000
0
3DFACE
8
0
10
31.732100
20
-9.800000
30
0.000000
11
30.865999
21
-9.800000
31
-1.500000
12
37.500099
22
-9.800000
32
-10.000000
13
37.500099
23
-9.800000
33
-10.000000
0
3DFACE
8
0
10
0.866025
20
-9.800000
30
1.500000
11
1.732050
21
-9.800000
31
0.000000
12
37.500099
22
-9.800000
32
-10.000000
13
37.500099
23
-9.800000
33
-10.000000
0
3DFACE
8
0
10
15.866000
20
1.500000
30
-10.000000
11
-7.499900
21
29.623199
31
-10.000000
12
37.500099
22
-9.800000
32
-10.000000
13
37.500099
23
-9.800000
33
-10.000000
0
3DFACE
8
0
10
-1.732050
20
30.000000
30
-10.000000
11
-7.499900
21
29.623199
31
-10.000000
12
0.376894
22
37.500000
32
-10.000000
13
0.376894
23
37.500000
33
-10.000000
0
3DFACE
8
0
10
29.134001
20
1.500000
30
-10.000000
11
0.376894
21
37.500000
31
-10.000000
12
6.358700
22
37.500000
32
-10.000000
13
6.358700
23
37.500000
33
-10.000000
0
3DFACE
8
0
10
30.865999
20
1.500000
30
-10.000000
11
6.358700
21
37.500000
31
-10.000000
12
33.658001
22
10.200000
32
-10.000000
13
33.658001
23
10.200000
33
-10.000000
0
3DFACE
8
0
10
37.500099
20
-9.800000
30
-10.000000
11
33.658001
21
10.200000
31
-10.000000
12
37.500099
22
10.200000
32
-10.000000
13
37.500099
23
10.200000
33
-10.000000
0
3DFACE
8
0
10
-7.499900
20
-9.800000
30
-10.000000
11
-7.499900
21
29.623199
31
-10.000000
12
-1.732050
22
0.000000
32
-10.000000
13
-1.732050
23
0.000000
33
-10.000000
0
3DFACE
8
0
10
0.866025
20
28.500000
30
-10.000000
11
13.267900
21
15.000000
31
-10.000000
12
-0.866025
22
28.500000
32
-10.000000
13
-0.866025
23
28.500000
33
-10.000000
0
3DFACE
8
0
10
-7.499900
20
-9.800000
30
-10.000000
11
-1.732050
21
0.000000
31
-10.000000
12
-0.866025
22
-1.500000
32
-10.000000
13
-0.866025
23
-1.500000
33
-10.000000
0
3DFACE
8
0
10
-7.499900
20
-9.800000
30
-10.000000
11
-0.866025
21
-1.500000
31
-10.000000
12
37.500099
22
-9.800000
32
-10.000000
13
37.500099
23
-9.800000
33
-10.000000
0
3DFACE
8
0
10
-0.866025
20
-1.500000
30
-10.000000
11
0.866025
21
-1.500000
31
-10.000000
12
37.500099
22
-9.800000
32
-10.000000
13
37.500099
23
-9.800000
33
-10.000000
0
3DFACE
8
0
10
0.866025
20
1.500000
30
-10.000000
11
-7.499900
21
29.623199
31
-10.000000
12
1.732050
22
0.000000
32
-10.000000
13
1.732050
23
0.000000
33
-10.000000
0
3DFACE
8
0
10
15.866000
20
13.500000
30
-10.000000
11
28.267900
21
0.000000
31
-10.000000
12
14.134000
22
13.500000
32
-10.000000
13
14.134000
23
13.500000
33
-10.000000
0
3DFACE
8
0
10
-0.866025
20
1.500000
30
-10.000000
11
-7.499900
21
29.623199
31
-10.000000
12
0.866025
22
1.500000
32
-10.000000
13
0.866025
23
1.500000
33
-10.000000
0
3DFACE
8
0
10
-1.732050
20
0.000000
30
-10.000000
11
-7.499900
21
29.623199
31
-10.000000
12
-0.866025
22
1.500000
32
-10.000000
13
-0.866025
23
1.500000
33
-10.000000
0
3DFACE
8
0
10
-0.866025
20
28.500000
30
-10.000000
11
-7.499900
21
29.623199
31
-10.000000
12
-1.732050
22
30.000000
32
-10.000000
13
-1.732050
23
30.000000
33
-10.000000
0
3DFACE
8
0
10
-0.866025
20
31.500000
30
-10.000000
11
-1.732050
21
30.000000
31
-10.000000
12
0.376894
22
37.500000
32
-10.000000
13
0.376894
23
37.500000
33
-10.000000
0
3DFACE
8
0
10
14.134000
20
13.500000
30
-10.000000
11
-7.499900
21
29.623199
31
-10.000000
12
-0.866025
22
28.500000
32
-10.000000
13
-0.866025
23
28.500000
33
-10.000000
0
3DFACE
8
0
10
14.134000
20
16.500000
30
-10.000000
11
0.376894
21
37.500000
31
-10.000000
12
15.866000
22
16.500000
32
-10.000000
13
15.866000
23
16.500000
33
-10.000000
0
3DFACE
8
0
10
-0.866025
20
31.500000
30
-10.000000
11
0.376894
21
37.500000
31
-10.000000
12
0.866025
22
31.500000
32
-10.000000
13
0.866025
23
31.500000
33
-10.000000
0
3DFACE
8
0
10
28.267900
20
0.000000
30
-10.000000
11
0.376894
21
37.500000
31
-10.000000
12
29.134001
22
1.500000
32
-10.000000
13
29.134001
23
1.500000
33
-10.000000
0
3DFACE
8
0
10
28.267900
20
0.000000
30
-10.000000
11
16.732100
21
15.000000
31
-10.000000
12
15.866000
22
16.500000
32
-10.000000
13
15.866000
23
16.500000
33
-10.000000
0
3DFACE
8
0
10
1.732050
20
30.000000
30
-10.000000
11
0.866025
21
31.500000
31
-10.000000
12
0.376894
22
37.500000
32
-10.000000
13
0.376894
23
37.500000
33
-10.000000
0
3DFACE
8
0
10
16.732100
20
0.000000
30
-10.000000
11
37.500099
21
-9.800000
31
-10.000000
12
15.866000
22
-1.500000
32
-10.000000
13
15.866000
23
-1.500000
33
-10.000000
0
3DFACE
8
0
10
1.732050
20
0.000000
30
-10.000000
11
-7.499900
21
29.623199
31
-10.000000
12
13.267900
22
0.000000
32
-10.000000
13
13.267900
23
0.000000
33
-10.000000
0
3DFACE
8
0
10
1.732050
20
0.000000
30
-10.000000
11
13.267900
21
0.000000
31
-10.000000
12
14.134000
22
-1.500000
32
-10.000000
13
14.134000
23
-1.500000
33
-10.000000
0
3DFACE
8
0
10
1.732050
20
0.000000
30
-10.000000
11
14.134000
21
-1.500000
31
-10.000000
12
37.500099
22
-9.800000
32
-10.000000
13
37.500099
23
-9.800000
33
-10.000000
0
3DFACE
8
0
10
14.134000
20
-1.500000
30
-10.000000
11
15.866000
21
-1.500000
31
-10.000000
12
37.500099
22
-9.800000
32
-10.000000
13
37.500099
23
-9.800000
33
-10.000000
0
3DFACE
8
0
10
13.267900
20
15.000000
30
-10.000000
11
0.866025
21
28.500000
31
-10.000000
12
1.732050
22
30.000000
32
-10.000000
13
1.732050
23
30.000000
33
-10.000000
0
3DFACE
8
0
10
14.134000
20
1.500000
30
-10.000000
11
-7.499900
21
29.623199
31
-10.000000
12
15.866000
22
1.500000
32
-10.000000
13
15.866000
23
1.500000
33
-10.000000
0
3DFACE
8
0
10
13.267900
20
15.000000
30
-10.000000
11
1.732050
21
30.000000
31
-10.000000
12
14.134000
22
16.500000
32
-10.000000
13
14.134000
23
16.500000
33
-10.000000
0
3DFACE
8
0
10
16.732100
20
0.000000
30
-10.000000
11
15.866000
21
1.500000
31
-10.000000
12
37.500099
22
-9.800000
32
-10.000000
13
37.500099
23
-9.800000
33
-10.000000
0
3DFACE
8
0
10
13.267900
20
0.000000
30
-10.000000
11
-7.499900
21
29.623199
31
-10.000000
12
14.134000
22
1.500000
32
-10.000000
13
14.134000
23
1.500000
33
-10.000000
0
3DFACE
8
0
10
14.134000
20
13.500000
30
-10.000000
11
-0.866025
21
28.500000
31
-10.000000
12
13.267900
22
15.000000
32
-10.000000
13
13.267900
23
15.000000
33
-10.000000
0
3DFACE
8
0
10
29.134001
20
-1.500000
30
-10.000000
11
-7.499900
21
29.623199
31
-10.000000
12
14.134000
22
13.500000
32
-10.000000
13
14.134000
23
13.500000
33
-10.000000
0
3DFACE
8
0
10
28.267900
20
0.000000
30
-10.000000
11
15.866000
21
13.500000
31
-10.000000
12
16.732100
22
15.000000
32
-10.000000
13
16.732100
23
15.000000
33
-10.000000
0
3DFACE
8
0
10
28.267900
20
0.000000
30
-10.000000
11
15.866000
21
16.500000
31
-10.000000
12
0.376894
22
37.500000
32
-10.000000
13
0.376894
23
37.500000
33
-10.000000
0
3DFACE
8
0
10
31.732100
20
0.000000
30
-10.000000
11
37.500099
21
-9.800000
31
-10.000000
12
30.865999
22
-1.500000
32
-10.000000
13
30.865999
23
-1.500000
33
-10.000000
0
3DFACE
8
0
10
14.134000
20
16.500000
30
-10.000000
11
1.732050
21
30.000000
31
-10.000000
12
0.376894
22
37.500000
32
-10.000000
13
0.376894
23
37.500000
33
-10.000000
0
3DFACE
8
0
10
29.134001
20
-1.500000
30
-10.000000
11
14.134000
21
13.500000
31
-10.000000
12
28.267900
22
0.000000
32
-10.000000
13
28.267900
23
0.000000
33
-10.000000
0
3DFACE
8
0
10
37.500099
20
-9.800000
30
-10.000000
11
-7.499900
21
29.623199
31
-10.000000
12
29.134001
22
-1.500000
32
-10.000000
13
29.134001
23
-1.500000
33
-10.000000
0
3DFACE
8
0
10
30.865999
20
-1.500000
30
-10.000000
11
37.500099
21
-9.800000
31
-10.000000
12
29.134001
22
-1.500000
32
-10.000000
13
29.134001
23
-1.500000
33
-10.000000
0
3DFACE
8
0
10
29.134001
20
1.500000
30
-10.000000
11
6.358700
21
37.500000
31
-10.000000
12
30.865999
22
1.500000
32
-10.000000
13
30.865999
23
1.500000
33
-10.000000
0
3DFACE
8
0
10
37.500099
20
-9.800000
30
-10.000000
11
31.732100
21
0.000000
31
-10.000000
12
33.658001
22
10.200000
32
-10.000000
13
33.658001
23
10.200000
33
-10.000000
0
3DFACE
8
0
10
31.732100
20
0.000000
30
-10.000000
11
30.865999
21
1.500000
31
-10.000000
12
33.658001
22
10.200000
32
-10.000000
13
33.658001
23
10.200000
33
-10.000000
0
3DFACE
8
0
10
1.732050
20
0.000000
30
-10.000000
11
37.500099
21
-9.800000
31
-10.000000
12
0.866025
22
-1.500000
32
-10.000000
13
0.866025
23
-1.500000
33
-10.000000
0
3DFACE
8
0
10
-7.499900
20
7.900000
30
7.500000
11
-7.499900
21
26.327499
31
-7.500000
12
-7.499900
22
7.900000
32
-7.500000
13
-7.499900
23
7.900000
33
-7.500000
0
3DFACE
8
0
10
-7.499900
20
-9.800000
30
-10.000000
11
-7.499900
21
-9.800000
31
7.500000
12
-7.499900
22
-7.500000
32
-7.500000
13
-7.499900
23
-7.500000
33
-7.500000
0
3DFACE
8
0
10
-7.499900
20
-9.800000
30
-10.000000
11
-7.499900
21
-7.500000
31
-7.500000
12
-7.499900
22
29.623199
32
-10.000000
13
-7.499900
23
29.623199
33
-10.000000
0
3DFACE
8
0
10
-7.499900
20
26.327499
30
-7.500000
11
-7.499900
21
29.623199
31
-10.000000
12
-7.499900
22
7.900000
32
-7.500000
13
-7.499900
23
7.900000
33
-7.500000
0
3DFACE
8
0
10
-7.499900
20
-7.500000
30
-7.500000
11
-7.499900
21
7.900000
31
-7.500000
12
-7.499900
22
29.623199
32
-10.000000
13
-7.499900
23
29.623199
33
-10.000000
0
3DFACE
8
0
10
-7.499900
20
26.327499
30
-7.500000
11
-7.499900
21
7.900000
31
7.500000
12
-7.499900
22
26.327499
32
7.500000
13
-7.499900
23
26.327499
33
7.500000
0
3DFACE
8
0
10
-7.499900
20
29.623199
30
-7.500000
11
-7.499900
21
29.623199
31
-10.000000
12
-7.499900
22
26.327499
32
-7.500000
13
-7.499900
23
26.327499
33
-7.500000
0
3DFACE
8
0
10
-7.499900
20
-7.500000
30
-7.500000
11
-7.499900
21
-9.800000
31
7.500000
12
-7.499900
22
-7.500000
32
7.500000
13
-7.499900
23
-7.500000
33
7.500000
0
3DFACE
8
0
10
-7.499900
20
-7.500000
30
7.500000
11
-7.499900
21
-9.800000
31
7.500000
12
37.500099
22
-9.800000
32
7.500000
13
37.500099
23
-9.800000
33
7.500000
0
3DFACE
8
0
10
37.500099
20
-7.500000
30
7.500000
11
-7.499900
21
-7.500000
31
7.500000
12
37.500099
22
-9.800000
32
7.500000
13
37.500099
23
-9.800000
33
7.500000
0
3DFACE
8
0
10
37.500099
20
-7.500000
30
-7.500000
11
37.500099
21
-9.800000
31
-10.000000
12
37.500099
22
10.200000
32
-10.000000
13
37.500099
23
10.200000
33
-10.000000
0
3DFACE
8
0
10
37.500099
20
-7.500000
30
-7.500000
11
37.500099
21
-7.500000
31
7.500000
12
37.500099
22
-9.800000
32
7.500000
13
37.500099
23
-9.800000
33
7.500000
0
3DFACE
8
0
10
37.500099
20
10.200000
30
7.500000
11
37.500099
21
7.900000
31
7.500000
12
37.500099
22
10.200000
32
-10.000000
13
37.500099
23
10.200000
33
-10.000000
0
3DFACE
8
0
10
37.500099
20
7.900000
30
7.500000
11
37.500099
21
7.900000
31
-7.500000
12
37.500099
22
10.200000
32
-10.000000
13
37.500099
23
10.200000
33
-10.000000
0
3DFACE
8
0
10
37.500099
20
-9.800000
30
7.500000
11
37.500099
21
-9.800000
31
-10.000000
12
37.500099
22
-7.500000
32
-7.500000
13
37.500099
23
-7.500000
33
-7.500000
0
3DFACE
8
0
10
37.500099
20
7.900000
30
-7.500000
11
37.500099
21
-7.500000
31
-7.500000
12
37.500099
22
10.200000
32
-10.000000
13
37.500099
23
10.200000
33
-10.000000
0
3DFACE
8
0
10
-0.866025
20
-9.800000
30
-1.500000
11
-0.866025
21
-7.500000
31
-1.500000
12
-1.732050
22
-7.500000
32
0.000000
13
-1.732050
23
-7.500000
33
0.000000
0
3DFACE
8
0
10
-1.732050
20
-9.800000
30
0.000000
11
-0.866025
21
-9.800000
31
-1.500000
12
-1.732050
22
-7.500000
32
0.000000
13
-1.732050
23
-7.500000
33
0.000000
0
3DFACE
8
0
10
0.866025
20
-9.800000
30
-1.500000
11
0.866025
21
-7.500000
31
-1.500000
12
-0.866025
22
-7.500000
32
-1.500000
13
-0.866025
23
-7.500000
33
-1.500000
0
3DFACE
8
0
10
-0.866025
20
-9.800000
30
-1.500000
11
0.866025
21
-9.800000
31
-1.500000
12
-0.866025
22
-7.500000
32
-1.500000
13
-0.866025
23
-7.500000
33
-1.500000
0
3DFACE
8
0
10
1.732050
20
-7.500000
30
0.000000
11
0.866025
21
-7.500000
31
-1.500000
12
1.732050
22
-9.800000
32
0.000000
13
1.732050
23
-9.800000
33
0.000000
0
3DFACE
8
0
10
1.732050
20
-9.800000
30
0.000000
11
0.866025
21
-7.500000
31
-1.500000
12
0.866025
22
-9.800000
32
-1.500000
13
0.866025
23
-9.800000
33
-1.500000
0
3DFACE
8
0
10
1.732050
20
-7.500000
30
0.000000
11
1.732050
21
-9.800000
31
0.000000
12
0.866025
22
-7.500000
32
1.500000
13
0.866025
23
-7.500000
33
1.500000
0
3DFACE
8
0
10
0.866025
20
-7.500000
30
1.500000
11
1.732050
21
-9.800000
31
0.000000
12
0.866025
22
-9.800000
32
1.500000
13
0.866025
23
-9.800000
33
1.500000
0
3DFACE
8
0
10
0.866025
20
-7.500000
30
1.500000
11
0.866025
21
-9.800000
31
1.500000
12
-0.866025
22
-7.500000
32
1.500000
13
-0.866025
23
-7.500000
33
1.500000
0
3DFACE
8
0
10
-0.866025
20
-7.500000
30
1.500000
11
0.866025
21
-9.800000
31
1.500000
12
-0.866025
22
-9.800000
32
1.500000
13
-0.866025
23
-9.800000
33
1.500000
0
3DFACE
8
0
10
-1.732050
20
-7.500000
30
0.000000
11
-0.866025
21
-7.500000
31
1.500000
12
-0.866025
22
-9.800000
32
1.500000
13
-0.866025
23
-9.800000
33
1.500000
0
3DFACE
8
0
10
-1.732050
20
-9.800000
30
0.000000
11
-1.732050
21
-7.500000
31
0.000000
12
-0.866025
22
-9.800000
32
1.500000
13
-0.866025
23
-9.800000
33
1.500000
0
3DFACE
8
0
10
14.134000
20
-9.800000
30
-1.500000
11
14.134000
21
-7.500000
31
-1.500000
12
13.267900
22
-7.500000
32
0.000000
13
13.267900
23
-7.500000
33
0.000000
0
3DFACE
8
0
10
13.267900
20
-9.800000
30
0.000000
11
14.134000
21
-9.800000
31
-1.500000
12
13.267900
22
-7.500000
32
0.000000
13
13.267900
23
-7.500000
33
0.000000
0
3DFACE
8
0
10
15.866000
20
-9.800000
30
-1.500000
11
15.866000
21
-7.500000
31
-1.500000
12
14.134000
22
-7.500000
32
-1.500000
13
14.134000
23
-7.500000
33
-1.500000
0
3DFACE
8
0
10
14.134000
20
-9.800000
30
-1.500000
11
15.866000
21
-9.800000
31
-1.500000
12
14.134000
22
-7.500000
32
-1.500000
13
14.134000
23
-7.500000
33
-1.500000
0
3DFACE
8
0
10
16.732100
20
-7.500000
30
0.000000
11
15.866000
21
-7.500000
31
-1.500000
12
16.732100
22
-9.800000
32
0.000000
13
16.732100
23
-9.800000
33
0.000000
0
3DFACE
8
0
10
16.732100
20
-9.800000
30
0.000000
11
15.866000
21
-7.500000
31
-1.500000
12
15.866000
22
-9.800000
32
-1.500000
13
15.866000
23
-9.800000
33
-1.500000
0
3DFACE
8
0
10
16.732100
20
-7.500000
30
0.000000
11
16.732100
21
-9.800000
31
0.000000
12
15.866000
22
-7.500000
32
1.500000
13
15.866000
23
-7.500000
33
1.500000
0
3DFACE
8
0
10
15.866000
20
-7.500000
30
1.500000
11
16.732100
21
-9.800000
31
0.000000
12
15.866000
22
-9.800000
32
1.500000
13
15.866000
23
-9.800000
33
1.500000
0
3DFACE
8
0
10
15.866000
20
-7.500000
30
1.500000
11
15.866000
21
-9.800000
31
1.500000
12
14.134000
22
-7.500000
32
1.500000
13
14.134000
23
-7.500000
33
1.500000
0
3DFACE
8
0
10
14.134000
20
-7.500000
30
1.500000
11
15.866000
21
-9.800000
31
1.500000
12
14.134000
22
-9.800000
32
1.500000
13
14.134000
23
-9.800000
33
1.500000
0
3DFACE
8
0
10
13.267900
20
-7.500000
30
0.000000
11
14.134000
21
-7.500000
31
1.500000
12
14.134000
22
-9.800000
32
1.500000
13
14.134000
23
-9.800000
33
1.500000
0
3DFACE
8
0
10
13.267900
20
-9.800000
30
0.000000
11
13.267900
21
-7.500000
31
0.000000
12
14.134000
22
-9.800000
32
1.500000
13
14.134000
23
-9.800000
33
1.500000
0
3DFACE
8
0
10
29.134001
20
-9.800000
30
-1.500000
11
29.134001
21
-7.500000
31
-1.500000
12
28.267900
22
-7.500000
32
0.000000
13
28.267900
23
-7.500000
33
0.000000
0
3DFACE
8
0
10
28.267900
20
-9.800000
30
0.000000
11
29.134001
21
-9.800000
31
-1.500000
12
28.267900
22
-7.500000
32
0.000000
13
28.267900
23
-7.500000
33
0.000000
0
3DFACE
8
0
10
30.865999
20
-9.800000
30
-1.500000
11
30.865999
21
-7.500000
31
-1.500000
12
29.134001
22
-7.500000
32
-1.500000
13
29.134001
23
-7.500000
33
-1.500000
0
3DFACE
8
0
10
29.134001
20
-9.800000
30
-1.500000
11
30.865999
21
-9.800000
31
-1.500000
12
29.134001
22
-7.500000
32
-1.500000
13
29.134001
23
-7.500000
33
-1.500000
0
3DFACE
8
0
10
31.732100
20
-7.500000
30
0.000000
11
30.865999
21
-7.500000
31
-1.500000
12
31.732100
22
-9.800000
32
0.000000
13
31.732100
23
-9.800000
33
0.000000
0
3DFACE
8
0
10
31.732100
20
-9.800000
30
0.000000
11
30.865999
21
-7.500000
31
-1.500000
12
30.865999
22
-9.800000
32
-1.500000
13
30.865999
23
-9.800000
33
-1.500000
0
3DFACE
8
0
10
31.732100
20
-7.500000
30
0.000000
11
31.732100
21
-9.800000
31
0.000000
12
30.865999
22
-7.500000
32
1.500000
13
30.865999
23
-7.500000
33
1.500000
0
3DFACE
8
0
10
30.865999
20
-7.500000
30
1.500000
11
31.732100
21
-9.800000
31
0.000000
12
30.865999
22
-9.800000
32
1.500000
13
30.865999
23
-9.800000
33
1.500000
0
3DFACE
8
0
10
30.865999
20
-7.500000
30
1.500000
11
30.865999
21
-9.800000
31
1.500000
12
29.134001
22
-7.500000
32
1.500000
13
29.134001
23
-7.500000
33
1.500000
0
3DFACE
8
0
10
29.134001
20
-7.500000
30
1.500000
11
30.865999
21
-9.800000
31
1.500000
12
29.134001
22
-9.800000
32
1.500000
13
29.134001
23
-9.800000
33
1.500000
0
3DFACE
8
0
10
28.267900
20
-7.500000
30
0.000000
11
29.134001
21
-7.500000
31
1.500000
12
29.134001
22
-9.800000
32
1.500000
13
29.134001
23
-9.800000
33
1.500000
0
3DFACE
8
0
10
28.267900
20
-9.800000
30
0.000000
11
28.267900
21
-7.500000
31
0.000000
12
29.134001
22
-9.800000
32
1.500000
13
29.134001
23
-9.800000
33
1.500000
0
3DFACE
8
0
10
33.658001
20
10.200000
30
-10.000000
11
33.658001
21
10.200000
31
7.500000
12
37.500099
22
10.200000
32
-10.000000
13
37.500099
23
10.200000
33
-10.000000
0
3DFACE
8
0
10
37.500099
20
10.200000
30
-10.000000
11
33.658001
21
10.200000
31
7.500000
12
37.500099
22
10.200000
32
7.500000
13
37.500099
23
10.200000
33
7.500000
0
3DFACE
8
0
10
13.816900
20
30.041599
30
1.500000
11
6.358700
21
37.500000
31
-10.000000
12
6.358700
22
37.500000
32
7.500000
13
6.358700
23
37.500000
33
7.500000
0
3DFACE
8
0
10
33.658001
20
10.200000
30
7.500000
11
33.658001
21
10.200000
31
-10.000000
12
6.358700
22
37.500000
32
7.500000
13
6.358700
23
37.500000
33
7.500000
0
3DFACE
8
0
10
15.041600
20
28.816900
30
1.500000
11
13.816900
21
30.041599
31
1.500000
12
6.358700
22
37.500000
32
7.500000
13
6.358700
23
37.500000
33
7.500000
0
3DFACE
8
0
10
13.204500
20
30.653999
30
0.000000
11
6.358700
21
37.500000
31
-10.000000
12
13.816900
22
30.041599
32
1.500000
13
13.816900
23
30.041599
33
1.500000
0
3DFACE
8
0
10
13.816900
20
30.041599
30
-1.500000
11
6.358700
21
37.500000
31
-10.000000
12
13.204500
22
30.653999
32
0.000000
13
13.204500
23
30.653999
33
0.000000
0
3DFACE
8
0
10
33.658001
20
10.200000
30
-10.000000
11
6.358700
21
37.500000
31
-10.000000
12
13.816900
22
30.041599
32
-1.500000
13
13.816900
23
30.041599
33
-1.500000
0
3DFACE
8
0
10
15.654000
20
28.204500
30
0.000000
11
15.041600
21
28.816900
31
1.500000
12
33.658001
22
10.200000
32
-10.000000
13
33.658001
23
10.200000
33
-10.000000
0
3DFACE
8
0
10
33.658001
20
10.200000
30
-10.000000
11
13.816900
21
30.041599
31
-1.500000
12
15.041600
22
28.816900
32
-1.500000
13
15.041600
23
28.816900
33
-1.500000
0
3DFACE
8
0
10
33.658001
20
10.200000
30
-10.000000
11
15.041600
21
28.816900
31
1.500000
12
6.358700
22
37.500000
32
7.500000
13
6.358700
23
37.500000
33
7.500000
0
3DFACE
8
0
10
15.041600
20
28.816900
30
-1.500000
11
15.654000
21
28.204500
31
0.000000
12
33.658001
22
10.200000
32
-10.000000
13
33.658001
23
10.200000
33
-10.000000
0
3DFACE
8
0
10
0.376894
20
37.500000
30
-10.000000
11
0.376894
21
37.500000
31
-7.500000
12
6.358700
22
37.500000
32
-10.000000
13
6.358700
23
37.500000
33
-10.000000
0
3DFACE
8
0
10
6.358700
20
37.500000
30
-10.000000
11
0.376894
21
37.500000
31
-7.500000
12
3.106460
22
37.500000
32
-7.500000
13
3.106460
23
37.500000
33
-7.500000
0
3DFACE
8
0
10
6.358700
20
37.500000
30
-10.000000
11
3.106460
21
37.500000
31
-7.500000
12
3.106460
22
37.500000
32
7.500000
13
3.106460
23
37.500000
33
7.500000
0
3DFACE
8
0
10
6.358700
20
37.500000
30
-10.000000
11
3.106460
21
37.500000
31
7.500000
12
6.358700
22
37.500000
32
7.500000
13
6.358700
23
37.500000
33
7.500000
0
3DFACE
8
0
10
-7.499900
20
29.623199
30
-10.000000
11
-7.499900
21
29.623199
31
-7.500000
12
0.376894
22
37.500000
32
-10.000000
13
0.376894
23
37.500000
33
-10.000000
0
3DFACE
8
0
10
0.376894
20
37.500000
30
-10.000000
11
-7.499900
21
29.623199
31
-7.500000
12
0.376894
22
37.500000
32
-7.500000
13
0.376894
23
37.500000
33
-7.500000
0
3DFACE
8
0
10
-0.866025
20
1.500000
30
-10.000000
11
-0.866025
21
1.500000
31
-7.500000
12
-1.732050
22
0.000000
32
-7.500000
13
-1.732050
23
0.000000
33
-7.500000
0
3DFACE
8
0
10
-1.732050
20
0.000000
30
-10.000000
11
-0.866025
21
1.500000
31
-10.000000
12
-1.732050
22
0.000000
32
-7.500000
13
-1.732050
23
0.000000
33
-7.500000
0
3DFACE
8
0
10
-1.732050
20
0.000000
30
-7.500000
11
-0.866025
21
-1.500000
31
-7.500000
12
-0.866025
22
-1.500000
32
-10.000000
13
-0.866025
23
-1.500000
33
-10.000000
0
3DFACE
8
0
10
-1.732050
20
0.000000
30
-10.000000
11
-1.732050
21
0.000000
31
-7.500000
12
-0.866025
22
-1.500000
32
-10.000000
13
-0.866025
23
-1.500000
33
-10.000000
0
3DFACE
8
0
10
0.866025
20
1.500000
30
-10.000000
11
0.866025
21
1.500000
31
-7.500000
12
-0.866025
22
1.500000
32
-7.500000
13
-0.866025
23
1.500000
33
-7.500000
0
3DFACE
8
0
10
-0.866025
20
1.500000
30
-10.000000
11
0.866025
21
1.500000
31
-10.000000
12
-0.866025
22
1.500000
32
-7.500000
13
-0.866025
23
1.500000
33
-7.500000
0
3DFACE
8
0
10
1.732050
20
0.000000
30
-7.500000
11
0.866025
21
1.500000
31
-7.500000
12
1.732050
22
0.000000
32
-10.000000
13
1.732050
23
0.000000
33
-10.000000
0
3DFACE
8
0
10
1.732050
20
0.000000
30
-10.000000
11
0.866025
21
1.500000
31
-7.500000
12
0.866025
22
1.500000
32
-10.000000
13
0.866025
23
1.500000
33
-10.000000
0
3DFACE
8
0
10
1.732050
20
0.000000
30
-7.500000
11
1.732050
21
0.000000
31
-10.000000
12
0.866025
22
-1.500000
32
-7.500000
13
0.866025
23
-1.500000
33
-7.500000
0
3DFACE
8
0
10
0.866025
20
-1.500000
30
-7.500000
11
1.732050
21
0.000000
31
-10.000000
12
0.866025
22
-1.500000
32
-10.000000
13
0.866025
23
-1.500000
33
-10.000000
0
3DFACE
8
0
10
0.866025
20
-1.500000
30
-7.500000
11
0.866025
21
-1.500000
31
-10.000000
12
-0.866025
22
-1.500000
32
-7.500000
13
-0.866025
23
-1.500000
33
-7.500000
0
3DFACE
8
0
10
-0.866025
20
-1.500000
30
-7.500000
11
0.866025
21
-1.500000
31
-10.000000
12
-0.866025
22
-1.500000
32
-10.000000
13
-0.866025
23
-1.500000
33
-10.000000
0
3DFACE
8
0
10
-0.866025
20
31.500000
30
-10.000000
11
-0.866025
21
31.500000
31
-7.500000
12
-1.732050
22
30.000000
32
-7.500000
13
-1.732050
23
30.000000
33
-7.500000
0
3DFACE
8
0
10
-1.732050
20
30.000000
30
-10.000000
11
-0.866025
21
31.500000
31
-10.000000
12
-1.732050
22
30.000000
32
-7.500000
13
-1.732050
23
30.000000
33
-7.500000
0
3DFACE
8
0
10
-1.732050
20
30.000000
30
-7.500000
11
-0.866025
21
28.500000
31
-7.500000
12
-0.866025
22
28.500000
32
-10.000000
13
-0.866025
23
28.500000
33
-10.000000
0
3DFACE
8
0
10
-1.732050
20
30.000000
30
-10.000000
11
-1.732050
21
30.000000
31
-7.500000
12
-0.866025
22
28.500000
32
-10.000000
13
-0.866025
23
28.500000
33
-10.000000
0
3DFACE
8
0
10
0.866025
20
31.500000
30
-10.000000
11
0.866025
21
31.500000
31
-7.500000
12
-0.866025
22
31.500000
32
-7.500000
13
-0.866025
23
31.500000
33
-7.500000
0
3DFACE
8
0
10
-0.866025
20
31.500000
30
-10.000000
11
0.866025
21
31.500000
31
-10.000000
12
-0.866025
22
31.500000
32
-7.500000
13
-0.866025
23
31.500000
33
-7.500000
0
3DFACE
8
0
10
1.732050
20
30.000000
30
-7.500000
11
0.866025
21
31.500000
31
-7.500000
12
1.732050
22
30.000000
32
-10.000000
13
1.732050
23
30.000000
33
-10.000000
0
3DFACE
8
0
10
1.732050
20
30.000000
30
-10.000000
11
0.866025
21
31.500000
31
-7.500000
12
0.866025
22
31.500000
32
-10.000000
13
0.866025
23
31.500000
33
-10.000000
0
3DFACE
8
0
10
1.732050
20
30.000000
30
-7.500000
11
1.732050
21
30.000000
31
-10.000000
12
0.866025
22
28.500000
32
-7.500000
13
0.866025
23
28.500000
33
-7.500000
0
3DFACE
8
0
10
0.866025
20
28.500000
30
-7.500000
11
1.732050
21
30.000000
31
-10.000000
12
0.866025
22
28.500000
32
-10.000000
13
0.866025
23
28.500000
33
-10.000000
0
3DFACE
8
0
10
0.866025
20
28.500000
30
-7.500000
11
0.866025
21
28.500000
31
-10.000000
12
-0.866025
22
28.500000
32
-7.500000
13
-0.866025
23
28.500000
33
-7.500000
0
3DFACE
8
0
10
-0.866025
20
28.500000
30
-7.500000
11
0.866025
21
28.500000
31
-10.000000
12
-0.866025
22
28.500000
32
-10.000000
13
-0.866025
23
28.500000
33
-10.000000
0
3DFACE
8
0
10
14.134000
20
1.500000
30
-10.000000
11
14.134000
21
1.500000
31
-7.500000
12
13.267900
22
0.000000
32
-7.500000
13
13.267900
23
0.000000
33
-7.500000
0
3DFACE
8
0
10
13.267900
20
0.000000
30
-10.000000
11
14.134000
21
1.500000
31
-10.000000
12
13.267900
22
0.000000
32
-7.500000
13
13.267900
23
0.000000
33
-7.500000
0
3DFACE
8
0
10
13.267900
20
0.000000
30
-7.500000
11
14.134000
21
-1.500000
31
-7.500000
12
14.134000
22
-1.500000
32
-10.000000
13
14.134000
23
-1.500000
33
-10.000000
0
3DFACE
8
0
10
13.267900
20
0.000000
30
-10.000000
11
13.267900
21
0.000000
31
-7.500000
12
14.134000
22
-1.500000
32
-10.000000
13
14.134000
23
-1.500000
33
-10.000000
0
3DFACE
8
0
10
15.866000
20
1.500000
30
-10.000000
11
15.866000
21
1.500000
31
-7.500000
12
14.134000
22
1.500000
32
-7.500000
13
14.134000
23
1.500000
33
-7.500000
0
3DFACE
8
0
10
14.134000
20
1.500000
30
-10.000000
11
15.866000
21
1.500000
31
-10.000000
12
14.134000
22
1.500000
32
-7.500000
13
14.134000
23
1.500000
33
-7.500000
0
3DFACE
8
0
10
16.732100
20
0.000000
30
-7.500000
11
15.866000
21
1.500000
31
-7.500000
12
16.732100
22
0.000000
32
-10.000000
13
16.732100
23
0.000000
33
-10.000000
0
3DFACE
8
0
10
16.732100
20
0.000000
30
-10.000000
11
15.866000
21
1.500000
31
-7.500000
12
15.866000
22
1.500000
32
-10.000000
13
15.866000
23
1.500000
33
-10.000000
0
3DFACE
8
0
10
16.732100
20
0.000000
30
-7.500000
11
16.732100
21
0.000000
31
-10.000000
12
15.866000
22
-1.500000
32
-7.500000
13
15.866000
23
-1.500000
33
-7.500000
0
3DFACE
8
0
10
15.866000
20
-1.500000
30
-7.500000
11
16.732100
21
0.000000
31
-10.000000
12
15.866000
22
-1.500000
32
-10.000000
13
15.866000
23
-1.500000
33
-10.000000
0
3DFACE
8
0
10
15.866000
20
-1.500000
30
-7.500000
11
15.866000
21
-1.500000
31
-10.000000
12
14.134000
22
-1.500000
32
-7.500000
13
14.134000
23
-1.500000
33
-7.500000
0
3DFACE
8
0
10
14.134000
20
-1.500000
30
-7.500000
11
15.866000
21
-1.500000
31
-10.000000
12
14.134000
22
-1.500000
32
-10.000000
13
14.134000
23
-1.500000
33
-10.000000
0
3DFACE
8
0
10
14.134000
20
16.500000
30
-10.000000
11
14.134000
21
16.500000
31
-7.500000
12
13.267900
22
15.000000
32
-7.500000
13
13.267900
23
15.000000
33
-7.500000
0
3DFACE
8
0
10
13.267900
20
15.000000
30
-10.000000
11
14.134000
21
16.500000
31
-10.000000
12
13.267900
22
15.000000
32
-7.500000
13
13.267900
23
15.000000
33
-7.500000
0
3DFACE
8
0
10
13.267900
20
15.000000
30
-7.500000
11
14.134000
21
13.500000
31
-7.500000
12
14.134000
22
13.500000
32
-10.000000
13
14.134000
23
13.500000
33
-10.000000
0
3DFACE
8
0
10
13.267900
20
15.000000
30
-10.000000
11
13.267900
21
15.000000
31
-7.500000
12
14.134000
22
13.500000
32
-10.000000
13
14.134000
23
13.500000
33
-10.000000
0
3DFACE
8
0
10
15.866000
20
16.500000
30
-10.000000
11
15.866000
21
16.500000
31
-7.500000
12
14.134000
22
16.500000
32
-7.500000
13
14.134000
23
16.500000
33
-7.500000
0
3DFACE
8
0
10
14.134000
20
16.500000
30
-10.000000
11
15.866000
21
16.500000
31
-10.000000
12
14.134000
22
16.500000
32
-7.500000
13
14.134000
23
16.500000
33
-7.500000
0
3DFACE
8
0
10
16.732100
20
15.000000
30
-7.500000
11
15.866000
21
16.500000
31
-7.500000
12
16.732100
22
15.000000
32
-10.000000
13
16.732100
23
15.000000
33
-10.000000
0
3DFACE
8
0
10
16.732100
20
15.000000
30
-10.000000
11
15.866000
21
16.500000
31
-7.500000
12
15.866000
22
16.500000
32
-10.000000
13
15.866000
23
16.500000
33
-10.000000
0
3DFACE
8
0
10
16.732100
20
15.000000
30
-7.500000
11
16.732100
21
15.000000
31
-10.000000
12
15.866000
22
13.500000
32
-7.500000
13
15.866000
23
13.500000
33
-7.500000
0
3DFACE
8
0
10
15.866000
20
13.500000
30
-7.500000
11
16.732100
21
15.000000
31
-10.000000
12
15.866000
22
13.500000
32
-10.000000
13
15.866000
23
13.500000
33
-10.000000
0
3DFACE
8
0
10
15.866000
20
13.500000
30
-7.500000
11
15.866000
21
13.500000
31
-10.000000
12
14.134000
22
13.500000
32
-7.500000
13
14.134000
23
13.500000
33
-7.500000
0
3DFACE
8
0
10
14.134000
20
13.500000
30
-7.500000
11
15.866000
21
13.500000
31
-10.000000
12
14.134000
22
13.500000
32
-10.000000
13
14.134000
23
13.500000
33
-10.000000
0
3DFACE
8
0
10
29.134001
20
1.500000
30
-10.000000
11
29.134001
21
1.500000
31
-7.500000
12
28.267900
22
0.000000
32
-7.500000
13
28.267900
23
0.000000
33
-7.500000
0
3DFACE
8
0
10
28.267900
20
0.000000
30
-10.000000
11
29.134001
21
1.500000
31
-10.000000
12
28.267900
22
0.000000
32
-7.500000
13
28.267900
23
0.000000
33
-7.500000
0
3DFACE
8
0
10
28.267900
20
0.000000
30
-7.500000
11
29.134001
21
-1.500000
31
-7.500000
12
29.134001
22
-1.500000
32
-10.000000
13
29.134001
23
-1.500000
33
-10.000000
0
3DFACE
8
0
10
28.267900
20
0.000000
30
-10.000000
11
28.267900
21
0.000000
31
-7.500000
12
29.134001
22
-1.500000
32
-10.000000
13
29.134001
23
-1.500000
33
-10.000000
0
3DFACE
8
0
10
30.865999
20
1.500000
30
-10.000000
11
30.865999
21
1.500000
31
-7.500000
12
29.134001
22
1.500000
32
-7.500000
13
29.134001
23
1.500000
33
-7.500000
0
3DFACE
8
0
10
29.134001
20
1.500000
30
-10.000000
11
30.865999
21
1.500000
31
-10.000000
12
29.134001
22
1.500000
32
-7.500000
13
29.134001
23
1.500000
33
-7.500000
0
3DFACE
8
0
10
31.732100
20
0.000000
30
-7.500000
11
30.865999
21
1.500000
31
-7.500000
12
31.732100
22
0.000000
32
-10.000000
13
31.732100
23
0.000000
33
-10.000000
0
3DFACE
8
0
10
31.732100
20
0.000000
30
-10.000000
11
30.865999
21
1.500000
31
-7.500000
12
30.865999
22
1.500000
32
-10.000000
13
30.865999
23
1.500000
33
-10.000000
0
3DFACE
8
0
10
31.732100
20
0.000000
30
-7.500000
11
31.732100
21
0.000000
31
-10.000000
12
30.865999
22
-1.500000
32
-7.500000
13
30.865999
23
-1.500000
33
-7.500000
0
3DFACE
8
0
10
30.865999
20
-1.500000
30
-7.500000
11
31.732100
21
0.000000
31
-10.000000
12
30.865999
22
-1.500000
32
-10.000000
13
30.865999
23
-1.500000
33
-10.000000
0
3DFACE
8
0
10
30.865999
20
-1.500000
30
-7.500000
11
30.865999
21
-1.500000
31
-10.000000
12
29.134001
22
-1.500000
32
-7.500000
13
29.134001
23
-1.500000
33
-7.500000
0
3DFACE
8
0
10
29.134001
20
-1.500000
30
-7.500000
11
30.865999
21
-1.500000
31
-10.000000
12
29.134001
22
-1.500000
32
-10.000000
13
29.134001
23
-1.500000
33
-10.000000
0
3DFACE
8
0
10
13.267900
20
15.000000
30
-7.500000
11
3.106460
21
37.500000
31
-7.500000
12
12.294000
22
7.900000
32
-7.500000
13
12.294000
23
7.900000
33
-7.500000
0
3DFACE
8
0
10
29.134001
20
1.500000
30
-7.500000
11
37.500099
21
7.900000
31
-7.500000
12
12.294000
22
7.900000
32
-7.500000
13
12.294000
23
7.900000
33
-7.500000
0
3DFACE
8
0
10
10.928000
20
7.900000
30
-7.500000
11
37.500099
21
-7.500000
31
-7.500000
12
12.294000
22
7.900000
32
-7.500000
13
12.294000
23
7.900000
33
-7.500000
0
3DFACE
8
0
10
3.106460
20
37.500000
30
-7.500000
11
0.376894
21
37.500000
31
-7.500000
12
12.294000
22
7.900000
32
-7.500000
13
12.294000
23
7.900000
33
-7.500000
0
3DFACE
8
0
10
-0.866025
20
28.500000
30
-7.500000
11
-7.499900
21
29.623199
31
-7.500000
12
12.294000
22
7.900000
32
-7.500000
13
12.294000
23
7.900000
33
-7.500000
0
3DFACE
8
0
10
-7.499900
20
29.623199
30
-7.500000
11
-7.499900
21
26.327499
31
-7.500000
12
12.294000
22
7.900000
32
-7.500000
13
12.294000
23
7.900000
33
-7.500000
0
3DFACE
8
0
10
-7.499900
20
26.327499
30
-7.500000
11
10.928000
21
7.900000
31
-7.500000
12
12.294000
22
7.900000
32
-7.500000
13
12.294000
23
7.900000
33
-7.500000
0
3DFACE
8
0
10
15.866000
20
1.500000
30
-7.500000
11
16.732100
21
0.000000
31
-7.500000
12
37.500099
22
-7.500000
32
-7.500000
13
37.500099
23
-7.500000
33
-7.500000
0
3DFACE
8
0
10
0.866025
20
-1.500000
30
-7.500000
11
-7.499900
21
-7.500000
31
-7.500000
12
37.500099
22
-7.500000
32
-7.500000
13
37.500099
23
-7.500000
33
-7.500000
0
3DFACE
8
0
10
1.732050
20
30.000000
30
-7.500000
11
0.866025
21
28.500000
31
-7.500000
12
12.294000
22
7.900000
32
-7.500000
13
12.294000
23
7.900000
33
-7.500000
0
3DFACE
8
0
10
-7.499900
20
7.900000
30
-7.500000
11
-7.499900
21
-7.500000
31
-7.500000
12
-1.732050
22
0.000000
32
-7.500000
13
-1.732050
23
0.000000
33
-7.500000
0
3DFACE
8
0
10
1.732050
20
0.000000
30
-7.500000
11
0.866025
21
-1.500000
31
-7.500000
12
37.500099
22
-7.500000
32
-7.500000
13
37.500099
23
-7.500000
33
-7.500000
0
3DFACE
8
0
10
-7.499900
20
7.900000
30
-7.500000
11
-1.732050
21
0.000000
31
-7.500000
12
-0.866025
22
1.500000
32
-7.500000
13
-0.866025
23
1.500000
33
-7.500000
0
3DFACE
8
0
10
14.134000
20
-1.500000
30
-7.500000
11
0.866025
21
1.500000
31
-7.500000
12
37.500099
22
-7.500000
32
-7.500000
13
37.500099
23
-7.500000
33
-7.500000
0
3DFACE
8
0
10
-7.499900
20
7.900000
30
-7.500000
11
-0.866025
21
1.500000
31
-7.500000
12
0.866025
22
1.500000
32
-7.500000
13
0.866025
23
1.500000
33
-7.500000
0
3DFACE
8
0
10
-0.866025
20
-1.500000
30
-7.500000
11
-7.499900
21
-7.500000
31
-7.500000
12
0.866025
22
-1.500000
32
-7.500000
13
0.866025
23
-1.500000
33
-7.500000
0
3DFACE
8
0
10
-1.732050
20
0.000000
30
-7.500000
11
-7.499900
21
-7.500000
31
-7.500000
12
-0.866025
22
-1.500000
32
-7.500000
13
-0.866025
23
-1.500000
33
-7.500000
0
3DFACE
8
0
10
14.134000
20
-1.500000
30
-7.500000
11
13.267900
21
0.000000
31
-7.500000
12
0.866025
22
1.500000
32
-7.500000
13
0.866025
23
1.500000
33
-7.500000
0
3DFACE
8
0
10
0.376894
20
37.500000
30
-7.500000
11
-7.499900
21
29.623199
31
-7.500000
12
-1.732050
22
30.000000
32
-7.500000
13
-1.732050
23
30.000000
33
-7.500000
0
3DFACE
8
0
10
13.267900
20
0.000000
30
-7.500000
11
14.134000
21
1.500000
31
-7.500000
12
-7.499900
22
7.900000
32
-7.500000
13
-7.499900
23
7.900000
33
-7.500000
0
3DFACE
8
0
10
0.376894
20
37.500000
30
-7.500000
11
-1.732050
21
30.000000
31
-7.500000
12
-0.866025
22
31.500000
32
-7.500000
13
-0.866025
23
31.500000
33
-7.500000
0
3DFACE
8
0
10
0.376894
20
37.500000
30
-7.500000
11
-0.866025
21
31.500000
31
-7.500000
12
0.866025
22
31.500000
32
-7.500000
13
0.866025
23
31.500000
33
-7.500000
0
3DFACE
8
0
10
0.376894
20
37.500000
30
-7.500000
11
1.732050
21
30.000000
31
-7.500000
12
12.294000
22
7.900000
32
-7.500000
13
12.294000
23
7.900000
33
-7.500000
0
3DFACE
8
0
10
0.376894
20
37.500000
30
-7.500000
11
0.866025
21
31.500000
31
-7.500000
12
1.732050
22
30.000000
32
-7.500000
13
1.732050
23
30.000000
33
-7.500000
0
3DFACE
8
0
10
-1.732050
20
30.000000
30
-7.500000
11
-7.499900
21
29.623199
31
-7.500000
12
-0.866025
22
28.500000
32
-7.500000
13
-0.866025
23
28.500000
33
-7.500000
0
3DFACE
8
0
10
-7.499900
20
7.900000
30
-7.500000
11
0.866025
21
1.500000
31
-7.500000
12
13.267900
22
0.000000
32
-7.500000
13
13.267900
23
0.000000
33
-7.500000
0
3DFACE
8
0
10
16.732100
20
0.000000
30
-7.500000
11
15.866000
21
-1.500000
31
-7.500000
12
37.500099
22
-7.500000
32
-7.500000
13
37.500099
23
-7.500000
33
-7.500000
0
3DFACE
8
0
10
10.928000
20
7.900000
30
-7.500000
11
-7.499900
21
7.900000
31
-7.500000
12
14.134000
22
1.500000
32
-7.500000
13
14.134000
23
1.500000
33
-7.500000
0
3DFACE
8
0
10
10.928000
20
7.900000
30
-7.500000
11
15.866000
21
1.500000
31
-7.500000
12
37.500099
22
-7.500000
32
-7.500000
13
37.500099
23
-7.500000
33
-7.500000
0
3DFACE
8
0
10
10.928000
20
7.900000
30
-7.500000
11
14.134000
21
1.500000
31
-7.500000
12
15.866000
22
1.500000
32
-7.500000
13
15.866000
23
1.500000
33
-7.500000
0
3DFACE
8
0
10
15.866000
20
16.500000
30
-7.500000
11
16.732100
21
15.000000
31
-7.500000
12
22.500000
22
18.106001
32
-7.500000
13
22.500000
23
18.106001
33
-7.500000
0
3DFACE
8
0
10
15.866000
20
-1.500000
30
-7.500000
11
14.134000
21
-1.500000
31
-7.500000
12
37.500099
22
-7.500000
32
-7.500000
13
37.500099
23
-7.500000
33
-7.500000
0
3DFACE
8
0
10
14.134000
20
13.500000
30
-7.500000
11
13.267900
21
15.000000
31
-7.500000
12
12.294000
22
7.900000
32
-7.500000
13
12.294000
23
7.900000
33
-7.500000
0
3DFACE
8
0
10
14.134000
20
16.500000
30
-7.500000
11
3.106460
21
37.500000
31
-7.500000
12
13.267900
22
15.000000
32
-7.500000
13
13.267900
23
15.000000
33
-7.500000
0
3DFACE
8
0
10
22.500000
20
18.106001
30
-7.500000
11
3.106460
21
37.500000
31
-7.500000
12
14.134000
22
16.500000
32
-7.500000
13
14.134000
23
16.500000
33
-7.500000
0
3DFACE
8
0
10
15.866000
20
13.500000
30
-7.500000
11
14.134000
21
13.500000
31
-7.500000
12
12.294000
22
7.900000
32
-7.500000
13
12.294000
23
7.900000
33
-7.500000
0
3DFACE
8
0
10
22.500000
20
18.106001
30
-7.500000
11
14.134000
21
16.500000
31
-7.500000
12
15.866000
22
16.500000
32
-7.500000
13
15.866000
23
16.500000
33
-7.500000
0
3DFACE
8
0
10
29.134001
20
1.500000
30
-7.500000
11
30.865999
21
1.500000
31
-7.500000
12
37.500099
22
7.900000
32
-7.500000
13
37.500099
23
7.900000
33
-7.500000
0
3DFACE
8
0
10
22.500000
20
18.106001
30
-7.500000
11
15.866000
21
13.500000
31
-7.500000
12
12.294000
22
7.900000
32
-7.500000
13
12.294000
23
7.900000
33
-7.500000
0
3DFACE
8
0
10
22.500000
20
18.106001
30
-7.500000
11
16.732100
21
15.000000
31
-7.500000
12
15.866000
22
13.500000
32
-7.500000
13
15.866000
23
13.500000
33
-7.500000
0
3DFACE
8
0
10
29.134001
20
-1.500000
30
-7.500000
11
28.267900
21
0.000000
31
-7.500000
12
12.294000
22
7.900000
32
-7.500000
13
12.294000
23
7.900000
33
-7.500000
0
3DFACE
8
0
10
28.267900
20
0.000000
30
-7.500000
11
29.134001
21
1.500000
31
-7.500000
12
12.294000
22
7.900000
32
-7.500000
13
12.294000
23
7.900000
33
-7.500000
0
3DFACE
8
0
10
30.865999
20
-1.500000
30
-7.500000
11
29.134001
21
-1.500000
31
-7.500000
12
37.500099
22
-7.500000
32
-7.500000
13
37.500099
23
-7.500000
33
-7.500000
0
3DFACE
8
0
10
37.500099
20
-7.500000
30
-7.500000
11
37.500099
21
7.900000
31
-7.500000
12
30.865999
22
1.500000
32
-7.500000
13
30.865999
23
1.500000
33
-7.500000
0
3DFACE
8
0
10
37.500099
20
-7.500000
30
-7.500000
11
30.865999
21
1.500000
31
-7.500000
12
31.732100
22
0.000000
32
-7.500000
13
31.732100
23
0.000000
33
-7.500000
0
3DFACE
8
0
10
37.500099
20
-7.500000
30
-7.500000
11
31.732100
21
0.000000
31
-7.500000
12
30.865999
22
-1.500000
32
-7.500000
13
30.865999
23
-1.500000
33
-7.500000
0
3DFACE
8
0
10
37.500099
20
-7.500000
30
-7.500000
11
29.134001
21
-1.500000
31
-7.500000
12
12.294000
22
7.900000
32
-7.500000
13
12.294000
23
7.900000
33
-7.500000
0
3DFACE
8
0
10
0.866025
20
1.500000
30
-7.500000
11
1.732050
21
0.000000
31
-7.500000
12
37.500099
22
-7.500000
32
-7.500000
13
37.500099
23
-7.500000
33
-7.500000
0
3DFACE
8
0
10
0.866025
20
28.500000
30
-7.500000
11
-0.866025
21
28.500000
31
-7.500000
12
12.294000
22
7.900000
32
-7.500000
13
12.294000
23
7.900000
33
-7.500000
0
3DFACE
8
0
10
10.928000
20
7.900000
30
7.500000
11
10.928000
21
7.900000
31
-7.500000
12
-7.499900
22
26.327499
32
7.500000
13
-7.499900
23
26.327499
33
7.500000
0
3DFACE
8
0
10
-7.499900
20
26.327499
30
7.500000
11
10.928000
21
7.900000
31
-7.500000
12
-7.499900
22
26.327499
32
-7.500000
13
-7.499900
23
26.327499
33
-7.500000
0
3DFACE
8
0
10
-7.499900
20
26.327499
30
7.500000
11
-7.499900
21
7.900000
31
7.500000
12
10.928000
22
7.900000
32
7.500000
13
10.928000
23
7.900000
33
7.500000
0
3DFACE
8
0
10
10.928000
20
7.900000
30
-7.500000
11
10.928000
21
7.900000
31
7.500000
12
-7.499900
22
7.900000
32
7.500000
13
-7.499900
23
7.900000
33
7.500000
0
3DFACE
8
0
10
-7.499900
20
7.900000
30
-7.500000
11
10.928000
21
7.900000
31
-7.500000
12
-7.499900
22
7.900000
32
7.500000
13
-7.499900
23
7.900000
33
7.500000
0
3DFACE
8
0
10
13.267900
20
-7.500000
30
0.000000
11
-7.499900
21
-7.500000
31
7.500000
12
14.134000
22
-7.500000
32
1.500000
13
14.134000
23
-7.500000
33
1.500000
0
3DFACE
8
0
10
-0.866025
20
-7.500000
30
-1.500000
11
37.500099
21
-7.500000
31
-7.500000
12
-7.499900
22
-7.500000
32
-7.500000
13
-7.499900
23
-7.500000
33
-7.500000
0
3DFACE
8
0
10
0.866025
20
-7.500000
30
-1.500000
11
37.500099
21
-7.500000
31
-7.500000
12
-0.866025
22
-7.500000
32
-1.500000
13
-0.866025
23
-7.500000
33
-1.500000
0
3DFACE
8
0
10
-7.499900
20
-7.500000
30
7.500000
11
-0.866025
21
-7.500000
31
-1.500000
12
-7.499900
22
-7.500000
32
-7.500000
13
-7.499900
23
-7.500000
33
-7.500000
0
3DFACE
8
0
10
1.732050
20
-7.500000
30
0.000000
11
37.500099
21
-7.500000
31
-7.500000
12
0.866025
22
-7.500000
32
-1.500000
13
0.866025
23
-7.500000
33
-1.500000
0
3DFACE
8
0
10
0.866025
20
-7.500000
30
1.500000
11
37.500099
21
-7.500000
31
-7.500000
12
1.732050
22
-7.500000
32
0.000000
13
1.732050
23
-7.500000
33
0.000000
0
3DFACE
8
0
10
14.134000
20
-7.500000
30
-1.500000
11
37.500099
21
-7.500000
31
-7.500000
12
0.866025
22
-7.500000
32
1.500000
13
0.866025
23
-7.500000
33
1.500000
0
3DFACE
8
0
10
-1.732050
20
-7.500000
30
0.000000
11
-7.499900
21
-7.500000
31
7.500000
12
-0.866025
22
-7.500000
32
1.500000
13
-0.866025
23
-7.500000
33
1.500000
0
3DFACE
8
0
10
14.134000
20
-7.500000
30
-1.500000
11
-7.499900
21
-7.500000
31
7.500000
12
13.267900
22
-7.500000
32
0.000000
13
13.267900
23
-7.500000
33
0.000000
0
3DFACE
8
0
10
-7.499900
20
-7.500000
30
7.500000
11
-1.732050
21
-7.500000
31
0.000000
12
-0.866025
22
-7.500000
32
-1.500000
13
-0.866025
23
-7.500000
33
-1.500000
0
3DFACE
8
0
10
15.866000
20
-7.500000
30
-1.500000
11
37.500099
21
-7.500000
31
-7.500000
12
14.134000
22
-7.500000
32
-1.500000
13
14.134000
23
-7.500000
33
-1.500000
0
3DFACE
8
0
10
-7.499900
20
-7.500000
30
7.500000
11
14.134000
21
-7.500000
31
-1.500000
12
0.866025
22
-7.500000
32
1.500000
13
0.866025
23
-7.500000
33
1.500000
0
3DFACE
8
0
10
16.732100
20
-7.500000
30
0.000000
11
37.500099
21
-7.500000
31
-7.500000
12
15.866000
22
-7.500000
32
-1.500000
13
15.866000
23
-7.500000
33
-1.500000
0
3DFACE
8
0
10
29.134001
20
-7.500000
30
-1.500000
11
37.500099
21
-7.500000
31
-7.500000
12
16.732100
22
-7.500000
32
0.000000
13
16.732100
23
-7.500000
33
0.000000
0
3DFACE
8
0
10
37.500099
20
-7.500000
30
7.500000
11
16.732100
21
-7.500000
31
0.000000
12
15.866000
22
-7.500000
32
1.500000
13
15.866000
23
-7.500000
33
1.500000
0
3DFACE
8
0
10
37.500099
20
-7.500000
30
7.500000
11
15.866000
21
-7.500000
31
1.500000
12
-7.499900
22
-7.500000
32
7.500000
13
-7.499900
23
-7.500000
33
7.500000
0
3DFACE
8
0
10
15.866000
20
-7.500000
30
1.500000
11
14.134000
21
-7.500000
31
1.500000
12
-7.499900
22
-7.500000
32
7.500000
13
-7.499900
23
-7.500000
33
7.500000
0
3DFACE
8
0
10
30.865999
20
-7.500000
30
1.500000
11
37.500099
21
-7.500000
31
7.500000
12
31.732100
22
-7.500000
32
0.000000
13
31.732100
23
-7.500000
33
0.000000
0
3DFACE
8
0
10
30.865999
20
-7.500000
30
-1.500000
11
37.500099
21
-7.500000
31
-7.500000
12
29.134001
22
-7.500000
32
-1.500000
13
29.134001
23
-7.500000
33
-1.500000
0
3DFACE
8
0
10
28.267900
20
-7.500000
30
0.000000
11
29.134001
21
-7.500000
31
-1.500000
12
16.732100
22
-7.500000
32
0.000000
13
16.732100
23
-7.500000
33
0.000000
0
3DFACE
8
0
10
37.500099
20
-7.500000
30
7.500000
11
37.500099
21
-7.500000
31
-7.500000
12
30.865999
22
-7.500000
32
-1.500000
13
30.865999
23
-7.500000
33
-1.500000
0
3DFACE
8
0
10
37.500099
20
-7.500000
30
7.500000
11
30.865999
21
-7.500000
31
-1.500000
12
31.732100
22
-7.500000
32
0.000000
13
31.732100
23
-7.500000
33
0.000000
0
3DFACE
8
0
10
28.267900
20
-7.500000
30
0.000000
11
16.732100
21
-7.500000
31
0.000000
12
29.134001
22
-7.500000
32
1.500000
13
29.134001
23
-7.500000
33
1.500000
0
3DFACE
8
0
10
37.500099
20
-7.500000
30
7.500000
11
30.865999
21
-7.500000
31
1.500000
12
29.134001
22
-7.500000
32
1.500000
13
29.134001
23
-7.500000
33
1.500000
0
3DFACE
8
0
10
37.500099
20
-7.500000
30
7.500000
11
29.134001
21
-7.500000
31
1.500000
12
16.732100
22
-7.500000
32
0.000000
13
16.732100
23
-7.500000
33
0.000000
0
3DFACE
8
0
10
-0.866025
20
-7.500000
30
1.500000
11
-7.499900
21
-7.500000
31
7.500000
12
0.866025
22
-7.500000
32
1.500000
13
0.866025
23
-7.500000
33
1.500000
0
3DFACE
8
0
10
37.500099
20
7.900000
30
-7.500000
11
37.500099
21
7.900000
31
7.500000
12
12.294000
22
7.900000
32
7.500000
13
12.294000
23
7.900000
33
7.500000
0
3DFACE
8
0
10
12.294000
20
7.900000
30
-7.500000
11
37.500099
21
7.900000
31
-7.500000
12
12.294000
22
7.900000
32
7.500000
13
12.294000
23
7.900000
33
7.500000
0
3DFACE
8
0
10
6.358700
20
37.500000
30
7.500000
11
3.106460
21
37.500000
31
7.500000
12
22.500000
22
18.106001
32
7.500000
13
22.500000
23
18.106001
33
7.500000
0
3DFACE
8
0
10
37.500099
20
10.200000
30
7.500000
11
33.658001
21
10.200000
31
7.500000
12
37.500099
22
7.900000
32
7.500000
13
37.500099
23
7.900000
33
7.500000
0
3DFACE
8
0
10
12.294000
20
7.900000
30
7.500000
11
33.658001
21
10.200000
31
7.500000
12
22.500000
22
18.106001
32
7.500000
13
22.500000
23
18.106001
33
7.500000
0
3DFACE
8
0
10
12.294000
20
7.900000
30
7.500000
11
37.500099
21
7.900000
31
7.500000
12
33.658001
22
10.200000
32
7.500000
13
33.658001
23
10.200000
33
7.500000
0
3DFACE
8
0
10
33.658001
20
10.200000
30
7.500000
11
6.358700
21
37.500000
31
7.500000
12
22.500000
22
18.106001
32
7.500000
13
22.500000
23
18.106001
33
7.500000
0
3DFACE
8
0
10
13.204500
20
30.653999
30
0.000000
11
13.816900
21
30.041599
31
1.500000
12
12.190700
22
28.415501
32
1.500000
13
12.190700
23
28.415501
33
1.500000
0
3DFACE
8
0
10
11.578400
20
29.027901
30
0.000000
11
13.204500
21
30.653999
31
0.000000
12
12.190700
22
28.415501
32
1.500000
13
12.190700
23
28.415501
33
1.500000
0
3DFACE
8
0
10
15.041600
20
28.816900
30
1.500000
11
13.415500
21
27.190701
31
1.500000
12
13.816900
22
30.041599
32
1.500000
13
13.816900
23
30.041599
33
1.500000
0
3DFACE
8
0
10
13.816900
20
30.041599
30
1.500000
11
13.415500
21
27.190701
31
1.500000
12
12.190700
22
28.415501
32
1.500000
13
12.190700
23
28.415501
33
1.500000
0
3DFACE
8
0
10
15.654000
20
28.204500
30
0.000000
11
14.027800
21
26.578400
31
0.000000
12
15.041600
22
28.816900
32
1.500000
13
15.041600
23
28.816900
33
1.500000
0
3DFACE
8
0
10
15.041600
20
28.816900
30
1.500000
11
14.027800
21
26.578400
31
0.000000
12
13.415500
22
27.190701
32
1.500000
13
13.415500
23
27.190701
33
1.500000
0
3DFACE
8
0
10
15.654000
20
28.204500
30
0.000000
11
15.041600
21
28.816900
31
-1.500000
12
14.027800
22
26.578400
32
0.000000
13
14.027800
23
26.578400
33
0.000000
0
3DFACE
8
0
10
14.027800
20
26.578400
30
0.000000
11
15.041600
21
28.816900
31
-1.500000
12
13.415500
22
27.190701
32
-1.500000
13
13.415500
23
27.190701
33
-1.500000
0
3DFACE
8
0
10
13.415500
20
27.190701
30
-1.500000
11
15.041600
21
28.816900
31
-1.500000
12
13.816900
22
30.041599
32
-1.500000
13
13.816900
23
30.041599
33
-1.500000
0
3DFACE
8
0
10
12.190700
20
28.415501
30
-1.500000
11
13.415500
21
27.190701
31
-1.500000
12
13.816900
22
30.041599
32
-1.500000
13
13.816900
23
30.041599
33
-1.500000
0
3DFACE
8
0
10
12.190700
20
28.415501
30
-1.500000
11
13.816900
21
30.041599
31
-1.500000
12
13.204500
22
30.653999
32
0.000000
13
13.204500
23
30.653999
33
0.000000
0
3DFACE
8
0
10
11.578400
20
29.027901
30
0.000000
11
12.190700
21
28.415501
31
-1.500000
12
13.204500
22
30.653999
32
0.000000
13
13.204500
23
30.653999
33
0.000000
0
3DFACE
8
0
10
13.415500
20
27.190701
30
-1.500000
11
22.500000
21
18.106001
31
-7.500000
12
14.027800
22
26.578400
32
0.000000
13
14.027800
23
26.578400
33
0.000000
0
3DFACE
8
0
10
12.190700
20
28.415501
30
-1.500000
11
3.106460
21
37.500000
31
7.500000
12
3.106460
22
37.500000
32
-7.500000
13
3.106460
23
37.500000
33
-7.500000
0
3DFACE
8
0
10
22.500000
20
18.106001
30
7.500000
11
3.106460
21
37.500000
31
7.500000
12
12.190700
22
28.415501
32
1.500000
13
12.190700
23
28.415501
33
1.500000
0
3DFACE
8
0
10
22.500000
20
18.106001
30
7.500000
11
12.190700
21
28.415501
31
1.500000
12
13.415500
22
27.190701
32
1.500000
13
13.415500
23
27.190701
33
1.500000
0
3DFACE
8
0
10
22.500000
20
18.106001
30
7.500000
11
13.415500
21
27.190701
31
1.500000
12
22.500000
22
18.106001
32
-7.500000
13
22.500000
23
18.106001
33
-7.500000
0
3DFACE
8
0
10
13.415500
20
27.190701
30
1.500000
11
14.027800
21
26.578400
31
0.000000
12
22.500000
22
18.106001
32
-7.500000
13
22.500000
23
18.106001
33
-7.500000
0
3DFACE
8
0
10
22.500000
20
18.106001
30
-7.500000
11
13.415500
21
27.190701
31
-1.500000
12
3.106460
22
37.500000
32
-7.500000
13
3.106460
23
37.500000
33
-7.500000
0
3DFACE
8
0
10
11.578400
20
29.027901
30
0.000000
11
3.106460
21
37.500000
31
7.500000
12
12.190700
22
28.415501
32
-1.500000
13
12.190700
23
28.415501
33
-1.500000
0
3DFACE
8
0
10
13.415500
20
27.190701
30
-1.500000
11
12.190700
21
28.415501
31
-1.500000
12
3.106460
22
37.500000
32
-7.500000
13
3.106460
23
37.500000
33
-7.500000
0
3DFACE
8
0
10
12.190700
20
28.415501
30
1.500000
11
3.106460
21
37.500000
31
7.500000
12
11.578400
22
29.027901
32
0.000000
13
11.578400
23
29.027901
33
0.000000
0
3DFACE
8
0
10
22.500000
20
18.106001
30
7.500000
11
22.500000
21
18.106001
31
-7.500000
12
12.294000
22
7.900000
32
7.500000
13
12.294000
23
7.900000
33
7.500000
0
3DFACE
8
0
10
12.294000
20
7.900000
30
7.500000
11
22.500000
21
18.106001
31
-7.500000
12
12.294000
22
7.900000
32
-7.500000
13
12.294000
23
7.900000
33
-7.500000
0
ENDSEC
0
EOF
