solid OpenSCAD_Model
  facet normal 0 -1 0
    outer loop
      vertex -0.866025 -9.8 -1.5
      vertex -7.4999 -9.8 -10
      vertex 37.5001 -9.8 -10
    endloop
  endfacet
  facet normal 0 -1 0
    outer loop
      vertex 14.134 -9.8 -1.5
      vertex 13.2679 -9.8 2.17604e-15
      vertex -7.4999 -9.8 7.5
    endloop
  endfacet
  facet normal 0 -1 0
    outer loop
      vertex 0.866025 -9.8 -1.5
      vertex -0.866025 -9.8 -1.5
      vertex 37.5001 -9.8 -10
    endloop
  endfacet
  facet normal 0 -1 0
    outer loop
      vertex -7.4999 -9.8 7.5
      vertex -7.4999 -9.8 -10
      vertex -0.866025 -9.8 -1.5
    endloop
  endfacet
  facet normal 0 -1 0
    outer loop
      vertex 15.866 -9.8 -1.5
      vertex 14.134 -9.8 -1.5
      vertex 37.5001 -9.8 -10
    endloop
  endfacet
  facet normal 0 -1 0
    outer loop
      vertex -7.4999 -9.8 7.5
      vertex -0.866025 -9.8 -1.5
      vertex -1.73205 -9.8 2.17604e-15
    endloop
  endfacet
  facet normal 0 -1 0
    outer loop
      vertex 1.73205 -9.8 2.17604e-15
      vertex 0.866025 -9.8 -1.5
      vertex 37.5001 -9.8 -10
    endloop
  endfacet
  facet normal 0 -1 0
    outer loop
      vertex -7.4999 -9.8 7.5
      vertex -1.73205 -9.8 2.17604e-15
      vertex -0.866025 -9.8 1.5
    endloop
  endfacet
  facet normal 0 -1 0
    outer loop
      vertex 14.134 -9.8 -1.5
      vertex 0.866025 -9.8 1.5
      vertex 37.5001 -9.8 -10
    endloop
  endfacet
  facet normal 0 -1 0
    outer loop
      vertex -7.4999 -9.8 7.5
      vertex -0.866025 -9.8 1.5
      vertex 0.866025 -9.8 1.5
    endloop
  endfacet
  facet normal 0 -1 0
    outer loop
      vertex 15.866 -9.8 1.5
      vertex 16.7321 -9.8 2.17604e-15
      vertex 37.5001 -9.8 7.5
    endloop
  endfacet
  facet normal 0 -1 0
    outer loop
      vertex -7.4999 -9.8 7.5
      vertex 0.866025 -9.8 1.5
      vertex 14.134 -9.8 -1.5
    endloop
  endfacet
  facet normal 0 -1 0
    outer loop
      vertex 29.134 -9.8 1.5
      vertex 30.866 -9.8 1.5
      vertex 37.5001 -9.8 7.5
    endloop
  endfacet
  facet normal 0 -1 0
    outer loop
      vertex 14.134 -9.8 1.5
      vertex -7.4999 -9.8 7.5
      vertex 13.2679 -9.8 2.17604e-15
    endloop
  endfacet
  facet normal 0 -1 0
    outer loop
      vertex 37.5001 -9.8 7.5
      vertex -7.4999 -9.8 7.5
      vertex 14.134 -9.8 1.5
    endloop
  endfacet
  facet normal 0 -1 0
    outer loop
      vertex 16.7321 -9.8 2.17604e-15
      vertex 15.866 -9.8 -1.5
      vertex 37.5001 -9.8 -10
    endloop
  endfacet
  facet normal 0 -1 0
    outer loop
      vertex 37.5001 -9.8 7.5
      vertex 14.134 -9.8 1.5
      vertex 15.866 -9.8 1.5
    endloop
  endfacet
  facet normal 0 -1 0
    outer loop
      vertex 29.134 -9.8 -1.5
      vertex 16.7321 -9.8 2.17604e-15
      vertex 37.5001 -9.8 -10
    endloop
  endfacet
  facet normal 0 -1 0
    outer loop
      vertex 30.866 -9.8 -1.5
      vertex 29.134 -9.8 -1.5
      vertex 37.5001 -9.8 -10
    endloop
  endfacet
  facet normal 0 -1 0
    outer loop
      vertex 28.2679 -9.8 2.17604e-15
      vertex 16.7321 -9.8 2.17604e-15
      vertex 29.134 -9.8 -1.5
    endloop
  endfacet
  facet normal 0 -1 0
    outer loop
      vertex 29.134 -9.8 1.5
      vertex 16.7321 -9.8 2.17604e-15
      vertex 28.2679 -9.8 2.17604e-15
    endloop
  endfacet
  facet normal 0 -1 0
    outer loop
      vertex 30.866 -9.8 1.5
      vertex 31.7321 -9.8 2.17604e-15
      vertex 37.5001 -9.8 7.5
    endloop
  endfacet
  facet normal 0 -1 0
    outer loop
      vertex 37.5001 -9.8 7.5
      vertex 16.7321 -9.8 2.17604e-15
      vertex 29.134 -9.8 1.5
    endloop
  endfacet
  facet normal 0 -1 0
    outer loop
      vertex 37.5001 -9.8 7.5
      vertex 31.7321 -9.8 2.17604e-15
      vertex 37.5001 -9.8 -10
    endloop
  endfacet
  facet normal 0 -1 0
    outer loop
      vertex 31.7321 -9.8 2.17604e-15
      vertex 30.866 -9.8 -1.5
      vertex 37.5001 -9.8 -10
    endloop
  endfacet
  facet normal 0 -1 0
    outer loop
      vertex 0.866025 -9.8 1.5
      vertex 1.73205 -9.8 2.17604e-15
      vertex 37.5001 -9.8 -10
    endloop
  endfacet
  facet normal 0 0 -1
    outer loop
      vertex 15.866 1.5 -10
      vertex -7.4999 29.6232 -10
      vertex 37.5001 -9.8 -10
    endloop
  endfacet
  facet normal 0 0 -1
    outer loop
      vertex -1.73205 30 -10
      vertex -7.4999 29.6232 -10
      vertex 0.376894 37.5 -10
    endloop
  endfacet
  facet normal 0 0 -1
    outer loop
      vertex 29.134 1.5 -10
      vertex 0.376894 37.5 -10
      vertex 6.3587 37.5 -10
    endloop
  endfacet
  facet normal 0 0 -1
    outer loop
      vertex 30.866 1.5 -10
      vertex 6.3587 37.5 -10
      vertex 33.658 10.2 -10
    endloop
  endfacet
  facet normal 0 0 -1
    outer loop
      vertex 37.5001 -9.8 -10
      vertex 33.658 10.2 -10
      vertex 37.5001 10.2 -10
    endloop
  endfacet
  facet normal 0 0 -1
    outer loop
      vertex -7.4999 -9.8 -10
      vertex -7.4999 29.6232 -10
      vertex -1.73205 0 -10
    endloop
  endfacet
  facet normal 0 0 -1
    outer loop
      vertex 0.866025 28.5 -10
      vertex 13.2679 15 -10
      vertex -0.866025 28.5 -10
    endloop
  endfacet
  facet normal 0 0 -1
    outer loop
      vertex -7.4999 -9.8 -10
      vertex -1.73205 0 -10
      vertex -0.866025 -1.5 -10
    endloop
  endfacet
  facet normal 0 0 -1
    outer loop
      vertex -7.4999 -9.8 -10
      vertex -0.866025 -1.5 -10
      vertex 37.5001 -9.8 -10
    endloop
  endfacet
  facet normal 0 0 -1
    outer loop
      vertex -0.866025 -1.5 -10
      vertex 0.866025 -1.5 -10
      vertex 37.5001 -9.8 -10
    endloop
  endfacet
  facet normal 0 0 -1
    outer loop
      vertex 0.866025 1.5 -10
      vertex -7.4999 29.6232 -10
      vertex 1.73205 0 -10
    endloop
  endfacet
  facet normal 0 0 -1
    outer loop
      vertex 15.866 13.5 -10
      vertex 28.2679 0 -10
      vertex 14.134 13.5 -10
    endloop
  endfacet
  facet normal 0 0 -1
    outer loop
      vertex -0.866025 1.5 -10
      vertex -7.4999 29.6232 -10
      vertex 0.866025 1.5 -10
    endloop
  endfacet
  facet normal 0 0 -1
    outer loop
      vertex -1.73205 0 -10
      vertex -7.4999 29.6232 -10
      vertex -0.866025 1.5 -10
    endloop
  endfacet
  facet normal 0 0 -1
    outer loop
      vertex -0.866025 28.5 -10
      vertex -7.4999 29.6232 -10
      vertex -1.73205 30 -10
    endloop
  endfacet
  facet normal 0 0 -1
    outer loop
      vertex -0.866025 31.5 -10
      vertex -1.73205 30 -10
      vertex 0.376894 37.5 -10
    endloop
  endfacet
  facet normal 0 0 -1
    outer loop
      vertex 14.134 13.5 -10
      vertex -7.4999 29.6232 -10
      vertex -0.866025 28.5 -10
    endloop
  endfacet
  facet normal 0 0 -1
    outer loop
      vertex 14.134 16.5 -10
      vertex 0.376894 37.5 -10
      vertex 15.866 16.5 -10
    endloop
  endfacet
  facet normal 0 0 -1
    outer loop
      vertex -0.866025 31.5 -10
      vertex 0.376894 37.5 -10
      vertex 0.866025 31.5 -10
    endloop
  endfacet
  facet normal 0 0 -1
    outer loop
      vertex 28.2679 0 -10
      vertex 0.376894 37.5 -10
      vertex 29.134 1.5 -10
    endloop
  endfacet
  facet normal 0 0 -1
    outer loop
      vertex 28.2679 0 -10
      vertex 16.7321 15 -10
      vertex 15.866 16.5 -10
    endloop
  endfacet
  facet normal 0 0 -1
    outer loop
      vertex 1.73205 30 -10
      vertex 0.866025 31.5 -10
      vertex 0.376894 37.5 -10
    endloop
  endfacet
  facet normal 0 0 -1
    outer loop
      vertex 16.7321 0 -10
      vertex 37.5001 -9.8 -10
      vertex 15.866 -1.5 -10
    endloop
  endfacet
  facet normal 0 0 -1
    outer loop
      vertex 1.73205 0 -10
      vertex -7.4999 29.6232 -10
      vertex 13.2679 0 -10
    endloop
  endfacet
  facet normal 0 0 -1
    outer loop
      vertex 1.73205 0 -10
      vertex 13.2679 0 -10
      vertex 14.134 -1.5 -10
    endloop
  endfacet
  facet normal 0 0 -1
    outer loop
      vertex 1.73205 0 -10
      vertex 14.134 -1.5 -10
      vertex 37.5001 -9.8 -10
    endloop
  endfacet
  facet normal 0 0 -1
    outer loop
      vertex 14.134 -1.5 -10
      vertex 15.866 -1.5 -10
      vertex 37.5001 -9.8 -10
    endloop
  endfacet
  facet normal 0 0 -1
    outer loop
      vertex 13.2679 15 -10
      vertex 0.866025 28.5 -10
      vertex 1.73205 30 -10
    endloop
  endfacet
  facet normal 0 0 -1
    outer loop
      vertex 14.134 1.5 -10
      vertex -7.4999 29.6232 -10
      vertex 15.866 1.5 -10
    endloop
  endfacet
  facet normal 0 0 -1
    outer loop
      vertex 13.2679 15 -10
      vertex 1.73205 30 -10
      vertex 14.134 16.5 -10
    endloop
  endfacet
  facet normal 0 0 -1
    outer loop
      vertex 16.7321 0 -10
      vertex 15.866 1.5 -10
      vertex 37.5001 -9.8 -10
    endloop
  endfacet
  facet normal 0 0 -1
    outer loop
      vertex 13.2679 0 -10
      vertex -7.4999 29.6232 -10
      vertex 14.134 1.5 -10
    endloop
  endfacet
  facet normal 0 0 -1
    outer loop
      vertex 14.134 13.5 -10
      vertex -0.866025 28.5 -10
      vertex 13.2679 15 -10
    endloop
  endfacet
  facet normal 0 0 -1
    outer loop
      vertex 29.134 -1.5 -10
      vertex -7.4999 29.6232 -10
      vertex 14.134 13.5 -10
    endloop
  endfacet
  facet normal 0 0 -1
    outer loop
      vertex 28.2679 0 -10
      vertex 15.866 13.5 -10
      vertex 16.7321 15 -10
    endloop
  endfacet
  facet normal 0 0 -1
    outer loop
      vertex 28.2679 0 -10
      vertex 15.866 16.5 -10
      vertex 0.376894 37.5 -10
    endloop
  endfacet
  facet normal 0 0 -1
    outer loop
      vertex 31.7321 0 -10
      vertex 37.5001 -9.8 -10
      vertex 30.866 -1.5 -10
    endloop
  endfacet
  facet normal 0 0 -1
    outer loop
      vertex 14.134 16.5 -10
      vertex 1.73205 30 -10
      vertex 0.376894 37.5 -10
    endloop
  endfacet
  facet normal 0 0 -1
    outer loop
      vertex 29.134 -1.5 -10
      vertex 14.134 13.5 -10
      vertex 28.2679 0 -10
    endloop
  endfacet
  facet normal 0 0 -1
    outer loop
      vertex 37.5001 -9.8 -10
      vertex -7.4999 29.6232 -10
      vertex 29.134 -1.5 -10
    endloop
  endfacet
  facet normal 0 0 -1
    outer loop
      vertex 30.866 -1.5 -10
      vertex 37.5001 -9.8 -10
      vertex 29.134 -1.5 -10
    endloop
  endfacet
  facet normal 0 0 -1
    outer loop
      vertex 29.134 1.5 -10
      vertex 6.3587 37.5 -10
      vertex 30.866 1.5 -10
    endloop
  endfacet
  facet normal 0 0 -1
    outer loop
      vertex 37.5001 -9.8 -10
      vertex 31.7321 0 -10
      vertex 33.658 10.2 -10
    endloop
  endfacet
  facet normal 0 0 -1
    outer loop
      vertex 31.7321 0 -10
      vertex 30.866 1.5 -10
      vertex 33.658 10.2 -10
    endloop
  endfacet
  facet normal 0 0 -1
    outer loop
      vertex 1.73205 0 -10
      vertex 37.5001 -9.8 -10
      vertex 0.866025 -1.5 -10
    endloop
  endfacet
  facet normal -1 0 0
    outer loop
      vertex -7.4999 7.9 7.5
      vertex -7.4999 26.3275 -7.5
      vertex -7.4999 7.9 -7.5
    endloop
  endfacet
  facet normal -1 0 0
    outer loop
      vertex -7.4999 -9.8 -10
      vertex -7.4999 -9.8 7.5
      vertex -7.4999 -7.5 -7.5
    endloop
  endfacet
  facet normal -1 0 0
    outer loop
      vertex -7.4999 -9.8 -10
      vertex -7.4999 -7.5 -7.5
      vertex -7.4999 29.6232 -10
    endloop
  endfacet
  facet normal -1 0 0
    outer loop
      vertex -7.4999 26.3275 -7.5
      vertex -7.4999 29.6232 -10
      vertex -7.4999 7.9 -7.5
    endloop
  endfacet
  facet normal -1 0 0
    outer loop
      vertex -7.4999 -7.5 -7.5
      vertex -7.4999 7.9 -7.5
      vertex -7.4999 29.6232 -10
    endloop
  endfacet
  facet normal -1 0 0
    outer loop
      vertex -7.4999 26.3275 -7.5
      vertex -7.4999 7.9 7.5
      vertex -7.4999 26.3275 7.5
    endloop
  endfacet
  facet normal -1 0 0
    outer loop
      vertex -7.4999 29.6232 -7.5
      vertex -7.4999 29.6232 -10
      vertex -7.4999 26.3275 -7.5
    endloop
  endfacet
  facet normal -1 0 0
    outer loop
      vertex -7.4999 -7.5 -7.5
      vertex -7.4999 -9.8 7.5
      vertex -7.4999 -7.5 7.5
    endloop
  endfacet
  facet normal 0 0 1
    outer loop
      vertex -7.4999 -7.5 7.5
      vertex -7.4999 -9.8 7.5
      vertex 37.5001 -9.8 7.5
    endloop
  endfacet
  facet normal 0 0 1
    outer loop
      vertex 37.5001 -7.5 7.5
      vertex -7.4999 -7.5 7.5
      vertex 37.5001 -9.8 7.5
    endloop
  endfacet
  facet normal 1 0 0
    outer loop
      vertex 37.5001 -7.5 -7.5
      vertex 37.5001 -9.8 -10
      vertex 37.5001 10.2 -10
    endloop
  endfacet
  facet normal 1 0 0
    outer loop
      vertex 37.5001 -7.5 -7.5
      vertex 37.5001 -7.5 7.5
      vertex 37.5001 -9.8 7.5
    endloop
  endfacet
  facet normal 1 0 0
    outer loop
      vertex 37.5001 10.2 7.5
      vertex 37.5001 7.9 7.5
      vertex 37.5001 10.2 -10
    endloop
  endfacet
  facet normal 1 0 0
    outer loop
      vertex 37.5001 7.9 7.5
      vertex 37.5001 7.9 -7.5
      vertex 37.5001 10.2 -10
    endloop
  endfacet
  facet normal 1 0 0
    outer loop
      vertex 37.5001 -9.8 7.5
      vertex 37.5001 -9.8 -10
      vertex 37.5001 -7.5 -7.5
    endloop
  endfacet
  facet normal 1 0 0
    outer loop
      vertex 37.5001 7.9 -7.5
      vertex 37.5001 -7.5 -7.5
      vertex 37.5001 10.2 -10
    endloop
  endfacet
  facet normal 0.866025 1.11022e-16 0.5
    outer loop
      vertex -0.866025 -9.8 -1.5
      vertex -0.866025 -7.5 -1.5
      vertex -1.73205 -7.5 1.66533e-15
    endloop
  endfacet
  facet normal 0.866025 1.11022e-16 0.5
    outer loop
      vertex -1.73205 -9.8 2.17604e-15
      vertex -0.866025 -9.8 -1.5
      vertex -1.73205 -7.5 1.66533e-15
    endloop
  endfacet
  facet normal 0 2.22045e-16 1
    outer loop
      vertex 0.866025 -9.8 -1.5
      vertex 0.866025 -7.5 -1.5
      vertex -0.866025 -7.5 -1.5
    endloop
  endfacet
  facet normal 0 2.22045e-16 1
    outer loop
      vertex -0.866025 -9.8 -1.5
      vertex 0.866025 -9.8 -1.5
      vertex -0.866025 -7.5 -1.5
    endloop
  endfacet
  facet normal -0.866025 1.11022e-16 0.5
    outer loop
      vertex 1.73205 -7.5 1.66533e-15
      vertex 0.866025 -7.5 -1.5
      vertex 1.73205 -9.8 2.17604e-15
    endloop
  endfacet
  facet normal -0.866025 1.11022e-16 0.5
    outer loop
      vertex 1.73205 -9.8 2.17604e-15
      vertex 0.866025 -7.5 -1.5
      vertex 0.866025 -9.8 -1.5
    endloop
  endfacet
  facet normal -0.866025 -1.11022e-16 -0.5
    outer loop
      vertex 1.73205 -7.5 1.66533e-15
      vertex 1.73205 -9.8 2.17604e-15
      vertex 0.866025 -7.5 1.5
    endloop
  endfacet
  facet normal -0.866025 -1.11022e-16 -0.5
    outer loop
      vertex 0.866025 -7.5 1.5
      vertex 1.73205 -9.8 2.17604e-15
      vertex 0.866025 -9.8 1.5
    endloop
  endfacet
  facet normal 0 -2.22045e-16 -1
    outer loop
      vertex 0.866025 -7.5 1.5
      vertex 0.866025 -9.8 1.5
      vertex -0.866025 -7.5 1.5
    endloop
  endfacet
  facet normal 0 -2.22045e-16 -1
    outer loop
      vertex -0.866025 -7.5 1.5
      vertex 0.866025 -9.8 1.5
      vertex -0.866025 -9.8 1.5
    endloop
  endfacet
  facet normal 0.866025 -1.11022e-16 -0.5
    outer loop
      vertex -1.73205 -7.5 1.66533e-15
      vertex -0.866025 -7.5 1.5
      vertex -0.866025 -9.8 1.5
    endloop
  endfacet
  facet normal 0.866025 -1.11022e-16 -0.5
    outer loop
      vertex -1.73205 -9.8 2.17604e-15
      vertex -1.73205 -7.5 1.66533e-15
      vertex -0.866025 -9.8 1.5
    endloop
  endfacet
  facet normal 0.866025 1.11022e-16 0.5
    outer loop
      vertex 14.134 -9.8 -1.5
      vertex 14.134 -7.5 -1.5
      vertex 13.2679 -7.5 1.66533e-15
    endloop
  endfacet
  facet normal 0.866025 1.11022e-16 0.5
    outer loop
      vertex 13.2679 -9.8 2.17604e-15
      vertex 14.134 -9.8 -1.5
      vertex 13.2679 -7.5 1.66533e-15
    endloop
  endfacet
  facet normal 0 2.22045e-16 1
    outer loop
      vertex 15.866 -9.8 -1.5
      vertex 15.866 -7.5 -1.5
      vertex 14.134 -7.5 -1.5
    endloop
  endfacet
  facet normal 0 2.22045e-16 1
    outer loop
      vertex 14.134 -9.8 -1.5
      vertex 15.866 -9.8 -1.5
      vertex 14.134 -7.5 -1.5
    endloop
  endfacet
  facet normal -0.866025 1.11022e-16 0.5
    outer loop
      vertex 16.7321 -7.5 1.66533e-15
      vertex 15.866 -7.5 -1.5
      vertex 16.7321 -9.8 2.17604e-15
    endloop
  endfacet
  facet normal -0.866025 1.11022e-16 0.5
    outer loop
      vertex 16.7321 -9.8 2.17604e-15
      vertex 15.866 -7.5 -1.5
      vertex 15.866 -9.8 -1.5
    endloop
  endfacet
  facet normal -0.866025 -1.11022e-16 -0.5
    outer loop
      vertex 16.7321 -7.5 1.66533e-15
      vertex 16.7321 -9.8 2.17604e-15
      vertex 15.866 -7.5 1.5
    endloop
  endfacet
  facet normal -0.866025 -1.11022e-16 -0.5
    outer loop
      vertex 15.866 -7.5 1.5
      vertex 16.7321 -9.8 2.17604e-15
      vertex 15.866 -9.8 1.5
    endloop
  endfacet
  facet normal 0 -2.22045e-16 -1
    outer loop
      vertex 15.866 -7.5 1.5
      vertex 15.866 -9.8 1.5
      vertex 14.134 -7.5 1.5
    endloop
  endfacet
  facet normal 0 -2.22045e-16 -1
    outer loop
      vertex 14.134 -7.5 1.5
      vertex 15.866 -9.8 1.5
      vertex 14.134 -9.8 1.5
    endloop
  endfacet
  facet normal 0.866025 -1.11022e-16 -0.5
    outer loop
      vertex 13.2679 -7.5 1.66533e-15
      vertex 14.134 -7.5 1.5
      vertex 14.134 -9.8 1.5
    endloop
  endfacet
  facet normal 0.866025 -1.11022e-16 -0.5
    outer loop
      vertex 13.2679 -9.8 2.17604e-15
      vertex 13.2679 -7.5 1.66533e-15
      vertex 14.134 -9.8 1.5
    endloop
  endfacet
  facet normal 0.866025 1.11022e-16 0.5
    outer loop
      vertex 29.134 -9.8 -1.5
      vertex 29.134 -7.5 -1.5
      vertex 28.2679 -7.5 1.66533e-15
    endloop
  endfacet
  facet normal 0.866025 1.11022e-16 0.5
    outer loop
      vertex 28.2679 -9.8 2.17604e-15
      vertex 29.134 -9.8 -1.5
      vertex 28.2679 -7.5 1.66533e-15
    endloop
  endfacet
  facet normal 0 2.22045e-16 1
    outer loop
      vertex 30.866 -9.8 -1.5
      vertex 30.866 -7.5 -1.5
      vertex 29.134 -7.5 -1.5
    endloop
  endfacet
  facet normal 0 2.22045e-16 1
    outer loop
      vertex 29.134 -9.8 -1.5
      vertex 30.866 -9.8 -1.5
      vertex 29.134 -7.5 -1.5
    endloop
  endfacet
  facet normal -0.866025 1.11022e-16 0.5
    outer loop
      vertex 31.7321 -7.5 1.66533e-15
      vertex 30.866 -7.5 -1.5
      vertex 31.7321 -9.8 2.17604e-15
    endloop
  endfacet
  facet normal -0.866025 1.11022e-16 0.5
    outer loop
      vertex 31.7321 -9.8 2.17604e-15
      vertex 30.866 -7.5 -1.5
      vertex 30.866 -9.8 -1.5
    endloop
  endfacet
  facet normal -0.866025 -1.11022e-16 -0.5
    outer loop
      vertex 31.7321 -7.5 1.66533e-15
      vertex 31.7321 -9.8 2.17604e-15
      vertex 30.866 -7.5 1.5
    endloop
  endfacet
  facet normal -0.866025 -1.11022e-16 -0.5
    outer loop
      vertex 30.866 -7.5 1.5
      vertex 31.7321 -9.8 2.17604e-15
      vertex 30.866 -9.8 1.5
    endloop
  endfacet
  facet normal 0 -2.22045e-16 -1
    outer loop
      vertex 30.866 -7.5 1.5
      vertex 30.866 -9.8 1.5
      vertex 29.134 -7.5 1.5
    endloop
  endfacet
  facet normal 0 -2.22045e-16 -1
    outer loop
      vertex 29.134 -7.5 1.5
      vertex 30.866 -9.8 1.5
      vertex 29.134 -9.8 1.5
    endloop
  endfacet
  facet normal 0.866025 -1.11022e-16 -0.5
    outer loop
      vertex 28.2679 -7.5 1.66533e-15
      vertex 29.134 -7.5 1.5
      vertex 29.134 -9.8 1.5
    endloop
  endfacet
  facet normal 0.866025 -1.11022e-16 -0.5
    outer loop
      vertex 28.2679 -9.8 2.17604e-15
      vertex 28.2679 -7.5 1.66533e-15
      vertex 29.134 -9.8 1.5
    endloop
  endfacet
  facet normal 0 1 0
    outer loop
      vertex 33.658 10.2 -10
      vertex 33.658 10.2 7.5
      vertex 37.5001 10.2 -10
    endloop
  endfacet
  facet normal 0 1 0
    outer loop
      vertex 37.5001 10.2 -10
      vertex 33.658 10.2 7.5
      vertex 37.5001 10.2 7.5
    endloop
  endfacet
  facet normal 0.707116 0.707098 0
    outer loop
      vertex 13.8169 30.0416 1.5
      vertex 6.3587 37.5 -10
      vertex 6.3587 37.5 7.5
    endloop
  endfacet
  facet normal 0.707116 0.707098 0
    outer loop
      vertex 33.658 10.2 7.5
      vertex 33.658 10.2 -10
      vertex 6.3587 37.5 7.5
    endloop
  endfacet
  facet normal 0.707116 0.707098 0
    outer loop
      vertex 15.0416 28.8169 1.5
      vertex 13.8169 30.0416 1.5
      vertex 6.3587 37.5 7.5
    endloop
  endfacet
  facet normal 0.707116 0.707098 0
    outer loop
      vertex 13.2045 30.654 2.17592e-15
      vertex 6.3587 37.5 -10
      vertex 13.8169 30.0416 1.5
    endloop
  endfacet
  facet normal 0.707116 0.707098 0
    outer loop
      vertex 13.8169 30.0416 -1.5
      vertex 6.3587 37.5 -10
      vertex 13.2045 30.654 2.17592e-15
    endloop
  endfacet
  facet normal 0.707116 0.707098 0
    outer loop
      vertex 33.658 10.2 -10
      vertex 6.3587 37.5 -10
      vertex 13.8169 30.0416 -1.5
    endloop
  endfacet
  facet normal 0.707116 0.707098 0
    outer loop
      vertex 15.654 28.2045 2.17591e-15
      vertex 15.0416 28.8169 1.5
      vertex 33.658 10.2 -10
    endloop
  endfacet
  facet normal 0.707116 0.707098 0
    outer loop
      vertex 33.658 10.2 -10
      vertex 13.8169 30.0416 -1.5
      vertex 15.0416 28.8169 -1.5
    endloop
  endfacet
  facet normal 0.707116 0.707098 0
    outer loop
      vertex 33.658 10.2 -10
      vertex 15.0416 28.8169 1.5
      vertex 6.3587 37.5 7.5
    endloop
  endfacet
  facet normal 0.707116 0.707098 0
    outer loop
      vertex 15.0416 28.8169 -1.5
      vertex 15.654 28.2045 2.17591e-15
      vertex 33.658 10.2 -10
    endloop
  endfacet
  facet normal 0 1 0
    outer loop
      vertex 0.376894 37.5 -10
      vertex 0.376894 37.5 -7.5
      vertex 6.3587 37.5 -10
    endloop
  endfacet
  facet normal 0 1 0
    outer loop
      vertex 6.3587 37.5 -10
      vertex 0.376894 37.5 -7.5
      vertex 3.10646 37.5 -7.5
    endloop
  endfacet
  facet normal 0 1 0
    outer loop
      vertex 6.3587 37.5 -10
      vertex 3.10646 37.5 -7.5
      vertex 3.10646 37.5 7.5
    endloop
  endfacet
  facet normal 0 1 0
    outer loop
      vertex 6.3587 37.5 -10
      vertex 3.10646 37.5 7.5
      vertex 6.3587 37.5 7.5
    endloop
  endfacet
  facet normal -0.707107 0.707107 0
    outer loop
      vertex -7.4999 29.6232 -10
      vertex -7.4999 29.6232 -7.5
      vertex 0.376894 37.5 -10
    endloop
  endfacet
  facet normal -0.707107 0.707107 0
    outer loop
      vertex 0.376894 37.5 -10
      vertex -7.4999 29.6232 -7.5
      vertex 0.376894 37.5 -7.5
    endloop
  endfacet
  facet normal 0.866025 -0.5 0
    outer loop
      vertex -0.866025 1.5 -10
      vertex -0.866025 1.5 -7.5
      vertex -1.73205 0 -7.5
    endloop
  endfacet
  facet normal 0.866025 -0.5 0
    outer loop
      vertex -1.73205 0 -10
      vertex -0.866025 1.5 -10
      vertex -1.73205 0 -7.5
    endloop
  endfacet
  facet normal 0.866025 0.5 0
    outer loop
      vertex -1.73205 0 -7.5
      vertex -0.866025 -1.5 -7.5
      vertex -0.866025 -1.5 -10
    endloop
  endfacet
  facet normal 0.866025 0.5 0
    outer loop
      vertex -1.73205 0 -10
      vertex -1.73205 0 -7.5
      vertex -0.866025 -1.5 -10
    endloop
  endfacet
  facet normal 0 -1 0
    outer loop
      vertex 0.866025 1.5 -10
      vertex 0.866025 1.5 -7.5
      vertex -0.866025 1.5 -7.5
    endloop
  endfacet
  facet normal 0 -1 0
    outer loop
      vertex -0.866025 1.5 -10
      vertex 0.866025 1.5 -10
      vertex -0.866025 1.5 -7.5
    endloop
  endfacet
  facet normal -0.866025 -0.5 0
    outer loop
      vertex 1.73205 0 -7.5
      vertex 0.866025 1.5 -7.5
      vertex 1.73205 0 -10
    endloop
  endfacet
  facet normal -0.866025 -0.5 0
    outer loop
      vertex 1.73205 0 -10
      vertex 0.866025 1.5 -7.5
      vertex 0.866025 1.5 -10
    endloop
  endfacet
  facet normal -0.866025 0.5 0
    outer loop
      vertex 1.73205 0 -7.5
      vertex 1.73205 0 -10
      vertex 0.866025 -1.5 -7.5
    endloop
  endfacet
  facet normal -0.866025 0.5 0
    outer loop
      vertex 0.866025 -1.5 -7.5
      vertex 1.73205 0 -10
      vertex 0.866025 -1.5 -10
    endloop
  endfacet
  facet normal 0 1 0
    outer loop
      vertex 0.866025 -1.5 -7.5
      vertex 0.866025 -1.5 -10
      vertex -0.866025 -1.5 -7.5
    endloop
  endfacet
  facet normal 0 1 0
    outer loop
      vertex -0.866025 -1.5 -7.5
      vertex 0.866025 -1.5 -10
      vertex -0.866025 -1.5 -10
    endloop
  endfacet
  facet normal 0.866025 -0.5 0
    outer loop
      vertex -0.866025 31.5 -10
      vertex -0.866025 31.5 -7.5
      vertex -1.73205 30 -7.5
    endloop
  endfacet
  facet normal 0.866025 -0.5 0
    outer loop
      vertex -1.73205 30 -10
      vertex -0.866025 31.5 -10
      vertex -1.73205 30 -7.5
    endloop
  endfacet
  facet normal 0.866025 0.5 0
    outer loop
      vertex -1.73205 30 -7.5
      vertex -0.866025 28.5 -7.5
      vertex -0.866025 28.5 -10
    endloop
  endfacet
  facet normal 0.866025 0.5 0
    outer loop
      vertex -1.73205 30 -10
      vertex -1.73205 30 -7.5
      vertex -0.866025 28.5 -10
    endloop
  endfacet
  facet normal 0 -1 0
    outer loop
      vertex 0.866025 31.5 -10
      vertex 0.866025 31.5 -7.5
      vertex -0.866025 31.5 -7.5
    endloop
  endfacet
  facet normal 0 -1 0
    outer loop
      vertex -0.866025 31.5 -10
      vertex 0.866025 31.5 -10
      vertex -0.866025 31.5 -7.5
    endloop
  endfacet
  facet normal -0.866025 -0.5 0
    outer loop
      vertex 1.73205 30 -7.5
      vertex 0.866025 31.5 -7.5
      vertex 1.73205 30 -10
    endloop
  endfacet
  facet normal -0.866025 -0.5 0
    outer loop
      vertex 1.73205 30 -10
      vertex 0.866025 31.5 -7.5
      vertex 0.866025 31.5 -10
    endloop
  endfacet
  facet normal -0.866025 0.5 0
    outer loop
      vertex 1.73205 30 -7.5
      vertex 1.73205 30 -10
      vertex 0.866025 28.5 -7.5
    endloop
  endfacet
  facet normal -0.866025 0.5 0
    outer loop
      vertex 0.866025 28.5 -7.5
      vertex 1.73205 30 -10
      vertex 0.866025 28.5 -10
    endloop
  endfacet
  facet normal 0 1 0
    outer loop
      vertex 0.866025 28.5 -7.5
      vertex 0.866025 28.5 -10
      vertex -0.866025 28.5 -7.5
    endloop
  endfacet
  facet normal 0 1 0
    outer loop
      vertex -0.866025 28.5 -7.5
      vertex 0.866025 28.5 -10
      vertex -0.866025 28.5 -10
    endloop
  endfacet
  facet normal 0.866025 -0.5 0
    outer loop
      vertex 14.134 1.5 -10
      vertex 14.134 1.5 -7.5
      vertex 13.2679 0 -7.5
    endloop
  endfacet
  facet normal 0.866025 -0.5 0
    outer loop
      vertex 13.2679 0 -10
      vertex 14.134 1.5 -10
      vertex 13.2679 0 -7.5
    endloop
  endfacet
  facet normal 0.866025 0.5 0
    outer loop
      vertex 13.2679 0 -7.5
      vertex 14.134 -1.5 -7.5
      vertex 14.134 -1.5 -10
    endloop
  endfacet
  facet normal 0.866025 0.5 0
    outer loop
      vertex 13.2679 0 -10
      vertex 13.2679 0 -7.5
      vertex 14.134 -1.5 -10
    endloop
  endfacet
  facet normal 0 -1 0
    outer loop
      vertex 15.866 1.5 -10
      vertex 15.866 1.5 -7.5
      vertex 14.134 1.5 -7.5
    endloop
  endfacet
  facet normal 0 -1 0
    outer loop
      vertex 14.134 1.5 -10
      vertex 15.866 1.5 -10
      vertex 14.134 1.5 -7.5
    endloop
  endfacet
  facet normal -0.866025 -0.5 0
    outer loop
      vertex 16.7321 0 -7.5
      vertex 15.866 1.5 -7.5
      vertex 16.7321 0 -10
    endloop
  endfacet
  facet normal -0.866025 -0.5 0
    outer loop
      vertex 16.7321 0 -10
      vertex 15.866 1.5 -7.5
      vertex 15.866 1.5 -10
    endloop
  endfacet
  facet normal -0.866025 0.5 0
    outer loop
      vertex 16.7321 0 -7.5
      vertex 16.7321 0 -10
      vertex 15.866 -1.5 -7.5
    endloop
  endfacet
  facet normal -0.866025 0.5 0
    outer loop
      vertex 15.866 -1.5 -7.5
      vertex 16.7321 0 -10
      vertex 15.866 -1.5 -10
    endloop
  endfacet
  facet normal 0 1 0
    outer loop
      vertex 15.866 -1.5 -7.5
      vertex 15.866 -1.5 -10
      vertex 14.134 -1.5 -7.5
    endloop
  endfacet
  facet normal 0 1 0
    outer loop
      vertex 14.134 -1.5 -7.5
      vertex 15.866 -1.5 -10
      vertex 14.134 -1.5 -10
    endloop
  endfacet
  facet normal 0.866025 -0.5 0
    outer loop
      vertex 14.134 16.5 -10
      vertex 14.134 16.5 -7.5
      vertex 13.2679 15 -7.5
    endloop
  endfacet
  facet normal 0.866025 -0.5 0
    outer loop
      vertex 13.2679 15 -10
      vertex 14.134 16.5 -10
      vertex 13.2679 15 -7.5
    endloop
  endfacet
  facet normal 0.866025 0.5 0
    outer loop
      vertex 13.2679 15 -7.5
      vertex 14.134 13.5 -7.5
      vertex 14.134 13.5 -10
    endloop
  endfacet
  facet normal 0.866025 0.5 0
    outer loop
      vertex 13.2679 15 -10
      vertex 13.2679 15 -7.5
      vertex 14.134 13.5 -10
    endloop
  endfacet
  facet normal 0 -1 0
    outer loop
      vertex 15.866 16.5 -10
      vertex 15.866 16.5 -7.5
      vertex 14.134 16.5 -7.5
    endloop
  endfacet
  facet normal 0 -1 0
    outer loop
      vertex 14.134 16.5 -10
      vertex 15.866 16.5 -10
      vertex 14.134 16.5 -7.5
    endloop
  endfacet
  facet normal -0.866025 -0.5 0
    outer loop
      vertex 16.7321 15 -7.5
      vertex 15.866 16.5 -7.5
      vertex 16.7321 15 -10
    endloop
  endfacet
  facet normal -0.866025 -0.5 0
    outer loop
      vertex 16.7321 15 -10
      vertex 15.866 16.5 -7.5
      vertex 15.866 16.5 -10
    endloop
  endfacet
  facet normal -0.866025 0.5 0
    outer loop
      vertex 16.7321 15 -7.5
      vertex 16.7321 15 -10
      vertex 15.866 13.5 -7.5
    endloop
  endfacet
  facet normal -0.866025 0.5 0
    outer loop
      vertex 15.866 13.5 -7.5
      vertex 16.7321 15 -10
      vertex 15.866 13.5 -10
    endloop
  endfacet
  facet normal 0 1 0
    outer loop
      vertex 15.866 13.5 -7.5
      vertex 15.866 13.5 -10
      vertex 14.134 13.5 -7.5
    endloop
  endfacet
  facet normal 0 1 0
    outer loop
      vertex 14.134 13.5 -7.5
      vertex 15.866 13.5 -10
      vertex 14.134 13.5 -10
    endloop
  endfacet
  facet normal 0.866025 -0.5 0
    outer loop
      vertex 29.134 1.5 -10
      vertex 29.134 1.5 -7.5
      vertex 28.2679 0 -7.5
    endloop
  endfacet
  facet normal 0.866025 -0.5 0
    outer loop
      vertex 28.2679 0 -10
      vertex 29.134 1.5 -10
      vertex 28.2679 0 -7.5
    endloop
  endfacet
  facet normal 0.866025 0.5 0
    outer loop
      vertex 28.2679 0 -7.5
      vertex 29.134 -1.5 -7.5
      vertex 29.134 -1.5 -10
    endloop
  endfacet
  facet normal 0.866025 0.5 0
    outer loop
      vertex 28.2679 0 -10
      vertex 28.2679 0 -7.5
      vertex 29.134 -1.5 -10
    endloop
  endfacet
  facet normal 0 -1 0
    outer loop
      vertex 30.866 1.5 -10
      vertex 30.866 1.5 -7.5
      vertex 29.134 1.5 -7.5
    endloop
  endfacet
  facet normal 0 -1 0
    outer loop
      vertex 29.134 1.5 -10
      vertex 30.866 1.5 -10
      vertex 29.134 1.5 -7.5
    endloop
  endfacet
  facet normal -0.866025 -0.5 0
    outer loop
      vertex 31.7321 0 -7.5
      vertex 30.866 1.5 -7.5
      vertex 31.7321 0 -10
    endloop
  endfacet
  facet normal -0.866025 -0.5 0
    outer loop
      vertex 31.7321 0 -10
      vertex 30.866 1.5 -7.5
      vertex 30.866 1.5 -10
    endloop
  endfacet
  facet normal -0.866025 0.5 0
    outer loop
      vertex 31.7321 0 -7.5
      vertex 31.7321 0 -10
      vertex 30.866 -1.5 -7.5
    endloop
  endfacet
  facet normal -0.866025 0.5 0
    outer loop
      vertex 30.866 -1.5 -7.5
      vertex 31.7321 0 -10
      vertex 30.866 -1.5 -10
    endloop
  endfacet
  facet normal 0 1 0
    outer loop
      vertex 30.866 -1.5 -7.5
      vertex 30.866 -1.5 -10
      vertex 29.134 -1.5 -7.5
    endloop
  endfacet
  facet normal 0 1 0
    outer loop
      vertex 29.134 -1.5 -7.5
      vertex 30.866 -1.5 -10
      vertex 29.134 -1.5 -10
    endloop
  endfacet
  facet normal 0 0 1
    outer loop
      vertex 13.2679 15 -7.5
      vertex 3.10646 37.5 -7.5
      vertex 12.294 7.9 -7.5
    endloop
  endfacet
  facet normal 0 0 1
    outer loop
      vertex 29.134 1.5 -7.5
      vertex 37.5001 7.9 -7.5
      vertex 12.294 7.9 -7.5
    endloop
  endfacet
  facet normal 0 0 1
    outer loop
      vertex 10.928 7.9 -7.5
      vertex 37.5001 -7.5 -7.5
      vertex 12.294 7.9 -7.5
    endloop
  endfacet
  facet normal 0 0 1
    outer loop
      vertex 3.10646 37.5 -7.5
      vertex 0.376894 37.5 -7.5
      vertex 12.294 7.9 -7.5
    endloop
  endfacet
  facet normal 0 0 1
    outer loop
      vertex -0.866025 28.5 -7.5
      vertex -7.4999 29.6232 -7.5
      vertex 12.294 7.9 -7.5
    endloop
  endfacet
  facet normal 0 0 1
    outer loop
      vertex -7.4999 29.6232 -7.5
      vertex -7.4999 26.3275 -7.5
      vertex 12.294 7.9 -7.5
    endloop
  endfacet
  facet normal 0 0 1
    outer loop
      vertex -7.4999 26.3275 -7.5
      vertex 10.928 7.9 -7.5
      vertex 12.294 7.9 -7.5
    endloop
  endfacet
  facet normal 0 0 1
    outer loop
      vertex 15.866 1.5 -7.5
      vertex 16.7321 0 -7.5
      vertex 37.5001 -7.5 -7.5
    endloop
  endfacet
  facet normal 0 0 1
    outer loop
      vertex 0.866025 -1.5 -7.5
      vertex -7.4999 -7.5 -7.5
      vertex 37.5001 -7.5 -7.5
    endloop
  endfacet
  facet normal 0 0 1
    outer loop
      vertex 1.73205 30 -7.5
      vertex 0.866025 28.5 -7.5
      vertex 12.294 7.9 -7.5
    endloop
  endfacet
  facet normal 0 0 1
    outer loop
      vertex -7.4999 7.9 -7.5
      vertex -7.4999 -7.5 -7.5
      vertex -1.73205 0 -7.5
    endloop
  endfacet
  facet normal 0 0 1
    outer loop
      vertex 1.73205 0 -7.5
      vertex 0.866025 -1.5 -7.5
      vertex 37.5001 -7.5 -7.5
    endloop
  endfacet
  facet normal 0 0 1
    outer loop
      vertex -7.4999 7.9 -7.5
      vertex -1.73205 0 -7.5
      vertex -0.866025 1.5 -7.5
    endloop
  endfacet
  facet normal 0 0 1
    outer loop
      vertex 14.134 -1.5 -7.5
      vertex 0.866025 1.5 -7.5
      vertex 37.5001 -7.5 -7.5
    endloop
  endfacet
  facet normal 0 0 1
    outer loop
      vertex -7.4999 7.9 -7.5
      vertex -0.866025 1.5 -7.5
      vertex 0.866025 1.5 -7.5
    endloop
  endfacet
  facet normal 0 0 1
    outer loop
      vertex -0.866025 -1.5 -7.5
      vertex -7.4999 -7.5 -7.5
      vertex 0.866025 -1.5 -7.5
    endloop
  endfacet
  facet normal 0 0 1
    outer loop
      vertex -1.73205 0 -7.5
      vertex -7.4999 -7.5 -7.5
      vertex -0.866025 -1.5 -7.5
    endloop
  endfacet
  facet normal 0 0 1
    outer loop
      vertex 14.134 -1.5 -7.5
      vertex 13.2679 0 -7.5
      vertex 0.866025 1.5 -7.5
    endloop
  endfacet
  facet normal 0 0 1
    outer loop
      vertex 0.376894 37.5 -7.5
      vertex -7.4999 29.6232 -7.5
      vertex -1.73205 30 -7.5
    endloop
  endfacet
  facet normal 0 0 1
    outer loop
      vertex 13.2679 0 -7.5
      vertex 14.134 1.5 -7.5
      vertex -7.4999 7.9 -7.5
    endloop
  endfacet
  facet normal 0 0 1
    outer loop
      vertex 0.376894 37.5 -7.5
      vertex -1.73205 30 -7.5
      vertex -0.866025 31.5 -7.5
    endloop
  endfacet
  facet normal 0 0 1
    outer loop
      vertex 0.376894 37.5 -7.5
      vertex -0.866025 31.5 -7.5
      vertex 0.866025 31.5 -7.5
    endloop
  endfacet
  facet normal 0 0 1
    outer loop
      vertex 0.376894 37.5 -7.5
      vertex 1.73205 30 -7.5
      vertex 12.294 7.9 -7.5
    endloop
  endfacet
  facet normal 0 0 1
    outer loop
      vertex 0.376894 37.5 -7.5
      vertex 0.866025 31.5 -7.5
      vertex 1.73205 30 -7.5
    endloop
  endfacet
  facet normal 0 0 1
    outer loop
      vertex -1.73205 30 -7.5
      vertex -7.4999 29.6232 -7.5
      vertex -0.866025 28.5 -7.5
    endloop
  endfacet
  facet normal 0 0 1
    outer loop
      vertex -7.4999 7.9 -7.5
      vertex 0.866025 1.5 -7.5
      vertex 13.2679 0 -7.5
    endloop
  endfacet
  facet normal 0 0 1
    outer loop
      vertex 16.7321 0 -7.5
      vertex 15.866 -1.5 -7.5
      vertex 37.5001 -7.5 -7.5
    endloop
  endfacet
  facet normal 0 0 1
    outer loop
      vertex 10.928 7.9 -7.5
      vertex -7.4999 7.9 -7.5
      vertex 14.134 1.5 -7.5
    endloop
  endfacet
  facet normal 0 0 1
    outer loop
      vertex 10.928 7.9 -7.5
      vertex 15.866 1.5 -7.5
      vertex 37.5001 -7.5 -7.5
    endloop
  endfacet
  facet normal 0 0 1
    outer loop
      vertex 10.928 7.9 -7.5
      vertex 14.134 1.5 -7.5
      vertex 15.866 1.5 -7.5
    endloop
  endfacet
  facet normal 0 0 1
    outer loop
      vertex 15.866 16.5 -7.5
      vertex 16.7321 15 -7.5
      vertex 22.5 18.106 -7.5
    endloop
  endfacet
  facet normal 0 0 1
    outer loop
      vertex 15.866 -1.5 -7.5
      vertex 14.134 -1.5 -7.5
      vertex 37.5001 -7.5 -7.5
    endloop
  endfacet
  facet normal 0 0 1
    outer loop
      vertex 14.134 13.5 -7.5
      vertex 13.2679 15 -7.5
      vertex 12.294 7.9 -7.5
    endloop
  endfacet
  facet normal 0 0 1
    outer loop
      vertex 14.134 16.5 -7.5
      vertex 3.10646 37.5 -7.5
      vertex 13.2679 15 -7.5
    endloop
  endfacet
  facet normal 0 0 1
    outer loop
      vertex 22.5 18.106 -7.5
      vertex 3.10646 37.5 -7.5
      vertex 14.134 16.5 -7.5
    endloop
  endfacet
  facet normal 0 0 1
    outer loop
      vertex 15.866 13.5 -7.5
      vertex 14.134 13.5 -7.5
      vertex 12.294 7.9 -7.5
    endloop
  endfacet
  facet normal 0 0 1
    outer loop
      vertex 22.5 18.106 -7.5
      vertex 14.134 16.5 -7.5
      vertex 15.866 16.5 -7.5
    endloop
  endfacet
  facet normal 0 0 1
    outer loop
      vertex 29.134 1.5 -7.5
      vertex 30.866 1.5 -7.5
      vertex 37.5001 7.9 -7.5
    endloop
  endfacet
  facet normal 0 0 1
    outer loop
      vertex 22.5 18.106 -7.5
      vertex 15.866 13.5 -7.5
      vertex 12.294 7.9 -7.5
    endloop
  endfacet
  facet normal 0 0 1
    outer loop
      vertex 22.5 18.106 -7.5
      vertex 16.7321 15 -7.5
      vertex 15.866 13.5 -7.5
    endloop
  endfacet
  facet normal 0 0 1
    outer loop
      vertex 29.134 -1.5 -7.5
      vertex 28.2679 0 -7.5
      vertex 12.294 7.9 -7.5
    endloop
  endfacet
  facet normal 0 0 1
    outer loop
      vertex 28.2679 0 -7.5
      vertex 29.134 1.5 -7.5
      vertex 12.294 7.9 -7.5
    endloop
  endfacet
  facet normal 0 0 1
    outer loop
      vertex 30.866 -1.5 -7.5
      vertex 29.134 -1.5 -7.5
      vertex 37.5001 -7.5 -7.5
    endloop
  endfacet
  facet normal 0 0 1
    outer loop
      vertex 37.5001 -7.5 -7.5
      vertex 37.5001 7.9 -7.5
      vertex 30.866 1.5 -7.5
    endloop
  endfacet
  facet normal 0 0 1
    outer loop
      vertex 37.5001 -7.5 -7.5
      vertex 30.866 1.5 -7.5
      vertex 31.7321 0 -7.5
    endloop
  endfacet
  facet normal 0 0 1
    outer loop
      vertex 37.5001 -7.5 -7.5
      vertex 31.7321 0 -7.5
      vertex 30.866 -1.5 -7.5
    endloop
  endfacet
  facet normal 0 0 1
    outer loop
      vertex 37.5001 -7.5 -7.5
      vertex 29.134 -1.5 -7.5
      vertex 12.294 7.9 -7.5
    endloop
  endfacet
  facet normal 0 0 1
    outer loop
      vertex 0.866025 1.5 -7.5
      vertex 1.73205 0 -7.5
      vertex 37.5001 -7.5 -7.5
    endloop
  endfacet
  facet normal 0 0 1
    outer loop
      vertex 0.866025 28.5 -7.5
      vertex -0.866025 28.5 -7.5
      vertex 12.294 7.9 -7.5
    endloop
  endfacet
  facet normal 0.707098 0.707115 0
    outer loop
      vertex 10.928 7.9 7.5
      vertex 10.928 7.9 -7.5
      vertex -7.4999 26.3275 7.5
    endloop
  endfacet
  facet normal 0.707098 0.707115 0
    outer loop
      vertex -7.4999 26.3275 7.5
      vertex 10.928 7.9 -7.5
      vertex -7.4999 26.3275 -7.5
    endloop
  endfacet
  facet normal 0 0 1
    outer loop
      vertex -7.4999 26.3275 7.5
      vertex -7.4999 7.9 7.5
      vertex 10.928 7.9 7.5
    endloop
  endfacet
  facet normal 0 -1 0
    outer loop
      vertex 10.928 7.9 -7.5
      vertex 10.928 7.9 7.5
      vertex -7.4999 7.9 7.5
    endloop
  endfacet
  facet normal 0 -1 0
    outer loop
      vertex -7.4999 7.9 -7.5
      vertex 10.928 7.9 -7.5
      vertex -7.4999 7.9 7.5
    endloop
  endfacet
  facet normal 0 1 0
    outer loop
      vertex 13.2679 -7.5 1.66533e-15
      vertex -7.4999 -7.5 7.5
      vertex 14.134 -7.5 1.5
    endloop
  endfacet
  facet normal 0 1 0
    outer loop
      vertex -0.866025 -7.5 -1.5
      vertex 37.5001 -7.5 -7.5
      vertex -7.4999 -7.5 -7.5
    endloop
  endfacet
  facet normal 0 1 0
    outer loop
      vertex 0.866025 -7.5 -1.5
      vertex 37.5001 -7.5 -7.5
      vertex -0.866025 -7.5 -1.5
    endloop
  endfacet
  facet normal 0 1 0
    outer loop
      vertex -7.4999 -7.5 7.5
      vertex -0.866025 -7.5 -1.5
      vertex -7.4999 -7.5 -7.5
    endloop
  endfacet
  facet normal 0 1 0
    outer loop
      vertex 1.73205 -7.5 1.66533e-15
      vertex 37.5001 -7.5 -7.5
      vertex 0.866025 -7.5 -1.5
    endloop
  endfacet
  facet normal 0 1 0
    outer loop
      vertex 0.866025 -7.5 1.5
      vertex 37.5001 -7.5 -7.5
      vertex 1.73205 -7.5 1.66533e-15
    endloop
  endfacet
  facet normal 0 1 0
    outer loop
      vertex 14.134 -7.5 -1.5
      vertex 37.5001 -7.5 -7.5
      vertex 0.866025 -7.5 1.5
    endloop
  endfacet
  facet normal 0 1 0
    outer loop
      vertex -1.73205 -7.5 1.66533e-15
      vertex -7.4999 -7.5 7.5
      vertex -0.866025 -7.5 1.5
    endloop
  endfacet
  facet normal 0 1 0
    outer loop
      vertex 14.134 -7.5 -1.5
      vertex -7.4999 -7.5 7.5
      vertex 13.2679 -7.5 1.66533e-15
    endloop
  endfacet
  facet normal 0 1 0
    outer loop
      vertex -7.4999 -7.5 7.5
      vertex -1.73205 -7.5 1.66533e-15
      vertex -0.866025 -7.5 -1.5
    endloop
  endfacet
  facet normal 0 1 0
    outer loop
      vertex 15.866 -7.5 -1.5
      vertex 37.5001 -7.5 -7.5
      vertex 14.134 -7.5 -1.5
    endloop
  endfacet
  facet normal 0 1 0
    outer loop
      vertex -7.4999 -7.5 7.5
      vertex 14.134 -7.5 -1.5
      vertex 0.866025 -7.5 1.5
    endloop
  endfacet
  facet normal 0 1 0
    outer loop
      vertex 16.7321 -7.5 1.66533e-15
      vertex 37.5001 -7.5 -7.5
      vertex 15.866 -7.5 -1.5
    endloop
  endfacet
  facet normal 0 1 0
    outer loop
      vertex 29.134 -7.5 -1.5
      vertex 37.5001 -7.5 -7.5
      vertex 16.7321 -7.5 1.66533e-15
    endloop
  endfacet
  facet normal 0 1 0
    outer loop
      vertex 37.5001 -7.5 7.5
      vertex 16.7321 -7.5 1.66533e-15
      vertex 15.866 -7.5 1.5
    endloop
  endfacet
  facet normal 0 1 0
    outer loop
      vertex 37.5001 -7.5 7.5
      vertex 15.866 -7.5 1.5
      vertex -7.4999 -7.5 7.5
    endloop
  endfacet
  facet normal 0 1 0
    outer loop
      vertex 15.866 -7.5 1.5
      vertex 14.134 -7.5 1.5
      vertex -7.4999 -7.5 7.5
    endloop
  endfacet
  facet normal 0 1 0
    outer loop
      vertex 30.866 -7.5 1.5
      vertex 37.5001 -7.5 7.5
      vertex 31.7321 -7.5 1.66533e-15
    endloop
  endfacet
  facet normal 0 1 0
    outer loop
      vertex 30.866 -7.5 -1.5
      vertex 37.5001 -7.5 -7.5
      vertex 29.134 -7.5 -1.5
    endloop
  endfacet
  facet normal 0 1 0
    outer loop
      vertex 28.2679 -7.5 1.66533e-15
      vertex 29.134 -7.5 -1.5
      vertex 16.7321 -7.5 1.66533e-15
    endloop
  endfacet
  facet normal 0 1 0
    outer loop
      vertex 37.5001 -7.5 7.5
      vertex 37.5001 -7.5 -7.5
      vertex 30.866 -7.5 -1.5
    endloop
  endfacet
  facet normal 0 1 0
    outer loop
      vertex 37.5001 -7.5 7.5
      vertex 30.866 -7.5 -1.5
      vertex 31.7321 -7.5 1.66533e-15
    endloop
  endfacet
  facet normal 0 1 0
    outer loop
      vertex 28.2679 -7.5 1.66533e-15
      vertex 16.7321 -7.5 1.66533e-15
      vertex 29.134 -7.5 1.5
    endloop
  endfacet
  facet normal 0 1 0
    outer loop
      vertex 37.5001 -7.5 7.5
      vertex 30.866 -7.5 1.5
      vertex 29.134 -7.5 1.5
    endloop
  endfacet
  facet normal 0 1 0
    outer loop
      vertex 37.5001 -7.5 7.5
      vertex 29.134 -7.5 1.5
      vertex 16.7321 -7.5 1.66533e-15
    endloop
  endfacet
  facet normal 0 1 0
    outer loop
      vertex -0.866025 -7.5 1.5
      vertex -7.4999 -7.5 7.5
      vertex 0.866025 -7.5 1.5
    endloop
  endfacet
  facet normal 0 -1 0
    outer loop
      vertex 37.5001 7.9 -7.5
      vertex 37.5001 7.9 7.5
      vertex 12.294 7.9 7.5
    endloop
  endfacet
  facet normal 0 -1 0
    outer loop
      vertex 12.294 7.9 -7.5
      vertex 37.5001 7.9 -7.5
      vertex 12.294 7.9 7.5
    endloop
  endfacet
  facet normal 0 0 1
    outer loop
      vertex 6.3587 37.5 7.5
      vertex 3.10646 37.5 7.5
      vertex 22.5 18.106 7.5
    endloop
  endfacet
  facet normal 0 0 1
    outer loop
      vertex 37.5001 10.2 7.5
      vertex 33.658 10.2 7.5
      vertex 37.5001 7.9 7.5
    endloop
  endfacet
  facet normal 0 0 1
    outer loop
      vertex 12.294 7.9 7.5
      vertex 33.658 10.2 7.5
      vertex 22.5 18.106 7.5
    endloop
  endfacet
  facet normal 0 0 1
    outer loop
      vertex 12.294 7.9 7.5
      vertex 37.5001 7.9 7.5
      vertex 33.658 10.2 7.5
    endloop
  endfacet
  facet normal 0 0 1
    outer loop
      vertex 33.658 10.2 7.5
      vertex 6.3587 37.5 7.5
      vertex 22.5 18.106 7.5
    endloop
  endfacet
  facet normal 0.612372 -0.612372 -0.5
    outer loop
      vertex 13.2045 30.654 2.17592e-15
      vertex 13.8169 30.0416 1.5
      vertex 12.1907 28.4155 1.5
    endloop
  endfacet
  facet normal 0.612372 -0.612372 -0.5
    outer loop
      vertex 11.5784 29.0279 1.66528e-15
      vertex 13.2045 30.654 2.17592e-15
      vertex 12.1907 28.4155 1.5
    endloop
  endfacet
  facet normal 1.57009e-16 1.57009e-16 -1
    outer loop
      vertex 15.0416 28.8169 1.5
      vertex 13.4155 27.1907 1.5
      vertex 13.8169 30.0416 1.5
    endloop
  endfacet
  facet normal 1.57009e-16 1.57009e-16 -1
    outer loop
      vertex 13.8169 30.0416 1.5
      vertex 13.4155 27.1907 1.5
      vertex 12.1907 28.4155 1.5
    endloop
  endfacet
  facet normal -0.612372 0.612372 -0.5
    outer loop
      vertex 15.654 28.2045 2.17591e-15
      vertex 14.0278 26.5784 1.66527e-15
      vertex 15.0416 28.8169 1.5
    endloop
  endfacet
  facet normal -0.612372 0.612372 -0.5
    outer loop
      vertex 15.0416 28.8169 1.5
      vertex 14.0278 26.5784 1.66527e-15
      vertex 13.4155 27.1907 1.5
    endloop
  endfacet
  facet normal -0.612372 0.612372 0.5
    outer loop
      vertex 15.654 28.2045 2.17591e-15
      vertex 15.0416 28.8169 -1.5
      vertex 14.0278 26.5784 1.66527e-15
    endloop
  endfacet
  facet normal -0.612372 0.612372 0.5
    outer loop
      vertex 14.0278 26.5784 1.66527e-15
      vertex 15.0416 28.8169 -1.5
      vertex 13.4155 27.1907 -1.5
    endloop
  endfacet
  facet normal -1.57009e-16 -1.57009e-16 1
    outer loop
      vertex 13.4155 27.1907 -1.5
      vertex 15.0416 28.8169 -1.5
      vertex 13.8169 30.0416 -1.5
    endloop
  endfacet
  facet normal -1.57009e-16 -1.57009e-16 1
    outer loop
      vertex 12.1907 28.4155 -1.5
      vertex 13.4155 27.1907 -1.5
      vertex 13.8169 30.0416 -1.5
    endloop
  endfacet
  facet normal 0.612372 -0.612372 0.5
    outer loop
      vertex 12.1907 28.4155 -1.5
      vertex 13.8169 30.0416 -1.5
      vertex 13.2045 30.654 2.17592e-15
    endloop
  endfacet
  facet normal 0.612372 -0.612372 0.5
    outer loop
      vertex 11.5784 29.0279 1.66528e-15
      vertex 12.1907 28.4155 -1.5
      vertex 13.2045 30.654 2.17592e-15
    endloop
  endfacet
  facet normal -0.707115 -0.707098 0
    outer loop
      vertex 13.4155 27.1907 -1.5
      vertex 22.5 18.106 -7.5
      vertex 14.0278 26.5784 1.66527e-15
    endloop
  endfacet
  facet normal -0.707115 -0.707098 0
    outer loop
      vertex 12.1907 28.4155 -1.5
      vertex 3.10646 37.5 7.5
      vertex 3.10646 37.5 -7.5
    endloop
  endfacet
  facet normal -0.707115 -0.707098 0
    outer loop
      vertex 22.5 18.106 7.5
      vertex 3.10646 37.5 7.5
      vertex 12.1907 28.4155 1.5
    endloop
  endfacet
  facet normal -0.707115 -0.707098 0
    outer loop
      vertex 22.5 18.106 7.5
      vertex 12.1907 28.4155 1.5
      vertex 13.4155 27.1907 1.5
    endloop
  endfacet
  facet normal -0.707115 -0.707098 0
    outer loop
      vertex 22.5 18.106 7.5
      vertex 13.4155 27.1907 1.5
      vertex 22.5 18.106 -7.5
    endloop
  endfacet
  facet normal -0.707115 -0.707098 0
    outer loop
      vertex 13.4155 27.1907 1.5
      vertex 14.0278 26.5784 1.66527e-15
      vertex 22.5 18.106 -7.5
    endloop
  endfacet
  facet normal -0.707115 -0.707098 0
    outer loop
      vertex 22.5 18.106 -7.5
      vertex 13.4155 27.1907 -1.5
      vertex 3.10646 37.5 -7.5
    endloop
  endfacet
  facet normal -0.707115 -0.707098 0
    outer loop
      vertex 11.5784 29.0279 1.66528e-15
      vertex 3.10646 37.5 7.5
      vertex 12.1907 28.4155 -1.5
    endloop
  endfacet
  facet normal -0.707115 -0.707098 0
    outer loop
      vertex 13.4155 27.1907 -1.5
      vertex 12.1907 28.4155 -1.5
      vertex 3.10646 37.5 -7.5
    endloop
  endfacet
  facet normal -0.707115 -0.707098 0
    outer loop
      vertex 12.1907 28.4155 1.5
      vertex 3.10646 37.5 7.5
      vertex 11.5784 29.0279 1.66528e-15
    endloop
  endfacet
  facet normal -0.707107 0.707107 0
    outer loop
      vertex 22.5 18.106 7.5
      vertex 22.5 18.106 -7.5
      vertex 12.294 7.9 7.5
    endloop
  endfacet
  facet normal -0.707107 0.707107 0
    outer loop
      vertex 12.294 7.9 7.5
      vertex 22.5 18.106 -7.5
      vertex 12.294 7.9 -7.5
    endloop
  endfacet
endsolid OpenSCAD_Model
