solid Open beam 90 degree inner bracket
facet normal 0.0 -1.0 0.0
outer loop
vertex 3.0 -15.0 13.5
vertex 0.0 -15.0 1.5
vertex 3.0 -15.0 1.5
endloop
endfacet
facet normal 0.0 -1.0 0.0
outer loop
vertex 0.0 -15.0 1.5
vertex 3.0 -15.0 13.5
vertex 0.0 -15.0 13.5
endloop
endfacet
facet normal -1.0 0.0 0.0
outer loop
vertex 0.0 -14.9488887394336 13.8882285676538
vertex 0.0 -15.0 1.5
vertex 0.0 -15.0 13.5
endloop
endfacet
facet normal -1.0 0.0 0.0
outer loop
vertex 0.0 -15.0 1.5
vertex 0.0 -14.9488887394336 13.8882285676538
vertex 0.0 -14.9488887394336 1.11177143234622
endloop
endfacet
facet normal -1.0 0.0 0.0
outer loop
vertex 0.0 -14.9488887394336 1.11177143234622
vertex 0.0 -14.9488887394336 13.8882285676538
vertex 0.0 -14.7990381056767 14.25
endloop
endfacet
facet normal -1.0 0.0 0.0
outer loop
vertex 0.0 -14.9488887394336 1.11177143234622
vertex 0.0 -14.7990381056767 14.25
vertex 0.0 -14.7990381056767 0.75
endloop
endfacet
facet normal -1.0 0.0 0.0
outer loop
vertex 0.0 -14.7990381056767 0.75
vertex 0.0 -14.7990381056767 14.25
vertex 0.0 -14.5606601717798 14.5606601717798
endloop
endfacet
facet normal -1.0 0.0 0.0
outer loop
vertex 0.0 -14.7990381056767 0.75
vertex 0.0 -14.5606601717798 14.5606601717798
vertex 0.0 -14.5606601717798 0.439339828220179
endloop
endfacet
facet normal -1.0 0.0 0.0
outer loop
vertex 0.0 -14.5606601717798 0.439339828220179
vertex 0.0 -14.5606601717798 14.5606601717798
vertex 0.0 -14.25 14.7990381056767
endloop
endfacet
facet normal -1.0 0.0 0.0
outer loop
vertex 0.0 -14.5606601717798 0.439339828220179
vertex 0.0 -14.25 14.7990381056767
vertex 0.0 -14.25 0.200961894323342
endloop
endfacet
facet normal -1.0 0.0 0.0
outer loop
vertex 0.0 -14.25 0.200961894323342
vertex 0.0 -14.25 14.7990381056767
vertex 0.0 -13.8882285676538 14.9488887394336
endloop
endfacet
facet normal -1.0 0.0 0.0
outer loop
vertex 0.0 -14.25 0.200961894323342
vertex 0.0 -13.8882285676538 14.9488887394336
vertex 0.0 -13.8882285676538 0.0511112605663976
endloop
endfacet
facet normal -1.0 0.0 0.0
outer loop
vertex 0.0 -13.8882285676538 0.0511112605663976
vertex 0.0 -13.8882285676538 14.9488887394336
vertex 0.0 -13.5 15.0
endloop
endfacet
facet normal -1.0 0.0 0.0
outer loop
vertex 0.0 -13.8882285676538 0.0511112605663976
vertex 0.0 -13.5 15.0
vertex 0.0 -13.5 1.76247905159244e-016
endloop
endfacet
facet normal -1.0 0.0 0.0
outer loop
vertex 0.0 -13.5 1.76247905159244e-016
vertex 0.0 -13.5 15.0
vertex 0.0 -11.0454813220625 7.91411047216404
endloop
endfacet
facet normal -1.0 0.0 0.0
outer loop
vertex 0.0 -11.0454813220625 7.91411047216404
vertex 0.0 -13.5 15.0
vertex 0.0 -10.8856406460551 8.3
endloop
endfacet
facet normal -1.0 0.0 0.0
outer loop
vertex 0.0 -10.8856406460551 8.3
vertex 0.0 -13.5 15.0
vertex 0.0 -10.6313708498985 8.63137084989848
endloop
endfacet
facet normal -1.0 0.0 0.0
outer loop
vertex 0.0 -10.6313708498985 8.63137084989848
vertex 0.0 -13.5 15.0
vertex 0.0 -10.3 8.8856406460551
endloop
endfacet
facet normal -1.0 0.0 0.0
outer loop
vertex 0.0 -10.3 8.8856406460551
vertex 0.0 -13.5 15.0
vertex 0.0 0.0 15.0
endloop
endfacet
facet normal -1.0 0.0 0.0
outer loop
vertex 0.0 -13.5 1.76247905159244e-016
vertex 0.0 -11.0454813220625 7.91411047216404
vertex 0.0 -11.1 7.5
endloop
endfacet
facet normal -1.0 0.0 0.0
outer loop
vertex 0.0 -10.3 8.8856406460551
vertex 0.0 0.0 15.0
vertex 0.0 -9.91411047216403 9.04548132206251
endloop
endfacet
facet normal -1.0 0.0 0.0
outer loop
vertex 0.0 -9.91411047216403 9.04548132206251
vertex 0.0 0.0 15.0
vertex 0.0 -9.5 9.1
endloop
endfacet
facet normal -1.0 0.0 0.0
outer loop
vertex 0.0 -9.5 9.1
vertex 0.0 0.0 15.0
vertex 0.0 -7.5 9.1
endloop
endfacet
facet normal -1.0 0.0 0.0
outer loop
vertex 0.0 -7.5 9.1
vertex 0.0 0.0 15.0
vertex 0.0 -7.08588952783596 9.04548132206251
endloop
endfacet
facet normal -1.0 0.0 0.0
outer loop
vertex 0.0 -7.08588952783596 9.04548132206251
vertex 0.0 0.0 15.0
vertex 0.0 -6.7 8.8856406460551
endloop
endfacet
facet normal -1.0 0.0 0.0
outer loop
vertex 0.0 -6.7 8.8856406460551
vertex 0.0 0.0 15.0
vertex 0.0 -6.36862915010152 8.63137084989848
endloop
endfacet
facet normal -1.0 0.0 0.0
outer loop
vertex 0.0 -6.36862915010152 8.63137084989848
vertex 0.0 0.0 15.0
vertex 0.0 -6.1143593539449 8.3
endloop
endfacet
facet normal -1.0 0.0 0.0
outer loop
vertex 0.0 -6.1143593539449 8.3
vertex 0.0 0.0 15.0
vertex 0.0 -5.95451867793749 7.91411047216403
endloop
endfacet
facet normal -1.0 0.0 0.0
outer loop
vertex 0.0 -5.95451867793749 7.91411047216403
vertex 0.0 0.0 15.0
vertex 0.0 -5.9 7.5
endloop
endfacet
facet normal -1.0 0.0 0.0
outer loop
vertex 0.0 -13.5 1.76247905159244e-016
vertex 0.0 -10.3 6.1143593539449
vertex 0.0 0.0 0.0
endloop
endfacet
facet normal -1.0 0.0 0.0
outer loop
vertex 0.0 -10.3 6.1143593539449
vertex 0.0 -13.5 1.76247905159244e-016
vertex 0.0 -10.6313708498985 6.36862915010153
endloop
endfacet
facet normal -1.0 0.0 0.0
outer loop
vertex 0.0 -10.6313708498985 6.36862915010153
vertex 0.0 -13.5 1.76247905159244e-016
vertex 0.0 -10.8856406460551 6.7
endloop
endfacet
facet normal -1.0 0.0 0.0
outer loop
vertex 0.0 -10.8856406460551 6.7
vertex 0.0 -13.5 1.76247905159244e-016
vertex 0.0 -11.0454813220625 7.08588952783597
endloop
endfacet
facet normal -1.0 0.0 0.0
outer loop
vertex 0.0 -11.0454813220625 7.08588952783597
vertex 0.0 -13.5 1.76247905159244e-016
vertex 0.0 -11.1 7.5
endloop
endfacet
facet normal -1.0 0.0 0.0
outer loop
vertex 0.0 0.0 0.0
vertex 0.0 -10.3 6.1143593539449
vertex 0.0 -9.91411047216403 5.95451867793749
endloop
endfacet
facet normal -1.0 0.0 0.0
outer loop
vertex 0.0 0.0 0.0
vertex 0.0 -9.91411047216403 5.95451867793749
vertex 0.0 -9.5 5.9
endloop
endfacet
facet normal -1.0 0.0 0.0
outer loop
vertex 0.0 0.0 0.0
vertex 0.0 -9.5 5.9
vertex 0.0 -7.5 5.9
endloop
endfacet
facet normal -1.0 0.0 0.0
outer loop
vertex 0.0 0.0 0.0
vertex 0.0 -7.5 5.9
vertex 0.0 -7.08588952783597 5.95451867793749
endloop
endfacet
facet normal -1.0 0.0 0.0
outer loop
vertex 0.0 0.0 0.0
vertex 0.0 -7.08588952783597 5.95451867793749
vertex 0.0 -6.7 6.1143593539449
endloop
endfacet
facet normal -1.0 0.0 0.0
outer loop
vertex 0.0 0.0 0.0
vertex 0.0 -6.7 6.1143593539449
vertex 0.0 -6.36862915010152 6.36862915010153
endloop
endfacet
facet normal -1.0 0.0 0.0
outer loop
vertex 0.0 0.0 0.0
vertex 0.0 -6.36862915010152 6.36862915010153
vertex 0.0 -6.1143593539449 6.7
endloop
endfacet
facet normal -1.0 0.0 0.0
outer loop
vertex 0.0 0.0 0.0
vertex 0.0 -6.1143593539449 6.7
vertex 0.0 -5.95451867793749 7.08588952783597
endloop
endfacet
facet normal -1.0 0.0 0.0
outer loop
vertex 0.0 0.0 0.0
vertex 0.0 -5.95451867793749 7.08588952783597
vertex 0.0 -5.9 7.5
endloop
endfacet
facet normal -1.0 0.0 0.0
outer loop
vertex 0.0 0.0 0.0
vertex 0.0 -5.9 7.5
vertex 0.0 0.0 15.0
endloop
endfacet
facet normal 1.96697889296813e-017 1.0 -5.54885044615811e-018
outer loop
vertex 0.0 0.0 0.0
vertex 13.8882285676538 -3.52495810318487e-016 0.0511112605663972
vertex 13.5 -3.52495810318487e-016 -4.5466934203425e-016
endloop
endfacet
facet normal 1.96697889296813e-017 1.0 -5.54885044615811e-018
outer loop
vertex 13.8882285676538 -3.52495810318487e-016 0.0511112605663972
vertex 0.0 0.0 0.0
vertex 6.36862915010153 2.8199664825479e-015 6.36862915010153
endloop
endfacet
facet normal 1.96697889296813e-017 1.0 -5.54885044615811e-018
outer loop
vertex 6.36862915010153 2.8199664825479e-015 6.36862915010153
vertex 0.0 0.0 0.0
vertex 6.1143593539449 2.8199664825479e-015 6.7
endloop
endfacet
facet normal 1.96697889296813e-017 1.0 -5.54885044615811e-018
outer loop
vertex 6.1143593539449 2.8199664825479e-015 6.7
vertex 0.0 0.0 0.0
vertex 0.0 0.0 15.0
endloop
endfacet
facet normal 1.96697889296813e-017 1.0 -5.54885044615811e-018
outer loop
vertex 13.8882285676538 -3.52495810318487e-016 0.0511112605663972
vertex 6.36862915010153 2.8199664825479e-015 6.36862915010153
vertex 14.25 -3.52495810318487e-016 0.200961894323342
endloop
endfacet
facet normal 1.96697889296813e-017 1.0 -5.54885044615811e-018
outer loop
vertex 14.25 -3.52495810318487e-016 0.200961894323342
vertex 6.36862915010153 2.8199664825479e-015 6.36862915010153
vertex 6.7 2.8199664825479e-015 6.1143593539449
endloop
endfacet
facet normal 1.96697889296813e-017 1.0 -5.54885044615811e-018
outer loop
vertex 14.25 -3.52495810318487e-016 0.200961894323342
vertex 6.7 2.8199664825479e-015 6.1143593539449
vertex 14.5606601717798 -3.52495810318487e-016 0.439339828220178
endloop
endfacet
facet normal 1.96697889296813e-017 1.0 -5.54885044615811e-018
outer loop
vertex 14.5606601717798 -3.52495810318487e-016 0.439339828220178
vertex 6.7 2.8199664825479e-015 6.1143593539449
vertex 14.7990381056767 -3.52495810318487e-016 0.75
endloop
endfacet
facet normal 1.96697889296813e-017 1.0 -5.54885044615811e-018
outer loop
vertex 14.7990381056767 -3.52495810318487e-016 0.75
vertex 6.7 2.8199664825479e-015 6.1143593539449
vertex 14.9488887394336 -3.52495810318487e-016 1.11177143234622
endloop
endfacet
facet normal 1.96697889296813e-017 1.0 -5.54885044615811e-018
outer loop
vertex 14.9488887394336 -3.52495810318487e-016 1.11177143234622
vertex 6.7 2.8199664825479e-015 6.1143593539449
vertex 15.0 -3.52495810318487e-016 1.5
endloop
endfacet
facet normal 1.96697889296813e-017 1.0 -5.54885044615811e-018
outer loop
vertex 15.0 -3.52495810318487e-016 1.5
vertex 6.7 2.8199664825479e-015 6.1143593539449
vertex 7.08588952783597 2.8199664825479e-015 5.95451867793749
endloop
endfacet
facet normal 1.96697889296813e-017 1.0 -5.54885044615811e-018
outer loop
vertex 15.0 -3.52495810318487e-016 1.5
vertex 7.08588952783597 2.8199664825479e-015 5.95451867793749
vertex 7.5 2.8199664825479e-015 5.9
endloop
endfacet
facet normal 1.96697889296813e-017 1.0 -5.54885044615811e-018
outer loop
vertex 6.1143593539449 2.8199664825479e-015 6.7
vertex 0.0 0.0 15.0
vertex 5.95451867793749 2.8199664825479e-015 7.08588952783597
endloop
endfacet
facet normal 1.96697889296813e-017 1.0 -5.54885044615811e-018
outer loop
vertex 5.95451867793749 2.8199664825479e-015 7.08588952783597
vertex 0.0 0.0 15.0
vertex 5.9 2.8199664825479e-015 7.5
endloop
endfacet
facet normal 1.96697889296813e-017 1.0 -5.54885044615811e-018
outer loop
vertex 5.9 2.8199664825479e-015 7.5
vertex 0.0 0.0 15.0
vertex 5.95451867793749 2.8199664825479e-015 7.91411047216404
endloop
endfacet
facet normal 1.96697889296813e-017 1.0 -5.54885044615811e-018
outer loop
vertex 5.95451867793749 2.8199664825479e-015 7.91411047216404
vertex 0.0 0.0 15.0
vertex 6.1143593539449 2.8199664825479e-015 8.3
endloop
endfacet
facet normal 1.96697889296813e-017 1.0 -5.54885044615811e-018
outer loop
vertex 6.1143593539449 2.8199664825479e-015 8.3
vertex 0.0 0.0 15.0
vertex 6.36862915010153 2.8199664825479e-015 8.63137084989848
endloop
endfacet
facet normal 1.96697889296813e-017 1.0 -5.54885044615811e-018
outer loop
vertex 6.36862915010153 2.8199664825479e-015 8.63137084989848
vertex 0.0 0.0 15.0
vertex 6.7 2.8199664825479e-015 8.8856406460551
endloop
endfacet
facet normal 1.96697889296813e-017 1.0 -5.54885044615811e-018
outer loop
vertex 6.7 2.8199664825479e-015 8.8856406460551
vertex 0.0 0.0 15.0
vertex 7.08588952783597 2.8199664825479e-015 9.04548132206251
endloop
endfacet
facet normal 1.96697889296813e-017 1.0 -5.54885044615811e-018
outer loop
vertex 7.08588952783597 2.8199664825479e-015 9.04548132206251
vertex 0.0 0.0 15.0
vertex 7.5 2.8199664825479e-015 9.1
endloop
endfacet
facet normal 1.96697889296813e-017 1.0 -5.54885044615811e-018
outer loop
vertex 7.5 2.8199664825479e-015 9.1
vertex 0.0 0.0 15.0
vertex 9.5 2.8199664825479e-015 9.1
endloop
endfacet
facet normal 1.96697889296813e-017 1.0 -5.54885044615811e-018
outer loop
vertex 9.5 2.8199664825479e-015 9.1
vertex 0.0 0.0 15.0
vertex 15.0 0.0 13.5
endloop
endfacet
facet normal 1.96697889296813e-017 1.0 -5.54885044615811e-018
outer loop
vertex 15.0 0.0 13.5
vertex 0.0 0.0 15.0
vertex 14.9488887394336 0.0 13.8882285676538
endloop
endfacet
facet normal 1.96697889296813e-017 1.0 -5.54885044615811e-018
outer loop
vertex 14.9488887394336 0.0 13.8882285676538
vertex 0.0 0.0 15.0
vertex 14.7990381056767 -3.52495810318487e-016 14.25
endloop
endfacet
facet normal 1.96697889296813e-017 1.0 -5.54885044615811e-018
outer loop
vertex 14.7990381056767 -3.52495810318487e-016 14.25
vertex 0.0 0.0 15.0
vertex 14.5606601717798 -3.52495810318487e-016 14.5606601717798
endloop
endfacet
facet normal 1.96697889296813e-017 1.0 -5.54885044615811e-018
outer loop
vertex 14.5606601717798 -3.52495810318487e-016 14.5606601717798
vertex 0.0 0.0 15.0
vertex 14.25 -3.52495810318487e-016 14.7990381056767
endloop
endfacet
facet normal 1.96697889296813e-017 1.0 -5.54885044615811e-018
outer loop
vertex 14.25 -3.52495810318487e-016 14.7990381056767
vertex 0.0 0.0 15.0
vertex 13.8882285676538 -3.52495810318487e-016 14.9488887394336
endloop
endfacet
facet normal 1.96697889296813e-017 1.0 -5.54885044615811e-018
outer loop
vertex 13.8882285676538 -3.52495810318487e-016 14.9488887394336
vertex 0.0 0.0 15.0
vertex 13.5 -3.52495810318487e-016 15.0
endloop
endfacet
facet normal 1.96697889296813e-017 1.0 -5.54885044615811e-018
outer loop
vertex 15.0 -3.52495810318487e-016 1.5
vertex 10.8856406460551 2.8199664825479e-015 6.7
vertex 15.0 0.0 13.5
endloop
endfacet
facet normal 1.96697889296813e-017 1.0 -5.54885044615811e-018
outer loop
vertex 10.8856406460551 2.8199664825479e-015 6.7
vertex 15.0 -3.52495810318487e-016 1.5
vertex 10.6313708498985 2.8199664825479e-015 6.36862915010153
endloop
endfacet
facet normal 1.96697889296813e-017 1.0 -5.54885044615811e-018
outer loop
vertex 10.6313708498985 2.8199664825479e-015 6.36862915010153
vertex 15.0 -3.52495810318487e-016 1.5
vertex 10.3 2.8199664825479e-015 6.1143593539449
endloop
endfacet
facet normal 1.96697889296813e-017 1.0 -5.54885044615811e-018
outer loop
vertex 10.3 2.8199664825479e-015 6.1143593539449
vertex 15.0 -3.52495810318487e-016 1.5
vertex 9.91411047216403 2.8199664825479e-015 5.95451867793749
endloop
endfacet
facet normal 1.96697889296813e-017 1.0 -5.54885044615811e-018
outer loop
vertex 9.91411047216403 2.8199664825479e-015 5.95451867793749
vertex 15.0 -3.52495810318487e-016 1.5
vertex 9.5 2.8199664825479e-015 5.9
endloop
endfacet
facet normal 1.96697889296813e-017 1.0 -5.54885044615811e-018
outer loop
vertex 9.5 2.8199664825479e-015 5.9
vertex 15.0 -3.52495810318487e-016 1.5
vertex 7.5 2.8199664825479e-015 5.9
endloop
endfacet
facet normal 1.96697889296813e-017 1.0 -5.54885044615811e-018
outer loop
vertex 15.0 0.0 13.5
vertex 10.8856406460551 2.8199664825479e-015 6.7
vertex 11.0454813220625 2.8199664825479e-015 7.08588952783597
endloop
endfacet
facet normal 1.96697889296813e-017 1.0 -5.54885044615811e-018
outer loop
vertex 15.0 0.0 13.5
vertex 11.0454813220625 2.8199664825479e-015 7.08588952783597
vertex 11.1 2.8199664825479e-015 7.5
endloop
endfacet
facet normal 1.96697889296813e-017 1.0 -5.54885044615811e-018
outer loop
vertex 15.0 0.0 13.5
vertex 11.1 2.8199664825479e-015 7.5
vertex 11.0454813220625 2.8199664825479e-015 7.91411047216403
endloop
endfacet
facet normal 1.96697889296813e-017 1.0 -5.54885044615811e-018
outer loop
vertex 15.0 0.0 13.5
vertex 11.0454813220625 2.8199664825479e-015 7.91411047216403
vertex 10.8856406460551 2.8199664825479e-015 8.3
endloop
endfacet
facet normal 1.96697889296813e-017 1.0 -5.54885044615811e-018
outer loop
vertex 15.0 0.0 13.5
vertex 10.8856406460551 2.8199664825479e-015 8.3
vertex 10.6313708498985 2.8199664825479e-015 8.63137084989848
endloop
endfacet
facet normal 1.96697889296813e-017 1.0 -5.54885044615811e-018
outer loop
vertex 15.0 0.0 13.5
vertex 10.6313708498985 2.8199664825479e-015 8.63137084989848
vertex 10.3 2.8199664825479e-015 8.8856406460551
endloop
endfacet
facet normal 1.96697889296813e-017 1.0 -5.54885044615811e-018
outer loop
vertex 15.0 0.0 13.5
vertex 10.3 2.8199664825479e-015 8.8856406460551
vertex 9.91411047216404 2.8199664825479e-015 9.04548132206251
endloop
endfacet
facet normal 1.96697889296813e-017 1.0 -5.54885044615811e-018
outer loop
vertex 15.0 0.0 13.5
vertex 9.91411047216404 2.8199664825479e-015 9.04548132206251
vertex 9.5 2.8199664825479e-015 9.1
endloop
endfacet
facet normal 1.0 -0.0 -0.0
outer loop
vertex 15.0 -3.52495810318487e-016 1.5
vertex 15.0 -3.0 13.5
vertex 15.0 -3.0 1.5
endloop
endfacet
facet normal 1.0 -0.0 -0.0
outer loop
vertex 15.0 -3.0 13.5
vertex 15.0 -3.52495810318487e-016 1.5
vertex 15.0 0.0 13.5
endloop
endfacet
facet normal -0.0 -0.130526192220052 0.99144486137381
outer loop
vertex 3.0 -13.8882285676538 14.9488887394336
vertex 0.0 -13.5 15.0
vertex 0.0 -13.8882285676538 14.9488887394336
endloop
endfacet
facet normal -0.0 -0.130526192220052 0.99144486137381
outer loop
vertex 0.0 -13.5 15.0
vertex 3.0 -13.8882285676538 14.9488887394336
vertex 3.0 -13.5 15.0
endloop
endfacet
facet normal 0.0 -0.99144486137381 0.130526192220052
outer loop
vertex 3.0 -14.9488887394336 13.8882285676538
vertex 0.0 -15.0 13.5
vertex 3.0 -15.0 13.5
endloop
endfacet
facet normal 0.0 -0.99144486137381 0.130526192220052
outer loop
vertex 0.0 -15.0 13.5
vertex 3.0 -14.9488887394336 13.8882285676538
vertex 0.0 -14.9488887394336 13.8882285676538
endloop
endfacet
facet normal -0.0 -0.923879532511287 0.38268343236509
outer loop
vertex 3.0 -14.7990381056767 14.25
vertex 0.0 -14.9488887394336 13.8882285676538
vertex 3.0 -14.9488887394336 13.8882285676538
endloop
endfacet
facet normal -0.0 -0.923879532511287 0.38268343236509
outer loop
vertex 0.0 -14.9488887394336 13.8882285676538
vertex 3.0 -14.7990381056767 14.25
vertex 0.0 -14.7990381056767 14.25
endloop
endfacet
facet normal -0.0 -0.793353340291235 0.608761429008721
outer loop
vertex 3.0 -14.5606601717798 14.5606601717798
vertex 0.0 -14.7990381056767 14.25
vertex 3.0 -14.7990381056767 14.25
endloop
endfacet
facet normal -0.0 -0.793353340291235 0.608761429008721
outer loop
vertex 0.0 -14.7990381056767 14.25
vertex 3.0 -14.5606601717798 14.5606601717798
vertex 0.0 -14.5606601717798 14.5606601717798
endloop
endfacet
facet normal -0.0 -0.608761429008724 0.793353340291233
outer loop
vertex 3.0 -14.5606601717798 14.5606601717798
vertex 0.0 -14.25 14.7990381056767
vertex 0.0 -14.5606601717798 14.5606601717798
endloop
endfacet
facet normal -0.0 -0.608761429008724 0.793353340291233
outer loop
vertex 0.0 -14.25 14.7990381056767
vertex 3.0 -14.5606601717798 14.5606601717798
vertex 3.0 -14.25 14.7990381056767
endloop
endfacet
facet normal -0.0 -0.382683432365087 0.923879532511288
outer loop
vertex 3.0 -14.25 14.7990381056767
vertex 0.0 -13.8882285676538 14.9488887394336
vertex 0.0 -14.25 14.7990381056767
endloop
endfacet
facet normal -0.0 -0.382683432365087 0.923879532511288
outer loop
vertex 0.0 -13.8882285676538 14.9488887394336
vertex 3.0 -14.25 14.7990381056767
vertex 3.0 -13.8882285676538 14.9488887394336
endloop
endfacet
facet normal 0.0 -0.99144486137381 -0.130526192220052
outer loop
vertex 3.0 -15.0 1.5
vertex 0.0 -14.9488887394336 1.11177143234622
vertex 3.0 -14.9488887394336 1.11177143234622
endloop
endfacet
facet normal 0.0 -0.99144486137381 -0.130526192220052
outer loop
vertex 0.0 -14.9488887394336 1.11177143234622
vertex 3.0 -15.0 1.5
vertex 0.0 -15.0 1.5
endloop
endfacet
facet normal 0.0 -0.130526192220051 -0.99144486137381
outer loop
vertex 3.0 -13.5 1.7646065011454e-016
vertex 0.0 -13.8882285676538 0.0511112605663976
vertex 0.0 -13.5 1.76247905159244e-016
endloop
endfacet
facet normal 0.0 -0.130526192220051 -0.99144486137381
outer loop
vertex 0.0 -13.8882285676538 0.0511112605663976
vertex 3.0 -13.5 1.7646065011454e-016
vertex 3.0 -13.8882285676538 0.0511112605663976
endloop
endfacet
facet normal -0.0 -0.382683432365092 -0.923879532511286
outer loop
vertex 3.0 -13.8882285676538 0.0511112605663976
vertex 0.0 -14.25 0.200961894323342
vertex 0.0 -13.8882285676538 0.0511112605663976
endloop
endfacet
facet normal -0.0 -0.382683432365092 -0.923879532511286
outer loop
vertex 0.0 -14.25 0.200961894323342
vertex 3.0 -13.8882285676538 0.0511112605663976
vertex 3.0 -14.25 0.200961894323342
endloop
endfacet
facet normal -0.0 -0.608761429008719 -0.793353340291237
outer loop
vertex 3.0 -14.25 0.200961894323342
vertex 0.0 -14.5606601717798 0.439339828220179
vertex 0.0 -14.25 0.200961894323342
endloop
endfacet
facet normal -0.0 -0.608761429008719 -0.793353340291237
outer loop
vertex 0.0 -14.5606601717798 0.439339828220179
vertex 3.0 -14.25 0.200961894323342
vertex 3.0 -14.5606601717798 0.439339828220179
endloop
endfacet
facet normal -0.0 -0.793353340291234 -0.608761429008722
outer loop
vertex 3.0 -14.7990381056767 0.75
vertex 0.0 -14.5606601717798 0.439339828220179
vertex 3.0 -14.5606601717798 0.439339828220179
endloop
endfacet
facet normal -0.0 -0.793353340291234 -0.608761429008722
outer loop
vertex 0.0 -14.5606601717798 0.439339828220179
vertex 3.0 -14.7990381056767 0.75
vertex 0.0 -14.7990381056767 0.75
endloop
endfacet
facet normal -0.0 -0.923879532511288 -0.382683432365088
outer loop
vertex 3.0 -14.9488887394336 1.11177143234622
vertex 0.0 -14.7990381056767 0.75
vertex 3.0 -14.7990381056767 0.75
endloop
endfacet
facet normal -0.0 -0.923879532511288 -0.382683432365088
outer loop
vertex 0.0 -14.7990381056767 0.75
vertex 3.0 -14.9488887394336 1.11177143234622
vertex 0.0 -14.9488887394336 1.11177143234622
endloop
endfacet
facet normal 0.130526192220052 2.78817203506686e-031 0.99144486137381
outer loop
vertex 13.8882285676538 -3.0 14.9488887394336
vertex 13.5 -3.52495810318487e-016 15.0
vertex 13.5 -3.0 15.0
endloop
endfacet
facet normal 0.130526192220052 2.78817203506686e-031 0.99144486137381
outer loop
vertex 13.5 -3.52495810318487e-016 15.0
vertex 13.8882285676538 -3.0 14.9488887394336
vertex 13.8882285676538 -3.52495810318487e-016 14.9488887394336
endloop
endfacet
facet normal 0.38268343236509 -2.5295145190472e-016 0.923879532511287
outer loop
vertex 14.25 -3.0 14.7990381056767
vertex 13.8882285676538 -3.52495810318487e-016 14.9488887394336
vertex 13.8882285676538 -3.0 14.9488887394336
endloop
endfacet
facet normal 0.38268343236509 -2.5295145190472e-016 0.923879532511287
outer loop
vertex 13.8882285676538 -3.52495810318487e-016 14.9488887394336
vertex 14.25 -3.0 14.7990381056767
vertex 14.25 -3.52495810318487e-016 14.7990381056767
endloop
endfacet
facet normal 0.608761429008721 -2.22815898118882e-016 0.793353340291235
outer loop
vertex 14.5606601717798 -3.0 14.5606601717798
vertex 14.25 -3.52495810318487e-016 14.7990381056767
vertex 14.25 -3.0 14.7990381056767
endloop
endfacet
facet normal 0.608761429008721 -2.22815898118882e-016 0.793353340291235
outer loop
vertex 14.25 -3.52495810318487e-016 14.7990381056767
vertex 14.5606601717798 -3.0 14.5606601717798
vertex 14.5606601717798 -3.52495810318487e-016 14.5606601717798
endloop
endfacet
facet normal 0.793353340291233 -1.77495809096924e-016 0.608761429008724
outer loop
vertex 14.7990381056767 -3.52495810318487e-016 14.25
vertex 14.5606601717798 -3.0 14.5606601717798
vertex 14.7990381056767 -3.0 14.25
endloop
endfacet
facet normal 0.793353340291233 -1.77495809096924e-016 0.608761429008724
outer loop
vertex 14.5606601717798 -3.0 14.5606601717798
vertex 14.7990381056767 -3.52495810318487e-016 14.25
vertex 14.5606601717798 -3.52495810318487e-016 14.5606601717798
endloop
endfacet
facet normal 0.923879532511288 -1.20079674010702e-016 0.382683432365087
outer loop
vertex 14.9488887394336 -3.0 13.8882285676538
vertex 14.7990381056767 -3.52495810318487e-016 14.25
vertex 14.7990381056767 -3.0 14.25
endloop
endfacet
facet normal 0.923879532511288 -1.20079674010702e-016 0.382683432365087
outer loop
vertex 14.7990381056767 -3.52495810318487e-016 14.25
vertex 14.9488887394336 -3.0 13.8882285676538
vertex 14.9488887394336 0.0 13.8882285676538
endloop
endfacet
facet normal 0.99144486137381 -0.0 0.130526192220052
outer loop
vertex 15.0 0.0 13.5
vertex 14.9488887394336 -3.0 13.8882285676538
vertex 15.0 -3.0 13.5
endloop
endfacet
facet normal 0.99144486137381 -0.0 0.130526192220052
outer loop
vertex 14.9488887394336 -3.0 13.8882285676538
vertex 15.0 0.0 13.5
vertex 14.9488887394336 0.0 13.8882285676538
endloop
endfacet
facet normal 0.130526192220052 -2.22136620124279e-016 -0.99144486137381
outer loop
vertex 13.8882285676538 -3.52495810318487e-016 0.0511112605663972
vertex 13.5 -3.0 -1.08220779289128e-017
vertex 13.5 -3.52495810318487e-016 -4.5466934203425e-016
endloop
endfacet
facet normal 0.130526192220052 -2.22136620124279e-016 -0.99144486137381
outer loop
vertex 13.5 -3.0 -1.08220779289128e-017
vertex 13.8882285676538 -3.52495810318487e-016 0.0511112605663972
vertex 13.8882285676538 -3.0 0.0511112605663976
endloop
endfacet
facet normal 0.99144486137381 -0.0 -0.130526192220052
outer loop
vertex 14.9488887394336 -3.52495810318487e-016 1.11177143234622
vertex 15.0 -3.0 1.5
vertex 14.9488887394336 -3.0 1.11177143234622
endloop
endfacet
facet normal 0.99144486137381 -0.0 -0.130526192220052
outer loop
vertex 15.0 -3.0 1.5
vertex 14.9488887394336 -3.52495810318487e-016 1.11177143234622
vertex 15.0 -3.52495810318487e-016 1.5
endloop
endfacet
facet normal 0.923879532511288 -2.9702706178333e-016 -0.382683432365088
outer loop
vertex 14.7990381056767 -3.52495810318487e-016 0.75
vertex 14.9488887394336 -3.0 1.11177143234622
vertex 14.7990381056767 -3.0 0.75
endloop
endfacet
facet normal 0.923879532511288 -2.9702706178333e-016 -0.382683432365088
outer loop
vertex 14.9488887394336 -3.0 1.11177143234622
vertex 14.7990381056767 -3.52495810318487e-016 0.75
vertex 14.9488887394336 -3.52495810318487e-016 1.11177143234622
endloop
endfacet
facet normal 0.793353340291234 -3.18749299807058e-016 -0.608761429008722
outer loop
vertex 14.5606601717798 -3.52495810318487e-016 0.439339828220178
vertex 14.7990381056767 -3.0 0.75
vertex 14.5606601717798 -3.0 0.439339828220179
endloop
endfacet
facet normal 0.793353340291234 -3.18749299807058e-016 -0.608761429008722
outer loop
vertex 14.7990381056767 -3.0 0.75
vertex 14.5606601717798 -3.52495810318487e-016 0.439339828220178
vertex 14.7990381056767 -3.52495810318487e-016 0.75
endloop
endfacet
facet normal 0.608761429008723 -3.18749299807058e-016 -0.793353340291234
outer loop
vertex 14.5606601717798 -3.52495810318487e-016 0.439339828220178
vertex 14.25 -3.0 0.200961894323342
vertex 14.25 -3.52495810318487e-016 0.200961894323342
endloop
endfacet
facet normal 0.608761429008723 -3.18749299807058e-016 -0.793353340291234
outer loop
vertex 14.25 -3.0 0.200961894323342
vertex 14.5606601717798 -3.52495810318487e-016 0.439339828220178
vertex 14.5606601717798 -3.0 0.439339828220179
endloop
endfacet
facet normal 0.382683432365089 -2.9702706178333e-016 -0.923879532511287
outer loop
vertex 14.25 -3.52495810318487e-016 0.200961894323342
vertex 13.8882285676538 -3.0 0.0511112605663976
vertex 13.8882285676538 -3.52495810318487e-016 0.0511112605663972
endloop
endfacet
facet normal 0.382683432365089 -2.9702706178333e-016 -0.923879532511287
outer loop
vertex 13.8882285676538 -3.0 0.0511112605663976
vertex 14.25 -3.52495810318487e-016 0.200961894323342
vertex 14.25 -3.0 0.200961894323342
endloop
endfacet
facet normal -1.5825579748014e-017 -1.84660621740558e-017 -1.0
outer loop
vertex 0.0 0.0 0.0
vertex 3.0 -3.0 -1.06093329736165e-017
vertex 0.0 -13.5 1.76247905159244e-016
endloop
endfacet
facet normal -1.5825579748014e-017 -1.84660621740558e-017 -1.0
outer loop
vertex 3.0 -3.0 -1.06093329736165e-017
vertex 0.0 0.0 0.0
vertex 13.5 -3.52495810318487e-016 -4.5466934203425e-016
endloop
endfacet
facet normal -1.5825579748014e-017 -1.84660621740558e-017 -1.0
outer loop
vertex 3.0 -3.0 -1.06093329736165e-017
vertex 13.5 -3.52495810318487e-016 -4.5466934203425e-016
vertex 13.5 -3.0 -1.08220779289128e-017
endloop
endfacet
facet normal -1.5825579748014e-017 -1.84660621740558e-017 -1.0
outer loop
vertex 3.0 -13.5 1.7646065011454e-016
vertex 0.0 -13.5 1.76247905159244e-016
vertex 3.0 -3.0 -1.06093329736165e-017
endloop
endfacet
facet normal 0.707106781186547 0.707106781186548 -0.0
outer loop
vertex 2.0 -12.5 2.5
vertex 3.0 -13.5 13.5
vertex 3.0 -13.5 1.5
endloop
endfacet
facet normal 0.707106781186547 0.707106781186548 -0.0
outer loop
vertex 3.0 -13.5 13.5
vertex 2.0 -12.5 2.5
vertex 2.0 -12.5 12.5
endloop
endfacet
facet normal -0.707106781186549 -0.707106781186547 3.24334288756539e-017
outer loop
vertex 12.5 -2.0 12.5
vertex 13.5 -3.0 1.5
vertex 13.5 -3.0 13.5
endloop
endfacet
facet normal -0.707106781186549 -0.707106781186547 3.24334288756539e-017
outer loop
vertex 13.5 -3.0 1.5
vertex 12.5 -2.0 12.5
vertex 12.5 -2.0 2.5
endloop
endfacet
facet normal 1.0 1.8322489536143e-017 1.18795433968154e-018
outer loop
vertex 3.0 -3.0 -1.06093329736165e-017
vertex 3.0 -13.5 1.5
vertex 3.0 -13.5 1.7646065011454e-016
endloop
endfacet
facet normal 1.0 1.8322489536143e-017 1.18795433968154e-018
outer loop
vertex 3.0 -13.5 1.5
vertex 3.0 -3.0 -1.06093329736165e-017
vertex 3.0 -3.0 1.5
endloop
endfacet
facet normal 1.0 1.8322489536143e-017 1.18795433968154e-018
outer loop
vertex 3.0 -14.9488887394336 1.11177143234622
vertex 3.0 -15.0 13.5
vertex 3.0 -15.0 1.5
endloop
endfacet
facet normal 1.0 1.8322489536143e-017 1.18795433968154e-018
outer loop
vertex 3.0 -15.0 13.5
vertex 3.0 -14.9488887394336 1.11177143234622
vertex 3.0 -14.9488887394336 13.8882285676538
endloop
endfacet
facet normal 1.0 1.8322489536143e-017 1.18795433968154e-018
outer loop
vertex 3.0 -14.9488887394336 13.8882285676538
vertex 3.0 -14.9488887394336 1.11177143234622
vertex 3.0 -14.7990381056767 0.75
endloop
endfacet
facet normal 1.0 1.8322489536143e-017 1.18795433968154e-018
outer loop
vertex 3.0 -14.9488887394336 13.8882285676538
vertex 3.0 -14.7990381056767 0.75
vertex 3.0 -14.7990381056767 14.25
endloop
endfacet
facet normal 1.0 1.8322489536143e-017 1.18795433968154e-018
outer loop
vertex 3.0 -14.7990381056767 14.25
vertex 3.0 -14.7990381056767 0.75
vertex 3.0 -14.5606601717798 0.439339828220179
endloop
endfacet
facet normal 1.0 1.8322489536143e-017 1.18795433968154e-018
outer loop
vertex 3.0 -14.7990381056767 14.25
vertex 3.0 -14.5606601717798 0.439339828220179
vertex 3.0 -14.5606601717798 14.5606601717798
endloop
endfacet
facet normal 1.0 1.8322489536143e-017 1.18795433968154e-018
outer loop
vertex 3.0 -14.5606601717798 14.5606601717798
vertex 3.0 -14.5606601717798 0.439339828220179
vertex 3.0 -14.25 0.200961894323342
endloop
endfacet
facet normal 1.0 1.8322489536143e-017 1.18795433968154e-018
outer loop
vertex 3.0 -14.5606601717798 14.5606601717798
vertex 3.0 -14.25 0.200961894323342
vertex 3.0 -14.25 14.7990381056767
endloop
endfacet
facet normal 1.0 1.8322489536143e-017 1.18795433968154e-018
outer loop
vertex 3.0 -14.25 14.7990381056767
vertex 3.0 -14.25 0.200961894323342
vertex 3.0 -13.8882285676538 14.9488887394336
endloop
endfacet
facet normal 1.0 1.8322489536143e-017 1.18795433968154e-018
outer loop
vertex 3.0 -13.8882285676538 14.9488887394336
vertex 3.0 -14.25 0.200961894323342
vertex 3.0 -13.8882285676538 0.0511112605663976
endloop
endfacet
facet normal 1.0 1.8322489536143e-017 1.18795433968154e-018
outer loop
vertex 3.0 -13.8882285676538 14.9488887394336
vertex 3.0 -13.8882285676538 0.0511112605663976
vertex 3.0 -13.5 1.7646065011454e-016
endloop
endfacet
facet normal 1.0 1.8322489536143e-017 1.18795433968154e-018
outer loop
vertex 3.0 -13.8882285676538 14.9488887394336
vertex 3.0 -13.5 1.7646065011454e-016
vertex 3.0 -13.5 15.0
endloop
endfacet
facet normal 1.0 1.8322489536143e-017 1.18795433968154e-018
outer loop
vertex 3.0 -13.5 15.0
vertex 3.0 -13.5 1.7646065011454e-016
vertex 3.0 -13.5 1.5
endloop
endfacet
facet normal 1.0 1.8322489536143e-017 1.18795433968154e-018
outer loop
vertex 3.0 -13.5 15.0
vertex 3.0 -13.5 1.5
vertex 3.0 -13.5 13.5
endloop
endfacet
facet normal 1.0 1.8322489536143e-017 1.18795433968154e-018
outer loop
vertex 3.0 -13.5 15.0
vertex 3.0 -13.5 13.5
vertex 3.0 -3.0 13.5
endloop
endfacet
facet normal 1.0 1.8322489536143e-017 1.18795433968154e-018
outer loop
vertex 3.0 -13.5 15.0
vertex 3.0 -3.0 13.5
vertex 3.0 -3.0 15.0
endloop
endfacet
facet normal -1.66149141424909e-017 -1.0 -1.8780186733442e-017
outer loop
vertex 15.0 -3.0 13.5
vertex 13.5 -3.0 1.5
vertex 15.0 -3.0 1.5
endloop
endfacet
facet normal -1.66149141424909e-017 -1.0 -1.8780186733442e-017
outer loop
vertex 13.5 -3.0 1.5
vertex 15.0 -3.0 13.5
vertex 13.5 -3.0 13.5
endloop
endfacet
facet normal -1.66149141424909e-017 -1.0 -1.8780186733442e-017
outer loop
vertex 13.5 -3.0 13.5
vertex 15.0 -3.0 13.5
vertex 14.9488887394336 -3.0 13.8882285676538
endloop
endfacet
facet normal -1.66149141424909e-017 -1.0 -1.8780186733442e-017
outer loop
vertex 13.5 -3.0 13.5
vertex 14.9488887394336 -3.0 13.8882285676538
vertex 3.0 -3.0 13.5
endloop
endfacet
facet normal -1.66149141424909e-017 -1.0 -1.8780186733442e-017
outer loop
vertex 3.0 -3.0 13.5
vertex 14.9488887394336 -3.0 13.8882285676538
vertex 3.0 -3.0 15.0
endloop
endfacet
facet normal -1.66149141424909e-017 -1.0 -1.8780186733442e-017
outer loop
vertex 3.0 -3.0 15.0
vertex 14.9488887394336 -3.0 13.8882285676538
vertex 14.7990381056767 -3.0 14.25
endloop
endfacet
facet normal -1.66149141424909e-017 -1.0 -1.8780186733442e-017
outer loop
vertex 3.0 -3.0 15.0
vertex 14.7990381056767 -3.0 14.25
vertex 14.5606601717798 -3.0 14.5606601717798
endloop
endfacet
facet normal -1.66149141424909e-017 -1.0 -1.8780186733442e-017
outer loop
vertex 3.0 -3.0 15.0
vertex 14.5606601717798 -3.0 14.5606601717798
vertex 14.25 -3.0 14.7990381056767
endloop
endfacet
facet normal -1.66149141424909e-017 -1.0 -1.8780186733442e-017
outer loop
vertex 3.0 -3.0 15.0
vertex 14.25 -3.0 14.7990381056767
vertex 13.8882285676538 -3.0 14.9488887394336
endloop
endfacet
facet normal -1.66149141424909e-017 -1.0 -1.8780186733442e-017
outer loop
vertex 3.0 -3.0 15.0
vertex 13.8882285676538 -3.0 14.9488887394336
vertex 13.5 -3.0 15.0
endloop
endfacet
facet normal -1.66149141424909e-017 -1.0 -1.8780186733442e-017
outer loop
vertex 13.8882285676538 -3.0 0.0511112605663976
vertex 3.0 -3.0 -1.06093329736165e-017
vertex 13.5 -3.0 -1.08220779289128e-017
endloop
endfacet
facet normal -1.66149141424909e-017 -1.0 -1.8780186733442e-017
outer loop
vertex 3.0 -3.0 -1.06093329736165e-017
vertex 13.8882285676538 -3.0 0.0511112605663976
vertex 3.0 -3.0 1.5
endloop
endfacet
facet normal -1.66149141424909e-017 -1.0 -1.8780186733442e-017
outer loop
vertex 3.0 -3.0 1.5
vertex 13.8882285676538 -3.0 0.0511112605663976
vertex 14.25 -3.0 0.200961894323342
endloop
endfacet
facet normal -1.66149141424909e-017 -1.0 -1.8780186733442e-017
outer loop
vertex 3.0 -3.0 1.5
vertex 14.25 -3.0 0.200961894323342
vertex 14.5606601717798 -3.0 0.439339828220179
endloop
endfacet
facet normal -1.66149141424909e-017 -1.0 -1.8780186733442e-017
outer loop
vertex 3.0 -3.0 1.5
vertex 14.5606601717798 -3.0 0.439339828220179
vertex 14.7990381056767 -3.0 0.75
endloop
endfacet
facet normal -1.66149141424909e-017 -1.0 -1.8780186733442e-017
outer loop
vertex 3.0 -3.0 1.5
vertex 14.7990381056767 -3.0 0.75
vertex 14.9488887394336 -3.0 1.11177143234622
endloop
endfacet
facet normal -1.66149141424909e-017 -1.0 -1.8780186733442e-017
outer loop
vertex 3.0 -3.0 1.5
vertex 14.9488887394336 -3.0 1.11177143234622
vertex 15.0 -3.0 1.5
endloop
endfacet
facet normal -1.66149141424909e-017 -1.0 -1.8780186733442e-017
outer loop
vertex 3.0 -3.0 1.5
vertex 15.0 -3.0 1.5
vertex 13.5 -3.0 1.5
endloop
endfacet
facet normal -0.0 -0.0 1.0
outer loop
vertex 3.0 -13.5 15.0
vertex 0.0 0.0 15.0
vertex 0.0 -13.5 15.0
endloop
endfacet
facet normal -0.0 -0.0 1.0
outer loop
vertex 0.0 0.0 15.0
vertex 3.0 -13.5 15.0
vertex 3.0 -3.0 15.0
endloop
endfacet
facet normal -0.0 -0.0 1.0
outer loop
vertex 3.0 -3.0 15.0
vertex 13.5 -3.52495810318487e-016 15.0
vertex 0.0 0.0 15.0
endloop
endfacet
facet normal -0.0 -0.0 1.0
outer loop
vertex 13.5 -3.52495810318487e-016 15.0
vertex 3.0 -3.0 15.0
vertex 13.5 -3.0 15.0
endloop
endfacet
facet normal -6.51321165399326e-017 -0.707106781186548 0.707106781186547
outer loop
vertex 12.5 -2.0 2.5
vertex 3.0 -3.0 1.5
vertex 13.5 -3.0 1.5
endloop
endfacet
facet normal -6.51321165399326e-017 -0.707106781186548 0.707106781186547
outer loop
vertex 3.0 -3.0 1.5
vertex 12.5 -2.0 2.5
vertex 5.0 -2.0 2.5
endloop
endfacet
facet normal -2.76998656549139e-017 -0.707106781186547 -0.707106781186548
outer loop
vertex 5.0 -2.0 12.5
vertex 13.5 -3.0 13.5
vertex 3.0 -3.0 13.5
endloop
endfacet
facet normal -2.76998656549139e-017 -0.707106781186547 -0.707106781186548
outer loop
vertex 13.5 -3.0 13.5
vertex 5.0 -2.0 12.5
vertex 12.5 -2.0 12.5
endloop
endfacet
facet normal 0.707106781186547 3.74322508850187e-018 -0.707106781186548
outer loop
vertex 3.0 -3.0 13.5
vertex 2.0 -12.5 12.5
vertex 2.0 -5.0 12.5
endloop
endfacet
facet normal 0.707106781186547 3.74322508850187e-018 -0.707106781186548
outer loop
vertex 2.0 -12.5 12.5
vertex 3.0 -3.0 13.5
vertex 3.0 -13.5 13.5
endloop
endfacet
facet normal 0.707106781186548 -0.0 0.707106781186548
outer loop
vertex 3.0 -3.0 1.5
vertex 2.0 -12.5 2.5
vertex 3.0 -13.5 1.5
endloop
endfacet
facet normal 0.707106781186548 -0.0 0.707106781186548
outer loop
vertex 2.0 -12.5 2.5
vertex 3.0 -3.0 1.5
vertex 2.0 -5.0 2.5
endloop
endfacet
facet normal 0.894427190999916 -0.447213595499958 -3.54758398718307e-016
outer loop
vertex 3.0 -3.0 12.5
vertex 3.0 -3.0 13.5
vertex 2.0 -5.0 12.5
endloop
endfacet
facet normal 0.447213595499958 -0.894427190999916 -2.36505599145538e-016
outer loop
vertex 3.0 -3.0 13.5
vertex 3.0 -3.0 12.5
vertex 5.0 -2.0 12.5
endloop
endfacet
facet normal 0.447213595499958 -0.894427190999916 -4.73011198291078e-016
outer loop
vertex 5.0 -2.0 2.5
vertex 3.0 -3.0 2.5
vertex 3.0 -3.0 1.5
endloop
endfacet
facet normal 0.894427190999916 -0.447213595499958 -5.91263997863847e-016
outer loop
vertex 3.0 -3.0 1.5
vertex 3.0 -3.0 2.5
vertex 2.0 -5.0 2.5
endloop
endfacet
facet normal 1.0 -0.0 -0.0
outer loop
vertex 2.0 -12.5 2.5
vertex 2.0 -11.0454813220625 7.08588952783597
vertex 2.0 -12.5 12.5
endloop
endfacet
facet normal 1.0 -0.0 -0.0
outer loop
vertex 2.0 -11.0454813220625 7.08588952783597
vertex 2.0 -12.5 2.5
vertex 2.0 -10.8856406460551 6.7
endloop
endfacet
facet normal 1.0 -0.0 -0.0
outer loop
vertex 2.0 -10.8856406460551 6.7
vertex 2.0 -12.5 2.5
vertex 2.0 -10.6313708498985 6.36862915010153
endloop
endfacet
facet normal 1.0 -0.0 -0.0
outer loop
vertex 2.0 -10.6313708498985 6.36862915010153
vertex 2.0 -12.5 2.5
vertex 2.0 -10.3 6.1143593539449
endloop
endfacet
facet normal 1.0 -0.0 -0.0
outer loop
vertex 2.0 -10.3 6.1143593539449
vertex 2.0 -12.5 2.5
vertex 2.0 -5.0 2.5
endloop
endfacet
facet normal 1.0 -0.0 -0.0
outer loop
vertex 2.0 -12.5 12.5
vertex 2.0 -11.0454813220625 7.08588952783597
vertex 2.0 -11.1 7.5
endloop
endfacet
facet normal 1.0 -0.0 -0.0
outer loop
vertex 2.0 -10.3 6.1143593539449
vertex 2.0 -5.0 2.5
vertex 2.0 -9.91411047216403 5.95451867793749
endloop
endfacet
facet normal 1.0 -0.0 -0.0
outer loop
vertex 2.0 -9.91411047216403 5.95451867793749
vertex 2.0 -5.0 2.5
vertex 2.0 -9.5 5.9
endloop
endfacet
facet normal 1.0 -0.0 -0.0
outer loop
vertex 2.0 -9.5 5.9
vertex 2.0 -5.0 2.5
vertex 2.0 -7.5 5.9
endloop
endfacet
facet normal 1.0 -0.0 -0.0
outer loop
vertex 2.0 -7.5 5.9
vertex 2.0 -5.0 2.5
vertex 2.0 -7.08588952783597 5.95451867793749
endloop
endfacet
facet normal 1.0 -0.0 -0.0
outer loop
vertex 2.0 -7.08588952783597 5.95451867793749
vertex 2.0 -5.0 2.5
vertex 2.0 -6.7 6.1143593539449
endloop
endfacet
facet normal 1.0 -0.0 -0.0
outer loop
vertex 2.0 -6.7 6.1143593539449
vertex 2.0 -5.0 2.5
vertex 2.0 -6.36862915010152 6.36862915010153
endloop
endfacet
facet normal 1.0 -0.0 -0.0
outer loop
vertex 2.0 -6.36862915010152 6.36862915010153
vertex 2.0 -5.0 2.5
vertex 2.0 -6.1143593539449 6.7
endloop
endfacet
facet normal 1.0 -0.0 -0.0
outer loop
vertex 2.0 -6.1143593539449 6.7
vertex 2.0 -5.0 2.5
vertex 2.0 -5.95451867793749 7.08588952783597
endloop
endfacet
facet normal 1.0 -0.0 -0.0
outer loop
vertex 2.0 -5.95451867793749 7.08588952783597
vertex 2.0 -5.0 2.5
vertex 2.0 -5.9 7.5
endloop
endfacet
facet normal 1.0 -0.0 -0.0
outer loop
vertex 2.0 -12.5 12.5
vertex 2.0 -10.3 8.8856406460551
vertex 2.0 -5.0 12.5
endloop
endfacet
facet normal 1.0 -0.0 -0.0
outer loop
vertex 2.0 -10.3 8.8856406460551
vertex 2.0 -12.5 12.5
vertex 2.0 -10.6313708498985 8.63137084989848
endloop
endfacet
facet normal 1.0 -0.0 -0.0
outer loop
vertex 2.0 -10.6313708498985 8.63137084989848
vertex 2.0 -12.5 12.5
vertex 2.0 -10.8856406460551 8.3
endloop
endfacet
facet normal 1.0 -0.0 -0.0
outer loop
vertex 2.0 -10.8856406460551 8.3
vertex 2.0 -12.5 12.5
vertex 2.0 -11.0454813220625 7.91411047216404
endloop
endfacet
facet normal 1.0 -0.0 -0.0
outer loop
vertex 2.0 -11.0454813220625 7.91411047216404
vertex 2.0 -12.5 12.5
vertex 2.0 -11.1 7.5
endloop
endfacet
facet normal 1.0 -0.0 -0.0
outer loop
vertex 2.0 -5.0 12.5
vertex 2.0 -10.3 8.8856406460551
vertex 2.0 -9.91411047216403 9.04548132206251
endloop
endfacet
facet normal 1.0 -0.0 -0.0
outer loop
vertex 2.0 -5.0 12.5
vertex 2.0 -9.91411047216403 9.04548132206251
vertex 2.0 -9.5 9.1
endloop
endfacet
facet normal 1.0 -0.0 -0.0
outer loop
vertex 2.0 -5.0 12.5
vertex 2.0 -9.5 9.1
vertex 2.0 -7.5 9.1
endloop
endfacet
facet normal 1.0 -0.0 -0.0
outer loop
vertex 2.0 -5.0 12.5
vertex 2.0 -7.5 9.1
vertex 2.0 -7.08588952783596 9.04548132206251
endloop
endfacet
facet normal 1.0 -0.0 -0.0
outer loop
vertex 2.0 -5.0 12.5
vertex 2.0 -7.08588952783596 9.04548132206251
vertex 2.0 -6.7 8.8856406460551
endloop
endfacet
facet normal 1.0 -0.0 -0.0
outer loop
vertex 2.0 -5.0 12.5
vertex 2.0 -6.7 8.8856406460551
vertex 2.0 -6.36862915010152 8.63137084989848
endloop
endfacet
facet normal 1.0 -0.0 -0.0
outer loop
vertex 2.0 -5.0 12.5
vertex 2.0 -6.36862915010152 8.63137084989848
vertex 2.0 -6.1143593539449 8.3
endloop
endfacet
facet normal 1.0 -0.0 -0.0
outer loop
vertex 2.0 -5.0 12.5
vertex 2.0 -6.1143593539449 8.3
vertex 2.0 -5.95451867793749 7.91411047216403
endloop
endfacet
facet normal 1.0 -0.0 -0.0
outer loop
vertex 2.0 -5.0 12.5
vertex 2.0 -5.95451867793749 7.91411047216403
vertex 2.0 -5.9 7.5
endloop
endfacet
facet normal 1.0 -0.0 -0.0
outer loop
vertex 2.0 -5.0 12.5
vertex 2.0 -5.9 7.5
vertex 2.0 -5.0 2.5
endloop
endfacet
facet normal 0.894427190999916 -0.447213595499958 4.75484421122988e-017
outer loop
vertex 3.0 -3.0 2.5
vertex 2.0 -5.0 12.5
vertex 2.0 -5.0 2.5
endloop
endfacet
facet normal 0.894427190999916 -0.447213595499958 4.75484421122988e-017
outer loop
vertex 2.0 -5.0 12.5
vertex 3.0 -3.0 2.5
vertex 3.0 -3.0 12.5
endloop
endfacet
facet normal -1.17498603439496e-016 -1.0 5.28743715477731e-017
outer loop
vertex 12.5 -2.0 2.5
vertex 10.3 -2.0 6.1143593539449
vertex 5.0 -2.0 2.5
endloop
endfacet
facet normal -1.17498603439496e-016 -1.0 5.28743715477731e-017
outer loop
vertex 10.3 -2.0 6.1143593539449
vertex 12.5 -2.0 2.5
vertex 10.6313708498985 -2.0 6.36862915010153
endloop
endfacet
facet normal -1.17498603439496e-016 -1.0 5.28743715477731e-017
outer loop
vertex 10.6313708498985 -2.0 6.36862915010153
vertex 12.5 -2.0 2.5
vertex 10.8856406460551 -2.0 6.7
endloop
endfacet
facet normal -1.17498603439496e-016 -1.0 5.28743715477731e-017
outer loop
vertex 10.8856406460551 -2.0 6.7
vertex 12.5 -2.0 2.5
vertex 11.0454813220625 -2.0 7.08588952783597
endloop
endfacet
facet normal -1.17498603439496e-016 -1.0 5.28743715477731e-017
outer loop
vertex 11.0454813220625 -2.0 7.08588952783597
vertex 12.5 -2.0 2.5
vertex 12.5 -2.0 12.5
endloop
endfacet
facet normal -1.17498603439496e-016 -1.0 5.28743715477731e-017
outer loop
vertex 5.0 -2.0 2.5
vertex 10.3 -2.0 6.1143593539449
vertex 9.91411047216403 -2.0 5.95451867793749
endloop
endfacet
facet normal -1.17498603439496e-016 -1.0 5.28743715477731e-017
outer loop
vertex 5.0 -2.0 2.5
vertex 9.91411047216403 -2.0 5.95451867793749
vertex 9.5 -2.0 5.9
endloop
endfacet
facet normal -1.17498603439496e-016 -1.0 5.28743715477731e-017
outer loop
vertex 11.0454813220625 -2.0 7.08588952783597
vertex 12.5 -2.0 12.5
vertex 11.1 -2.0 7.5
endloop
endfacet
facet normal -1.17498603439496e-016 -1.0 5.28743715477731e-017
outer loop
vertex 11.1 -2.0 7.5
vertex 12.5 -2.0 12.5
vertex 11.0454813220625 -2.0 7.91411047216403
endloop
endfacet
facet normal -1.17498603439496e-016 -1.0 5.28743715477731e-017
outer loop
vertex 11.0454813220625 -2.0 7.91411047216403
vertex 12.5 -2.0 12.5
vertex 10.8856406460551 -2.0 8.3
endloop
endfacet
facet normal -1.17498603439496e-016 -1.0 5.28743715477731e-017
outer loop
vertex 10.8856406460551 -2.0 8.3
vertex 12.5 -2.0 12.5
vertex 10.6313708498985 -2.0 8.63137084989848
endloop
endfacet
facet normal -1.17498603439496e-016 -1.0 5.28743715477731e-017
outer loop
vertex 10.6313708498985 -2.0 8.63137084989848
vertex 12.5 -2.0 12.5
vertex 10.3 -2.0 8.8856406460551
endloop
endfacet
facet normal -1.17498603439496e-016 -1.0 5.28743715477731e-017
outer loop
vertex 10.3 -2.0 8.8856406460551
vertex 12.5 -2.0 12.5
vertex 9.91411047216404 -2.0 9.04548132206251
endloop
endfacet
facet normal -1.17498603439496e-016 -1.0 5.28743715477731e-017
outer loop
vertex 9.91411047216404 -2.0 9.04548132206251
vertex 12.5 -2.0 12.5
vertex 9.5 -2.0 9.1
endloop
endfacet
facet normal -1.17498603439496e-016 -1.0 5.28743715477731e-017
outer loop
vertex 9.5 -2.0 9.1
vertex 12.5 -2.0 12.5
vertex 7.5 -2.0 9.1
endloop
endfacet
facet normal -1.17498603439496e-016 -1.0 5.28743715477731e-017
outer loop
vertex 5.0 -2.0 2.5
vertex 5.95451867793749 -2.0 7.08588952783597
vertex 5.0 -2.0 12.5
endloop
endfacet
facet normal -1.17498603439496e-016 -1.0 5.28743715477731e-017
outer loop
vertex 5.95451867793749 -2.0 7.08588952783597
vertex 5.0 -2.0 2.5
vertex 6.1143593539449 -2.0 6.7
endloop
endfacet
facet normal -1.17498603439496e-016 -1.0 5.28743715477731e-017
outer loop
vertex 6.1143593539449 -2.0 6.7
vertex 5.0 -2.0 2.5
vertex 6.36862915010153 -2.0 6.36862915010153
endloop
endfacet
facet normal -1.17498603439496e-016 -1.0 5.28743715477731e-017
outer loop
vertex 6.36862915010153 -2.0 6.36862915010153
vertex 5.0 -2.0 2.5
vertex 6.7 -2.0 6.1143593539449
endloop
endfacet
facet normal -1.17498603439496e-016 -1.0 5.28743715477731e-017
outer loop
vertex 6.7 -2.0 6.1143593539449
vertex 5.0 -2.0 2.5
vertex 7.08588952783597 -2.0 5.95451867793749
endloop
endfacet
facet normal -1.17498603439496e-016 -1.0 5.28743715477731e-017
outer loop
vertex 7.08588952783597 -2.0 5.95451867793749
vertex 5.0 -2.0 2.5
vertex 7.5 -2.0 5.9
endloop
endfacet
facet normal -1.17498603439496e-016 -1.0 5.28743715477731e-017
outer loop
vertex 7.5 -2.0 5.9
vertex 5.0 -2.0 2.5
vertex 9.5 -2.0 5.9
endloop
endfacet
facet normal -1.17498603439496e-016 -1.0 5.28743715477731e-017
outer loop
vertex 5.0 -2.0 12.5
vertex 5.95451867793749 -2.0 7.08588952783597
vertex 5.9 -2.0 7.5
endloop
endfacet
facet normal -1.17498603439496e-016 -1.0 5.28743715477731e-017
outer loop
vertex 5.0 -2.0 12.5
vertex 5.9 -2.0 7.5
vertex 5.95451867793749 -2.0 7.91411047216404
endloop
endfacet
facet normal -1.17498603439496e-016 -1.0 5.28743715477731e-017
outer loop
vertex 5.0 -2.0 12.5
vertex 5.95451867793749 -2.0 7.91411047216404
vertex 6.1143593539449 -2.0 8.3
endloop
endfacet
facet normal -1.17498603439496e-016 -1.0 5.28743715477731e-017
outer loop
vertex 5.0 -2.0 12.5
vertex 6.1143593539449 -2.0 8.3
vertex 6.36862915010153 -2.0 8.63137084989848
endloop
endfacet
facet normal -1.17498603439496e-016 -1.0 5.28743715477731e-017
outer loop
vertex 5.0 -2.0 12.5
vertex 6.36862915010153 -2.0 8.63137084989848
vertex 6.7 -2.0 8.8856406460551
endloop
endfacet
facet normal -1.17498603439496e-016 -1.0 5.28743715477731e-017
outer loop
vertex 5.0 -2.0 12.5
vertex 6.7 -2.0 8.8856406460551
vertex 7.08588952783597 -2.0 9.04548132206251
endloop
endfacet
facet normal -1.17498603439496e-016 -1.0 5.28743715477731e-017
outer loop
vertex 5.0 -2.0 12.5
vertex 7.08588952783597 -2.0 9.04548132206251
vertex 7.5 -2.0 9.1
endloop
endfacet
facet normal -1.17498603439496e-016 -1.0 5.28743715477731e-017
outer loop
vertex 5.0 -2.0 12.5
vertex 7.5 -2.0 9.1
vertex 12.5 -2.0 12.5
endloop
endfacet
facet normal 0.447213595499958 -0.894427190999916 4.50458925274409e-017
outer loop
vertex 5.0 -2.0 2.5
vertex 3.0 -3.0 12.5
vertex 3.0 -3.0 2.5
endloop
endfacet
facet normal 0.447213595499958 -0.894427190999916 4.50458925274409e-017
outer loop
vertex 3.0 -3.0 12.5
vertex 5.0 -2.0 2.5
vertex 5.0 -2.0 12.5
endloop
endfacet
facet normal 0.0 0.0 1.0
outer loop
vertex 9.5 -2.0 5.9
vertex 7.5 2.8199664825479e-015 5.9
vertex 7.5 -2.0 5.9
endloop
endfacet
facet normal 0.0 0.0 1.0
outer loop
vertex 7.5 2.8199664825479e-015 5.9
vertex 9.5 -2.0 5.9
vertex 9.5 2.8199664825479e-015 5.9
endloop
endfacet
facet normal 0.130526192220052 0.0 0.99144486137381
outer loop
vertex 7.5 -2.0 5.9
vertex 7.08588952783597 2.8199664825479e-015 5.95451867793749
vertex 7.08588952783597 -2.0 5.95451867793749
endloop
endfacet
facet normal 0.130526192220052 0.0 0.99144486137381
outer loop
vertex 7.08588952783597 2.8199664825479e-015 5.95451867793749
vertex 7.5 -2.0 5.9
vertex 7.5 2.8199664825479e-015 5.9
endloop
endfacet
facet normal 0.38268343236509 0.0 0.923879532511287
outer loop
vertex 7.08588952783597 -2.0 5.95451867793749
vertex 6.7 2.8199664825479e-015 6.1143593539449
vertex 6.7 -2.0 6.1143593539449
endloop
endfacet
facet normal 0.38268343236509 0.0 0.923879532511287
outer loop
vertex 6.7 2.8199664825479e-015 6.1143593539449
vertex 7.08588952783597 -2.0 5.95451867793749
vertex 7.08588952783597 2.8199664825479e-015 5.95451867793749
endloop
endfacet
facet normal 0.608761429008722 0.0 0.793353340291234
outer loop
vertex 6.7 -2.0 6.1143593539449
vertex 6.36862915010153 2.8199664825479e-015 6.36862915010153
vertex 6.36862915010153 -2.0 6.36862915010153
endloop
endfacet
facet normal 0.608761429008722 0.0 0.793353340291234
outer loop
vertex 6.36862915010153 2.8199664825479e-015 6.36862915010153
vertex 6.7 -2.0 6.1143593539449
vertex 6.7 2.8199664825479e-015 6.1143593539449
endloop
endfacet
facet normal 0.793353340291234 0.0 0.608761429008722
outer loop
vertex 6.36862915010153 2.8199664825479e-015 6.36862915010153
vertex 6.1143593539449 -2.0 6.7
vertex 6.36862915010153 -2.0 6.36862915010153
endloop
endfacet
facet normal 0.793353340291234 0.0 0.608761429008722
outer loop
vertex 6.1143593539449 -2.0 6.7
vertex 6.36862915010153 2.8199664825479e-015 6.36862915010153
vertex 6.1143593539449 2.8199664825479e-015 6.7
endloop
endfacet
facet normal 0.923879532511287 0.0 0.38268343236509
outer loop
vertex 6.1143593539449 2.8199664825479e-015 6.7
vertex 5.95451867793749 -2.0 7.08588952783597
vertex 6.1143593539449 -2.0 6.7
endloop
endfacet
facet normal 0.923879532511287 0.0 0.38268343236509
outer loop
vertex 5.95451867793749 -2.0 7.08588952783597
vertex 6.1143593539449 2.8199664825479e-015 6.7
vertex 5.95451867793749 2.8199664825479e-015 7.08588952783597
endloop
endfacet
facet normal 0.99144486137381 0.0 0.130526192220052
outer loop
vertex 5.95451867793749 2.8199664825479e-015 7.08588952783597
vertex 5.9 -2.0 7.5
vertex 5.95451867793749 -2.0 7.08588952783597
endloop
endfacet
facet normal 0.99144486137381 0.0 0.130526192220052
outer loop
vertex 5.9 -2.0 7.5
vertex 5.95451867793749 2.8199664825479e-015 7.08588952783597
vertex 5.9 2.8199664825479e-015 7.5
endloop
endfacet
facet normal 0.99144486137381 -0.0 -0.130526192220052
outer loop
vertex 5.9 2.8199664825479e-015 7.5
vertex 5.95451867793749 -2.0 7.91411047216404
vertex 5.9 -2.0 7.5
endloop
endfacet
facet normal 0.99144486137381 -0.0 -0.130526192220052
outer loop
vertex 5.95451867793749 -2.0 7.91411047216404
vertex 5.9 2.8199664825479e-015 7.5
vertex 5.95451867793749 2.8199664825479e-015 7.91411047216404
endloop
endfacet
facet normal 0.923879532511287 -0.0 -0.38268343236509
outer loop
vertex 5.95451867793749 2.8199664825479e-015 7.91411047216404
vertex 6.1143593539449 -2.0 8.3
vertex 5.95451867793749 -2.0 7.91411047216404
endloop
endfacet
facet normal 0.923879532511287 -0.0 -0.38268343236509
outer loop
vertex 6.1143593539449 -2.0 8.3
vertex 5.95451867793749 2.8199664825479e-015 7.91411047216404
vertex 6.1143593539449 2.8199664825479e-015 8.3
endloop
endfacet
facet normal 0.793353340291233 -0.0 -0.608761429008723
outer loop
vertex 6.1143593539449 2.8199664825479e-015 8.3
vertex 6.36862915010153 -2.0 8.63137084989848
vertex 6.1143593539449 -2.0 8.3
endloop
endfacet
facet normal 0.793353340291233 -0.0 -0.608761429008723
outer loop
vertex 6.36862915010153 -2.0 8.63137084989848
vertex 6.1143593539449 2.8199664825479e-015 8.3
vertex 6.36862915010153 2.8199664825479e-015 8.63137084989848
endloop
endfacet
facet normal 0.608761429008722 -0.0 -0.793353340291234
outer loop
vertex 6.7 2.8199664825479e-015 8.8856406460551
vertex 6.36862915010153 -2.0 8.63137084989848
vertex 6.36862915010153 2.8199664825479e-015 8.63137084989848
endloop
endfacet
facet normal 0.608761429008722 -0.0 -0.793353340291234
outer loop
vertex 6.36862915010153 -2.0 8.63137084989848
vertex 6.7 2.8199664825479e-015 8.8856406460551
vertex 6.7 -2.0 8.8856406460551
endloop
endfacet
facet normal 0.382683432365087 -0.0 -0.923879532511288
outer loop
vertex 7.08588952783597 2.8199664825479e-015 9.04548132206251
vertex 6.7 -2.0 8.8856406460551
vertex 6.7 2.8199664825479e-015 8.8856406460551
endloop
endfacet
facet normal 0.382683432365087 -0.0 -0.923879532511288
outer loop
vertex 6.7 -2.0 8.8856406460551
vertex 7.08588952783597 2.8199664825479e-015 9.04548132206251
vertex 7.08588952783597 -2.0 9.04548132206251
endloop
endfacet
facet normal 0.130526192220053 -0.0 -0.99144486137381
outer loop
vertex 7.5 2.8199664825479e-015 9.1
vertex 7.08588952783597 -2.0 9.04548132206251
vertex 7.08588952783597 2.8199664825479e-015 9.04548132206251
endloop
endfacet
facet normal 0.130526192220053 -0.0 -0.99144486137381
outer loop
vertex 7.08588952783597 -2.0 9.04548132206251
vertex 7.5 2.8199664825479e-015 9.1
vertex 7.5 -2.0 9.1
endloop
endfacet
facet normal 0.0 -0.0 -1.0
outer loop
vertex 9.5 2.8199664825479e-015 9.1
vertex 7.5 -2.0 9.1
vertex 7.5 2.8199664825479e-015 9.1
endloop
endfacet
facet normal 0.0 -0.0 -1.0
outer loop
vertex 7.5 -2.0 9.1
vertex 9.5 2.8199664825479e-015 9.1
vertex 9.5 -2.0 9.1
endloop
endfacet
facet normal -0.130526192220052 -0.0 -0.99144486137381
outer loop
vertex 9.91411047216404 2.8199664825479e-015 9.04548132206251
vertex 9.5 -2.0 9.1
vertex 9.5 2.8199664825479e-015 9.1
endloop
endfacet
facet normal -0.130526192220052 -0.0 -0.99144486137381
outer loop
vertex 9.5 -2.0 9.1
vertex 9.91411047216404 2.8199664825479e-015 9.04548132206251
vertex 9.91411047216404 -2.0 9.04548132206251
endloop
endfacet
facet normal -0.382683432365091 -0.0 -0.923879532511286
outer loop
vertex 10.3 2.8199664825479e-015 8.8856406460551
vertex 9.91411047216404 -2.0 9.04548132206251
vertex 9.91411047216404 2.8199664825479e-015 9.04548132206251
endloop
endfacet
facet normal -0.382683432365091 -0.0 -0.923879532511286
outer loop
vertex 9.91411047216404 -2.0 9.04548132206251
vertex 10.3 2.8199664825479e-015 8.8856406460551
vertex 10.3 -2.0 8.8856406460551
endloop
endfacet
facet normal -0.60876142900872 -0.0 -0.793353340291236
outer loop
vertex 10.6313708498985 2.8199664825479e-015 8.63137084989848
vertex 10.3 -2.0 8.8856406460551
vertex 10.3 2.8199664825479e-015 8.8856406460551
endloop
endfacet
facet normal -0.60876142900872 -0.0 -0.793353340291236
outer loop
vertex 10.3 -2.0 8.8856406460551
vertex 10.6313708498985 2.8199664825479e-015 8.63137084989848
vertex 10.6313708498985 -2.0 8.63137084989848
endloop
endfacet
facet normal -0.793353340291236 -0.0 -0.60876142900872
outer loop
vertex 10.6313708498985 2.8199664825479e-015 8.63137084989848
vertex 10.8856406460551 -2.0 8.3
vertex 10.6313708498985 -2.0 8.63137084989848
endloop
endfacet
facet normal -0.793353340291236 -0.0 -0.60876142900872
outer loop
vertex 10.8856406460551 -2.0 8.3
vertex 10.6313708498985 2.8199664825479e-015 8.63137084989848
vertex 10.8856406460551 2.8199664825479e-015 8.3
endloop
endfacet
facet normal -0.923879532511287 -0.0 -0.382683432365088
outer loop
vertex 10.8856406460551 2.8199664825479e-015 8.3
vertex 11.0454813220625 -2.0 7.91411047216403
vertex 10.8856406460551 -2.0 8.3
endloop
endfacet
facet normal -0.923879532511287 -0.0 -0.382683432365088
outer loop
vertex 11.0454813220625 -2.0 7.91411047216403
vertex 10.8856406460551 2.8199664825479e-015 8.3
vertex 11.0454813220625 2.8199664825479e-015 7.91411047216403
endloop
endfacet
facet normal -0.99144486137381 -0.0 -0.130526192220053
outer loop
vertex 11.0454813220625 2.8199664825479e-015 7.91411047216403
vertex 11.1 -2.0 7.5
vertex 11.0454813220625 -2.0 7.91411047216403
endloop
endfacet
facet normal -0.99144486137381 -0.0 -0.130526192220053
outer loop
vertex 11.1 -2.0 7.5
vertex 11.0454813220625 2.8199664825479e-015 7.91411047216403
vertex 11.1 2.8199664825479e-015 7.5
endloop
endfacet
facet normal -0.99144486137381 -0.0 0.130526192220052
outer loop
vertex 11.1 2.8199664825479e-015 7.5
vertex 11.0454813220625 -2.0 7.08588952783597
vertex 11.1 -2.0 7.5
endloop
endfacet
facet normal -0.99144486137381 -0.0 0.130526192220052
outer loop
vertex 11.0454813220625 -2.0 7.08588952783597
vertex 11.1 2.8199664825479e-015 7.5
vertex 11.0454813220625 2.8199664825479e-015 7.08588952783597
endloop
endfacet
facet normal -0.923879532511287 -0.0 0.38268343236509
outer loop
vertex 11.0454813220625 2.8199664825479e-015 7.08588952783597
vertex 10.8856406460551 -2.0 6.7
vertex 11.0454813220625 -2.0 7.08588952783597
endloop
endfacet
facet normal -0.923879532511287 -0.0 0.38268343236509
outer loop
vertex 10.8856406460551 -2.0 6.7
vertex 11.0454813220625 2.8199664825479e-015 7.08588952783597
vertex 10.8856406460551 2.8199664825479e-015 6.7
endloop
endfacet
facet normal -0.793353340291234 -0.0 0.608761429008722
outer loop
vertex 10.8856406460551 2.8199664825479e-015 6.7
vertex 10.6313708498985 -2.0 6.36862915010153
vertex 10.8856406460551 -2.0 6.7
endloop
endfacet
facet normal -0.793353340291234 -0.0 0.608761429008722
outer loop
vertex 10.6313708498985 -2.0 6.36862915010153
vertex 10.8856406460551 2.8199664825479e-015 6.7
vertex 10.6313708498985 2.8199664825479e-015 6.36862915010153
endloop
endfacet
facet normal -0.608761429008722 -0.0 0.793353340291234
outer loop
vertex 10.6313708498985 -2.0 6.36862915010153
vertex 10.3 2.8199664825479e-015 6.1143593539449
vertex 10.3 -2.0 6.1143593539449
endloop
endfacet
facet normal -0.608761429008722 -0.0 0.793353340291234
outer loop
vertex 10.3 2.8199664825479e-015 6.1143593539449
vertex 10.6313708498985 -2.0 6.36862915010153
vertex 10.6313708498985 2.8199664825479e-015 6.36862915010153
endloop
endfacet
facet normal -0.38268343236509 -0.0 0.923879532511287
outer loop
vertex 10.3 -2.0 6.1143593539449
vertex 9.91411047216403 2.8199664825479e-015 5.95451867793749
vertex 9.91411047216403 -2.0 5.95451867793749
endloop
endfacet
facet normal -0.38268343236509 -0.0 0.923879532511287
outer loop
vertex 9.91411047216403 2.8199664825479e-015 5.95451867793749
vertex 10.3 -2.0 6.1143593539449
vertex 10.3 2.8199664825479e-015 6.1143593539449
endloop
endfacet
facet normal -0.130526192220052 -0.0 0.99144486137381
outer loop
vertex 9.91411047216403 -2.0 5.95451867793749
vertex 9.5 2.8199664825479e-015 5.9
vertex 9.5 -2.0 5.9
endloop
endfacet
facet normal -0.130526192220052 -0.0 0.99144486137381
outer loop
vertex 9.5 2.8199664825479e-015 5.9
vertex 9.91411047216403 -2.0 5.95451867793749
vertex 9.91411047216403 2.8199664825479e-015 5.95451867793749
endloop
endfacet
facet normal 0.0 0.0 1.0
outer loop
vertex 2.0 -9.5 5.9
vertex 0.0 -7.5 5.9
vertex 0.0 -9.5 5.9
endloop
endfacet
facet normal 0.0 0.0 1.0
outer loop
vertex 0.0 -7.5 5.9
vertex 2.0 -9.5 5.9
vertex 2.0 -7.5 5.9
endloop
endfacet
facet normal 0.0 0.130526192220052 0.99144486137381
outer loop
vertex 2.0 -9.91411047216403 5.95451867793749
vertex 0.0 -9.5 5.9
vertex 0.0 -9.91411047216403 5.95451867793749
endloop
endfacet
facet normal 0.0 0.130526192220052 0.99144486137381
outer loop
vertex 0.0 -9.5 5.9
vertex 2.0 -9.91411047216403 5.95451867793749
vertex 2.0 -9.5 5.9
endloop
endfacet
facet normal 0.0 0.38268343236509 0.923879532511287
outer loop
vertex 2.0 -10.3 6.1143593539449
vertex 0.0 -9.91411047216403 5.95451867793749
vertex 0.0 -10.3 6.1143593539449
endloop
endfacet
facet normal 0.0 0.38268343236509 0.923879532511287
outer loop
vertex 0.0 -9.91411047216403 5.95451867793749
vertex 2.0 -10.3 6.1143593539449
vertex 2.0 -9.91411047216403 5.95451867793749
endloop
endfacet
facet normal 0.0 0.608761429008722 0.793353340291234
outer loop
vertex 2.0 -10.6313708498985 6.36862915010153
vertex 0.0 -10.3 6.1143593539449
vertex 0.0 -10.6313708498985 6.36862915010153
endloop
endfacet
facet normal 0.0 0.608761429008722 0.793353340291234
outer loop
vertex 0.0 -10.3 6.1143593539449
vertex 2.0 -10.6313708498985 6.36862915010153
vertex 2.0 -10.3 6.1143593539449
endloop
endfacet
facet normal 0.0 0.793353340291234 0.608761429008722
outer loop
vertex 0.0 -10.8856406460551 6.7
vertex 2.0 -10.6313708498985 6.36862915010153
vertex 0.0 -10.6313708498985 6.36862915010153
endloop
endfacet
facet normal 0.0 0.793353340291234 0.608761429008722
outer loop
vertex 2.0 -10.6313708498985 6.36862915010153
vertex 0.0 -10.8856406460551 6.7
vertex 2.0 -10.8856406460551 6.7
endloop
endfacet
facet normal 0.0 0.923879532511287 0.38268343236509
outer loop
vertex 0.0 -11.0454813220625 7.08588952783597
vertex 2.0 -10.8856406460551 6.7
vertex 0.0 -10.8856406460551 6.7
endloop
endfacet
facet normal 0.0 0.923879532511287 0.38268343236509
outer loop
vertex 2.0 -10.8856406460551 6.7
vertex 0.0 -11.0454813220625 7.08588952783597
vertex 2.0 -11.0454813220625 7.08588952783597
endloop
endfacet
facet normal 0.0 0.99144486137381 0.130526192220052
outer loop
vertex 0.0 -11.1 7.5
vertex 2.0 -11.0454813220625 7.08588952783597
vertex 0.0 -11.0454813220625 7.08588952783597
endloop
endfacet
facet normal 0.0 0.99144486137381 0.130526192220052
outer loop
vertex 2.0 -11.0454813220625 7.08588952783597
vertex 0.0 -11.1 7.5
vertex 2.0 -11.1 7.5
endloop
endfacet
facet normal -0.0 0.99144486137381 -0.130526192220052
outer loop
vertex 0.0 -11.0454813220625 7.91411047216404
vertex 2.0 -11.1 7.5
vertex 0.0 -11.1 7.5
endloop
endfacet
facet normal -0.0 0.99144486137381 -0.130526192220052
outer loop
vertex 2.0 -11.1 7.5
vertex 0.0 -11.0454813220625 7.91411047216404
vertex 2.0 -11.0454813220625 7.91411047216404
endloop
endfacet
facet normal -0.0 0.923879532511287 -0.38268343236509
outer loop
vertex 0.0 -10.8856406460551 8.3
vertex 2.0 -11.0454813220625 7.91411047216404
vertex 0.0 -11.0454813220625 7.91411047216404
endloop
endfacet
facet normal -0.0 0.923879532511287 -0.38268343236509
outer loop
vertex 2.0 -11.0454813220625 7.91411047216404
vertex 0.0 -10.8856406460551 8.3
vertex 2.0 -10.8856406460551 8.3
endloop
endfacet
facet normal -0.0 0.793353340291233 -0.608761429008723
outer loop
vertex 0.0 -10.6313708498985 8.63137084989848
vertex 2.0 -10.8856406460551 8.3
vertex 0.0 -10.8856406460551 8.3
endloop
endfacet
facet normal -0.0 0.793353340291233 -0.608761429008723
outer loop
vertex 2.0 -10.8856406460551 8.3
vertex 0.0 -10.6313708498985 8.63137084989848
vertex 2.0 -10.6313708498985 8.63137084989848
endloop
endfacet
facet normal -0.0 0.608761429008722 -0.793353340291234
outer loop
vertex 2.0 -10.3 8.8856406460551
vertex 0.0 -10.6313708498985 8.63137084989848
vertex 0.0 -10.3 8.8856406460551
endloop
endfacet
facet normal -0.0 0.608761429008722 -0.793353340291234
outer loop
vertex 0.0 -10.6313708498985 8.63137084989848
vertex 2.0 -10.3 8.8856406460551
vertex 2.0 -10.6313708498985 8.63137084989848
endloop
endfacet
facet normal -0.0 0.382683432365087 -0.923879532511288
outer loop
vertex 2.0 -9.91411047216403 9.04548132206251
vertex 0.0 -10.3 8.8856406460551
vertex 0.0 -9.91411047216403 9.04548132206251
endloop
endfacet
facet normal -0.0 0.382683432365087 -0.923879532511288
outer loop
vertex 0.0 -10.3 8.8856406460551
vertex 2.0 -9.91411047216403 9.04548132206251
vertex 2.0 -10.3 8.8856406460551
endloop
endfacet
facet normal -0.0 0.130526192220053 -0.99144486137381
outer loop
vertex 2.0 -9.5 9.1
vertex 0.0 -9.91411047216403 9.04548132206251
vertex 0.0 -9.5 9.1
endloop
endfacet
facet normal -0.0 0.130526192220053 -0.99144486137381
outer loop
vertex 0.0 -9.91411047216403 9.04548132206251
vertex 2.0 -9.5 9.1
vertex 2.0 -9.91411047216403 9.04548132206251
endloop
endfacet
facet normal -0.0 0.0 -1.0
outer loop
vertex 2.0 -7.5 9.1
vertex 0.0 -9.5 9.1
vertex 0.0 -7.5 9.1
endloop
endfacet
facet normal -0.0 0.0 -1.0
outer loop
vertex 0.0 -9.5 9.1
vertex 2.0 -7.5 9.1
vertex 2.0 -9.5 9.1
endloop
endfacet
facet normal -0.0 -0.130526192220052 -0.99144486137381
outer loop
vertex 2.0 -7.08588952783596 9.04548132206251
vertex 0.0 -7.5 9.1
vertex 0.0 -7.08588952783596 9.04548132206251
endloop
endfacet
facet normal -0.0 -0.130526192220052 -0.99144486137381
outer loop
vertex 0.0 -7.5 9.1
vertex 2.0 -7.08588952783596 9.04548132206251
vertex 2.0 -7.5 9.1
endloop
endfacet
facet normal -0.0 -0.38268343236509 -0.923879532511287
outer loop
vertex 2.0 -6.7 8.8856406460551
vertex 0.0 -7.08588952783596 9.04548132206251
vertex 0.0 -6.7 8.8856406460551
endloop
endfacet
facet normal -0.0 -0.38268343236509 -0.923879532511287
outer loop
vertex 0.0 -7.08588952783596 9.04548132206251
vertex 2.0 -6.7 8.8856406460551
vertex 2.0 -7.08588952783596 9.04548132206251
endloop
endfacet
facet normal -0.0 -0.608761429008722 -0.793353340291234
outer loop
vertex 2.0 -6.36862915010152 8.63137084989848
vertex 0.0 -6.7 8.8856406460551
vertex 0.0 -6.36862915010152 8.63137084989848
endloop
endfacet
facet normal -0.0 -0.608761429008722 -0.793353340291234
outer loop
vertex 0.0 -6.7 8.8856406460551
vertex 2.0 -6.36862915010152 8.63137084989848
vertex 2.0 -6.7 8.8856406460551
endloop
endfacet
facet normal -0.0 -0.793353340291236 -0.60876142900872
outer loop
vertex 2.0 -6.36862915010152 8.63137084989848
vertex 0.0 -6.1143593539449 8.3
vertex 2.0 -6.1143593539449 8.3
endloop
endfacet
facet normal -0.0 -0.793353340291236 -0.60876142900872
outer loop
vertex 0.0 -6.1143593539449 8.3
vertex 2.0 -6.36862915010152 8.63137084989848
vertex 0.0 -6.36862915010152 8.63137084989848
endloop
endfacet
facet normal -0.0 -0.923879532511287 -0.382683432365088
outer loop
vertex 2.0 -6.1143593539449 8.3
vertex 0.0 -5.95451867793749 7.91411047216403
vertex 2.0 -5.95451867793749 7.91411047216403
endloop
endfacet
facet normal -0.0 -0.923879532511287 -0.382683432365088
outer loop
vertex 0.0 -5.95451867793749 7.91411047216403
vertex 2.0 -6.1143593539449 8.3
vertex 0.0 -6.1143593539449 8.3
endloop
endfacet
facet normal -0.0 -0.99144486137381 -0.130526192220053
outer loop
vertex 2.0 -5.95451867793749 7.91411047216403
vertex 0.0 -5.9 7.5
vertex 2.0 -5.9 7.5
endloop
endfacet
facet normal -0.0 -0.99144486137381 -0.130526192220053
outer loop
vertex 0.0 -5.9 7.5
vertex 2.0 -5.95451867793749 7.91411047216403
vertex 0.0 -5.95451867793749 7.91411047216403
endloop
endfacet
facet normal -0.0 -0.99144486137381 0.130526192220052
outer loop
vertex 2.0 -5.9 7.5
vertex 0.0 -5.95451867793749 7.08588952783597
vertex 2.0 -5.95451867793749 7.08588952783597
endloop
endfacet
facet normal -0.0 -0.99144486137381 0.130526192220052
outer loop
vertex 0.0 -5.95451867793749 7.08588952783597
vertex 2.0 -5.9 7.5
vertex 0.0 -5.9 7.5
endloop
endfacet
facet normal -0.0 -0.923879532511287 0.38268343236509
outer loop
vertex 2.0 -5.95451867793749 7.08588952783597
vertex 0.0 -6.1143593539449 6.7
vertex 2.0 -6.1143593539449 6.7
endloop
endfacet
facet normal -0.0 -0.923879532511287 0.38268343236509
outer loop
vertex 0.0 -6.1143593539449 6.7
vertex 2.0 -5.95451867793749 7.08588952783597
vertex 0.0 -5.95451867793749 7.08588952783597
endloop
endfacet
facet normal -0.0 -0.793353340291234 0.608761429008722
outer loop
vertex 2.0 -6.1143593539449 6.7
vertex 0.0 -6.36862915010152 6.36862915010153
vertex 2.0 -6.36862915010152 6.36862915010153
endloop
endfacet
facet normal -0.0 -0.793353340291234 0.608761429008722
outer loop
vertex 0.0 -6.36862915010152 6.36862915010153
vertex 2.0 -6.1143593539449 6.7
vertex 0.0 -6.1143593539449 6.7
endloop
endfacet
facet normal -0.0 -0.608761429008722 0.793353340291234
outer loop
vertex 2.0 -6.7 6.1143593539449
vertex 0.0 -6.36862915010152 6.36862915010153
vertex 0.0 -6.7 6.1143593539449
endloop
endfacet
facet normal -0.0 -0.608761429008722 0.793353340291234
outer loop
vertex 0.0 -6.36862915010152 6.36862915010153
vertex 2.0 -6.7 6.1143593539449
vertex 2.0 -6.36862915010152 6.36862915010153
endloop
endfacet
facet normal -0.0 -0.38268343236509 0.923879532511287
outer loop
vertex 2.0 -7.08588952783597 5.95451867793749
vertex 0.0 -6.7 6.1143593539449
vertex 0.0 -7.08588952783597 5.95451867793749
endloop
endfacet
facet normal -0.0 -0.38268343236509 0.923879532511287
outer loop
vertex 0.0 -6.7 6.1143593539449
vertex 2.0 -7.08588952783597 5.95451867793749
vertex 2.0 -6.7 6.1143593539449
endloop
endfacet
facet normal -0.0 -0.130526192220052 0.99144486137381
outer loop
vertex 2.0 -7.5 5.9
vertex 0.0 -7.08588952783597 5.95451867793749
vertex 0.0 -7.5 5.9
endloop
endfacet
facet normal -0.0 -0.130526192220052 0.99144486137381
outer loop
vertex 0.0 -7.08588952783597 5.95451867793749
vertex 2.0 -7.5 5.9
vertex 2.0 -7.08588952783597 5.95451867793749
endloop
endfacet
endsolid Open beam 90 degree inner bracket
