solid OpenSCAD_Model
  facet normal -1 0 0
    outer loop
      vertex -42.4685 29.5013 9
      vertex -42.4685 29.5013 0
      vertex -42.4685 -29.5013 9
    endloop
  endfacet
  facet normal -1 0 0
    outer loop
      vertex -42.4685 -29.5013 9
      vertex -42.4685 29.5013 0
      vertex -42.4685 -29.5013 0
    endloop
  endfacet
  facet normal -0.968583 -0.24869 0
    outer loop
      vertex -42.2191 -30.4725 9
      vertex -42.4685 -29.5013 9
      vertex -42.2191 -30.4725 0
    endloop
  endfacet
  facet normal -0.968583 -0.24869 0
    outer loop
      vertex -42.2191 -30.4725 0
      vertex -42.4685 -29.5013 9
      vertex -42.4685 -29.5013 0
    endloop
  endfacet
  facet normal 0 0 -1
    outer loop
      vertex -42.4685 -29.5013 0
      vertex -42.4685 29.5013 0
      vertex -42.2191 -30.4725 0
    endloop
  endfacet
  facet normal 0 0 -1
    outer loop
      vertex -42.2191 -30.4725 0
      vertex -42.4685 29.5013 0
      vertex -42.2191 30.4725 0
    endloop
  endfacet
  facet normal 0 0 -1
    outer loop
      vertex -42.2191 -30.4725 0
      vertex -42.2191 30.4725 0
      vertex -41.7361 31.3511 0
    endloop
  endfacet
  facet normal 0 0 -1
    outer loop
      vertex -42.2191 -30.4725 0
      vertex -41.7361 31.3511 0
      vertex -41.0497 32.0821 0
    endloop
  endfacet
  facet normal 0 0 -1
    outer loop
      vertex -42.2191 -30.4725 0
      vertex -41.0497 32.0821 0
      vertex -40.2031 32.6193 0
    endloop
  endfacet
  facet normal 0 0 -1
    outer loop
      vertex -42.2191 -30.4725 0
      vertex -40.2031 32.6193 0
      vertex -39.2495 32.9291 0
    endloop
  endfacet
  facet normal 0 0 -1
    outer loop
      vertex -42.2191 -30.4725 0
      vertex -39.2495 32.9291 0
      vertex -38.2488 32.9921 0
    endloop
  endfacet
  facet normal 0 0 -1
    outer loop
      vertex 27.5 28.5 0
      vertex -38.2488 32.9921 0
      vertex 38.7512 32.9921 0
    endloop
  endfacet
  facet normal 0 0 -1
    outer loop
      vertex 32.2512 26.4921 0
      vertex 39.7361 32.8042 0
      vertex 40.6433 32.3773 0
    endloop
  endfacet
  facet normal 0 0 -1
    outer loop
      vertex 33.2361 26.3042 0
      vertex 40.6433 32.3773 0
      vertex 41.4159 31.7382 0
    endloop
  endfacet
  facet normal 0 0 -1
    outer loop
      vertex 34.1433 25.8773 0
      vertex 41.4159 31.7382 0
      vertex 42.0052 30.927 0
    endloop
  endfacet
  facet normal 0 0 -1
    outer loop
      vertex 34.9159 25.2382 0
      vertex 42.0052 30.927 0
      vertex 42.3743 29.9948 0
    endloop
  endfacet
  facet normal 0 0 -1
    outer loop
      vertex 35.5052 24.427 0
      vertex 42.3743 29.9948 0
      vertex 42.5 29 0
    endloop
  endfacet
  facet normal 0 0 -1
    outer loop
      vertex 36 22.5 0
      vertex 42.5 29 0
      vertex 42.5 -5 0
    endloop
  endfacet
  facet normal 0 0 -1
    outer loop
      vertex 36 -8 0
      vertex 42.5 -5 0
      vertex 51 -5 0
    endloop
  endfacet
  facet normal 0 0 -1
    outer loop
      vertex 45 -8 0
      vertex 51 -5 0
      vertex 51 -8 0
    endloop
  endfacet
  facet normal 0 0 -1
    outer loop
      vertex 42.5 -29 0
      vertex 34.1433 -25.8773 0
      vertex 34.9159 -25.2382 0
    endloop
  endfacet
  facet normal 0 0 -1
    outer loop
      vertex 36 22.5 0
      vertex 42.5 -5 0
      vertex 36 -8 0
    endloop
  endfacet
  facet normal 0 0 -1
    outer loop
      vertex 35.8743 23.4948 0
      vertex 42.5 29 0
      vertex 36 22.5 0
    endloop
  endfacet
  facet normal 0 0 -1
    outer loop
      vertex 35.5052 24.427 0
      vertex 42.5 29 0
      vertex 35.8743 23.4948 0
    endloop
  endfacet
  facet normal 0 0 -1
    outer loop
      vertex 42.5 -29 0
      vertex 35.5052 -24.427 0
      vertex 35.8743 -23.4948 0
    endloop
  endfacet
  facet normal 0 0 -1
    outer loop
      vertex 42.5 -29 0
      vertex 34.9159 -25.2382 0
      vertex 35.5052 -24.427 0
    endloop
  endfacet
  facet normal 0 0 -1
    outer loop
      vertex 34.9159 25.2382 0
      vertex 42.3743 29.9948 0
      vertex 35.5052 24.427 0
    endloop
  endfacet
  facet normal 0 0 -1
    outer loop
      vertex 34.1433 25.8773 0
      vertex 42.0052 30.927 0
      vertex 34.9159 25.2382 0
    endloop
  endfacet
  facet normal 0 0 -1
    outer loop
      vertex 33.2361 26.3042 0
      vertex 41.4159 31.7382 0
      vertex 34.1433 25.8773 0
    endloop
  endfacet
  facet normal 0 0 -1
    outer loop
      vertex 27.5 26.4921 0
      vertex 39.7361 32.8042 0
      vertex 32.2512 26.4921 0
    endloop
  endfacet
  facet normal 0 0 -1
    outer loop
      vertex 32.2512 26.4921 0
      vertex 40.6433 32.3773 0
      vertex 33.2361 26.3042 0
    endloop
  endfacet
  facet normal 0 0 -1
    outer loop
      vertex 27.5 26.4921 0
      vertex 38.7512 32.9921 0
      vertex 39.7361 32.8042 0
    endloop
  endfacet
  facet normal 0 0 -1
    outer loop
      vertex -27.5 28.5 0
      vertex -38.2488 32.9921 0
      vertex -20.5 28.5 0
    endloop
  endfacet
  facet normal 0 0 -1
    outer loop
      vertex 20.5 26.4921 0
      vertex -38.2488 32.9921 0
      vertex 20.5 28.5 0
    endloop
  endfacet
  facet normal 0 0 -1
    outer loop
      vertex 20.5 28.5 0
      vertex -38.2488 32.9921 0
      vertex 27.5 28.5 0
    endloop
  endfacet
  facet normal 0 0 -1
    outer loop
      vertex 27.5 26.4921 0
      vertex 27.5 28.5 0
      vertex 38.7512 32.9921 0
    endloop
  endfacet
  facet normal 0 0 -1
    outer loop
      vertex -20.5 28.5 0
      vertex -38.2488 32.9921 0
      vertex 20.5 26.4921 0
    endloop
  endfacet
  facet normal 0 0 -1
    outer loop
      vertex -31.7488 26.4921 0
      vertex -27.5 28.5 0
      vertex -27.5 26.4921 0
    endloop
  endfacet
  facet normal 0 0 -1
    outer loop
      vertex -20.5 26.4921 0
      vertex -20.5 28.5 0
      vertex 20.5 26.4921 0
    endloop
  endfacet
  facet normal 0 0 -1
    outer loop
      vertex -31.7488 26.4921 0
      vertex -38.2488 32.9921 0
      vertex -27.5 28.5 0
    endloop
  endfacet
  facet normal 0 0 -1
    outer loop
      vertex -32.7495 26.4291 0
      vertex -38.2488 32.9921 0
      vertex -31.7488 26.4921 0
    endloop
  endfacet
  facet normal 0 0 -1
    outer loop
      vertex -35.9685 -23.0013 0
      vertex -42.2191 -30.4725 0
      vertex -35.9685 23.0013 0
    endloop
  endfacet
  facet normal 0 0 -1
    outer loop
      vertex -33.7031 26.1193 0
      vertex -38.2488 32.9921 0
      vertex -32.7495 26.4291 0
    endloop
  endfacet
  facet normal 0 0 -1
    outer loop
      vertex -34.5497 25.5821 0
      vertex -38.2488 32.9921 0
      vertex -33.7031 26.1193 0
    endloop
  endfacet
  facet normal 0 0 -1
    outer loop
      vertex -35.2361 24.8511 0
      vertex -38.2488 32.9921 0
      vertex -34.5497 25.5821 0
    endloop
  endfacet
  facet normal 0 0 -1
    outer loop
      vertex -35.7191 23.9725 0
      vertex -38.2488 32.9921 0
      vertex -35.2361 24.8511 0
    endloop
  endfacet
  facet normal 0 0 -1
    outer loop
      vertex -35.9685 23.0013 0
      vertex -38.2488 32.9921 0
      vertex -35.7191 23.9725 0
    endloop
  endfacet
  facet normal 0 0 -1
    outer loop
      vertex -42.2191 -30.4725 0
      vertex -38.2488 32.9921 0
      vertex -35.9685 23.0013 0
    endloop
  endfacet
  facet normal 0 0 -1
    outer loop
      vertex -35.2361 -24.8511 0
      vertex -42.2191 -30.4725 0
      vertex -35.7191 -23.9725 0
    endloop
  endfacet
  facet normal 0 0 -1
    outer loop
      vertex -42.2191 -30.4725 0
      vertex -35.9685 -23.0013 0
      vertex -35.7191 -23.9725 0
    endloop
  endfacet
  facet normal 0 0 -1
    outer loop
      vertex -34.5497 -25.5821 0
      vertex -42.2191 -30.4725 0
      vertex -35.2361 -24.8511 0
    endloop
  endfacet
  facet normal 0 0 -1
    outer loop
      vertex -19 -26.4921 0
      vertex -42.2191 -30.4725 0
      vertex -31.7488 -26.4921 0
    endloop
  endfacet
  facet normal 0 0 -1
    outer loop
      vertex 42.5 -29 0
      vertex 35.8743 -23.4948 0
      vertex 36 -22.5 0
    endloop
  endfacet
  facet normal 0 0 -1
    outer loop
      vertex -42.2191 -30.4725 0
      vertex -34.5497 -25.5821 0
      vertex -33.7031 -26.1193 0
    endloop
  endfacet
  facet normal 0 0 -1
    outer loop
      vertex -42.2191 -30.4725 0
      vertex -33.7031 -26.1193 0
      vertex -32.7495 -26.4291 0
    endloop
  endfacet
  facet normal 0 0 -1
    outer loop
      vertex -42.2191 -30.4725 0
      vertex -32.7495 -26.4291 0
      vertex -31.7488 -26.4921 0
    endloop
  endfacet
  facet normal 0 0 -1
    outer loop
      vertex 32.2512 -26.4921 0
      vertex -3.5 -27.5 0
      vertex -3.5 -26.4921 0
    endloop
  endfacet
  facet normal 0 0 -1
    outer loop
      vertex -42.2191 -30.4725 0
      vertex -19 -26.4921 0
      vertex -19 -27.5 0
    endloop
  endfacet
  facet normal 0 0 -1
    outer loop
      vertex 36 -10 0
      vertex 45 -10 0
      vertex 42.5 -13 0
    endloop
  endfacet
  facet normal 0 0 -1
    outer loop
      vertex -19 -27.5 0
      vertex -3.5 -27.5 0
      vertex -42.2191 -30.4725 0
    endloop
  endfacet
  facet normal 0 0 -1
    outer loop
      vertex -3.5 -27.5 0
      vertex 32.2512 -26.4921 0
      vertex -42.2191 -30.4725 0
    endloop
  endfacet
  facet normal 0 0 -1
    outer loop
      vertex 32.2512 -26.4921 0
      vertex 42.5 -29 0
      vertex -42.2191 -30.4725 0
    endloop
  endfacet
  facet normal 0 0 -1
    outer loop
      vertex 33.2361 -26.3042 0
      vertex 42.5 -29 0
      vertex 32.2512 -26.4921 0
    endloop
  endfacet
  facet normal 0 0 -1
    outer loop
      vertex 36 -10 0
      vertex 42.5 -13 0
      vertex 36 -22.5 0
    endloop
  endfacet
  facet normal 0 0 -1
    outer loop
      vertex 51 -10 0
      vertex 42.5 -13 0
      vertex 45 -10 0
    endloop
  endfacet
  facet normal 0 0 -1
    outer loop
      vertex 42.5 -13 0
      vertex 51 -10 0
      vertex 51 -13 0
    endloop
  endfacet
  facet normal 0 0 -1
    outer loop
      vertex 42.5 -29 0
      vertex 36 -22.5 0
      vertex 42.5 -13 0
    endloop
  endfacet
  facet normal 0 0 -1
    outer loop
      vertex 34.1433 -25.8773 0
      vertex 42.5 -29 0
      vertex 33.2361 -26.3042 0
    endloop
  endfacet
  facet normal 0 0 -1
    outer loop
      vertex -42.2191 -30.4725 0
      vertex 42.5 -29 0
      vertex 42.3743 -29.9948 0
    endloop
  endfacet
  facet normal 0 0 -1
    outer loop
      vertex -42.2191 -30.4725 0
      vertex 42.3743 -29.9948 0
      vertex 42.0052 -30.927 0
    endloop
  endfacet
  facet normal 0 0 -1
    outer loop
      vertex -42.2191 -30.4725 0
      vertex 42.0052 -30.927 0
      vertex 41.4159 -31.7382 0
    endloop
  endfacet
  facet normal 0 0 -1
    outer loop
      vertex -42.2191 -30.4725 0
      vertex 41.4159 -31.7382 0
      vertex 40.6433 -32.3773 0
    endloop
  endfacet
  facet normal 0 0 -1
    outer loop
      vertex -42.2191 -30.4725 0
      vertex 40.6433 -32.3773 0
      vertex 39.7361 -32.8042 0
    endloop
  endfacet
  facet normal 0 0 -1
    outer loop
      vertex -42.2191 -30.4725 0
      vertex 39.7361 -32.8042 0
      vertex 38.7512 -32.9921 0
    endloop
  endfacet
  facet normal 0 0 -1
    outer loop
      vertex -42.2191 -30.4725 0
      vertex 38.7512 -32.9921 0
      vertex -38.2488 -32.9921 0
    endloop
  endfacet
  facet normal 0 0 -1
    outer loop
      vertex -42.2191 -30.4725 0
      vertex -38.2488 -32.9921 0
      vertex -39.2495 -32.9291 0
    endloop
  endfacet
  facet normal 0 0 -1
    outer loop
      vertex -42.2191 -30.4725 0
      vertex -39.2495 -32.9291 0
      vertex -40.2031 -32.6193 0
    endloop
  endfacet
  facet normal 0 0 -1
    outer loop
      vertex -42.2191 -30.4725 0
      vertex -40.2031 -32.6193 0
      vertex -41.0497 -32.0821 0
    endloop
  endfacet
  facet normal 0 0 -1
    outer loop
      vertex -42.2191 -30.4725 0
      vertex -41.0497 -32.0821 0
      vertex -41.7361 -31.3511 0
    endloop
  endfacet
  facet normal 0 0 -1
    outer loop
      vertex 36 -8 0
      vertex 51 -5 0
      vertex 45 -8 0
    endloop
  endfacet
  facet normal 0 0 1
    outer loop
      vertex -42.4685 29.5013 9
      vertex -42.4685 -29.5013 9
      vertex -42.2191 -30.4725 9
    endloop
  endfacet
  facet normal 0 0 1
    outer loop
      vertex -41.0497 -32.0821 9
      vertex -42.4685 29.5013 9
      vertex -41.7361 -31.3511 9
    endloop
  endfacet
  facet normal 0 0 1
    outer loop
      vertex -41.7361 -31.3511 9
      vertex -42.4685 29.5013 9
      vertex -42.2191 -30.4725 9
    endloop
  endfacet
  facet normal 0 0 1
    outer loop
      vertex -40.2031 -32.6193 9
      vertex -42.4685 29.5013 9
      vertex -41.0497 -32.0821 9
    endloop
  endfacet
  facet normal 0 0 1
    outer loop
      vertex -39.2495 -32.9291 9
      vertex -42.4685 29.5013 9
      vertex -40.2031 -32.6193 9
    endloop
  endfacet
  facet normal 0 0 1
    outer loop
      vertex -38.2488 -32.9921 9
      vertex -42.4685 29.5013 9
      vertex -39.2495 -32.9291 9
    endloop
  endfacet
  facet normal 0 0 1
    outer loop
      vertex -35.9685 -23.0013 9
      vertex -42.4685 29.5013 9
      vertex -38.2488 -32.9921 9
    endloop
  endfacet
  facet normal 0 0 1
    outer loop
      vertex 33.2361 -26.3042 9
      vertex 32.2512 -26.4921 9
      vertex 40.6433 -32.3773 9
    endloop
  endfacet
  facet normal 0 0 1
    outer loop
      vertex 34.1433 -25.8773 9
      vertex 33.2361 -26.3042 9
      vertex 41.4159 -31.7382 9
    endloop
  endfacet
  facet normal 0 0 1
    outer loop
      vertex 34.9159 -25.2382 9
      vertex 34.1433 -25.8773 9
      vertex 42.0052 -30.927 9
    endloop
  endfacet
  facet normal 0 0 1
    outer loop
      vertex 35.5052 -24.427 9
      vertex 34.9159 -25.2382 9
      vertex 42.3743 -29.9948 9
    endloop
  endfacet
  facet normal 0 0 1
    outer loop
      vertex 35.8743 -23.4948 9
      vertex 35.5052 -24.427 9
      vertex 42.5 -29 9
    endloop
  endfacet
  facet normal 0 0 1
    outer loop
      vertex 51 -10 9
      vertex 45 -10 9
      vertex 51 -13 9
    endloop
  endfacet
  facet normal 0 0 1
    outer loop
      vertex -20.5 26.4921 9
      vertex 20.5 26.4921 9
      vertex -20.5 28.5 9
    endloop
  endfacet
  facet normal 0 0 1
    outer loop
      vertex 42.5 -13 9
      vertex 36 -10 9
      vertex 42.5 -29 9
    endloop
  endfacet
  facet normal 0 0 1
    outer loop
      vertex 36 -10 9
      vertex 36 -22.5 9
      vertex 42.5 -29 9
    endloop
  endfacet
  facet normal 0 0 1
    outer loop
      vertex 36 -22.5 9
      vertex 35.8743 -23.4948 9
      vertex 42.5 -29 9
    endloop
  endfacet
  facet normal 0 0 1
    outer loop
      vertex -35.2361 24.8511 9
      vertex -34.5497 25.5821 9
      vertex -42.4685 29.5013 9
    endloop
  endfacet
  facet normal 0 0 1
    outer loop
      vertex 42.5 -29 9
      vertex 35.5052 -24.427 9
      vertex 42.3743 -29.9948 9
    endloop
  endfacet
  facet normal 0 0 1
    outer loop
      vertex 42.3743 -29.9948 9
      vertex 34.9159 -25.2382 9
      vertex 42.0052 -30.927 9
    endloop
  endfacet
  facet normal 0 0 1
    outer loop
      vertex -34.5497 25.5821 9
      vertex -33.7031 26.1193 9
      vertex -42.4685 29.5013 9
    endloop
  endfacet
  facet normal 0 0 1
    outer loop
      vertex 42.0052 -30.927 9
      vertex 34.1433 -25.8773 9
      vertex 41.4159 -31.7382 9
    endloop
  endfacet
  facet normal 0 0 1
    outer loop
      vertex 41.4159 -31.7382 9
      vertex 33.2361 -26.3042 9
      vertex 40.6433 -32.3773 9
    endloop
  endfacet
  facet normal 0 0 1
    outer loop
      vertex 40.6433 -32.3773 9
      vertex 32.2512 -26.4921 9
      vertex 39.7361 -32.8042 9
    endloop
  endfacet
  facet normal 0 0 1
    outer loop
      vertex -19 -26.4921 9
      vertex -31.7488 -26.4921 9
      vertex -19 -27.5 9
    endloop
  endfacet
  facet normal 0 0 1
    outer loop
      vertex 38.7512 -32.9921 9
      vertex -3.5 -27.5 9
      vertex -38.2488 -32.9921 9
    endloop
  endfacet
  facet normal 0 0 1
    outer loop
      vertex 38.7512 -32.9921 9
      vertex -3.5 -26.4921 9
      vertex -3.5 -27.5 9
    endloop
  endfacet
  facet normal 0 0 1
    outer loop
      vertex -19 -27.5 9
      vertex -31.7488 -26.4921 9
      vertex -38.2488 -32.9921 9
    endloop
  endfacet
  facet normal 0 0 1
    outer loop
      vertex -31.7488 -26.4921 9
      vertex -32.7495 -26.4291 9
      vertex -38.2488 -32.9921 9
    endloop
  endfacet
  facet normal 0 0 1
    outer loop
      vertex -32.7495 -26.4291 9
      vertex -33.7031 -26.1193 9
      vertex -38.2488 -32.9921 9
    endloop
  endfacet
  facet normal 0 0 1
    outer loop
      vertex -33.7031 -26.1193 9
      vertex -34.5497 -25.5821 9
      vertex -38.2488 -32.9921 9
    endloop
  endfacet
  facet normal 0 0 1
    outer loop
      vertex -34.5497 -25.5821 9
      vertex -35.2361 -24.8511 9
      vertex -38.2488 -32.9921 9
    endloop
  endfacet
  facet normal 0 0 1
    outer loop
      vertex -35.2361 -24.8511 9
      vertex -35.7191 -23.9725 9
      vertex -38.2488 -32.9921 9
    endloop
  endfacet
  facet normal 0 0 1
    outer loop
      vertex -35.7191 23.9725 9
      vertex -35.2361 24.8511 9
      vertex -42.4685 29.5013 9
    endloop
  endfacet
  facet normal 0 0 1
    outer loop
      vertex -35.7191 -23.9725 9
      vertex -35.9685 -23.0013 9
      vertex -38.2488 -32.9921 9
    endloop
  endfacet
  facet normal 0 0 1
    outer loop
      vertex -35.7191 23.9725 9
      vertex -42.4685 29.5013 9
      vertex -35.9685 23.0013 9
    endloop
  endfacet
  facet normal 0 0 1
    outer loop
      vertex -3.5 -27.5 9
      vertex -19 -27.5 9
      vertex -38.2488 -32.9921 9
    endloop
  endfacet
  facet normal 0 0 1
    outer loop
      vertex 36 -8 9
      vertex 45 -8 9
      vertex 42.5 -5 9
    endloop
  endfacet
  facet normal 0 0 1
    outer loop
      vertex 42.5 -5 9
      vertex 42.5 29 9
      vertex 35.8743 23.4948 9
    endloop
  endfacet
  facet normal 0 0 1
    outer loop
      vertex -32.7495 26.4291 9
      vertex -42.4685 29.5013 9
      vertex -33.7031 26.1193 9
    endloop
  endfacet
  facet normal 0 0 1
    outer loop
      vertex 18.9685 32.9921 9
      vertex 41.4159 31.7382 9
      vertex 40.6433 32.3773 9
    endloop
  endfacet
  facet normal 0 0 1
    outer loop
      vertex -31.7488 26.4921 9
      vertex -42.4685 29.5013 9
      vertex -32.7495 26.4291 9
    endloop
  endfacet
  facet normal 0 0 1
    outer loop
      vertex 18.9685 32.9921 9
      vertex 42.3743 29.9948 9
      vertex 42.0052 30.927 9
    endloop
  endfacet
  facet normal 0 0 1
    outer loop
      vertex -27.5 26.4921 9
      vertex -42.4685 29.5013 9
      vertex -31.7488 26.4921 9
    endloop
  endfacet
  facet normal 0 0 1
    outer loop
      vertex 18.9685 32.9921 9
      vertex 18.9685 29 9
      vertex 42.5 29 9
    endloop
  endfacet
  facet normal 0 0 1
    outer loop
      vertex -27.5 28.5 9
      vertex -42.4685 29.5013 9
      vertex -27.5 26.4921 9
    endloop
  endfacet
  facet normal 0 0 1
    outer loop
      vertex 18.9685 32.9921 9
      vertex 42.5 29 9
      vertex 42.3743 29.9948 9
    endloop
  endfacet
  facet normal 0 0 1
    outer loop
      vertex -20.5 28.5 9
      vertex -42.4685 29.5013 9
      vertex -27.5 28.5 9
    endloop
  endfacet
  facet normal 0 0 1
    outer loop
      vertex 27.5 26.4921 9
      vertex 32.2512 26.4921 9
      vertex 27.5 28.5 9
    endloop
  endfacet
  facet normal 0 0 1
    outer loop
      vertex -19 29 9
      vertex -42.4685 29.5013 9
      vertex -20.5 28.5 9
    endloop
  endfacet
  facet normal 0 0 1
    outer loop
      vertex 20.5 28.5 9
      vertex -20.5 28.5 9
      vertex 20.5 26.4921 9
    endloop
  endfacet
  facet normal 0 0 1
    outer loop
      vertex -19 29 9
      vertex -19 32.9921 9
      vertex -42.4685 29.5013 9
    endloop
  endfacet
  facet normal 0 0 1
    outer loop
      vertex 18.9685 32.9921 9
      vertex 40.6433 32.3773 9
      vertex 39.7361 32.8042 9
    endloop
  endfacet
  facet normal 0 0 1
    outer loop
      vertex 33.2361 26.3042 9
      vertex 27.5 28.5 9
      vertex 32.2512 26.4921 9
    endloop
  endfacet
  facet normal 0 0 1
    outer loop
      vertex 42.5 29 9
      vertex 27.5 28.5 9
      vertex 33.2361 26.3042 9
    endloop
  endfacet
  facet normal 0 0 1
    outer loop
      vertex 42.5 29 9
      vertex 33.2361 26.3042 9
      vertex 34.1433 25.8773 9
    endloop
  endfacet
  facet normal 0 0 1
    outer loop
      vertex 42.5 29 9
      vertex 34.1433 25.8773 9
      vertex 34.9159 25.2382 9
    endloop
  endfacet
  facet normal 0 0 1
    outer loop
      vertex 42.5 -5 9
      vertex 35.8743 23.4948 9
      vertex 36 22.5 9
    endloop
  endfacet
  facet normal 0 0 1
    outer loop
      vertex 42.5 29 9
      vertex 34.9159 25.2382 9
      vertex 35.5052 24.427 9
    endloop
  endfacet
  facet normal 0 0 1
    outer loop
      vertex 18.9685 32.9921 9
      vertex 39.7361 32.8042 9
      vertex 38.7512 32.9921 9
    endloop
  endfacet
  facet normal 0 0 1
    outer loop
      vertex 32.2512 -26.4921 9
      vertex 38.7512 -32.9921 9
      vertex 39.7361 -32.8042 9
    endloop
  endfacet
  facet normal 0 0 1
    outer loop
      vertex 32.2512 -26.4921 9
      vertex -3.5 -26.4921 9
      vertex 38.7512 -32.9921 9
    endloop
  endfacet
  facet normal 0 0 1
    outer loop
      vertex 18.9685 32.9921 9
      vertex 42.0052 30.927 9
      vertex 41.4159 31.7382 9
    endloop
  endfacet
  facet normal 0 0 1
    outer loop
      vertex 18.9685 29 9
      vertex 20.5 28.5 9
      vertex 27.5 28.5 9
    endloop
  endfacet
  facet normal 0 0 1
    outer loop
      vertex 18.9685 29 9
      vertex -19 29 9
      vertex 20.5 28.5 9
    endloop
  endfacet
  facet normal 0 0 1
    outer loop
      vertex 42.5 29 9
      vertex 18.9685 29 9
      vertex 27.5 28.5 9
    endloop
  endfacet
  facet normal 0 0 1
    outer loop
      vertex 20.5 28.5 9
      vertex -19 29 9
      vertex -20.5 28.5 9
    endloop
  endfacet
  facet normal 0 0 1
    outer loop
      vertex -38.2488 32.9921 9
      vertex -42.4685 29.5013 9
      vertex -19 32.9921 9
    endloop
  endfacet
  facet normal 0 0 1
    outer loop
      vertex -39.2495 32.9291 9
      vertex -42.4685 29.5013 9
      vertex -38.2488 32.9921 9
    endloop
  endfacet
  facet normal 0 0 1
    outer loop
      vertex -40.2031 32.6193 9
      vertex -42.4685 29.5013 9
      vertex -39.2495 32.9291 9
    endloop
  endfacet
  facet normal 0 0 1
    outer loop
      vertex -41.0497 32.0821 9
      vertex -42.4685 29.5013 9
      vertex -40.2031 32.6193 9
    endloop
  endfacet
  facet normal 0 0 1
    outer loop
      vertex -41.7361 31.3511 9
      vertex -42.4685 29.5013 9
      vertex -41.0497 32.0821 9
    endloop
  endfacet
  facet normal 0 0 1
    outer loop
      vertex -42.2191 30.4725 9
      vertex -42.4685 29.5013 9
      vertex -41.7361 31.3511 9
    endloop
  endfacet
  facet normal 0 0 1
    outer loop
      vertex 35.8743 23.4948 9
      vertex 42.5 29 9
      vertex 35.5052 24.427 9
    endloop
  endfacet
  facet normal 0 0 1
    outer loop
      vertex 45 -10 9
      vertex 42.5 -13 9
      vertex 51 -13 9
    endloop
  endfacet
  facet normal 0 0 1
    outer loop
      vertex 45 -10 9
      vertex 36 -10 9
      vertex 42.5 -13 9
    endloop
  endfacet
  facet normal 0 0 1
    outer loop
      vertex -35.9685 -23.0013 9
      vertex -35.9685 23.0013 9
      vertex -42.4685 29.5013 9
    endloop
  endfacet
  facet normal 0 0 1
    outer loop
      vertex 51 -5 9
      vertex 45 -8 9
      vertex 51 -8 9
    endloop
  endfacet
  facet normal 0 0 1
    outer loop
      vertex 51 -5 9
      vertex 42.5 -5 9
      vertex 45 -8 9
    endloop
  endfacet
  facet normal 0 0 1
    outer loop
      vertex 36 22.5 9
      vertex 36 -8 9
      vertex 42.5 -5 9
    endloop
  endfacet
  facet normal -0.968583 0.24869 0
    outer loop
      vertex -42.2191 30.4725 9
      vertex -42.2191 30.4725 0
      vertex -42.4685 29.5013 9
    endloop
  endfacet
  facet normal -0.968583 0.24869 0
    outer loop
      vertex -42.4685 29.5013 9
      vertex -42.2191 30.4725 0
      vertex -42.4685 29.5013 0
    endloop
  endfacet
  facet normal -0.876307 -0.481754 0
    outer loop
      vertex -41.7361 -31.3511 9
      vertex -42.2191 -30.4725 9
      vertex -41.7361 -31.3511 0
    endloop
  endfacet
  facet normal -0.876307 -0.481754 0
    outer loop
      vertex -41.7361 -31.3511 0
      vertex -42.2191 -30.4725 9
      vertex -42.2191 -30.4725 0
    endloop
  endfacet
  facet normal -0.728969 -0.684547 0
    outer loop
      vertex -41.0497 -32.0821 9
      vertex -41.7361 -31.3511 9
      vertex -41.0497 -32.0821 0
    endloop
  endfacet
  facet normal -0.728969 -0.684547 0
    outer loop
      vertex -41.0497 -32.0821 0
      vertex -41.7361 -31.3511 9
      vertex -41.7361 -31.3511 0
    endloop
  endfacet
  facet normal -0.535827 -0.844328 0
    outer loop
      vertex -40.2031 -32.6193 0
      vertex -40.2031 -32.6193 9
      vertex -41.0497 -32.0821 9
    endloop
  endfacet
  facet normal -0.535827 -0.844328 0
    outer loop
      vertex -41.0497 -32.0821 0
      vertex -40.2031 -32.6193 0
      vertex -41.0497 -32.0821 9
    endloop
  endfacet
  facet normal -0.309017 -0.951056 0
    outer loop
      vertex -39.2495 -32.9291 0
      vertex -39.2495 -32.9291 9
      vertex -40.2031 -32.6193 9
    endloop
  endfacet
  facet normal -0.309017 -0.951056 0
    outer loop
      vertex -40.2031 -32.6193 0
      vertex -39.2495 -32.9291 0
      vertex -40.2031 -32.6193 9
    endloop
  endfacet
  facet normal -0.0627906 -0.998027 0
    outer loop
      vertex -38.2488 -32.9921 0
      vertex -38.2488 -32.9921 9
      vertex -39.2495 -32.9291 9
    endloop
  endfacet
  facet normal -0.0627906 -0.998027 0
    outer loop
      vertex -39.2495 -32.9291 0
      vertex -38.2488 -32.9921 0
      vertex -39.2495 -32.9291 9
    endloop
  endfacet
  facet normal 0 -1 0
    outer loop
      vertex 38.7512 -32.9921 0
      vertex 38.7512 -32.9921 9
      vertex -38.2488 -32.9921 9
    endloop
  endfacet
  facet normal 0 -1 0
    outer loop
      vertex -38.2488 -32.9921 0
      vertex 38.7512 -32.9921 0
      vertex -38.2488 -32.9921 9
    endloop
  endfacet
  facet normal 0.187381 -0.982287 0
    outer loop
      vertex 39.7361 -32.8042 0
      vertex 39.7361 -32.8042 9
      vertex 38.7512 -32.9921 9
    endloop
  endfacet
  facet normal 0.187381 -0.982287 0
    outer loop
      vertex 38.7512 -32.9921 0
      vertex 39.7361 -32.8042 0
      vertex 38.7512 -32.9921 9
    endloop
  endfacet
  facet normal 0.425779 -0.904827 0
    outer loop
      vertex 40.6433 -32.3773 0
      vertex 40.6433 -32.3773 9
      vertex 39.7361 -32.8042 9
    endloop
  endfacet
  facet normal 0.425779 -0.904827 0
    outer loop
      vertex 39.7361 -32.8042 0
      vertex 40.6433 -32.3773 0
      vertex 39.7361 -32.8042 9
    endloop
  endfacet
  facet normal 0.637424 -0.770513 0
    outer loop
      vertex 41.4159 -31.7382 0
      vertex 41.4159 -31.7382 9
      vertex 40.6433 -32.3773 9
    endloop
  endfacet
  facet normal 0.637424 -0.770513 0
    outer loop
      vertex 40.6433 -32.3773 0
      vertex 41.4159 -31.7382 0
      vertex 40.6433 -32.3773 9
    endloop
  endfacet
  facet normal 0.809017 -0.587785 0
    outer loop
      vertex 42.0052 -30.927 0
      vertex 42.0052 -30.927 9
      vertex 41.4159 -31.7382 9
    endloop
  endfacet
  facet normal 0.809017 -0.587785 0
    outer loop
      vertex 41.4159 -31.7382 0
      vertex 42.0052 -30.927 0
      vertex 41.4159 -31.7382 9
    endloop
  endfacet
  facet normal 0.929776 -0.368125 0
    outer loop
      vertex 42.3743 -29.9948 0
      vertex 42.3743 -29.9948 9
      vertex 42.0052 -30.927 9
    endloop
  endfacet
  facet normal 0.929776 -0.368125 0
    outer loop
      vertex 42.0052 -30.927 0
      vertex 42.3743 -29.9948 0
      vertex 42.0052 -30.927 9
    endloop
  endfacet
  facet normal 0.992115 -0.125333 0
    outer loop
      vertex 42.5 -29 0
      vertex 42.5 -29 9
      vertex 42.3743 -29.9948 9
    endloop
  endfacet
  facet normal 0.992115 -0.125333 0
    outer loop
      vertex 42.3743 -29.9948 0
      vertex 42.5 -29 0
      vertex 42.3743 -29.9948 9
    endloop
  endfacet
  facet normal 1 0 0
    outer loop
      vertex 42.5 -13 0
      vertex 42.5 -13 9
      vertex 42.5 -29 9
    endloop
  endfacet
  facet normal 1 0 0
    outer loop
      vertex 42.5 -29 0
      vertex 42.5 -13 0
      vertex 42.5 -29 9
    endloop
  endfacet
  facet normal 0 -1 0
    outer loop
      vertex 47 -13 2
      vertex 42.5 -13 0
      vertex 51 -13 0
    endloop
  endfacet
  facet normal 0 -1 0
    outer loop
      vertex 42.5 -13 9
      vertex 42.5 -13 0
      vertex 45.0979 -13 3.38197
    endloop
  endfacet
  facet normal 0 -1 0
    outer loop
      vertex 47.618 -13 2.09789
      vertex 47 -13 2
      vertex 51 -13 0
    endloop
  endfacet
  facet normal 0 -1 0
    outer loop
      vertex 42.5 -13 9
      vertex 45.0979 -13 3.38197
      vertex 45 -13 4
    endloop
  endfacet
  facet normal 0 -1 0
    outer loop
      vertex 42.5 -13 9
      vertex 45 -13 4
      vertex 45.0979 -13 4.61803
    endloop
  endfacet
  facet normal 0 -1 0
    outer loop
      vertex 48.9021 -13 4.61803
      vertex 49 -13 4
      vertex 51 -13 0
    endloop
  endfacet
  facet normal 0 -1 0
    outer loop
      vertex 42.5 -13 9
      vertex 45.0979 -13 4.61803
      vertex 45.382 -13 5.17557
    endloop
  endfacet
  facet normal 0 -1 0
    outer loop
      vertex 48.1756 -13 2.38197
      vertex 47.618 -13 2.09789
      vertex 51 -13 0
    endloop
  endfacet
  facet normal 0 -1 0
    outer loop
      vertex 51 -13 9
      vertex 42.5 -13 9
      vertex 45.8244 -13 5.61803
    endloop
  endfacet
  facet normal 0 -1 0
    outer loop
      vertex 51 -13 9
      vertex 45.8244 -13 5.61803
      vertex 46.382 -13 5.90211
    endloop
  endfacet
  facet normal 0 -1 0
    outer loop
      vertex 48.618 -13 2.82443
      vertex 48.1756 -13 2.38197
      vertex 51 -13 0
    endloop
  endfacet
  facet normal 0 -1 0
    outer loop
      vertex 51 -13 9
      vertex 46.382 -13 5.90211
      vertex 47 -13 6
    endloop
  endfacet
  facet normal 0 -1 0
    outer loop
      vertex 51 -13 9
      vertex 47 -13 6
      vertex 47.618 -13 5.90211
    endloop
  endfacet
  facet normal 0 -1 0
    outer loop
      vertex 48.9021 -13 3.38197
      vertex 48.618 -13 2.82443
      vertex 51 -13 0
    endloop
  endfacet
  facet normal 0 -1 0
    outer loop
      vertex 51 -13 9
      vertex 47.618 -13 5.90211
      vertex 48.1756 -13 5.61803
    endloop
  endfacet
  facet normal 0 -1 0
    outer loop
      vertex 51 -13 9
      vertex 48.1756 -13 5.61803
      vertex 48.618 -13 5.17557
    endloop
  endfacet
  facet normal 0 -1 0
    outer loop
      vertex 51 -13 9
      vertex 48.9021 -13 4.61803
      vertex 51 -13 0
    endloop
  endfacet
  facet normal 0 -1 0
    outer loop
      vertex 51 -13 9
      vertex 48.618 -13 5.17557
      vertex 48.9021 -13 4.61803
    endloop
  endfacet
  facet normal 0 -1 0
    outer loop
      vertex 46.382 -13 2.09789
      vertex 42.5 -13 0
      vertex 47 -13 2
    endloop
  endfacet
  facet normal 0 -1 0
    outer loop
      vertex 45.8244 -13 2.38197
      vertex 42.5 -13 0
      vertex 46.382 -13 2.09789
    endloop
  endfacet
  facet normal 0 -1 0
    outer loop
      vertex 45.382 -13 2.82443
      vertex 42.5 -13 0
      vertex 45.8244 -13 2.38197
    endloop
  endfacet
  facet normal 0 -1 0
    outer loop
      vertex 45.0979 -13 3.38197
      vertex 42.5 -13 0
      vertex 45.382 -13 2.82443
    endloop
  endfacet
  facet normal 0 -1 0
    outer loop
      vertex 45.382 -13 5.17557
      vertex 45.8244 -13 5.61803
      vertex 42.5 -13 9
    endloop
  endfacet
  facet normal 0 -1 0
    outer loop
      vertex 49 -13 4
      vertex 48.9021 -13 3.38197
      vertex 51 -13 0
    endloop
  endfacet
  facet normal 1 0 0
    outer loop
      vertex 51 -13 9
      vertex 51 -13 0
      vertex 51 -10 0
    endloop
  endfacet
  facet normal 1 0 0
    outer loop
      vertex 51 -10 9
      vertex 51 -13 9
      vertex 51 -10 0
    endloop
  endfacet
  facet normal 0 1 0
    outer loop
      vertex 45 -10 0
      vertex 45 -10 4
      vertex 45.0979 -10 3.38197
    endloop
  endfacet
  facet normal 0 1 0
    outer loop
      vertex 45 -10 0
      vertex 45.0979 -10 3.38197
      vertex 45.382 -10 2.82443
    endloop
  endfacet
  facet normal 0 1 0
    outer loop
      vertex 45 -10 0
      vertex 45.382 -10 2.82443
      vertex 45.8244 -10 2.38197
    endloop
  endfacet
  facet normal 0 1 0
    outer loop
      vertex 45 -10 0
      vertex 45.8244 -10 2.38197
      vertex 46.382 -10 2.09789
    endloop
  endfacet
  facet normal 0 1 0
    outer loop
      vertex 45 -10 0
      vertex 46.382 -10 2.09789
      vertex 51 -10 0
    endloop
  endfacet
  facet normal 0 1 0
    outer loop
      vertex 47.618 -10 2.09789
      vertex 51 -10 0
      vertex 47 -10 2
    endloop
  endfacet
  facet normal 0 1 0
    outer loop
      vertex 48.1756 -10 2.38197
      vertex 51 -10 0
      vertex 47.618 -10 2.09789
    endloop
  endfacet
  facet normal 0 1 0
    outer loop
      vertex 45.0979 -10 4.61803
      vertex 45 -10 4
      vertex 45 -10 9
    endloop
  endfacet
  facet normal 0 1 0
    outer loop
      vertex 51 -10 0
      vertex 48.1756 -10 2.38197
      vertex 48.618 -10 2.82443
    endloop
  endfacet
  facet normal 0 1 0
    outer loop
      vertex 48.618 -10 2.82443
      vertex 48.9021 -10 3.38197
      vertex 51 -10 0
    endloop
  endfacet
  facet normal 0 1 0
    outer loop
      vertex 48.9021 -10 3.38197
      vertex 49 -10 4
      vertex 51 -10 0
    endloop
  endfacet
  facet normal 0 1 0
    outer loop
      vertex 49 -10 4
      vertex 48.9021 -10 4.61803
      vertex 51 -10 0
    endloop
  endfacet
  facet normal 0 1 0
    outer loop
      vertex 48.9021 -10 4.61803
      vertex 51 -10 9
      vertex 51 -10 0
    endloop
  endfacet
  facet normal 0 1 0
    outer loop
      vertex 48.1756 -10 5.61803
      vertex 45 -10 9
      vertex 48.618 -10 5.17557
    endloop
  endfacet
  facet normal 0 1 0
    outer loop
      vertex 47.618 -10 5.90211
      vertex 45 -10 9
      vertex 48.1756 -10 5.61803
    endloop
  endfacet
  facet normal 0 1 0
    outer loop
      vertex 47 -10 6
      vertex 45 -10 9
      vertex 47.618 -10 5.90211
    endloop
  endfacet
  facet normal 0 1 0
    outer loop
      vertex 46.382 -10 5.90211
      vertex 45 -10 9
      vertex 47 -10 6
    endloop
  endfacet
  facet normal 0 1 0
    outer loop
      vertex 45.8244 -10 5.61803
      vertex 45 -10 9
      vertex 46.382 -10 5.90211
    endloop
  endfacet
  facet normal 0 1 0
    outer loop
      vertex 45.382 -10 5.17557
      vertex 45.0979 -10 4.61803
      vertex 45 -10 9
    endloop
  endfacet
  facet normal 0 1 0
    outer loop
      vertex 45.382 -10 5.17557
      vertex 45 -10 9
      vertex 45.8244 -10 5.61803
    endloop
  endfacet
  facet normal 0 1 0
    outer loop
      vertex 48.618 -10 5.17557
      vertex 45 -10 9
      vertex 51 -10 9
    endloop
  endfacet
  facet normal 0 1 0
    outer loop
      vertex 48.618 -10 5.17557
      vertex 51 -10 9
      vertex 48.9021 -10 4.61803
    endloop
  endfacet
  facet normal 0 1 0
    outer loop
      vertex 47 -10 2
      vertex 51 -10 0
      vertex 46.382 -10 2.09789
    endloop
  endfacet
  facet normal 0 1 0
    outer loop
      vertex 36 -10 0
      vertex 36 -10 9
      vertex 45 -10 0
    endloop
  endfacet
  facet normal 0 1 0
    outer loop
      vertex 45 -10 4
      vertex 36 -10 9
      vertex 45 -10 9
    endloop
  endfacet
  facet normal 0 1 0
    outer loop
      vertex 45 -10 0
      vertex 36 -10 9
      vertex 45 -10 4
    endloop
  endfacet
  facet normal -1 0 0
    outer loop
      vertex 36 -22.5 0
      vertex 36 -22.5 9
      vertex 36 -10 0
    endloop
  endfacet
  facet normal -1 0 0
    outer loop
      vertex 36 -10 0
      vertex 36 -22.5 9
      vertex 36 -10 9
    endloop
  endfacet
  facet normal -0.992115 0.125333 0
    outer loop
      vertex 35.8743 -23.4948 0
      vertex 35.8743 -23.4948 9
      vertex 36 -22.5 0
    endloop
  endfacet
  facet normal -0.992115 0.125333 0
    outer loop
      vertex 36 -22.5 0
      vertex 35.8743 -23.4948 9
      vertex 36 -22.5 9
    endloop
  endfacet
  facet normal -0.929776 0.368125 0
    outer loop
      vertex 35.5052 -24.427 0
      vertex 35.5052 -24.427 9
      vertex 35.8743 -23.4948 0
    endloop
  endfacet
  facet normal -0.929776 0.368125 0
    outer loop
      vertex 35.8743 -23.4948 0
      vertex 35.5052 -24.427 9
      vertex 35.8743 -23.4948 9
    endloop
  endfacet
  facet normal -0.809017 0.587785 0
    outer loop
      vertex 34.9159 -25.2382 0
      vertex 34.9159 -25.2382 9
      vertex 35.5052 -24.427 0
    endloop
  endfacet
  facet normal -0.809017 0.587785 0
    outer loop
      vertex 35.5052 -24.427 0
      vertex 34.9159 -25.2382 9
      vertex 35.5052 -24.427 9
    endloop
  endfacet
  facet normal -0.637424 0.770513 0
    outer loop
      vertex 34.1433 -25.8773 0
      vertex 34.1433 -25.8773 9
      vertex 34.9159 -25.2382 0
    endloop
  endfacet
  facet normal -0.637424 0.770513 0
    outer loop
      vertex 34.9159 -25.2382 0
      vertex 34.1433 -25.8773 9
      vertex 34.9159 -25.2382 9
    endloop
  endfacet
  facet normal -0.425779 0.904827 0
    outer loop
      vertex 33.2361 -26.3042 0
      vertex 33.2361 -26.3042 9
      vertex 34.1433 -25.8773 0
    endloop
  endfacet
  facet normal -0.425779 0.904827 0
    outer loop
      vertex 34.1433 -25.8773 0
      vertex 33.2361 -26.3042 9
      vertex 34.1433 -25.8773 9
    endloop
  endfacet
  facet normal -0.187381 0.982287 0
    outer loop
      vertex 32.2512 -26.4921 0
      vertex 32.2512 -26.4921 9
      vertex 33.2361 -26.3042 0
    endloop
  endfacet
  facet normal -0.187381 0.982287 0
    outer loop
      vertex 33.2361 -26.3042 0
      vertex 32.2512 -26.4921 9
      vertex 33.2361 -26.3042 9
    endloop
  endfacet
  facet normal 0 1 0
    outer loop
      vertex -3.5 -26.4921 0
      vertex -3.5 -26.4921 9
      vertex 32.2512 -26.4921 0
    endloop
  endfacet
  facet normal 0 1 0
    outer loop
      vertex 32.2512 -26.4921 0
      vertex -3.5 -26.4921 9
      vertex 32.2512 -26.4921 9
    endloop
  endfacet
  facet normal -1 0 0
    outer loop
      vertex -3.5 -26.4921 9
      vertex -3.5 -26.4921 0
      vertex -3.5 -27.5 9
    endloop
  endfacet
  facet normal -1 0 0
    outer loop
      vertex -3.5 -27.5 9
      vertex -3.5 -26.4921 0
      vertex -3.5 -27.5 0
    endloop
  endfacet
  facet normal 0 1 0
    outer loop
      vertex -3.5 -27.5 9
      vertex -3.5 -27.5 0
      vertex -19 -27.5 9
    endloop
  endfacet
  facet normal 0 1 0
    outer loop
      vertex -19 -27.5 9
      vertex -3.5 -27.5 0
      vertex -19 -27.5 0
    endloop
  endfacet
  facet normal 1 0 0
    outer loop
      vertex -19 -26.4921 0
      vertex -19 -26.4921 9
      vertex -19 -27.5 9
    endloop
  endfacet
  facet normal 1 0 0
    outer loop
      vertex -19 -27.5 0
      vertex -19 -26.4921 0
      vertex -19 -27.5 9
    endloop
  endfacet
  facet normal 0 1 0
    outer loop
      vertex -31.7488 -26.4921 0
      vertex -31.7488 -26.4921 9
      vertex -19 -26.4921 0
    endloop
  endfacet
  facet normal 0 1 0
    outer loop
      vertex -19 -26.4921 0
      vertex -31.7488 -26.4921 9
      vertex -19 -26.4921 9
    endloop
  endfacet
  facet normal 0.0627906 0.998027 0
    outer loop
      vertex -32.7495 -26.4291 0
      vertex -32.7495 -26.4291 9
      vertex -31.7488 -26.4921 0
    endloop
  endfacet
  facet normal 0.0627906 0.998027 0
    outer loop
      vertex -31.7488 -26.4921 0
      vertex -32.7495 -26.4291 9
      vertex -31.7488 -26.4921 9
    endloop
  endfacet
  facet normal 0.309017 0.951056 0
    outer loop
      vertex -33.7031 -26.1193 0
      vertex -33.7031 -26.1193 9
      vertex -32.7495 -26.4291 0
    endloop
  endfacet
  facet normal 0.309017 0.951056 0
    outer loop
      vertex -32.7495 -26.4291 0
      vertex -33.7031 -26.1193 9
      vertex -32.7495 -26.4291 9
    endloop
  endfacet
  facet normal 0.535827 0.844328 0
    outer loop
      vertex -34.5497 -25.5821 0
      vertex -34.5497 -25.5821 9
      vertex -33.7031 -26.1193 0
    endloop
  endfacet
  facet normal 0.535827 0.844328 0
    outer loop
      vertex -33.7031 -26.1193 0
      vertex -34.5497 -25.5821 9
      vertex -33.7031 -26.1193 9
    endloop
  endfacet
  facet normal 0.728969 0.684547 0
    outer loop
      vertex -34.5497 -25.5821 0
      vertex -35.2361 -24.8511 0
      vertex -35.2361 -24.8511 9
    endloop
  endfacet
  facet normal 0.728969 0.684547 0
    outer loop
      vertex -34.5497 -25.5821 9
      vertex -34.5497 -25.5821 0
      vertex -35.2361 -24.8511 9
    endloop
  endfacet
  facet normal 0.876307 0.481754 0
    outer loop
      vertex -35.2361 -24.8511 0
      vertex -35.7191 -23.9725 0
      vertex -35.7191 -23.9725 9
    endloop
  endfacet
  facet normal 0.876307 0.481754 0
    outer loop
      vertex -35.2361 -24.8511 9
      vertex -35.2361 -24.8511 0
      vertex -35.7191 -23.9725 9
    endloop
  endfacet
  facet normal 0.968583 0.24869 0
    outer loop
      vertex -35.7191 -23.9725 0
      vertex -35.9685 -23.0013 0
      vertex -35.9685 -23.0013 9
    endloop
  endfacet
  facet normal 0.968583 0.24869 0
    outer loop
      vertex -35.7191 -23.9725 9
      vertex -35.7191 -23.9725 0
      vertex -35.9685 -23.0013 9
    endloop
  endfacet
  facet normal 1 0 0
    outer loop
      vertex -35.9685 -23.0013 9
      vertex -35.9685 -23.0013 0
      vertex -35.9685 23.0013 0
    endloop
  endfacet
  facet normal 1 0 0
    outer loop
      vertex -35.9685 23.0013 9
      vertex -35.9685 -23.0013 9
      vertex -35.9685 23.0013 0
    endloop
  endfacet
  facet normal 0.968583 -0.24869 0
    outer loop
      vertex -35.9685 23.0013 9
      vertex -35.9685 23.0013 0
      vertex -35.7191 23.9725 0
    endloop
  endfacet
  facet normal 0.968583 -0.24869 0
    outer loop
      vertex -35.7191 23.9725 9
      vertex -35.9685 23.0013 9
      vertex -35.7191 23.9725 0
    endloop
  endfacet
  facet normal 0.876307 -0.481754 0
    outer loop
      vertex -35.7191 23.9725 9
      vertex -35.7191 23.9725 0
      vertex -35.2361 24.8511 0
    endloop
  endfacet
  facet normal 0.876307 -0.481754 0
    outer loop
      vertex -35.2361 24.8511 9
      vertex -35.7191 23.9725 9
      vertex -35.2361 24.8511 0
    endloop
  endfacet
  facet normal 0.728969 -0.684547 0
    outer loop
      vertex -35.2361 24.8511 9
      vertex -35.2361 24.8511 0
      vertex -34.5497 25.5821 0
    endloop
  endfacet
  facet normal 0.728969 -0.684547 0
    outer loop
      vertex -34.5497 25.5821 9
      vertex -35.2361 24.8511 9
      vertex -34.5497 25.5821 0
    endloop
  endfacet
  facet normal 0.535827 -0.844328 0
    outer loop
      vertex -34.5497 25.5821 9
      vertex -34.5497 25.5821 0
      vertex -33.7031 26.1193 0
    endloop
  endfacet
  facet normal 0.535827 -0.844328 0
    outer loop
      vertex -33.7031 26.1193 9
      vertex -34.5497 25.5821 9
      vertex -33.7031 26.1193 0
    endloop
  endfacet
  facet normal 0.309017 -0.951056 0
    outer loop
      vertex -33.7031 26.1193 9
      vertex -33.7031 26.1193 0
      vertex -32.7495 26.4291 0
    endloop
  endfacet
  facet normal 0.309017 -0.951056 0
    outer loop
      vertex -32.7495 26.4291 9
      vertex -33.7031 26.1193 9
      vertex -32.7495 26.4291 0
    endloop
  endfacet
  facet normal 0.0627906 -0.998027 0
    outer loop
      vertex -32.7495 26.4291 9
      vertex -32.7495 26.4291 0
      vertex -31.7488 26.4921 0
    endloop
  endfacet
  facet normal 0.0627906 -0.998027 0
    outer loop
      vertex -31.7488 26.4921 9
      vertex -32.7495 26.4291 9
      vertex -31.7488 26.4921 0
    endloop
  endfacet
  facet normal 0 -1 0
    outer loop
      vertex -31.7488 26.4921 9
      vertex -31.7488 26.4921 0
      vertex -27.5 26.4921 0
    endloop
  endfacet
  facet normal 0 -1 0
    outer loop
      vertex -27.5 26.4921 9
      vertex -31.7488 26.4921 9
      vertex -27.5 26.4921 0
    endloop
  endfacet
  facet normal 1 0 0
    outer loop
      vertex -27.5 28.5 0
      vertex -27.5 28.5 9
      vertex -27.5 26.4921 9
    endloop
  endfacet
  facet normal 1 0 0
    outer loop
      vertex -27.5 26.4921 0
      vertex -27.5 28.5 0
      vertex -27.5 26.4921 9
    endloop
  endfacet
  facet normal 0 -1 0
    outer loop
      vertex -20.5 28.5 0
      vertex -20.5 28.5 9
      vertex -27.5 28.5 9
    endloop
  endfacet
  facet normal 0 -1 0
    outer loop
      vertex -27.5 28.5 0
      vertex -20.5 28.5 0
      vertex -27.5 28.5 9
    endloop
  endfacet
  facet normal -1 0 0
    outer loop
      vertex -20.5 28.5 9
      vertex -20.5 28.5 0
      vertex -20.5 26.4921 9
    endloop
  endfacet
  facet normal -1 0 0
    outer loop
      vertex -20.5 26.4921 9
      vertex -20.5 28.5 0
      vertex -20.5 26.4921 0
    endloop
  endfacet
  facet normal 0 -1 0
    outer loop
      vertex -20.5 26.4921 9
      vertex -20.5 26.4921 0
      vertex 20.5 26.4921 0
    endloop
  endfacet
  facet normal 0 -1 0
    outer loop
      vertex 20.5 26.4921 9
      vertex -20.5 26.4921 9
      vertex 20.5 26.4921 0
    endloop
  endfacet
  facet normal 1 0 0
    outer loop
      vertex 20.5 28.5 0
      vertex 20.5 28.5 9
      vertex 20.5 26.4921 9
    endloop
  endfacet
  facet normal 1 0 0
    outer loop
      vertex 20.5 26.4921 0
      vertex 20.5 28.5 0
      vertex 20.5 26.4921 9
    endloop
  endfacet
  facet normal 0 -1 0
    outer loop
      vertex 27.5 28.5 0
      vertex 27.5 28.5 9
      vertex 20.5 28.5 9
    endloop
  endfacet
  facet normal 0 -1 0
    outer loop
      vertex 20.5 28.5 0
      vertex 27.5 28.5 0
      vertex 20.5 28.5 9
    endloop
  endfacet
  facet normal -1 0 0
    outer loop
      vertex 27.5 28.5 9
      vertex 27.5 28.5 0
      vertex 27.5 26.4921 9
    endloop
  endfacet
  facet normal -1 0 0
    outer loop
      vertex 27.5 26.4921 9
      vertex 27.5 28.5 0
      vertex 27.5 26.4921 0
    endloop
  endfacet
  facet normal 0 -1 0
    outer loop
      vertex 27.5 26.4921 9
      vertex 27.5 26.4921 0
      vertex 32.2512 26.4921 0
    endloop
  endfacet
  facet normal 0 -1 0
    outer loop
      vertex 32.2512 26.4921 9
      vertex 27.5 26.4921 9
      vertex 32.2512 26.4921 0
    endloop
  endfacet
  facet normal -0.187381 -0.982287 0
    outer loop
      vertex 32.2512 26.4921 9
      vertex 32.2512 26.4921 0
      vertex 33.2361 26.3042 0
    endloop
  endfacet
  facet normal -0.187381 -0.982287 0
    outer loop
      vertex 33.2361 26.3042 9
      vertex 32.2512 26.4921 9
      vertex 33.2361 26.3042 0
    endloop
  endfacet
  facet normal -0.425779 -0.904827 0
    outer loop
      vertex 33.2361 26.3042 9
      vertex 33.2361 26.3042 0
      vertex 34.1433 25.8773 0
    endloop
  endfacet
  facet normal -0.425779 -0.904827 0
    outer loop
      vertex 34.1433 25.8773 9
      vertex 33.2361 26.3042 9
      vertex 34.1433 25.8773 0
    endloop
  endfacet
  facet normal -0.637424 -0.770513 0
    outer loop
      vertex 34.1433 25.8773 9
      vertex 34.1433 25.8773 0
      vertex 34.9159 25.2382 0
    endloop
  endfacet
  facet normal -0.637424 -0.770513 0
    outer loop
      vertex 34.9159 25.2382 9
      vertex 34.1433 25.8773 9
      vertex 34.9159 25.2382 0
    endloop
  endfacet
  facet normal -0.809017 -0.587785 0
    outer loop
      vertex 34.9159 25.2382 0
      vertex 35.5052 24.427 0
      vertex 34.9159 25.2382 9
    endloop
  endfacet
  facet normal -0.809017 -0.587785 0
    outer loop
      vertex 34.9159 25.2382 9
      vertex 35.5052 24.427 0
      vertex 35.5052 24.427 9
    endloop
  endfacet
  facet normal -0.929776 -0.368125 0
    outer loop
      vertex 35.5052 24.427 0
      vertex 35.8743 23.4948 0
      vertex 35.5052 24.427 9
    endloop
  endfacet
  facet normal -0.929776 -0.368125 0
    outer loop
      vertex 35.5052 24.427 9
      vertex 35.8743 23.4948 0
      vertex 35.8743 23.4948 9
    endloop
  endfacet
  facet normal -0.992115 -0.125333 0
    outer loop
      vertex 35.8743 23.4948 0
      vertex 36 22.5 0
      vertex 35.8743 23.4948 9
    endloop
  endfacet
  facet normal -0.992115 -0.125333 0
    outer loop
      vertex 35.8743 23.4948 9
      vertex 36 22.5 0
      vertex 36 22.5 9
    endloop
  endfacet
  facet normal -1 0 0
    outer loop
      vertex 36 -8 0
      vertex 36 -8 9
      vertex 36 22.5 0
    endloop
  endfacet
  facet normal -1 0 0
    outer loop
      vertex 36 22.5 0
      vertex 36 -8 9
      vertex 36 22.5 9
    endloop
  endfacet
  facet normal 0 -1 0
    outer loop
      vertex 36 -8 9
      vertex 36 -8 0
      vertex 45 -8 0
    endloop
  endfacet
  facet normal 0 -1 0
    outer loop
      vertex 45 -8 9
      vertex 36 -8 9
      vertex 45 -8 4
    endloop
  endfacet
  facet normal 0 -1 0
    outer loop
      vertex 45 -8 4
      vertex 36 -8 9
      vertex 45 -8 0
    endloop
  endfacet
  facet normal 0 -1 0
    outer loop
      vertex 47.618 -8 2.09789
      vertex 45 -8 0
      vertex 51 -8 0
    endloop
  endfacet
  facet normal 0 -1 0
    outer loop
      vertex 48.9021 -8 4.61803
      vertex 49 -8 4
      vertex 51 -8 0
    endloop
  endfacet
  facet normal 0 -1 0
    outer loop
      vertex 47 -8 6
      vertex 47.618 -8 5.90211
      vertex 51 -8 9
    endloop
  endfacet
  facet normal 0 -1 0
    outer loop
      vertex 45 -8 9
      vertex 45 -8 4
      vertex 45.0979 -8 4.61803
    endloop
  endfacet
  facet normal 0 -1 0
    outer loop
      vertex 49 -8 4
      vertex 48.9021 -8 3.38197
      vertex 51 -8 0
    endloop
  endfacet
  facet normal 0 -1 0
    outer loop
      vertex 45 -8 9
      vertex 45.0979 -8 4.61803
      vertex 45.382 -8 5.17557
    endloop
  endfacet
  facet normal 0 -1 0
    outer loop
      vertex 45 -8 9
      vertex 45.8244 -8 5.61803
      vertex 51 -8 9
    endloop
  endfacet
  facet normal 0 -1 0
    outer loop
      vertex 45 -8 9
      vertex 45.382 -8 5.17557
      vertex 45.8244 -8 5.61803
    endloop
  endfacet
  facet normal 0 -1 0
    outer loop
      vertex 45.8244 -8 5.61803
      vertex 46.382 -8 5.90211
      vertex 51 -8 9
    endloop
  endfacet
  facet normal 0 -1 0
    outer loop
      vertex 48.1756 -8 2.38197
      vertex 47.618 -8 2.09789
      vertex 51 -8 0
    endloop
  endfacet
  facet normal 0 -1 0
    outer loop
      vertex 51 -8 9
      vertex 47.618 -8 5.90211
      vertex 48.1756 -8 5.61803
    endloop
  endfacet
  facet normal 0 -1 0
    outer loop
      vertex 51 -8 9
      vertex 48.1756 -8 5.61803
      vertex 48.618 -8 5.17557
    endloop
  endfacet
  facet normal 0 -1 0
    outer loop
      vertex 51 -8 9
      vertex 48.9021 -8 4.61803
      vertex 51 -8 0
    endloop
  endfacet
  facet normal 0 -1 0
    outer loop
      vertex 51 -8 9
      vertex 48.618 -8 5.17557
      vertex 48.9021 -8 4.61803
    endloop
  endfacet
  facet normal 0 -1 0
    outer loop
      vertex 48.9021 -8 3.38197
      vertex 48.618 -8 2.82443
      vertex 51 -8 0
    endloop
  endfacet
  facet normal 0 -1 0
    outer loop
      vertex 48.618 -8 2.82443
      vertex 48.1756 -8 2.38197
      vertex 51 -8 0
    endloop
  endfacet
  facet normal 0 -1 0
    outer loop
      vertex 47 -8 2
      vertex 45 -8 0
      vertex 47.618 -8 2.09789
    endloop
  endfacet
  facet normal 0 -1 0
    outer loop
      vertex 46.382 -8 2.09789
      vertex 45 -8 0
      vertex 47 -8 2
    endloop
  endfacet
  facet normal 0 -1 0
    outer loop
      vertex 45.8244 -8 2.38197
      vertex 45 -8 0
      vertex 46.382 -8 2.09789
    endloop
  endfacet
  facet normal 0 -1 0
    outer loop
      vertex 45.382 -8 2.82443
      vertex 45 -8 0
      vertex 45.8244 -8 2.38197
    endloop
  endfacet
  facet normal 0 -1 0
    outer loop
      vertex 45.0979 -8 3.38197
      vertex 45 -8 0
      vertex 45.382 -8 2.82443
    endloop
  endfacet
  facet normal 0 -1 0
    outer loop
      vertex 45 -8 4
      vertex 45 -8 0
      vertex 45.0979 -8 3.38197
    endloop
  endfacet
  facet normal 0 -1 0
    outer loop
      vertex 46.382 -8 5.90211
      vertex 47 -8 6
      vertex 51 -8 9
    endloop
  endfacet
  facet normal 1 0 0
    outer loop
      vertex 51 -8 9
      vertex 51 -8 0
      vertex 51 -5 0
    endloop
  endfacet
  facet normal 1 0 0
    outer loop
      vertex 51 -5 9
      vertex 51 -8 9
      vertex 51 -5 0
    endloop
  endfacet
  facet normal 0 1 0
    outer loop
      vertex 48.1756 -5 5.61803
      vertex 42.5 -5 9
      vertex 51 -5 9
    endloop
  endfacet
  facet normal 0 1 0
    outer loop
      vertex 42.5 -5 0
      vertex 42.5 -5 9
      vertex 45 -5 4
    endloop
  endfacet
  facet normal 0 1 0
    outer loop
      vertex 42.5 -5 0
      vertex 45 -5 4
      vertex 45.0979 -5 3.38197
    endloop
  endfacet
  facet normal 0 1 0
    outer loop
      vertex 42.5 -5 0
      vertex 45.0979 -5 3.38197
      vertex 45.382 -5 2.82443
    endloop
  endfacet
  facet normal 0 1 0
    outer loop
      vertex 42.5 -5 0
      vertex 45.382 -5 2.82443
      vertex 45.8244 -5 2.38197
    endloop
  endfacet
  facet normal 0 1 0
    outer loop
      vertex 42.5 -5 0
      vertex 45.8244 -5 2.38197
      vertex 46.382 -5 2.09789
    endloop
  endfacet
  facet normal 0 1 0
    outer loop
      vertex 42.5 -5 0
      vertex 46.382 -5 2.09789
      vertex 51 -5 0
    endloop
  endfacet
  facet normal 0 1 0
    outer loop
      vertex 47.618 -5 2.09789
      vertex 51 -5 0
      vertex 47 -5 2
    endloop
  endfacet
  facet normal 0 1 0
    outer loop
      vertex 48.1756 -5 2.38197
      vertex 51 -5 0
      vertex 47.618 -5 2.09789
    endloop
  endfacet
  facet normal 0 1 0
    outer loop
      vertex 48.618 -5 2.82443
      vertex 51 -5 0
      vertex 48.1756 -5 2.38197
    endloop
  endfacet
  facet normal 0 1 0
    outer loop
      vertex 45.382 -5 5.17557
      vertex 42.5 -5 9
      vertex 45.8244 -5 5.61803
    endloop
  endfacet
  facet normal 0 1 0
    outer loop
      vertex 51 -5 0
      vertex 48.618 -5 2.82443
      vertex 48.9021 -5 3.38197
    endloop
  endfacet
  facet normal 0 1 0
    outer loop
      vertex 51 -5 0
      vertex 48.9021 -5 3.38197
      vertex 51 -5 9
    endloop
  endfacet
  facet normal 0 1 0
    outer loop
      vertex 45.8244 -5 5.61803
      vertex 42.5 -5 9
      vertex 46.382 -5 5.90211
    endloop
  endfacet
  facet normal 0 1 0
    outer loop
      vertex 47 -5 6
      vertex 42.5 -5 9
      vertex 47.618 -5 5.90211
    endloop
  endfacet
  facet normal 0 1 0
    outer loop
      vertex 49 -5 4
      vertex 48.9021 -5 4.61803
      vertex 51 -5 9
    endloop
  endfacet
  facet normal 0 1 0
    outer loop
      vertex 46.382 -5 5.90211
      vertex 42.5 -5 9
      vertex 47 -5 6
    endloop
  endfacet
  facet normal 0 1 0
    outer loop
      vertex 48.9021 -5 4.61803
      vertex 48.618 -5 5.17557
      vertex 51 -5 9
    endloop
  endfacet
  facet normal 0 1 0
    outer loop
      vertex 47.618 -5 5.90211
      vertex 42.5 -5 9
      vertex 48.1756 -5 5.61803
    endloop
  endfacet
  facet normal 0 1 0
    outer loop
      vertex 48.618 -5 5.17557
      vertex 48.1756 -5 5.61803
      vertex 51 -5 9
    endloop
  endfacet
  facet normal 0 1 0
    outer loop
      vertex 49 -5 4
      vertex 51 -5 9
      vertex 48.9021 -5 3.38197
    endloop
  endfacet
  facet normal 0 1 0
    outer loop
      vertex 45.0979 -5 4.61803
      vertex 42.5 -5 9
      vertex 45.382 -5 5.17557
    endloop
  endfacet
  facet normal 0 1 0
    outer loop
      vertex 45 -5 4
      vertex 42.5 -5 9
      vertex 45.0979 -5 4.61803
    endloop
  endfacet
  facet normal 0 1 0
    outer loop
      vertex 47 -5 2
      vertex 51 -5 0
      vertex 46.382 -5 2.09789
    endloop
  endfacet
  facet normal 1 0 0
    outer loop
      vertex 42.5 29 0
      vertex 42.5 29 9
      vertex 42.5 -5 9
    endloop
  endfacet
  facet normal 1 0 0
    outer loop
      vertex 42.5 -5 0
      vertex 42.5 29 0
      vertex 42.5 -5 9
    endloop
  endfacet
  facet normal 0.992115 0.125333 0
    outer loop
      vertex 42.3743 29.9948 9
      vertex 42.5 29 9
      vertex 42.5 29 0
    endloop
  endfacet
  facet normal 0.992115 0.125333 0
    outer loop
      vertex 42.3743 29.9948 0
      vertex 42.3743 29.9948 9
      vertex 42.5 29 0
    endloop
  endfacet
  facet normal 0.929776 0.368125 0
    outer loop
      vertex 42.0052 30.927 9
      vertex 42.3743 29.9948 9
      vertex 42.3743 29.9948 0
    endloop
  endfacet
  facet normal 0.929776 0.368125 0
    outer loop
      vertex 42.0052 30.927 0
      vertex 42.0052 30.927 9
      vertex 42.3743 29.9948 0
    endloop
  endfacet
  facet normal 0.809017 0.587785 0
    outer loop
      vertex 41.4159 31.7382 9
      vertex 42.0052 30.927 9
      vertex 42.0052 30.927 0
    endloop
  endfacet
  facet normal 0.809017 0.587785 0
    outer loop
      vertex 41.4159 31.7382 0
      vertex 41.4159 31.7382 9
      vertex 42.0052 30.927 0
    endloop
  endfacet
  facet normal 0.637424 0.770513 0
    outer loop
      vertex 41.4159 31.7382 9
      vertex 41.4159 31.7382 0
      vertex 40.6433 32.3773 9
    endloop
  endfacet
  facet normal 0.637424 0.770513 0
    outer loop
      vertex 40.6433 32.3773 9
      vertex 41.4159 31.7382 0
      vertex 40.6433 32.3773 0
    endloop
  endfacet
  facet normal 0.425779 0.904827 0
    outer loop
      vertex 40.6433 32.3773 9
      vertex 40.6433 32.3773 0
      vertex 39.7361 32.8042 9
    endloop
  endfacet
  facet normal 0.425779 0.904827 0
    outer loop
      vertex 39.7361 32.8042 9
      vertex 40.6433 32.3773 0
      vertex 39.7361 32.8042 0
    endloop
  endfacet
  facet normal 0.187381 0.982287 0
    outer loop
      vertex 39.7361 32.8042 9
      vertex 39.7361 32.8042 0
      vertex 38.7512 32.9921 9
    endloop
  endfacet
  facet normal 0.187381 0.982287 0
    outer loop
      vertex 38.7512 32.9921 9
      vertex 39.7361 32.8042 0
      vertex 38.7512 32.9921 0
    endloop
  endfacet
  facet normal 0 1 0
    outer loop
      vertex -19 32.9921 9
      vertex -19 32.9921 7.5
      vertex -38.2488 32.9921 9
    endloop
  endfacet
  facet normal 0 1 0
    outer loop
      vertex -38.2488 32.9921 9
      vertex -19 32.9921 7.5
      vertex -18.8743 32.9921 6.50524
    endloop
  endfacet
  facet normal 0 1 0
    outer loop
      vertex -18.8743 32.9921 6.50524
      vertex -18.5052 32.9921 5.57298
      vertex -38.2488 32.9921 9
    endloop
  endfacet
  facet normal 0 1 0
    outer loop
      vertex -18.5052 32.9921 5.57298
      vertex -17.9159 32.9921 4.76181
      vertex -38.2488 32.9921 9
    endloop
  endfacet
  facet normal 0 1 0
    outer loop
      vertex -17.9159 32.9921 4.76181
      vertex -17.1433 32.9921 4.12269
      vertex -38.2488 32.9921 9
    endloop
  endfacet
  facet normal 0 1 0
    outer loop
      vertex -17.1433 32.9921 4.12269
      vertex -16.2361 32.9921 3.69577
      vertex -38.2488 32.9921 9
    endloop
  endfacet
  facet normal 0 1 0
    outer loop
      vertex -16.2361 32.9921 3.69577
      vertex -38.2488 32.9921 0
      vertex -38.2488 32.9921 9
    endloop
  endfacet
  facet normal 0 1 0
    outer loop
      vertex 14.7488 32.9921 3.50789
      vertex 38.7512 32.9921 0
      vertex -15.2512 32.9921 3.50789
    endloop
  endfacet
  facet normal 0 1 0
    outer loop
      vertex 16.7031 32.9921 3.88069
      vertex 38.7512 32.9921 9
      vertex 15.7495 32.9921 3.57085
    endloop
  endfacet
  facet normal 0 1 0
    outer loop
      vertex 17.5497 32.9921 4.41795
      vertex 38.7512 32.9921 9
      vertex 16.7031 32.9921 3.88069
    endloop
  endfacet
  facet normal 0 1 0
    outer loop
      vertex 18.2361 32.9921 5.14886
      vertex 38.7512 32.9921 9
      vertex 17.5497 32.9921 4.41795
    endloop
  endfacet
  facet normal 0 1 0
    outer loop
      vertex 18.7191 32.9921 6.0275
      vertex 38.7512 32.9921 9
      vertex 18.2361 32.9921 5.14886
    endloop
  endfacet
  facet normal 0 1 0
    outer loop
      vertex 18.9685 32.9921 6.99867
      vertex 18.9685 32.9921 9
      vertex 38.7512 32.9921 9
    endloop
  endfacet
  facet normal 0 1 0
    outer loop
      vertex 18.9685 32.9921 6.99867
      vertex 38.7512 32.9921 9
      vertex 18.7191 32.9921 6.0275
    endloop
  endfacet
  facet normal 0 1 0
    outer loop
      vertex 15.7495 32.9921 3.57085
      vertex 38.7512 32.9921 9
      vertex 38.7512 32.9921 0
    endloop
  endfacet
  facet normal 0 1 0
    outer loop
      vertex 15.7495 32.9921 3.57085
      vertex 38.7512 32.9921 0
      vertex 14.7488 32.9921 3.50789
    endloop
  endfacet
  facet normal 0 1 0
    outer loop
      vertex -15.2512 32.9921 3.50789
      vertex 38.7512 32.9921 0
      vertex -38.2488 32.9921 0
    endloop
  endfacet
  facet normal 0 1 0
    outer loop
      vertex -15.2512 32.9921 3.50789
      vertex -38.2488 32.9921 0
      vertex -16.2361 32.9921 3.69577
    endloop
  endfacet
  facet normal -0.0627906 0.998027 0
    outer loop
      vertex -38.2488 32.9921 9
      vertex -38.2488 32.9921 0
      vertex -39.2495 32.9291 9
    endloop
  endfacet
  facet normal -0.0627906 0.998027 0
    outer loop
      vertex -39.2495 32.9291 9
      vertex -38.2488 32.9921 0
      vertex -39.2495 32.9291 0
    endloop
  endfacet
  facet normal -0.309017 0.951056 0
    outer loop
      vertex -39.2495 32.9291 9
      vertex -39.2495 32.9291 0
      vertex -40.2031 32.6193 9
    endloop
  endfacet
  facet normal -0.309017 0.951056 0
    outer loop
      vertex -40.2031 32.6193 9
      vertex -39.2495 32.9291 0
      vertex -40.2031 32.6193 0
    endloop
  endfacet
  facet normal -0.535827 0.844328 0
    outer loop
      vertex -40.2031 32.6193 9
      vertex -40.2031 32.6193 0
      vertex -41.0497 32.0821 9
    endloop
  endfacet
  facet normal -0.535827 0.844328 0
    outer loop
      vertex -41.0497 32.0821 9
      vertex -40.2031 32.6193 0
      vertex -41.0497 32.0821 0
    endloop
  endfacet
  facet normal -0.728969 0.684547 0
    outer loop
      vertex -41.0497 32.0821 9
      vertex -41.0497 32.0821 0
      vertex -41.7361 31.3511 9
    endloop
  endfacet
  facet normal -0.728969 0.684547 0
    outer loop
      vertex -41.7361 31.3511 9
      vertex -41.0497 32.0821 0
      vertex -41.7361 31.3511 0
    endloop
  endfacet
  facet normal -0.876307 0.481754 0
    outer loop
      vertex -41.7361 31.3511 9
      vertex -41.7361 31.3511 0
      vertex -42.2191 30.4725 9
    endloop
  endfacet
  facet normal -0.876307 0.481754 0
    outer loop
      vertex -42.2191 30.4725 9
      vertex -41.7361 31.3511 0
      vertex -42.2191 30.4725 0
    endloop
  endfacet
  facet normal -1 2.22045e-16 -2.22045e-16
    outer loop
      vertex -19 33 7.5
      vertex -19 32.9921 7.5
      vertex -19 33 22.5
    endloop
  endfacet
  facet normal -1 2.22045e-16 -2.22045e-16
    outer loop
      vertex -19 33 22.5
      vertex -19 32.9921 7.5
      vertex -19 32.9921 9
    endloop
  endfacet
  facet normal -1 2.22045e-16 -2.22045e-16
    outer loop
      vertex -19 33 22.5
      vertex -19 32.9921 9
      vertex -19 29 9
    endloop
  endfacet
  facet normal -1 2.22045e-16 -2.22045e-16
    outer loop
      vertex -19 33 22.5
      vertex -19 29 9
      vertex -19 29 22.5
    endloop
  endfacet
  facet normal -2.22045e-16 -1 2.22045e-16
    outer loop
      vertex -19 29 9
      vertex 18.9685 29 9
      vertex 18.9685 29 23.0013
    endloop
  endfacet
  facet normal -2.22045e-16 -1 2.22045e-16
    outer loop
      vertex 18.2361 29 24.8511
      vertex -19 29 9
      vertex 18.7191 29 23.9725
    endloop
  endfacet
  facet normal -2.22045e-16 -1 2.22045e-16
    outer loop
      vertex 18.7191 29 23.9725
      vertex -19 29 9
      vertex 18.9685 29 23.0013
    endloop
  endfacet
  facet normal -2.22045e-16 -1 2.22045e-16
    outer loop
      vertex 17.5497 29 25.5821
      vertex -19 29 9
      vertex 18.2361 29 24.8511
    endloop
  endfacet
  facet normal -2.22045e-16 -1 2.22045e-16
    outer loop
      vertex 16.7031 29 26.1193
      vertex -19 29 9
      vertex 17.5497 29 25.5821
    endloop
  endfacet
  facet normal -2.22045e-16 -1 2.22045e-16
    outer loop
      vertex 15.7495 29 26.4291
      vertex -19 29 9
      vertex 16.7031 29 26.1193
    endloop
  endfacet
  facet normal -2.22045e-16 -1 2.22045e-16
    outer loop
      vertex 14.7488 29 26.4921
      vertex -19 29 9
      vertex 15.7495 29 26.4291
    endloop
  endfacet
  facet normal -2.22045e-16 -1 2.22045e-16
    outer loop
      vertex -15.2512 29 26.4921
      vertex -19 29 9
      vertex 14.7488 29 26.4921
    endloop
  endfacet
  facet normal -2.22045e-16 -1 2.22045e-16
    outer loop
      vertex -16.2361 29 26.3042
      vertex -19 29 9
      vertex -15.2512 29 26.4921
    endloop
  endfacet
  facet normal -2.22045e-16 -1 2.22045e-16
    outer loop
      vertex -17.1433 29 25.8773
      vertex -19 29 9
      vertex -16.2361 29 26.3042
    endloop
  endfacet
  facet normal -2.22045e-16 -1 2.22045e-16
    outer loop
      vertex -17.9159 29 25.2382
      vertex -19 29 9
      vertex -17.1433 29 25.8773
    endloop
  endfacet
  facet normal -2.22045e-16 -1 2.22045e-16
    outer loop
      vertex -18.5052 29 24.427
      vertex -19 29 9
      vertex -17.9159 29 25.2382
    endloop
  endfacet
  facet normal -2.22045e-16 -1 2.22045e-16
    outer loop
      vertex -18.8743 29 23.4948
      vertex -19 29 9
      vertex -18.5052 29 24.427
    endloop
  endfacet
  facet normal -2.22045e-16 -1 2.22045e-16
    outer loop
      vertex -19 29 22.5
      vertex -19 29 9
      vertex -18.8743 29 23.4948
    endloop
  endfacet
  facet normal 1 -2.22045e-16 2.22045e-16
    outer loop
      vertex 18.9685 33 6.99867
      vertex 18.9685 32.9921 9
      vertex 18.9685 32.9921 6.99867
    endloop
  endfacet
  facet normal 1 -2.22045e-16 2.22045e-16
    outer loop
      vertex 18.9685 33 23.0013
      vertex 18.9685 32.9921 9
      vertex 18.9685 33 6.99867
    endloop
  endfacet
  facet normal 1 -2.22045e-16 2.22045e-16
    outer loop
      vertex 18.9685 29 9
      vertex 18.9685 32.9921 9
      vertex 18.9685 33 23.0013
    endloop
  endfacet
  facet normal 1 -2.22045e-16 2.22045e-16
    outer loop
      vertex 18.9685 29 23.0013
      vertex 18.9685 29 9
      vertex 18.9685 33 23.0013
    endloop
  endfacet
  facet normal 0.987688 3.47354e-17 0.156435
    outer loop
      vertex 45.0979 -13 3.38197
      vertex 45.0979 -10 3.38197
      vertex 45 -10 4
    endloop
  endfacet
  facet normal 0.987688 3.47354e-17 0.156435
    outer loop
      vertex 45 -13 4
      vertex 45.0979 -13 3.38197
      vertex 45 -10 4
    endloop
  endfacet
  facet normal 0.891007 1.00806e-16 0.45399
    outer loop
      vertex 45.382 -13 2.82443
      vertex 45.382 -10 2.82443
      vertex 45.0979 -10 3.38197
    endloop
  endfacet
  facet normal 0.891007 1.00806e-16 0.45399
    outer loop
      vertex 45.0979 -13 3.38197
      vertex 45.382 -13 2.82443
      vertex 45.0979 -10 3.38197
    endloop
  endfacet
  facet normal 0.707107 1.57009e-16 0.707107
    outer loop
      vertex 45.8244 -13 2.38197
      vertex 45.8244 -10 2.38197
      vertex 45.382 -10 2.82443
    endloop
  endfacet
  facet normal 0.707107 1.57009e-16 0.707107
    outer loop
      vertex 45.382 -13 2.82443
      vertex 45.8244 -13 2.38197
      vertex 45.382 -10 2.82443
    endloop
  endfacet
  facet normal 0.45399 1.97843e-16 0.891007
    outer loop
      vertex 46.382 -13 2.09789
      vertex 46.382 -10 2.09789
      vertex 45.8244 -10 2.38197
    endloop
  endfacet
  facet normal 0.45399 1.97843e-16 0.891007
    outer loop
      vertex 45.8244 -13 2.38197
      vertex 46.382 -13 2.09789
      vertex 45.8244 -10 2.38197
    endloop
  endfacet
  facet normal 0.156435 2.19311e-16 0.987688
    outer loop
      vertex 47 -13 2
      vertex 47 -10 2
      vertex 46.382 -10 2.09789
    endloop
  endfacet
  facet normal 0.156435 2.19311e-16 0.987688
    outer loop
      vertex 46.382 -13 2.09789
      vertex 47 -13 2
      vertex 46.382 -10 2.09789
    endloop
  endfacet
  facet normal -0.156435 2.19311e-16 0.987688
    outer loop
      vertex 47.618 -13 2.09789
      vertex 47.618 -10 2.09789
      vertex 47 -10 2
    endloop
  endfacet
  facet normal -0.156435 2.19311e-16 0.987688
    outer loop
      vertex 47 -13 2
      vertex 47.618 -13 2.09789
      vertex 47 -10 2
    endloop
  endfacet
  facet normal -0.45399 1.97843e-16 0.891007
    outer loop
      vertex 48.1756 -13 2.38197
      vertex 48.1756 -10 2.38197
      vertex 47.618 -10 2.09789
    endloop
  endfacet
  facet normal -0.45399 1.97843e-16 0.891007
    outer loop
      vertex 47.618 -13 2.09789
      vertex 48.1756 -13 2.38197
      vertex 47.618 -10 2.09789
    endloop
  endfacet
  facet normal -0.707107 1.57009e-16 0.707107
    outer loop
      vertex 48.618 -10 2.82443
      vertex 48.1756 -10 2.38197
      vertex 48.618 -13 2.82443
    endloop
  endfacet
  facet normal -0.707107 1.57009e-16 0.707107
    outer loop
      vertex 48.618 -13 2.82443
      vertex 48.1756 -10 2.38197
      vertex 48.1756 -13 2.38197
    endloop
  endfacet
  facet normal -0.891007 1.00806e-16 0.45399
    outer loop
      vertex 48.9021 -10 3.38197
      vertex 48.618 -10 2.82443
      vertex 48.9021 -13 3.38197
    endloop
  endfacet
  facet normal -0.891007 1.00806e-16 0.45399
    outer loop
      vertex 48.9021 -13 3.38197
      vertex 48.618 -10 2.82443
      vertex 48.618 -13 2.82443
    endloop
  endfacet
  facet normal -0.987688 3.47354e-17 0.156435
    outer loop
      vertex 49 -10 4
      vertex 48.9021 -10 3.38197
      vertex 49 -13 4
    endloop
  endfacet
  facet normal -0.987688 3.47354e-17 0.156435
    outer loop
      vertex 49 -13 4
      vertex 48.9021 -10 3.38197
      vertex 48.9021 -13 3.38197
    endloop
  endfacet
  facet normal -0.987688 -3.47354e-17 -0.156435
    outer loop
      vertex 49 -10 4
      vertex 49 -13 4
      vertex 48.9021 -10 4.61803
    endloop
  endfacet
  facet normal -0.987688 -3.47354e-17 -0.156435
    outer loop
      vertex 48.9021 -10 4.61803
      vertex 49 -13 4
      vertex 48.9021 -13 4.61803
    endloop
  endfacet
  facet normal -0.891007 -1.00806e-16 -0.45399
    outer loop
      vertex 48.9021 -10 4.61803
      vertex 48.9021 -13 4.61803
      vertex 48.618 -10 5.17557
    endloop
  endfacet
  facet normal -0.891007 -1.00806e-16 -0.45399
    outer loop
      vertex 48.618 -10 5.17557
      vertex 48.9021 -13 4.61803
      vertex 48.618 -13 5.17557
    endloop
  endfacet
  facet normal -0.707107 -1.57009e-16 -0.707107
    outer loop
      vertex 48.618 -10 5.17557
      vertex 48.618 -13 5.17557
      vertex 48.1756 -10 5.61803
    endloop
  endfacet
  facet normal -0.707107 -1.57009e-16 -0.707107
    outer loop
      vertex 48.1756 -10 5.61803
      vertex 48.618 -13 5.17557
      vertex 48.1756 -13 5.61803
    endloop
  endfacet
  facet normal -0.45399 -1.97843e-16 -0.891007
    outer loop
      vertex 48.1756 -10 5.61803
      vertex 48.1756 -13 5.61803
      vertex 47.618 -10 5.90211
    endloop
  endfacet
  facet normal -0.45399 -1.97843e-16 -0.891007
    outer loop
      vertex 47.618 -10 5.90211
      vertex 48.1756 -13 5.61803
      vertex 47.618 -13 5.90211
    endloop
  endfacet
  facet normal -0.156435 -2.19311e-16 -0.987688
    outer loop
      vertex 47.618 -10 5.90211
      vertex 47.618 -13 5.90211
      vertex 47 -10 6
    endloop
  endfacet
  facet normal -0.156435 -2.19311e-16 -0.987688
    outer loop
      vertex 47 -10 6
      vertex 47.618 -13 5.90211
      vertex 47 -13 6
    endloop
  endfacet
  facet normal 0.156435 -2.19311e-16 -0.987688
    outer loop
      vertex 47 -10 6
      vertex 47 -13 6
      vertex 46.382 -10 5.90211
    endloop
  endfacet
  facet normal 0.156435 -2.19311e-16 -0.987688
    outer loop
      vertex 46.382 -10 5.90211
      vertex 47 -13 6
      vertex 46.382 -13 5.90211
    endloop
  endfacet
  facet normal 0.45399 -1.97843e-16 -0.891007
    outer loop
      vertex 46.382 -10 5.90211
      vertex 46.382 -13 5.90211
      vertex 45.8244 -10 5.61803
    endloop
  endfacet
  facet normal 0.45399 -1.97843e-16 -0.891007
    outer loop
      vertex 45.8244 -10 5.61803
      vertex 46.382 -13 5.90211
      vertex 45.8244 -13 5.61803
    endloop
  endfacet
  facet normal 0.707107 -1.57009e-16 -0.707107
    outer loop
      vertex 45.382 -10 5.17557
      vertex 45.8244 -10 5.61803
      vertex 45.8244 -13 5.61803
    endloop
  endfacet
  facet normal 0.707107 -1.57009e-16 -0.707107
    outer loop
      vertex 45.382 -13 5.17557
      vertex 45.382 -10 5.17557
      vertex 45.8244 -13 5.61803
    endloop
  endfacet
  facet normal 0.891007 -1.00806e-16 -0.45399
    outer loop
      vertex 45.0979 -10 4.61803
      vertex 45.382 -10 5.17557
      vertex 45.382 -13 5.17557
    endloop
  endfacet
  facet normal 0.891007 -1.00806e-16 -0.45399
    outer loop
      vertex 45.0979 -13 4.61803
      vertex 45.0979 -10 4.61803
      vertex 45.382 -13 5.17557
    endloop
  endfacet
  facet normal 0.987688 -3.47354e-17 -0.156435
    outer loop
      vertex 45 -10 4
      vertex 45.0979 -10 4.61803
      vertex 45.0979 -13 4.61803
    endloop
  endfacet
  facet normal 0.987688 -3.47354e-17 -0.156435
    outer loop
      vertex 45 -13 4
      vertex 45 -10 4
      vertex 45.0979 -13 4.61803
    endloop
  endfacet
  facet normal 0.987688 -3.47354e-17 -0.156435
    outer loop
      vertex 45 -5 4
      vertex 45.0979 -5 4.61803
      vertex 45.0979 -8 4.61803
    endloop
  endfacet
  facet normal 0.987688 -3.47354e-17 -0.156435
    outer loop
      vertex 45 -8 4
      vertex 45 -5 4
      vertex 45.0979 -8 4.61803
    endloop
  endfacet
  facet normal 0.987688 3.47354e-17 0.156435
    outer loop
      vertex 45.0979 -8 3.38197
      vertex 45.0979 -5 3.38197
      vertex 45 -5 4
    endloop
  endfacet
  facet normal 0.987688 3.47354e-17 0.156435
    outer loop
      vertex 45 -8 4
      vertex 45.0979 -8 3.38197
      vertex 45 -5 4
    endloop
  endfacet
  facet normal 0.891007 1.00806e-16 0.45399
    outer loop
      vertex 45.382 -8 2.82443
      vertex 45.382 -5 2.82443
      vertex 45.0979 -5 3.38197
    endloop
  endfacet
  facet normal 0.891007 1.00806e-16 0.45399
    outer loop
      vertex 45.0979 -8 3.38197
      vertex 45.382 -8 2.82443
      vertex 45.0979 -5 3.38197
    endloop
  endfacet
  facet normal 0.707107 1.57009e-16 0.707107
    outer loop
      vertex 45.8244 -8 2.38197
      vertex 45.8244 -5 2.38197
      vertex 45.382 -5 2.82443
    endloop
  endfacet
  facet normal 0.707107 1.57009e-16 0.707107
    outer loop
      vertex 45.382 -8 2.82443
      vertex 45.8244 -8 2.38197
      vertex 45.382 -5 2.82443
    endloop
  endfacet
  facet normal 0.45399 1.97843e-16 0.891007
    outer loop
      vertex 46.382 -8 2.09789
      vertex 46.382 -5 2.09789
      vertex 45.8244 -5 2.38197
    endloop
  endfacet
  facet normal 0.45399 1.97843e-16 0.891007
    outer loop
      vertex 45.8244 -8 2.38197
      vertex 46.382 -8 2.09789
      vertex 45.8244 -5 2.38197
    endloop
  endfacet
  facet normal 0.156435 2.19311e-16 0.987688
    outer loop
      vertex 47 -8 2
      vertex 47 -5 2
      vertex 46.382 -5 2.09789
    endloop
  endfacet
  facet normal 0.156435 2.19311e-16 0.987688
    outer loop
      vertex 46.382 -8 2.09789
      vertex 47 -8 2
      vertex 46.382 -5 2.09789
    endloop
  endfacet
  facet normal -0.156435 2.19311e-16 0.987688
    outer loop
      vertex 47.618 -8 2.09789
      vertex 47.618 -5 2.09789
      vertex 47 -5 2
    endloop
  endfacet
  facet normal -0.156435 2.19311e-16 0.987688
    outer loop
      vertex 47 -8 2
      vertex 47.618 -8 2.09789
      vertex 47 -5 2
    endloop
  endfacet
  facet normal -0.45399 1.97843e-16 0.891007
    outer loop
      vertex 48.1756 -8 2.38197
      vertex 48.1756 -5 2.38197
      vertex 47.618 -5 2.09789
    endloop
  endfacet
  facet normal -0.45399 1.97843e-16 0.891007
    outer loop
      vertex 47.618 -8 2.09789
      vertex 48.1756 -8 2.38197
      vertex 47.618 -5 2.09789
    endloop
  endfacet
  facet normal -0.707107 1.57009e-16 0.707107
    outer loop
      vertex 48.618 -5 2.82443
      vertex 48.1756 -5 2.38197
      vertex 48.618 -8 2.82443
    endloop
  endfacet
  facet normal -0.707107 1.57009e-16 0.707107
    outer loop
      vertex 48.618 -8 2.82443
      vertex 48.1756 -5 2.38197
      vertex 48.1756 -8 2.38197
    endloop
  endfacet
  facet normal -0.891007 1.00806e-16 0.45399
    outer loop
      vertex 48.9021 -5 3.38197
      vertex 48.618 -5 2.82443
      vertex 48.9021 -8 3.38197
    endloop
  endfacet
  facet normal -0.891007 1.00806e-16 0.45399
    outer loop
      vertex 48.9021 -8 3.38197
      vertex 48.618 -5 2.82443
      vertex 48.618 -8 2.82443
    endloop
  endfacet
  facet normal -0.987688 3.47354e-17 0.156435
    outer loop
      vertex 49 -5 4
      vertex 48.9021 -5 3.38197
      vertex 49 -8 4
    endloop
  endfacet
  facet normal -0.987688 3.47354e-17 0.156435
    outer loop
      vertex 49 -8 4
      vertex 48.9021 -5 3.38197
      vertex 48.9021 -8 3.38197
    endloop
  endfacet
  facet normal -0.987688 -3.47354e-17 -0.156435
    outer loop
      vertex 49 -5 4
      vertex 49 -8 4
      vertex 48.9021 -5 4.61803
    endloop
  endfacet
  facet normal -0.987688 -3.47354e-17 -0.156435
    outer loop
      vertex 48.9021 -5 4.61803
      vertex 49 -8 4
      vertex 48.9021 -8 4.61803
    endloop
  endfacet
  facet normal -0.891007 -1.00806e-16 -0.45399
    outer loop
      vertex 48.9021 -5 4.61803
      vertex 48.9021 -8 4.61803
      vertex 48.618 -5 5.17557
    endloop
  endfacet
  facet normal -0.891007 -1.00806e-16 -0.45399
    outer loop
      vertex 48.618 -5 5.17557
      vertex 48.9021 -8 4.61803
      vertex 48.618 -8 5.17557
    endloop
  endfacet
  facet normal -0.707107 -1.57009e-16 -0.707107
    outer loop
      vertex 48.618 -5 5.17557
      vertex 48.618 -8 5.17557
      vertex 48.1756 -5 5.61803
    endloop
  endfacet
  facet normal -0.707107 -1.57009e-16 -0.707107
    outer loop
      vertex 48.1756 -5 5.61803
      vertex 48.618 -8 5.17557
      vertex 48.1756 -8 5.61803
    endloop
  endfacet
  facet normal -0.45399 -1.97843e-16 -0.891007
    outer loop
      vertex 48.1756 -5 5.61803
      vertex 48.1756 -8 5.61803
      vertex 47.618 -5 5.90211
    endloop
  endfacet
  facet normal -0.45399 -1.97843e-16 -0.891007
    outer loop
      vertex 47.618 -5 5.90211
      vertex 48.1756 -8 5.61803
      vertex 47.618 -8 5.90211
    endloop
  endfacet
  facet normal -0.156435 -2.19311e-16 -0.987688
    outer loop
      vertex 47.618 -5 5.90211
      vertex 47.618 -8 5.90211
      vertex 47 -5 6
    endloop
  endfacet
  facet normal -0.156435 -2.19311e-16 -0.987688
    outer loop
      vertex 47 -5 6
      vertex 47.618 -8 5.90211
      vertex 47 -8 6
    endloop
  endfacet
  facet normal 0.156435 -2.19311e-16 -0.987688
    outer loop
      vertex 47 -5 6
      vertex 47 -8 6
      vertex 46.382 -5 5.90211
    endloop
  endfacet
  facet normal 0.156435 -2.19311e-16 -0.987688
    outer loop
      vertex 46.382 -5 5.90211
      vertex 47 -8 6
      vertex 46.382 -8 5.90211
    endloop
  endfacet
  facet normal 0.45399 -1.97843e-16 -0.891007
    outer loop
      vertex 46.382 -5 5.90211
      vertex 46.382 -8 5.90211
      vertex 45.8244 -5 5.61803
    endloop
  endfacet
  facet normal 0.45399 -1.97843e-16 -0.891007
    outer loop
      vertex 45.8244 -5 5.61803
      vertex 46.382 -8 5.90211
      vertex 45.8244 -8 5.61803
    endloop
  endfacet
  facet normal 0.707107 -1.57009e-16 -0.707107
    outer loop
      vertex 45.382 -5 5.17557
      vertex 45.8244 -5 5.61803
      vertex 45.8244 -8 5.61803
    endloop
  endfacet
  facet normal 0.707107 -1.57009e-16 -0.707107
    outer loop
      vertex 45.382 -8 5.17557
      vertex 45.382 -5 5.17557
      vertex 45.8244 -8 5.61803
    endloop
  endfacet
  facet normal 0.891007 -1.00806e-16 -0.45399
    outer loop
      vertex 45.0979 -5 4.61803
      vertex 45.382 -5 5.17557
      vertex 45.382 -8 5.17557
    endloop
  endfacet
  facet normal 0.891007 -1.00806e-16 -0.45399
    outer loop
      vertex 45.0979 -8 4.61803
      vertex 45.0979 -5 4.61803
      vertex 45.382 -8 5.17557
    endloop
  endfacet
  facet normal 0.968583 -2.70289e-16 -0.24869
    outer loop
      vertex 18.7191 33 6.0275
      vertex 18.9685 33 6.99867
      vertex 18.9685 32.9921 6.99867
    endloop
  endfacet
  facet normal 0.968583 -2.70289e-16 -0.24869
    outer loop
      vertex 18.7191 32.9921 6.0275
      vertex 18.7191 33 6.0275
      vertex 18.9685 32.9921 6.99867
    endloop
  endfacet
  facet normal 0.876307 -3.0155e-16 -0.481754
    outer loop
      vertex 18.2361 33 5.14886
      vertex 18.7191 33 6.0275
      vertex 18.7191 32.9921 6.0275
    endloop
  endfacet
  facet normal 0.876307 -3.0155e-16 -0.481754
    outer loop
      vertex 18.2361 32.9921 5.14886
      vertex 18.2361 33 5.14886
      vertex 18.7191 32.9921 6.0275
    endloop
  endfacet
  facet normal 0.728969 -3.13864e-16 -0.684547
    outer loop
      vertex 17.5497 33 4.41795
      vertex 18.2361 33 5.14886
      vertex 18.2361 32.9921 5.14886
    endloop
  endfacet
  facet normal 0.728969 -3.13864e-16 -0.684547
    outer loop
      vertex 17.5497 32.9921 4.41795
      vertex 17.5497 33 4.41795
      vertex 18.2361 32.9921 5.14886
    endloop
  endfacet
  facet normal 0.535827 -3.06456e-16 -0.844328
    outer loop
      vertex 17.5497 33 4.41795
      vertex 17.5497 32.9921 4.41795
      vertex 16.7031 33 3.88069
    endloop
  endfacet
  facet normal 0.535827 -3.06456e-16 -0.844328
    outer loop
      vertex 16.7031 33 3.88069
      vertex 17.5497 32.9921 4.41795
      vertex 16.7031 32.9921 3.88069
    endloop
  endfacet
  facet normal 0.309017 -2.79793e-16 -0.951056
    outer loop
      vertex 16.7031 33 3.88069
      vertex 16.7031 32.9921 3.88069
      vertex 15.7495 33 3.57085
    endloop
  endfacet
  facet normal 0.309017 -2.79793e-16 -0.951056
    outer loop
      vertex 15.7495 33 3.57085
      vertex 16.7031 32.9921 3.88069
      vertex 15.7495 32.9921 3.57085
    endloop
  endfacet
  facet normal 0.0627906 -2.35549e-16 -0.998027
    outer loop
      vertex 15.7495 33 3.57085
      vertex 15.7495 32.9921 3.57085
      vertex 14.7488 33 3.50789
    endloop
  endfacet
  facet normal 0.0627906 -2.35549e-16 -0.998027
    outer loop
      vertex 14.7488 33 3.50789
      vertex 15.7495 32.9921 3.57085
      vertex 14.7488 32.9921 3.50789
    endloop
  endfacet
  facet normal 2.22045e-16 -2.22045e-16 -1
    outer loop
      vertex 14.7488 33 3.50789
      vertex 14.7488 32.9921 3.50789
      vertex -15.2512 33 3.50789
    endloop
  endfacet
  facet normal 2.22045e-16 -2.22045e-16 -1
    outer loop
      vertex -15.2512 33 3.50789
      vertex 14.7488 32.9921 3.50789
      vertex -15.2512 32.9921 3.50789
    endloop
  endfacet
  facet normal -0.187381 -1.76505e-16 -0.982287
    outer loop
      vertex -15.2512 33 3.50789
      vertex -15.2512 32.9921 3.50789
      vertex -16.2361 33 3.69577
    endloop
  endfacet
  facet normal -0.187381 -1.76505e-16 -0.982287
    outer loop
      vertex -16.2361 33 3.69577
      vertex -15.2512 32.9921 3.50789
      vertex -16.2361 32.9921 3.69577
    endloop
  endfacet
  facet normal -0.425779 -1.0637e-16 -0.904827
    outer loop
      vertex -16.2361 33 3.69577
      vertex -16.2361 32.9921 3.69577
      vertex -17.1433 33 4.12269
    endloop
  endfacet
  facet normal -0.425779 -1.0637e-16 -0.904827
    outer loop
      vertex -17.1433 33 4.12269
      vertex -16.2361 32.9921 3.69577
      vertex -17.1433 32.9921 4.12269
    endloop
  endfacet
  facet normal -0.637424 -2.95517e-17 -0.770513
    outer loop
      vertex -17.1433 33 4.12269
      vertex -17.1433 32.9921 4.12269
      vertex -17.9159 33 4.76181
    endloop
  endfacet
  facet normal -0.637424 -2.95517e-17 -0.770513
    outer loop
      vertex -17.9159 33 4.76181
      vertex -17.1433 32.9921 4.12269
      vertex -17.9159 32.9921 4.76181
    endloop
  endfacet
  facet normal -0.809017 4.91232e-17 -0.587785
    outer loop
      vertex -17.9159 33 4.76181
      vertex -17.9159 32.9921 4.76181
      vertex -18.5052 33 5.57298
    endloop
  endfacet
  facet normal -0.809017 4.91232e-17 -0.587785
    outer loop
      vertex -18.5052 33 5.57298
      vertex -17.9159 32.9921 4.76181
      vertex -18.5052 32.9921 5.57298
    endloop
  endfacet
  facet normal -0.929776 1.24712e-16 -0.368125
    outer loop
      vertex -18.5052 33 5.57298
      vertex -18.5052 32.9921 5.57298
      vertex -18.8743 33 6.50524
    endloop
  endfacet
  facet normal -0.929776 1.24712e-16 -0.368125
    outer loop
      vertex -18.8743 33 6.50524
      vertex -18.5052 32.9921 5.57298
      vertex -18.8743 32.9921 6.50524
    endloop
  endfacet
  facet normal -0.992115 1.92464e-16 -0.125333
    outer loop
      vertex -18.8743 33 6.50524
      vertex -18.8743 32.9921 6.50524
      vertex -19 33 7.5
    endloop
  endfacet
  facet normal -0.992115 1.92464e-16 -0.125333
    outer loop
      vertex -19 33 7.5
      vertex -18.8743 32.9921 6.50524
      vertex -19 32.9921 7.5
    endloop
  endfacet
  facet normal 2.22045e-16 1 -2.22045e-16
    outer loop
      vertex -18.5052 33 24.427
      vertex -17.9159 33 25.2382
      vertex -18.8743 33 23.4948
    endloop
  endfacet
  facet normal 2.22045e-16 1 -2.22045e-16
    outer loop
      vertex -18.8743 33 23.4948
      vertex -17.9159 33 25.2382
      vertex -17.1433 33 25.8773
    endloop
  endfacet
  facet normal 2.22045e-16 1 -2.22045e-16
    outer loop
      vertex -18.8743 33 23.4948
      vertex -17.1433 33 25.8773
      vertex -16.2361 33 26.3042
    endloop
  endfacet
  facet normal 2.22045e-16 1 -2.22045e-16
    outer loop
      vertex -18.8743 33 23.4948
      vertex -16.2361 33 26.3042
      vertex -15.2512 33 26.4921
    endloop
  endfacet
  facet normal 2.22045e-16 1 -2.22045e-16
    outer loop
      vertex -18.8743 33 23.4948
      vertex -15.2512 33 26.4921
      vertex 14.7488 33 26.4921
    endloop
  endfacet
  facet normal 2.22045e-16 1 -2.22045e-16
    outer loop
      vertex -18.8743 33 23.4948
      vertex 14.7488 33 26.4921
      vertex 15.7495 33 26.4291
    endloop
  endfacet
  facet normal 2.22045e-16 1 -2.22045e-16
    outer loop
      vertex -18.8743 33 23.4948
      vertex 15.7495 33 26.4291
      vertex 16.7031 33 26.1193
    endloop
  endfacet
  facet normal 2.22045e-16 1 -2.22045e-16
    outer loop
      vertex -18.8743 33 23.4948
      vertex 16.7031 33 26.1193
      vertex 17.5497 33 25.5821
    endloop
  endfacet
  facet normal 2.22045e-16 1 -2.22045e-16
    outer loop
      vertex -18.8743 33 23.4948
      vertex 17.5497 33 25.5821
      vertex 18.2361 33 24.8511
    endloop
  endfacet
  facet normal 2.22045e-16 1 -2.22045e-16
    outer loop
      vertex -18.8743 33 23.4948
      vertex 18.2361 33 24.8511
      vertex 18.7191 33 23.9725
    endloop
  endfacet
  facet normal 2.22045e-16 1 -2.22045e-16
    outer loop
      vertex -18.8743 33 23.4948
      vertex 18.7191 33 23.9725
      vertex 18.9685 33 23.0013
    endloop
  endfacet
  facet normal 2.22045e-16 1 -2.22045e-16
    outer loop
      vertex -18.8743 33 23.4948
      vertex 18.9685 33 23.0013
      vertex 18.9685 33 6.99867
    endloop
  endfacet
  facet normal 2.22045e-16 1 -2.22045e-16
    outer loop
      vertex -18.8743 33 23.4948
      vertex 18.9685 33 6.99867
      vertex 18.7191 33 6.0275
    endloop
  endfacet
  facet normal 2.22045e-16 1 -2.22045e-16
    outer loop
      vertex -18.8743 33 23.4948
      vertex 18.7191 33 6.0275
      vertex 18.2361 33 5.14886
    endloop
  endfacet
  facet normal 2.22045e-16 1 -2.22045e-16
    outer loop
      vertex -18.8743 33 23.4948
      vertex 18.2361 33 5.14886
      vertex 17.5497 33 4.41795
    endloop
  endfacet
  facet normal 2.22045e-16 1 -2.22045e-16
    outer loop
      vertex -18.8743 33 23.4948
      vertex 17.5497 33 4.41795
      vertex 16.7031 33 3.88069
    endloop
  endfacet
  facet normal 2.22045e-16 1 -2.22045e-16
    outer loop
      vertex -18.8743 33 23.4948
      vertex 16.7031 33 3.88069
      vertex 15.7495 33 3.57085
    endloop
  endfacet
  facet normal 2.22045e-16 1 -2.22045e-16
    outer loop
      vertex -18.8743 33 23.4948
      vertex 15.7495 33 3.57085
      vertex 14.7488 33 3.50789
    endloop
  endfacet
  facet normal 2.22045e-16 1 -2.22045e-16
    outer loop
      vertex -18.8743 33 23.4948
      vertex 14.7488 33 3.50789
      vertex -15.2512 33 3.50789
    endloop
  endfacet
  facet normal 2.22045e-16 1 -2.22045e-16
    outer loop
      vertex -18.8743 33 23.4948
      vertex -15.2512 33 3.50789
      vertex -16.2361 33 3.69577
    endloop
  endfacet
  facet normal 2.22045e-16 1 -2.22045e-16
    outer loop
      vertex -18.8743 33 23.4948
      vertex -16.2361 33 3.69577
      vertex -17.1433 33 4.12269
    endloop
  endfacet
  facet normal 2.22045e-16 1 -2.22045e-16
    outer loop
      vertex -18.8743 33 23.4948
      vertex -17.1433 33 4.12269
      vertex -17.9159 33 4.76181
    endloop
  endfacet
  facet normal 2.22045e-16 1 -2.22045e-16
    outer loop
      vertex -18.8743 33 23.4948
      vertex -17.9159 33 4.76181
      vertex -18.5052 33 5.57298
    endloop
  endfacet
  facet normal 2.22045e-16 1 -2.22045e-16
    outer loop
      vertex -18.8743 33 23.4948
      vertex -18.5052 33 5.57298
      vertex -18.8743 33 6.50524
    endloop
  endfacet
  facet normal 2.22045e-16 1 -2.22045e-16
    outer loop
      vertex -18.8743 33 23.4948
      vertex -18.8743 33 6.50524
      vertex -19 33 7.5
    endloop
  endfacet
  facet normal 2.22045e-16 1 -2.22045e-16
    outer loop
      vertex -18.8743 33 23.4948
      vertex -19 33 7.5
      vertex -19 33 22.5
    endloop
  endfacet
  facet normal -0.992115 2.48123e-16 0.125333
    outer loop
      vertex -18.8743 33 23.4948
      vertex -19 33 22.5
      vertex -18.8743 29 23.4948
    endloop
  endfacet
  facet normal -0.992115 2.48123e-16 0.125333
    outer loop
      vertex -18.8743 29 23.4948
      vertex -19 33 22.5
      vertex -19 29 22.5
    endloop
  endfacet
  facet normal -0.929776 2.88192e-16 0.368125
    outer loop
      vertex -18.5052 33 24.427
      vertex -18.8743 33 23.4948
      vertex -18.5052 29 24.427
    endloop
  endfacet
  facet normal -0.929776 2.88192e-16 0.368125
    outer loop
      vertex -18.5052 29 24.427
      vertex -18.8743 33 23.4948
      vertex -18.8743 29 23.4948
    endloop
  endfacet
  facet normal -0.809017 3.10152e-16 0.587785
    outer loop
      vertex -17.9159 33 25.2382
      vertex -18.5052 33 24.427
      vertex -17.9159 29 25.2382
    endloop
  endfacet
  facet normal -0.809017 3.10152e-16 0.587785
    outer loop
      vertex -17.9159 29 25.2382
      vertex -18.5052 33 24.427
      vertex -18.5052 29 24.427
    endloop
  endfacet
  facet normal -0.637424 3.12625e-16 0.770513
    outer loop
      vertex -17.1433 29 25.8773
      vertex -17.1433 33 25.8773
      vertex -17.9159 33 25.2382
    endloop
  endfacet
  facet normal -0.637424 3.12625e-16 0.770513
    outer loop
      vertex -17.9159 29 25.2382
      vertex -17.1433 29 25.8773
      vertex -17.9159 33 25.2382
    endloop
  endfacet
  facet normal -0.425779 2.95454e-16 0.904827
    outer loop
      vertex -16.2361 29 26.3042
      vertex -16.2361 33 26.3042
      vertex -17.1433 33 25.8773
    endloop
  endfacet
  facet normal -0.425779 2.95454e-16 0.904827
    outer loop
      vertex -17.1433 29 25.8773
      vertex -16.2361 29 26.3042
      vertex -17.1433 33 25.8773
    endloop
  endfacet
  facet normal -0.187381 2.59719e-16 0.982287
    outer loop
      vertex -15.2512 29 26.4921
      vertex -15.2512 33 26.4921
      vertex -16.2361 33 26.3042
    endloop
  endfacet
  facet normal -0.187381 2.59719e-16 0.982287
    outer loop
      vertex -16.2361 29 26.3042
      vertex -15.2512 29 26.4921
      vertex -16.2361 33 26.3042
    endloop
  endfacet
  facet normal -2.22045e-16 2.22045e-16 1
    outer loop
      vertex 14.7488 29 26.4921
      vertex 14.7488 33 26.4921
      vertex -15.2512 33 26.4921
    endloop
  endfacet
  facet normal -2.22045e-16 2.22045e-16 1
    outer loop
      vertex -15.2512 29 26.4921
      vertex 14.7488 29 26.4921
      vertex -15.2512 33 26.4921
    endloop
  endfacet
  facet normal 0.0627906 2.07664e-16 0.998027
    outer loop
      vertex 15.7495 29 26.4291
      vertex 15.7495 33 26.4291
      vertex 14.7488 33 26.4921
    endloop
  endfacet
  facet normal 0.0627906 2.07664e-16 0.998027
    outer loop
      vertex 14.7488 29 26.4921
      vertex 15.7495 29 26.4291
      vertex 14.7488 33 26.4921
    endloop
  endfacet
  facet normal 0.309017 1.42561e-16 0.951056
    outer loop
      vertex 16.7031 29 26.1193
      vertex 16.7031 33 26.1193
      vertex 15.7495 33 26.4291
    endloop
  endfacet
  facet normal 0.309017 1.42561e-16 0.951056
    outer loop
      vertex 15.7495 29 26.4291
      vertex 16.7031 29 26.1193
      vertex 15.7495 33 26.4291
    endloop
  endfacet
  facet normal 0.535827 6.85011e-17 0.844328
    outer loop
      vertex 17.5497 29 25.5821
      vertex 17.5497 33 25.5821
      vertex 16.7031 33 26.1193
    endloop
  endfacet
  facet normal 0.535827 6.85011e-17 0.844328
    outer loop
      vertex 16.7031 29 26.1193
      vertex 17.5497 29 25.5821
      vertex 16.7031 33 26.1193
    endloop
  endfacet
  facet normal 0.728969 -9.86357e-18 0.684547
    outer loop
      vertex 18.2361 29 24.8511
      vertex 18.2361 33 24.8511
      vertex 17.5497 33 25.5821
    endloop
  endfacet
  facet normal 0.728969 -9.86357e-18 0.684547
    outer loop
      vertex 17.5497 29 25.5821
      vertex 18.2361 29 24.8511
      vertex 17.5497 33 25.5821
    endloop
  endfacet
  facet normal 0.876307 -8.76084e-17 0.481754
    outer loop
      vertex 18.7191 29 23.9725
      vertex 18.7191 33 23.9725
      vertex 18.2361 33 24.8511
    endloop
  endfacet
  facet normal 0.876307 -8.76084e-17 0.481754
    outer loop
      vertex 18.2361 29 24.8511
      vertex 18.7191 29 23.9725
      vertex 18.2361 33 24.8511
    endloop
  endfacet
  facet normal 0.968583 -1.59848e-16 0.24869
    outer loop
      vertex 18.9685 29 23.0013
      vertex 18.9685 33 23.0013
      vertex 18.7191 33 23.9725
    endloop
  endfacet
  facet normal 0.968583 -1.59848e-16 0.24869
    outer loop
      vertex 18.7191 29 23.9725
      vertex 18.9685 29 23.0013
      vertex 18.7191 33 23.9725
    endloop
  endfacet
endsolid OpenSCAD_Model
