  0
SECTION
  2
HEADER
  9
$ACADVER
  1
AC1015
  9
$ACADMAINTVER
 70
     6
  9
$DWGCODEPAGE
  3
ANSI_1252
  9
$INSBASE
 10
0.0
 20
0.0
 30
0.0
  9
$EXTMIN
 10
0.0
 20
0.0
 30
0.0
  9
$EXTMAX
 10
420.0
 20
297.0
 30
0.0
  9
$LIMMIN
 10
0.0
 20
0.0
  9
$LIMMAX
 10
420.0
 20
297.0
  9
$ORTHOMODE
 70
     0
  9
$REGENMODE
 70
     1
  9
$FILLMODE
 70
     1
  9
$QTEXTMODE
 70
     0
  9
$MIRRTEXT
 70
     1
  9
$LTSCALE
 40
1.0
  9
$ATTMODE
 70
     1
  9
$TEXTSIZE
 40
3.5
  9
$TRACEWID
 40
1.0
  9
$TEXTSTYLE
  7
Standard
  9
$CLAYER
  8
0
  9
$CELTYPE
  6
ByLayer
  9
$CECOLOR
 62
   256
  9
$CELTSCALE
 40
1.0
  9
$DISPSILH
 70
     0
  9
$DIMSCALE
 40
1.0
  9
$DIMASZ
 40
3.302
  9
$DIMEXO
 40
1.0
  9
$DIMDLI
 40
3.75
  9
$DIMRND
 40
0.0
  9
$DIMDLE
 40
0.0
  9
$DIMEXE
 40
1.0
  9
$DIMTP
 40
0.0
  9
$DIMTM
 40
0.0
  9
$DIMTXT
 40
3.5
  9
$DIMCEN
 40
2.5
  9
$DIMTSZ
 40
0.0
  9
$DIMTOL
 70
     0
  9
$DIMLIM
 70
     0
  9
$DIMTIH
 70
     1
  9
$DIMTOH
 70
     1
  9
$DIMSE1
 70
     0
  9
$DIMSE2
 70
     0
  9
$DIMTAD
 70
     1
  9
$DIMZIN
 70
     0
  9
$DIMBLK
  1

  9
$DIMASO
 70
     1
  9
$DIMSHO
 70
     1
  9
$DIMPOST
  1

  9
$DIMAPOST
  1

  9
$DIMALT
 70
     0
  9
$DIMALTD
 70
     3
  9
$DIMALTF
 40
0.0393700787
  9
$DIMLFAC
 40
0.1
  9
$DIMTOFL
 70
     1
  9
$DIMTVP
 40
0.0
  9
$DIMTIX
 70
     0
  9
$DIMSOXD
 70
     0
  9
$DIMSAH
 70
     0
  9
$DIMBLK1
  1

  9
$DIMBLK2
  1

  9
$DIMSTYLE
  2
ISO-25
  9
$DIMCLRD
 70
     0
  9
$DIMCLRE
 70
     0
  9
$DIMCLRT
 70
     0
  9
$DIMTFAC
 40
1.0
  9
$DIMGAP
 40
1.524
  9
$DIMJUST
 70
     0
  9
$DIMSD1
 70
     0
  9
$DIMSD2
 70
     0
  9
$DIMTOLJ
 70
     0
  9
$DIMTZIN
 70
     0
  9
$DIMALTZ
 70
     0
  9
$DIMALTTZ
 70
     0
  9
$DIMUPT
 70
     0
  9
$DIMDEC
 70
     2
  9
$DIMTDEC
 70
     2
  9
$DIMALTU
 70
     2
  9
$DIMALTTD
 70
     3
  9
$DIMTXSTY
  7
Standard
  9
$DIMAUNIT
 70
     0
  9
$DIMADEC
 70
     2
  9
$DIMALTRND
 40
0.0
  9
$DIMAZIN
 70
     0
  9
$DIMDSEP
 70
    44
  9
$DIMATFIT
 70
     3
  9
$DIMFRAC
 70
     0
  9
$DIMLDRBLK
  1

  9
$DIMLUNIT
 70
     2
  9
$DIMLWD
 70
    -2
  9
$DIMLWE
 70
    -2
  9
$DIMTMOVE
 70
     0
  9
$LUNITS
 70
     2
  9
$LUPREC
 70
     2
  9
$SKETCHINC
 40
1.0
  9
$FILLETRAD
 40
10.0
  9
$AUNITS
 70
     0
  9
$AUPREC
 70
     2
  9
$MENU
  1
.
  9
$ELEVATION
 40
0.0
  9
$PELEVATION
 40
0.0
  9
$THICKNESS
 40
0.0
  9
$LIMCHECK
 70
     0
  9
$CHAMFERA
 40
10.0
  9
$CHAMFERB
 40
10.0
  9
$CHAMFERC
 40
20.0
  9
$CHAMFERD
 40
0.0
  9
$SKPOLY
 70
     0
  9
$TDCREATE
 40
2456914.758949629
  9
$TDUCREATE
 40
2456914.425616296
  9
$TDUPDATE
 40
2456914.75895287
  9
$TDUUPDATE
 40
2456914.425619537
  9
$TDINDWG
 40
0.0000000116
  9
$TDUSRTIMER
 40
0.0000000116
  9
$USRTIMER
 70
     1
  9
$ANGBASE
 50
0.0
  9
$ANGDIR
 70
     0
  9
$PDMODE
 70
     0
  9
$PDSIZE
 40
-1.0
  9
$PLINEWID
 40
0.0
  9
$SPLFRAME
 70
     0
  9
$SPLINETYPE
 70
     6
  9
$SPLINESEGS
 70
     8
  9
$HANDSEED
  5
18D
  9
$SURFTAB1
 70
     6
  9
$SURFTAB2
 70
     6
  9
$SURFTYPE
 70
     6
  9
$SURFU
 70
     6
  9
$SURFV
 70
     6
  9
$UCSBASE
  2

  9
$UCSNAME
  2

  9
$UCSORG
 10
0.0
 20
0.0
 30
0.0
  9
$UCSXDIR
 10
1.0
 20
0.0
 30
0.0
  9
$UCSYDIR
 10
0.0
 20
1.0
 30
0.0
  9
$UCSORTHOREF
  2

  9
$UCSORTHOVIEW
 70
     0
  9
$UCSORGTOP
 10
0.0
 20
0.0
 30
0.0
  9
$UCSORGBOTTOM
 10
0.0
 20
0.0
 30
0.0
  9
$UCSORGLEFT
 10
0.0
 20
0.0
 30
0.0
  9
$UCSORGRIGHT
 10
0.0
 20
0.0
 30
0.0
  9
$UCSORGFRONT
 10
0.0
 20
0.0
 30
0.0
  9
$UCSORGBACK
 10
0.0
 20
0.0
 30
0.0
  9
$PUCSBASE
  2

  9
$PUCSNAME
  2

  9
$PUCSORG
 10
0.0
 20
0.0
 30
0.0
  9
$PUCSXDIR
 10
1.0
 20
0.0
 30
0.0
  9
$PUCSYDIR
 10
0.0
 20
1.0
 30
0.0
  9
$PUCSORTHOREF
  2

  9
$PUCSORTHOVIEW
 70
     0
  9
$PUCSORGTOP
 10
0.0
 20
0.0
 30
0.0
  9
$PUCSORGBOTTOM
 10
0.0
 20
0.0
 30
0.0
  9
$PUCSORGLEFT
 10
0.0
 20
0.0
 30
0.0
  9
$PUCSORGRIGHT
 10
0.0
 20
0.0
 30
0.0
  9
$PUCSORGFRONT
 10
0.0
 20
0.0
 30
0.0
  9
$PUCSORGBACK
 10
0.0
 20
0.0
 30
0.0
  9
$USERI1
 70
     0
  9
$USERI2
 70
     0
  9
$USERI3
 70
     0
  9
$USERI4
 70
     0
  9
$USERI5
 70
     0
  9
$USERR1
 40
0.0
  9
$USERR2
 40
0.0
  9
$USERR3
 40
0.0
  9
$USERR4
 40
0.0
  9
$USERR5
 40
0.0
  9
$WORLDVIEW
 70
     1
  9
$SHADEDGE
 70
     3
  9
$SHADEDIF
 70
    70
  9
$TILEMODE
 70
     1
  9
$MAXACTVP
 70
    64
  9
$PINSBASE
 10
0.0
 20
0.0
 30
0.0
  9
$PLIMCHECK
 70
     0
  9
$PEXTMIN
 10
1.0000000000E+20
 20
1.0000000000E+20
 30
1.0000000000E+20
  9
$PEXTMAX
 10
-1.0000000000E+20
 20
-1.0000000000E+20
 30
-1.0000000000E+20
  9
$PLIMMIN
 10
0.0
 20
0.0
  9
$PLIMMAX
 10
420.0
 20
297.0
  9
$UNITMODE
 70
     0
  9
$VISRETAIN
 70
     1
  9
$PLINEGEN
 70
     0
  9
$PSLTSCALE
 70
     1
  9
$TREEDEPTH
 70
  3020
  9
$CMLSTYLE
  2
Standard
  9
$CMLJUST
 70
     0
  9
$CMLSCALE
 40
20.0
  9
$PROXYGRAPHICS
 70
     1
  9
$MEASUREMENT
 70
     1
  9
$CELWEIGHT
370
    -1
  9
$ENDCAPS
280
     0
  9
$JOINSTYLE
280
     0
  9
$LWDISPLAY
290
     1
  9
$INSUNITS
 70
     4
  9
$HYPERLINKBASE
  1

  9
$STYLESHEET
  1

  9
$XEDIT
290
     1
  9
$CEPSNTYPE
380
     0
  9
$PSTYLEMODE
290
     1
  9
$FINGERPRINTGUID
  2
{769A865A-8792-4561-A1DB-57EA1223B2A8}
  9
$VERSIONGUID
  2
{FAEB1C32-E019-11D5-929B-00C0DF256EC4}
  9
$EXTNAMES
290
     1
  9
$PSVPSCALE
 40
0.0
  9
$OLESTARTUP
290
     0
  0
ENDSEC
  0
SECTION
  2
CLASSES
  0
CLASS
  1
ACDBDICTIONARYWDFLT
  2
AcDbDictionaryWithDefault
  3
ObjectDBX Classes
 90
        0
280
     0
281
     0
  0
CLASS
  1
VISUALSTYLE
  2
AcDbVisualStyle
  3
ObjectDBX Classes
 90
     4095
280
     0
281
     0
  0
CLASS
  1
MATERIAL
  2
AcDbMaterial
  3
ObjectDBX Classes
 90
     1153
280
     0
281
     0
  0
CLASS
  1
ACDBPLACEHOLDER
  2
AcDbPlaceHolder
  3
ObjectDBX Classes
 90
        0
280
     0
281
     0
  0
CLASS
  1
LAYOUT
  2
AcDbLayout
  3
ObjectDBX Classes
 90
        0
280
     0
281
     0
  0
ENDSEC
  0
SECTION
  2
TABLES
  0
TABLE
  2
VPORT
  5
8
330
0
100
AcDbSymbolTable
 70
     1
  0
VPORT
  5
29
330
8
100
AcDbSymbolTableRecord
100
AcDbViewportTableRecord
  2
*Active
 70
     0
 10
0.0
 20
0.0
 11
1.0
 21
1.0
 12
210.0
 22
148.5
 13
0.0
 23
0.0
 14
10.0
 24
10.0
 15
10.0
 25
10.0
 16
0.0
 26
0.0
 36
1.0
 17
0.0
 27
0.0
 37
0.0
 40
297.0
 41
1.4141414141
 42
50.0
 43
0.0
 44
0.0
 50
0.0
 51
0.0
 71
     0
 72
  2000
 73
     1
 74
     3
 75
     0
 76
     0
 77
     0
 78
     0
281
     0
 65
     1
110
0.0
120
0.0
130
0.0
111
1.0
121
0.0
131
0.0
112
0.0
122
1.0
132
0.0
 79
     0
146
0.0
  0
ENDTAB
  0
TABLE
  2
LTYPE
  5
5
330
0
100
AcDbSymbolTable
 70
     6
  0
LTYPE
  5
14
330
5
100
AcDbSymbolTableRecord
100
AcDbLinetypeTableRecord
  2
ByBlock
 70
     0
  3

 72
    65
 73
     0
 40
0.0
  0
LTYPE
  5
15
330
5
100
AcDbSymbolTableRecord
100
AcDbLinetypeTableRecord
  2
ByLayer
 70
     0
  3

 72
    65
 73
     0
 40
0.0
  0
LTYPE
  5
16
330
5
100
AcDbSymbolTableRecord
100
AcDbLinetypeTableRecord
  2
Continuous
 70
     0
  3
Solid line
 72
    65
 73
     0
 40
0.0
  0
LTYPE
  5
3F
330
5
100
AcDbSymbolTableRecord
100
AcDbLinetypeTableRecord
  2
HIDDEN
 70
     0
  3
Hidden __ __ __ __ __ __ __ __ __ __ __ __ __ __
 72
    65
 73
     2
 40
1.905
 49
1.27
 74
     0
 49
-0.635
 74
     0
  0
LTYPE
  5
40
330
5
100
AcDbSymbolTableRecord
100
AcDbLinetypeTableRecord
  2
PHANTOM
 70
     0
  3
Phantom ______  __  __  ______  __  __  ______
 72
    65
 73
     6
 40
12.7
 49
6.35
 74
     0
 49
-1.27
 74
     0
 49
1.27
 74
     0
 49
-1.27
 74
     0
 49
1.27
 74
     0
 49
-1.27
 74
     0
  0
LTYPE
  5
41
330
5
100
AcDbSymbolTableRecord
100
AcDbLinetypeTableRecord
  2
CENTER
 70
     0
  3
Center ____ _ ____ _ ____ _ ____ _ ____ _ ____
 72
    65
 73
     4
 40
10.16
 49
6.35
 74
     0
 49
-1.27
 74
     0
 49
1.27
 74
     0
 49
-1.27
 74
     0
  0
LTYPE
  5
42
330
5
100
AcDbSymbolTableRecord
100
AcDbLinetypeTableRecord
  2
CENTERX2
 70
     0
  3
Center (2x) ________  __  ________  __  _____
 72
    65
 73
     4
 40
20.32
 49
12.7
 74
     0
 49
-2.54
 74
     0
 49
2.54
 74
     0
 49
-2.54
 74
     0
  0
LTYPE
  5
43
330
5
100
AcDbSymbolTableRecord
100
AcDbLinetypeTableRecord
  2
DOT2
 70
     0
  3
Dot (.5x) ........................................
 72
    65
 73
     2
 40
0.635
 49
0.0
 74
     0
 49
-0.635
 74
     0
  0
ENDTAB
  0
TABLE
  2
LAYER
  5
2
330
0
100
AcDbSymbolTable
 70
     2
  0
LAYER
  5
10
330
2
100
AcDbSymbolTableRecord
100
AcDbLayerTableRecord
  2
0
 70
     0
 62
     7
  6
Continuous
370
    -3
390
F
  0
LAYER
  5
44
330
2
100
AcDbSymbolTableRecord
100
AcDbLayerTableRecord
  2
FORMAT
 70
     0
 62
     7
  6
Continuous
370
    -3
390
F
  0
ENDTAB
  0
TABLE
  2
STYLE
  5
3
330
0
100
AcDbSymbolTable
 70
     2
  0
STYLE
  5
11
330
3
100
AcDbSymbolTableRecord
100
AcDbTextStyleTableRecord
  2
Standard
 70
     0
 40
0.0
 41
1.0
 50
0.0
 71
     0
 42
3.5
  3
txt
  4

  0
STYLE
  5
65
330
3
100
AcDbSymbolTableRecord
100
AcDbTextStyleTableRecord
  2
SLDTEXTSTYLE0
 70
     0
 40
0.0
 41
0.75
 50
0.0
 71
     0
 42
0.2
  3
TXT
  4

  0
ENDTAB
  0
TABLE
  2
VIEW
  5
6
330
0
100
AcDbSymbolTable
 70
     0
  0
ENDTAB
  0
TABLE
  2
UCS
  5
7
330
0
100
AcDbSymbolTable
 70
     0
  0
ENDTAB
  0
TABLE
  2
APPID
  5
9
330
0
100
AcDbSymbolTable
 70
     1
  0
APPID
  5
12
330
9
100
AcDbSymbolTableRecord
100
AcDbRegAppTableRecord
  2
ACAD
 70
     0
  0
ENDTAB
  0
TABLE
  2
DIMSTYLE
  5
A
330
0
100
AcDbSymbolTable
 70
     4
100
AcDbDimStyleTable
  0
DIMSTYLE
105
27
330
A
100
AcDbSymbolTableRecord
100
AcDbDimStyleTableRecord
  2
ISO-25
 70
     0
 41
2.5
 42
0.625
 43
3.75
 44
1.25
 73
     0
 74
     0
 77
     1
 78
     8
140
2.5
141
2.5
143
0.0393700787
147
0.625
171
     3
172
     1
178
     0
271
     2
272
     2
274
     3
278
    44
283
     0
284
     8
340
11
  0
DIMSTYLE
105
B5
102
{ACAD_REACTORS
330
B4
330
C1
102
}
330
A
100
AcDbSymbolTableRecord
100
AcDbDimStyleTableRecord
  2
SLDDIMSTYLE0
 70
     0
 41
3.302
 44
0.0
 45
0.000000001
 73
     0
 74
     0
 77
     1
 78
     4
 79
     1
140
3.5
144
0.1
147
0.875
172
     1
173
     1
178
     0
271
     2
272
     2
276
     2
284
    12
289
     0
340
65
  0
DIMSTYLE
105
D8
330
A
100
AcDbSymbolTableRecord
100
AcDbDimStyleTableRecord
  2
SLDDIMSTYLE1
 70
     0
 41
1.016
 44
0.0
 45
0.000000001
140
0.0
146
1.016
147
0.0
173
     1
178
     0
271
     0
272
     0
276
     2
340
11
341
D9
343
D9
344
D9
  0
DIMSTYLE
105
178
102
{ACAD_REACTORS
330
177
330
182
102
}
330
A
100
AcDbSymbolTableRecord
100
AcDbDimStyleTableRecord
  2
SLDDIMSTYLE2
 70
     0
 41
3.302
 44
0.0
 45
0.000000001
 73
     0
 74
     0
 77
     1
 78
     4
 79
     1
140
3.5
144
0.1
147
0.875
173
     1
178
     0
271
     2
272
     2
276
     2
284
    12
340
65
  0
ENDTAB
  0
TABLE
  2
BLOCK_RECORD
  5
1
330
0
100
AcDbSymbolTable
 70
     7
  0
BLOCK_RECORD
  5
1F
330
1
100
AcDbSymbolTableRecord
100
AcDbBlockTableRecord
  2
*Model_Space
340
22
  0
BLOCK_RECORD
  5
1B
330
1
100
AcDbSymbolTableRecord
100
AcDbBlockTableRecord
  2
*Paper_Space
340
1E
  0
BLOCK_RECORD
  5
23
330
1
100
AcDbSymbolTableRecord
100
AcDbBlockTableRecord
  2
*Paper_Space0
340
26
  0
BLOCK_RECORD
  5
B6
330
1
100
AcDbSymbolTableRecord
100
AcDbBlockTableRecord
  2
_D
340
0
  0
BLOCK_RECORD
  5
C2
330
1
100
AcDbSymbolTableRecord
100
AcDbBlockTableRecord
  2
_D_1
340
0
  0
BLOCK_RECORD
  5
CD
330
1
100
AcDbSymbolTableRecord
100
AcDbBlockTableRecord
  2
SW_NOTE_0
340
0
102
{BLKREFS
331
D7
102
}
  0
BLOCK_RECORD
  5
D9
330
1
100
AcDbSymbolTableRecord
100
AcDbBlockTableRecord
  2
_DOT
340
0
  0
BLOCK_RECORD
  5
179
330
1
100
AcDbSymbolTableRecord
100
AcDbBlockTableRecord
  2
_D_2
340
0
  0
BLOCK_RECORD
  5
183
330
1
100
AcDbSymbolTableRecord
100
AcDbBlockTableRecord
  2
_D_3
340
0
  0
ENDTAB
  0
ENDSEC
  0
SECTION
  2
BLOCKS
  0
BLOCK
  5
20
330
1F
100
AcDbEntity
  8
0
100
AcDbBlockBegin
  2
*Model_Space
 70
     0
 10
0.0
 20
0.0
 30
0.0
  3
*Model_Space
  1

  0
ENDBLK
  5
21
330
1F
100
AcDbEntity
  8
0
100
AcDbBlockEnd
  0
BLOCK
  5
1C
330
1B
100
AcDbEntity
 67
     1
  8
0
100
AcDbBlockBegin
  2
*Paper_Space
 70
     0
 10
0.0
 20
0.0
 30
0.0
  3
*Paper_Space
  1

  0
ENDBLK
  5
1D
330
1B
100
AcDbEntity
 67
     1
  8
0
100
AcDbBlockEnd
  0
BLOCK
  5
24
330
23
100
AcDbEntity
  8
0
100
AcDbBlockBegin
  2
*Paper_Space0
 70
     0
 10
0.0
 20
0.0
 30
0.0
  3
*Paper_Space0
  1

  0
ENDBLK
  5
25
330
23
100
AcDbEntity
  8
0
100
AcDbBlockEnd
  0
BLOCK
  5
B7
330
B6
100
AcDbEntity
  8
0
100
AcDbBlockBegin
  2
_D
 70
     0
 10
0.0
 20
0.0
 30
0.0
  3
_D
  1

  0
SOLID
  5
B9
330
B6
100
AcDbEntity
  8
0
  6
Continuous
 62
     7
370
     0
100
AcDbTrace
 10
114.3207894737
 20
140.5278947368
 30
0.0
 11
111.0187894737
 21
141.0358947368
 31
0.0
 12
111.0187894737
 22
140.0198947368
 32
0.0
 13
111.0187894737
 23
140.0198947368
 33
0.0
  0
SOLID
  5
BA
330
B6
100
AcDbEntity
  8
0
  6
Continuous
 62
     7
370
     0
100
AcDbTrace
 10
122.3207894737
 20
140.5278947368
 30
0.0
 11
125.6227894737
 21
140.0198947368
 31
0.0
 12
125.6227894737
 22
141.0358947368
 32
0.0
 13
125.6227894737
 23
141.0358947368
 33
0.0
  0
LINE
  5
BB
330
B6
100
AcDbEntity
  8
0
  6
Continuous
 62
     7
370
     0
100
AcDbLine
 10
114.3207894737
 20
118.4863116759
 30
0.0
 11
114.3207894737
 21
141.5278947368
 31
0.0
  0
LINE
  5
BC
330
B6
100
AcDbEntity
  8
0
  6
Continuous
 62
     7
370
     0
100
AcDbLine
 10
122.3207894737
 20
118.4863116759
 30
0.0
 11
122.3207894737
 21
141.5278947368
 31
0.0
  0
LINE
  5
BD
330
B6
100
AcDbEntity
  8
0
  6
Continuous
 62
     7
370
     0
100
AcDbLine
 10
114.3207894737
 20
140.5278947368
 30
0.0
 11
107.9707894737
 21
140.5278947368
 31
0.0
  0
LINE
  5
BE
330
B6
100
AcDbEntity
  8
0
  6
Continuous
 62
     7
370
     0
100
AcDbLine
 10
114.3207894737
 20
140.5278947368
 30
0.0
 11
122.3207894737
 21
140.5278947368
 31
0.0
  0
LINE
  5
BF
330
B6
100
AcDbEntity
  8
0
  6
Continuous
 62
     7
370
     0
100
AcDbLine
 10
122.3207894737
 20
140.5278947368
 30
0.0
 11
128.6707894737
 21
140.5278947368
 31
0.0
  0
MTEXT
  5
C0
330
B6
100
AcDbEntity
  8
0
  6
Continuous
 62
     7
370
     0
100
AcDbMText
 10
113.512092269
 20
145.0396316514
 30
1.0050963237
 40
3.5
 41
0.0
 71
     1
 72
     1
  1
0.80
  7
SLDTEXTSTYLE0
 73
     1
 44
1.0
  0
ENDBLK
  5
B8
330
B6
100
AcDbEntity
  8
0
100
AcDbBlockEnd
  0
BLOCK
  5
C3
330
C2
100
AcDbEntity
  8
0
100
AcDbBlockBegin
  2
_D_1
 70
     0
 10
0.0
 20
0.0
 30
0.0
  3
_D_1
  1

  0
SOLID
  5
C5
330
C2
100
AcDbEntity
  8
0
  6
Continuous
 62
     7
370
     0
100
AcDbTrace
 10
72.7659022556
 20
109.4863116759
 30
0.0
 11
72.2579022556
 21
106.1843116759
 31
0.0
 12
73.2739022556
 22
106.1843116759
 32
0.0
 13
73.2739022556
 23
106.1843116759
 33
0.0
  0
SOLID
  5
C6
330
C2
100
AcDbEntity
  8
0
  6
Continuous
 62
     7
370
     0
100
AcDbTrace
 10
72.7659022556
 20
117.4863116759
 30
0.0
 11
73.2739022556
 21
120.7883116759
 31
0.0
 12
72.2579022556
 22
120.7883116759
 32
0.0
 13
72.2579022556
 23
120.7883116759
 33
0.0
  0
LINE
  5
C7
330
C2
100
AcDbEntity
  8
0
  6
Continuous
 62
     7
370
     0
100
AcDbLine
 10
113.3207894737
 20
109.4863116759
 30
0.0
 11
71.7659022556
 21
109.4863116759
 31
0.0
  0
LINE
  5
C8
330
C2
100
AcDbEntity
  8
0
  6
Continuous
 62
     7
370
     0
100
AcDbLine
 10
87.3207894737
 20
117.4863116759
 30
0.0
 11
71.7659022556
 21
117.4863116759
 31
0.0
  0
LINE
  5
C9
330
C2
100
AcDbEntity
  8
0
  6
Continuous
 62
     7
370
     0
100
AcDbLine
 10
72.7659022556
 20
109.4863116759
 30
0.0
 11
72.7659022556
 21
103.1363116759
 31
0.0
  0
LINE
  5
CA
330
C2
100
AcDbEntity
  8
0
  6
Continuous
 62
     7
370
     0
100
AcDbLine
 10
72.7659022556
 20
109.4863116759
 30
0.0
 11
72.7659022556
 21
117.4863116759
 31
0.0
  0
LINE
  5
CB
330
C2
100
AcDbEntity
  8
0
  6
Continuous
 62
     7
370
     0
100
AcDbLine
 10
72.7659022556
 20
117.4863116759
 30
0.0
 11
72.7659022556
 21
123.8363116759
 31
0.0
  0
MTEXT
  5
CC
330
C2
100
AcDbEntity
  8
0
  6
Continuous
 62
     7
370
     0
100
AcDbMText
 10
68.2541653411
 20
106.9626749757
 30
1.0050963237
 40
3.5
 41
0.0
 71
     1
 72
     1
  1
0.80
  7
SLDTEXTSTYLE0
 11
6.123233995736766E-17
 21
1.0
 31
0.0
 73
     1
 44
1.0
  0
ENDBLK
  5
C4
330
C2
100
AcDbEntity
  8
0
100
AcDbBlockEnd
  0
BLOCK
  5
CE
330
CD
100
AcDbEntity
  8
0
100
AcDbBlockBegin
  2
SW_NOTE_0
 70
     0
 10
0.0
 20
0.0
 30
0.0
  3
SW_NOTE_0
  1

  0
LINE
  5
D0
330
CD
100
AcDbEntity
  8
0
  6
Continuous
 62
     0
370
     0
100
AcDbLine
 10
0.0
 20
0.0
 30
0.0
 11
6.8609022556
 21
0.0
 31
0.0
  0
LINE
  5
D1
330
CD
100
AcDbEntity
  8
0
  6
Continuous
 62
     0
370
     0
100
AcDbLine
 10
6.8609022556
 20
0.0
 30
0.0
 11
0.0
 21
0.0
 31
0.0
  0
LINE
  5
D2
330
CD
100
AcDbEntity
  8
0
  6
Continuous
 62
     0
370
     0
100
AcDbLine
 10
0.0
 20
0.0
 30
0.0
 11
6.8609022556
 21
0.0
 31
0.0
  0
LINE
  5
D3
330
CD
100
AcDbEntity
  8
0
  6
Continuous
 62
     0
370
     0
100
AcDbLine
 10
6.8609022556
 20
0.0
 30
0.0
 11
0.0
 21
0.0
 31
0.0
  0
LINE
  5
D4
330
CD
100
AcDbEntity
  8
0
  6
Continuous
 62
     0
370
     0
100
AcDbLine
 10
0.0
 20
0.0
 30
0.0
 11
6.8609022556
 21
0.0
 31
0.0
  0
LINE
  5
D5
330
CD
100
AcDbEntity
  8
0
  6
Continuous
 62
     0
370
     0
100
AcDbLine
 10
6.8609022556
 20
0.0
 30
0.0
 11
0.0
 21
0.0
 31
0.0
  0
MTEXT
  5
D6
330
CD
100
AcDbEntity
  8
0
  6
Continuous
 62
     0
370
     0
100
AcDbMText
 10
0.0018233083
 20
4.2109203783
 30
0.0
 40
3.5
 41
0.0
 71
     1
 72
     1
  1
M6
  7
SLDTEXTSTYLE0
 73
     1
 44
1.0
  0
ENDBLK
  5
CF
330
CD
100
AcDbEntity
  8
0
100
AcDbBlockEnd
  0
BLOCK
  5
DA
330
D9
100
AcDbEntity
  8
0
100
AcDbBlockBegin
  2
_DOT
 70
     0
 10
0.0
 20
0.0
 30
0.0
  3
_DOT
  1

  0
POLYLINE
  5
DC
330
D9
100
AcDbEntity
  8
0
  6
ByBlock
 62
     0
100
AcDb2dPolyline
 66
     1
 10
0.0
 20
0.0
 30
0.0
 70
     1
 40
0.5
 41
0.5
  0
VERTEX
  5
DE
330
DC
100
AcDbEntity
  8
0
  6
ByBlock
 62
     0
100
AcDbVertex
100
AcDb2dVertex
 10
-0.25
 20
0.0
 30
0.0
 42
1.0
  0
VERTEX
  5
DF
330
DC
100
AcDbEntity
  8
0
  6
ByBlock
 62
     0
100
AcDbVertex
100
AcDb2dVertex
 10
0.25
 20
0.0
 30
0.0
 42
1.0
  0
SEQEND
  5
E0
330
DC
100
AcDbEntity
  8
0
  6
ByBlock
 62
     0
  0
LINE
  5
DD
330
D9
100
AcDbEntity
  8
0
  6
ByBlock
 62
     0
370
    -2
100
AcDbLine
 10
-0.5
 20
0.0
 30
0.0
 11
-1.0
 21
0.0
 31
0.0
  0
ENDBLK
  5
DB
330
D9
100
AcDbEntity
  8
0
100
AcDbBlockEnd
  0
BLOCK
  5
17A
330
179
100
AcDbEntity
  8
0
100
AcDbBlockBegin
  2
_D_2
 70
     0
 10
0.0
 20
0.0
 30
0.0
  3
_D_2
  1

  0
SOLID
  5
17C
330
179
100
AcDbEntity
  8
0
  6
Continuous
 62
     7
370
     0
100
AcDbTrace
 10
278.476900835
 20
117.4863116759
 30
0.0
 11
277.968900835
 21
114.1843116759
 31
0.0
 12
278.984900835
 22
114.1843116759
 32
0.0
 13
278.984900835
 23
114.1843116759
 33
0.0
  0
SOLID
  5
17D
330
179
100
AcDbEntity
  8
0
  6
Continuous
 62
     7
370
     0
100
AcDbTrace
 10
278.476900835
 20
72.4863116759
 30
0.0
 11
278.984900835
 21
75.7883116759
 31
0.0
 12
277.968900835
 22
75.7883116759
 32
0.0
 13
277.968900835
 23
75.7883116759
 33
0.0
  0
LINE
  5
17E
330
179
100
AcDbEntity
  8
0
  6
Continuous
 62
     7
370
     0
100
AcDbLine
 10
269.2090383296
 20
117.4863116759
 30
0.0
 11
279.476900835
 21
117.4863116759
 31
0.0
  0
LINE
  5
17F
330
179
100
AcDbEntity
  8
0
  6
Continuous
 62
     7
370
     0
100
AcDbLine
 10
262.6020782062
 20
72.4863116759
 30
0.0
 11
279.476900835
 21
72.4863116759
 31
0.0
  0
LINE
  5
180
330
179
100
AcDbEntity
  8
0
  6
Continuous
 62
     7
370
     0
100
AcDbLine
 10
278.476900835
 20
117.4863116759
 30
0.0
 11
278.476900835
 21
72.4863116759
 31
0.0
  0
MTEXT
  5
181
330
179
100
AcDbEntity
  8
0
  6
Continuous
 62
     7
370
     0
100
AcDbMText
 10
273.9651639204
 20
84.7546674569
 30
1.0
 40
3.5
 41
0.0
 71
     1
 72
     1
  1
4.50
  7
SLDTEXTSTYLE0
 11
-7.044195017643634E-15
 21
1.0
 31
0.0
 73
     1
 44
1.0
  0
ENDBLK
  5
17B
330
179
100
AcDbEntity
  8
0
100
AcDbBlockEnd
  0
BLOCK
  5
184
330
183
100
AcDbEntity
  8
0
100
AcDbBlockBegin
  2
_D_3
 70
     0
 10
0.0
 20
0.0
 30
0.0
  3
_D_3
  1

  0
SOLID
  5
186
330
183
100
AcDbEntity
  8
0
  6
Continuous
 62
     7
370
     0
100
AcDbTrace
 10
254.476900835
 20
139.6318825941
 30
0.0
 11
251.174900835
 21
140.1398825941
 31
0.0
 12
251.174900835
 22
139.1238825941
 32
0.0
 13
251.174900835
 23
139.1238825941
 33
0.0
  0
SOLID
  5
187
330
183
100
AcDbEntity
  8
0
  6
Continuous
 62
     7
370
     0
100
AcDbTrace
 10
222.476900835
 20
139.6318825941
 30
0.0
 11
225.778900835
 21
139.1238825941
 31
0.0
 12
225.778900835
 22
140.1398825941
 32
0.0
 13
225.778900835
 23
140.1398825941
 33
0.0
  0
LINE
  5
188
330
183
100
AcDbEntity
  8
0
  6
Continuous
 62
     7
370
     0
100
AcDbLine
 10
254.476900835
 20
110.4863116759
 30
0.0
 11
254.476900835
 21
140.6318825941
 31
0.0
  0
LINE
  5
189
330
183
100
AcDbEntity
  8
0
  6
Continuous
 62
     7
370
     0
100
AcDbLine
 10
222.476900835
 20
110.4863116759
 30
0.0
 11
222.476900835
 21
140.6318825941
 31
0.0
  0
LINE
  5
18A
330
183
100
AcDbEntity
  8
0
  6
Continuous
 62
     7
370
     0
100
AcDbLine
 10
254.476900835
 20
139.6318825941
 30
0.0
 11
222.476900835
 21
139.6318825941
 31
0.0
  0
MTEXT
  5
18B
330
183
100
AcDbEntity
  8
0
  6
Continuous
 62
     7
370
     0
100
AcDbMText
 10
231.0238881417
 20
144.1436196833
 30
1.0
 40
3.5
 41
0.0
 71
     1
 72
     1
  1
%%c
  7
SLDTEXTSTYLE0
 73
     1
 44
1.0
  0
MTEXT
  5
18C
330
183
100
AcDbEntity
  8
0
  6
Continuous
 62
     7
370
     0
100
AcDbMText
 10
236.3023255401
 20
144.19709186
 30
1.0
 40
3.5
 41
0.0
 71
     1
 72
     1
  1
3.20
  7
SLDTEXTSTYLE0
 73
     1
 44
1.0
  0
ENDBLK
  5
185
330
183
100
AcDbEntity
  8
0
100
AcDbBlockEnd
  0
ENDSEC
  0
SECTION
  2
ENTITIES
  0
LINE
  5
45
330
1F
100
AcDbEntity
  8
0
  6
Continuous
 62
     7
370
     0
100
AcDbLine
 10
520.0
 20
20.0
 30
0.0
 11
520.0
 21
10.0
 31
0.0
  0
LINE
  5
46
330
1F
100
AcDbEntity
  8
0
  6
Continuous
 62
     7
370
     0
100
AcDbLine
 10
620.0
 20
20.0
 30
0.0
 11
620.0
 21
10.0
 31
0.0
  0
LINE
  5
47
330
1F
100
AcDbEntity
  8
0
  6
Continuous
 62
     7
370
     0
100
AcDbLine
 10
720.0
 20
20.0
 30
0.0
 11
720.0
 21
10.0
 31
0.0
  0
LINE
  5
48
330
1F
100
AcDbEntity
  8
0
  6
Continuous
 62
     7
370
     0
100
AcDbLine
 10
820.0
 20
574.0
 30
0.0
 11
820.0
 21
20.0
 31
0.0
  0
LINE
  5
49
330
1F
100
AcDbEntity
  8
0
  6
Continuous
 62
     7
370
     0
100
AcDbLine
 10
820.0
 20
97.0
 30
0.0
 11
830.0
 21
97.0
 31
0.0
  0
LINE
  5
4A
330
1F
100
AcDbEntity
  8
0
  6
Continuous
 62
     7
370
     0
100
AcDbLine
 10
830.0
 20
584.0
 30
0.0
 11
10.0
 21
584.0
 31
0.0
  0
LINE
  5
4B
330
1F
100
AcDbEntity
  8
0
  6
Continuous
 62
     7
370
     0
100
AcDbLine
 10
820.0
 20
574.0
 30
0.0
 11
20.0
 21
574.0
 31
0.0
  0
LINE
  5
4C
330
1F
100
AcDbEntity
  8
0
  6
Continuous
 62
     7
370
     0
100
AcDbLine
 10
10.0
 20
584.0
 30
0.0
 11
10.0
 21
10.0
 31
0.0
  0
LINE
  5
4D
330
1F
100
AcDbEntity
  8
0
  6
Continuous
 62
     7
370
     0
100
AcDbLine
 10
20.0
 20
574.0
 30
0.0
 11
20.0
 21
20.0
 31
0.0
  0
LINE
  5
4E
330
1F
100
AcDbEntity
  8
0
  6
Continuous
 62
     7
370
     0
100
AcDbLine
 10
20.0
 20
97.0
 30
0.0
 11
10.0
 21
97.0
 31
0.0
  0
LINE
  5
4F
330
1F
100
AcDbEntity
  8
0
  6
Continuous
 62
     7
370
     0
100
AcDbLine
 10
10.0
 20
197.0
 30
0.0
 11
20.0
 21
197.0
 31
0.0
  0
LINE
  5
50
330
1F
100
AcDbEntity
  8
0
  6
Continuous
 62
     7
370
     0
100
AcDbLine
 10
10.0
 20
397.0
 30
0.0
 11
20.0
 21
397.0
 31
0.0
  0
LINE
  5
51
330
1F
100
AcDbEntity
  8
0
  6
Continuous
 62
     7
370
     0
100
AcDbLine
 10
10.0
 20
297.0
 30
0.0
 11
30.0
 21
297.0
 31
0.0
  0
LINE
  5
52
330
1F
100
AcDbEntity
  8
0
  6
Continuous
 62
     7
370
     0
100
AcDbLine
 10
10.0
 20
10.0
 30
0.0
 11
830.0
 21
10.0
 31
0.0
  0
LINE
  5
53
330
1F
100
AcDbEntity
  8
0
  6
Continuous
 62
     7
370
     0
100
AcDbLine
 10
20.0
 20
20.0
 30
0.0
 11
820.0
 21
20.0
 31
0.0
  0
LINE
  5
54
330
1F
100
AcDbEntity
  8
0
  6
Continuous
 62
     7
370
     0
100
AcDbLine
 10
120.0
 20
10.0
 30
0.0
 11
120.0
 21
20.0
 31
0.0
  0
LINE
  5
55
330
1F
100
AcDbEntity
  8
0
  6
Continuous
 62
     7
370
     0
100
AcDbLine
 10
220.0
 20
20.0
 30
0.0
 11
220.0
 21
10.0
 31
0.0
  0
LINE
  5
56
330
1F
100
AcDbEntity
  8
0
  6
Continuous
 62
     7
370
     0
100
AcDbLine
 10
320.0
 20
10.0
 30
0.0
 11
320.0
 21
20.0
 31
0.0
  0
LINE
  5
57
330
1F
100
AcDbEntity
  8
0
  6
Continuous
 62
     7
370
     0
100
AcDbLine
 10
20.0
 20
497.0
 30
0.0
 11
10.0
 21
497.0
 31
0.0
  0
LINE
  5
58
330
1F
100
AcDbEntity
  8
0
  6
Continuous
 62
     7
370
     0
100
AcDbLine
 10
120.0
 20
574.0
 30
0.0
 11
120.0
 21
584.0
 31
0.0
  0
LINE
  5
59
330
1F
100
AcDbEntity
  8
0
  6
Continuous
 62
     7
370
     0
100
AcDbLine
 10
220.0
 20
584.0
 30
0.0
 11
220.0
 21
574.0
 31
0.0
  0
LINE
  5
5A
330
1F
100
AcDbEntity
  8
0
  6
Continuous
 62
     7
370
     0
100
AcDbLine
 10
320.0
 20
574.0
 30
0.0
 11
320.0
 21
584.0
 31
0.0
  0
LINE
  5
5B
330
1F
100
AcDbEntity
  8
0
  6
Continuous
 62
     7
370
     0
100
AcDbLine
 10
520.0
 20
574.0
 30
0.0
 11
520.0
 21
584.0
 31
0.0
  0
LINE
  5
5C
330
1F
100
AcDbEntity
  8
0
  6
Continuous
 62
     7
370
     0
100
AcDbLine
 10
830.0
 20
10.0
 30
0.0
 11
830.0
 21
584.0
 31
0.0
  0
LINE
  5
5D
330
1F
100
AcDbEntity
  8
0
  6
Continuous
 62
     7
370
     0
100
AcDbLine
 10
420.0
 20
10.0
 30
0.0
 11
420.0
 21
30.0
 31
0.0
  0
LINE
  5
5E
330
1F
100
AcDbEntity
  8
0
  6
Continuous
 62
     7
370
     0
100
AcDbLine
 10
820.0
 20
397.0
 30
0.0
 11
830.0
 21
397.0
 31
0.0
  0
LINE
  5
5F
330
1F
100
AcDbEntity
  8
0
  6
Continuous
 62
     7
370
     0
100
AcDbLine
 10
820.0
 20
197.0
 30
0.0
 11
830.0
 21
197.0
 31
0.0
  0
LINE
  5
60
330
1F
100
AcDbEntity
  8
0
  6
Continuous
 62
     7
370
     0
100
AcDbLine
 10
830.0
 20
297.0
 30
0.0
 11
810.0
 21
297.0
 31
0.0
  0
LINE
  5
61
330
1F
100
AcDbEntity
  8
0
  6
Continuous
 62
     7
370
     0
100
AcDbLine
 10
620.0
 20
584.0
 30
0.0
 11
620.0
 21
574.0
 31
0.0
  0
LINE
  5
62
330
1F
100
AcDbEntity
  8
0
  6
Continuous
 62
     7
370
     0
100
AcDbLine
 10
720.0
 20
574.0
 30
0.0
 11
720.0
 21
584.0
 31
0.0
  0
LINE
  5
63
330
1F
100
AcDbEntity
  8
0
  6
Continuous
 62
     7
370
     0
100
AcDbLine
 10
420.0
 20
584.0
 30
0.0
 11
420.0
 21
564.0
 31
0.0
  0
LINE
  5
64
330
1F
100
AcDbEntity
  8
0
  6
Continuous
 62
     7
370
     0
100
AcDbLine
 10
830.0
 20
497.0
 30
0.0
 11
820.0
 21
497.0
 31
0.0
  0
MTEXT
  5
66
330
1F
100
AcDbEntity
  8
0
  6
Continuous
 62
     7
370
     0
100
AcDbMText
 10
6.6666666667
 20
124.6680204036
 30
0.0
 40
1.8520833333
 41
0.0
 71
     1
 72
     1
  1
D
  7
SLDTEXTSTYLE0
 73
     1
 44
1.0
  0
MTEXT
  5
67
330
1F
100
AcDbEntity
  8
0
  6
Continuous
 62
     7
370
     0
100
AcDbMText
 10
6.6666666667
 20
74.6680204036
 30
0.0
 40
1.8520833333
 41
0.0
 71
     1
 72
     1
  1
E
  7
SLDTEXTSTYLE0
 73
     1
 44
1.0
  0
MTEXT
  5
68
330
1F
100
AcDbEntity
  8
0
  6
Continuous
 62
     7
370
     0
100
AcDbMText
 10
6.6666666667
 20
24.6680204036
 30
0.0
 40
1.8520833333
 41
0.0
 71
     1
 72
     1
  1
F
  7
SLDTEXTSTYLE0
 73
     1
 44
1.0
  0
MTEXT
  5
69
330
1F
100
AcDbEntity
  8
0
  6
Continuous
 62
     7
370
     0
100
AcDbMText
 10
6.6666666667
 20
174.6680204036
 30
0.0
 40
1.8520833333
 41
0.0
 71
     1
 72
     1
  1
C
  7
SLDTEXTSTYLE0
 73
     1
 44
1.0
  0
MTEXT
  5
6A
330
1F
100
AcDbEntity
  8
0
  6
Continuous
 62
     7
370
     0
100
AcDbMText
 10
34.5833333333
 20
8.6680244036
 30
0.0
 40
1.8520833333
 41
0.0
 71
     1
 72
     1
  1
1
  7
SLDTEXTSTYLE0
 73
     1
 44
1.0
  0
MTEXT
  5
6B
330
1F
100
AcDbEntity
  8
0
  6
Continuous
 62
     7
370
     0
100
AcDbMText
 10
84.1666666667
 20
8.6680244036
 30
0.0
 40
1.8520833333
 41
0.0
 71
     1
 72
     1
  1
2
  7
SLDTEXTSTYLE0
 73
     1
 44
1.0
  0
MTEXT
  5
6C
330
1F
100
AcDbEntity
  8
0
  6
Continuous
 62
     7
370
     0
100
AcDbMText
 10
134.1666666667
 20
8.6680244036
 30
0.0
 40
1.8520833333
 41
0.0
 71
     1
 72
     1
  1
3
  7
SLDTEXTSTYLE0
 73
     1
 44
1.0
  0
MTEXT
  5
6D
330
1F
100
AcDbEntity
  8
0
  6
Continuous
 62
     7
370
     0
100
AcDbMText
 10
184.1666666667
 20
8.6680244036
 30
0.0
 40
1.8520833333
 41
0.0
 71
     1
 72
     1
  1
4
  7
SLDTEXTSTYLE0
 73
     1
 44
1.0
  0
MTEXT
  5
6E
330
1F
100
AcDbEntity
  8
0
  6
Continuous
 62
     7
370
     0
100
AcDbMText
 10
6.6666666667
 20
224.6680204036
 30
0.0
 40
1.8520833333
 41
0.0
 71
     1
 72
     1
  1
B
  7
SLDTEXTSTYLE0
 73
     1
 44
1.0
  0
MTEXT
  5
6F
330
1F
100
AcDbEntity
  8
0
  6
Continuous
 62
     7
370
     0
100
AcDbMText
 10
6.6666666667
 20
274.6680204036
 30
0.0
 40
1.8520833333
 41
0.0
 71
     1
 72
     1
  1
A
  7
SLDTEXTSTYLE0
 73
     1
 44
1.0
  0
MTEXT
  5
70
330
1F
100
AcDbEntity
  8
0
  6
Continuous
 62
     7
370
     0
100
AcDbMText
 10
134.1666666667
 20
290.6680244036
 30
0.0
 40
1.8520833333
 41
0.0
 71
     1
 72
     1
  1
3
  7
SLDTEXTSTYLE0
 73
     1
 44
1.0
  0
MTEXT
  5
71
330
1F
100
AcDbEntity
  8
0
  6
Continuous
 62
     7
370
     0
100
AcDbMText
 10
84.1666666667
 20
290.6680244036
 30
0.0
 40
1.8520833333
 41
0.0
 71
     1
 72
     1
  1
2
  7
SLDTEXTSTYLE0
 73
     1
 44
1.0
  0
MTEXT
  5
72
330
1F
100
AcDbEntity
  8
0
  6
Continuous
 62
     7
370
     0
100
AcDbMText
 10
34.5833333333
 20
290.6680244036
 30
0.0
 40
1.8520833333
 41
0.0
 71
     1
 72
     1
  1
1
  7
SLDTEXTSTYLE0
 73
     1
 44
1.0
  0
MTEXT
  5
73
330
1F
100
AcDbEntity
  8
0
  6
Continuous
 62
     7
370
     0
100
AcDbMText
 10
234.1666666667
 20
290.6680244036
 30
0.0
 40
1.8520833333
 41
0.0
 71
     1
 72
     1
  1
5
  7
SLDTEXTSTYLE0
 73
     1
 44
1.0
  0
MTEXT
  5
74
330
1F
100
AcDbEntity
  8
0
  6
Continuous
 62
     7
370
     0
100
AcDbMText
 10
411.6666666667
 20
174.6680204036
 30
0.0
 40
1.8520833333
 41
0.0
 71
     1
 72
     1
  1
C
  7
SLDTEXTSTYLE0
 73
     1
 44
1.0
  0
MTEXT
  5
75
330
1F
100
AcDbEntity
  8
0
  6
Continuous
 62
     7
370
     0
100
AcDbMText
 10
411.6666666667
 20
124.6680204036
 30
0.0
 40
1.8520833333
 41
0.0
 71
     1
 72
     1
  1
D
  7
SLDTEXTSTYLE0
 73
     1
 44
1.0
  0
MTEXT
  5
76
330
1F
100
AcDbEntity
  8
0
  6
Continuous
 62
     7
370
     0
100
AcDbMText
 10
184.1666666667
 20
290.6680244036
 30
0.0
 40
1.8520833333
 41
0.0
 71
     1
 72
     1
  1
4
  7
SLDTEXTSTYLE0
 73
     1
 44
1.0
  0
MTEXT
  5
77
330
1F
100
AcDbEntity
  8
0
  6
Continuous
 62
     7
370
     0
100
AcDbMText
 10
284.1666666667
 20
290.6680244036
 30
0.0
 40
1.8520833333
 41
0.0
 71
     1
 72
     1
  1
6
  7
SLDTEXTSTYLE0
 73
     1
 44
1.0
  0
MTEXT
  5
78
330
1F
100
AcDbEntity
  8
0
  6
Continuous
 62
     7
370
     0
100
AcDbMText
 10
334.1666666667
 20
290.6680244036
 30
0.0
 40
1.8520833333
 41
0.0
 71
     1
 72
     1
  1
7
  7
SLDTEXTSTYLE0
 73
     1
 44
1.0
  0
MTEXT
  5
79
330
1F
100
AcDbEntity
  8
0
  6
Continuous
 62
     7
370
     0
100
AcDbMText
 10
384.1666666667
 20
290.6680244036
 30
0.0
 40
1.8520833333
 41
0.0
 71
     1
 72
     1
  1
8
  7
SLDTEXTSTYLE0
 73
     1
 44
1.0
  0
MTEXT
  5
7A
330
1F
100
AcDbEntity
  8
0
  6
Continuous
 62
     7
370
     0
100
AcDbMText
 10
411.6666666667
 20
274.6680204036
 30
0.0
 40
1.8520833333
 41
0.0
 71
     1
 72
     1
  1
A
  7
SLDTEXTSTYLE0
 73
     1
 44
1.0
  0
MTEXT
  5
7B
330
1F
100
AcDbEntity
  8
0
  6
Continuous
 62
     7
370
     0
100
AcDbMText
 10
411.6666666667
 20
224.6680204036
 30
0.0
 40
1.8520833333
 41
0.0
 71
     1
 72
     1
  1
B
  7
SLDTEXTSTYLE0
 73
     1
 44
1.0
  0
MTEXT
  5
7C
330
1F
100
AcDbEntity
  8
0
  6
Continuous
 62
     7
370
     0
100
AcDbMText
 10
233.2434572557
 20
8.6680244036
 30
0.0
 40
1.8520833333
 41
0.0
 71
     1
 72
     1
  1
5
  7
SLDTEXTSTYLE0
 73
     1
 44
1.0
  0
MTEXT
  5
7D
330
1F
100
AcDbEntity
  8
0
  6
Continuous
 62
     7
370
     0
100
AcDbMText
 10
284.3289848836
 20
8.6680244036
 30
0.0
 40
1.8520833333
 41
0.0
 71
     1
 72
     1
  1
6
  7
SLDTEXTSTYLE0
 73
     1
 44
1.0
  0
MTEXT
  5
7E
330
1F
100
AcDbEntity
  8
0
  6
Continuous
 62
     7
370
     0
100
AcDbMText
 10
333.2753824348
 20
8.6680244036
 30
0.0
 40
1.8520833333
 41
0.0
 71
     1
 72
     1
  1
7
  7
SLDTEXTSTYLE0
 73
     1
 44
1.0
  0
MTEXT
  5
7F
330
1F
100
AcDbEntity
  8
0
  6
Continuous
 62
     7
370
     0
100
AcDbMText
 10
384.5297051626
 20
8.6680244036
 30
0.0
 40
1.8520833333
 41
0.0
 71
     1
 72
     1
  1
8
  7
SLDTEXTSTYLE0
 73
     1
 44
1.0
  0
MTEXT
  5
80
330
1F
100
AcDbEntity
  8
0
  6
Continuous
 62
     7
370
     0
100
AcDbMText
 10
412.1095374428
 20
74.3818592238
 30
0.0
 40
1.8520833333
 41
0.0
 71
     1
 72
     1
  1
E
  7
SLDTEXTSTYLE0
 73
     1
 44
1.0
  0
MTEXT
  5
81
330
1F
100
AcDbEntity
  8
0
  6
Continuous
 62
     7
370
     0
100
AcDbMText
 10
412.0426566076
 20
30.0018808692
 30
0.0
 40
1.8520833333
 41
0.0
 71
     1
 72
     1
  1
F
  7
SLDTEXTSTYLE0
 73
     1
 44
1.0
  0
SPLINE
  5
82
330
1F
100
AcDbEntity
  8
0
  6
Continuous
 62
     7
370
    15
100
AcDbSpline
210
0.0
220
0.0
230
1.0
 70
     8
 71
     3
 72
     9
 73
     5
 74
     0
 42
0.00000001
 43
0.00000001
 12
1.0
 22
0.0
 32
0.0
 13
1.0
 23
0.0
 33
0.0
 40
0.0
 40
0.0
 40
0.0
 40
0.0
 40
0.5155670742403806
 40
1.0
 40
1.0
 40
1.0
 40
1.0
 10
88.38280703987694
 20
78.78361933970598
 30
0.0
 10
89.19663214717752
 20
78.13116443563523
 30
0.0
 10
90.77513695860219
 20
76.86565518054547
 30
0.0
 10
92.3532325508452
 20
75.59962005760211
 30
0.0
 10
93.11771401572386
 20
74.98631095888021
 30
0.0
  0
SPLINE
  5
83
330
1F
100
AcDbEntity
  8
0
  6
Continuous
 62
     7
370
    15
100
AcDbSpline
210
0.0
220
0.0
230
1.0
 70
     8
 71
     3
 72
     9
 73
     5
 74
     0
 42
0.00000001
 43
0.00000001
 12
1.0
 22
0.0
 32
0.0
 13
1.0
 23
0.0
 33
0.0
 40
0.0
 40
0.0
 40
0.0
 40
0.0
 40
0.5155550454230394
 40
1.0
 40
1.0
 40
1.0
 40
1.0
 10
88.38259268866972
 20
88.78379135804761
 30
0.0
 10
89.19643348625361
 20
88.1313234037229
 30
0.0
 10
90.77500556077595
 20
86.86575930903088
 30
0.0
 10
92.35317623968353
 20
85.599664957792
 30
0.0
 10
93.11771306254161
 20
84.98631193731596
 30
0.0
  0
SPLINE
  5
84
330
1F
100
AcDbEntity
  8
0
  6
Continuous
 62
     7
370
    15
100
AcDbSpline
210
0.0
220
0.0
230
1.0
 70
     8
 71
     3
 72
     9
 73
     5
 74
     0
 42
0.00000001
 43
0.00000001
 12
1.0
 22
0.0
 32
0.0
 13
1.0
 23
0.0
 33
0.0
 40
0.0
 40
0.0
 40
0.0
 40
0.0
 40
0.5155264462436846
 40
1.0
 40
1.0
 40
1.0
 40
1.0
 10
88.38229176070588
 20
98.78403334743216
 30
0.0
 10
89.19613722744863
 20
98.13156079566009
 30
0.0
 10
90.77480593139722
 20
96.86591757497523
 30
0.0
 10
92.35307951980225
 20
95.59974247548129
 30
0.0
 10
93.11771133397656
 20
94.98631412535171
 30
0.0
  0
SPLINE
  5
85
330
1F
100
AcDbEntity
  8
0
  6
Continuous
 62
     7
370
    15
100
AcDbSpline
210
0.0
220
0.0
230
1.0
 70
     8
 71
     3
 72
     9
 73
     5
 74
     0
 42
0.00000001
 43
0.00000001
 12
1.0
 22
0.0
 32
0.0
 13
1.0
 23
0.0
 33
0.0
 40
0.0
 40
0.0
 40
0.0
 40
0.0
 40
0.5155339436251375
 40
1.0
 40
1.0
 40
1.0
 40
1.0
 10
88.38227195976042
 20
108.7840492905037
 30
0.0
 10
89.19613246695316
 20
108.1315647132217
 30
0.0
 10
90.77480738692024
 20
106.8659165723955
 30
0.0
 10
92.35309174573695
 20
105.599732541518
 30
0.0
 10
93.117716944891
 20
104.9863093574339
 30
0.0
  0
SPLINE
  5
86
330
1F
100
AcDbEntity
  8
0
  6
Continuous
 62
     7
370
    15
100
AcDbSpline
210
0.0
220
0.0
230
1.0
 70
     8
 71
     3
 72
     9
 73
     5
 74
     0
 42
0.00000001
 43
0.00000001
 12
1.0
 22
0.0
 32
0.0
 13
1.0
 23
0.0
 33
0.0
 40
0.0
 40
0.0
 40
0.0
 40
0.0
 40
0.499932889479766
 40
1.0
 40
1.0
 40
1.0
 40
1.0
 10
143.3759698340541
 20
109.8676751905908
 30
0.0
 10
144.1894224325264
 20
110.5202772685506
 30
0.0
 10
145.8165460236925
 20
111.8256566338468
 30
0.0
 10
147.4440891317762
 20
113.1304793624429
 30
0.0
 10
148.2579699110827
 20
113.7829782940731
 30
0.0
  0
SPLINE
  5
87
330
1F
100
AcDbEntity
  8
0
  6
Continuous
 62
     7
370
    15
100
AcDbSpline
210
0.0
220
0.0
230
1.0
 70
     8
 71
     3
 72
     9
 73
     5
 74
     0
 42
0.00000001
 43
0.00000001
 12
1.0
 22
0.0
 32
0.0
 13
1.0
 23
0.0
 33
0.0
 40
0.0
 40
0.0
 40
0.0
 40
0.0
 40
0.4999326514110736
 40
1.0
 40
1.0
 40
1.0
 40
1.0
 10
143.3758554703563
 20
99.86758391112537
 30
0.0
 10
144.1893153382749
 20
100.5201921095214
 30
0.0
 10
145.8164542451308
 20
101.8255843389628
 30
0.0
 10
147.4440117054906
 20
103.1304179555445
 30
0.0
 10
148.2579000493689
 20
103.7829226425382
 30
0.0
  0
SPLINE
  5
88
330
1F
100
AcDbEntity
  8
0
  6
Continuous
 62
     7
370
    15
100
AcDbSpline
210
0.0
220
0.0
230
1.0
 70
     8
 71
     3
 72
     9
 73
     5
 74
     0
 42
0.00000001
 43
0.00000001
 12
1.0
 22
0.0
 32
0.0
 13
1.0
 23
0.0
 33
0.0
 40
0.0
 40
0.0
 40
0.0
 40
0.0
 40
0.4999328881097794
 40
1.0
 40
1.0
 40
1.0
 40
1.0
 10
143.3763731253104
 20
89.86799761701846
 30
0.0
 10
144.1898272511999
 20
90.52059954350483
 30
0.0
 10
145.8169539020692
 20
91.82597860939069
 30
0.0
 10
147.4444936412902
 20
93.13080100759757
 30
0.0
 10
148.258372738169
 20
93.78329977579854
 30
0.0
  0
SPLINE
  5
89
330
1F
100
AcDbEntity
  8
0
  6
Continuous
 62
     7
370
    15
100
AcDbSpline
210
0.0
220
0.0
230
1.0
 70
     8
 71
     3
 72
     9
 73
     5
 74
     0
 42
0.00000001
 43
0.00000001
 12
1.0
 22
0.0
 32
0.0
 13
1.0
 23
0.0
 33
0.0
 40
0.0
 40
0.0
 40
0.0
 40
0.0
 40
0.4999324087007515
 40
1.0
 40
1.0
 40
1.0
 40
1.0
 10
143.3764718964704
 20
79.86807671196473
 30
0.0
 10
144.1899418006893
 20
80.52069080003598
 30
0.0
 10
145.8171015728133
 20
81.82609544417033
 30
0.0
 10
147.4446672211316
 20
83.13093942493097
 30
0.0
 10
148.2585600545675
 20
83.78344961141124
 30
0.0
  0
LINE
  5
8A
330
1F
100
AcDbEntity
  8
0
  6
Continuous
 62
     7
370
    15
100
AcDbLine
 10
146.6270355329
 20
72.4752823782
 30
0.0
 11
148.2590648975
 21
73.7838545393
 31
0.0
  0
SPLINE
  5
8B
330
1F
100
AcDbEntity
  8
0
  6
Continuous
 62
     7
370
    15
100
AcDbSpline
210
0.0
220
0.0
230
1.0
 70
     8
 71
     3
 72
     9
 73
     5
 74
     0
 42
0.00000001
 43
0.00000001
 12
1.0
 22
0.0
 32
0.0
 13
1.0
 23
0.0
 33
0.0
 40
0.0
 40
0.0
 40
0.0
 40
0.0
 40
0.7495350181136599
 40
1.0
 40
1.0
 40
1.0
 40
1.0
 10
93.26562182239242
 20
75.10495830833693
 30
0.0
 10
92.45222103944471
 20
74.45236010082313
 30
0.0
 10
91.36701385993922
 20
73.58168936264173
 30
0.0
 10
90.28151867511755
 20
72.7113841133063
 30
0.0
 10
90.00964014331348
 20
72.49340312479592
 30
0.0
  0
SPLINE
  5
8C
330
1F
100
AcDbEntity
  8
0
  6
Continuous
 62
     7
370
    15
100
AcDbSpline
210
0.0
220
0.0
230
1.0
 70
     8
 71
     3
 72
     9
 73
     5
 74
     0
 42
0.00000001
 43
0.00000001
 12
1.0
 22
0.0
 32
0.0
 13
1.0
 23
0.0
 33
0.0
 40
0.0
 40
0.0
 40
0.0
 40
0.0
 40
0.499933438787749
 40
1.0
 40
1.0
 40
1.0
 40
1.0
 10
93.26473759243109
 20
85.10425032999785
 30
0.0
 10
92.45129951920894
 20
84.451662693268
 30
0.0
 10
90.82420677023303
 20
83.14631364857868
 30
0.0
 10
89.19670193685305
 20
81.84151671022643
 30
0.0
 10
88.3828411914684
 20
81.18903139218433
 30
0.0
  0
SPLINE
  5
8D
330
1F
100
AcDbEntity
  8
0
  6
Continuous
 62
     7
370
    15
100
AcDbSpline
210
0.0
220
0.0
230
1.0
 70
     8
 71
     3
 72
     9
 73
     5
 74
     0
 42
0.00000001
 43
0.00000001
 12
1.0
 22
0.0
 32
0.0
 13
1.0
 23
0.0
 33
0.0
 40
0.0
 40
0.0
 40
0.0
 40
0.0
 40
0.5625275428493397
 40
1.0
 40
1.0
 40
1.0
 40
1.0
 10
93.26459633704712
 20
95.10413685261993
 30
0.0
 10
92.34927252546616
 20
94.36982513755305
 30
0.0
 10
90.72210986789278
 20
93.06444600651993
 30
0.0
 10
89.09454644511518
 20
91.75961227693435
 30
0.0
 10
88.38253227538415
 20
91.18878345907949
 30
0.0
  0
SPLINE
  5
8E
330
1F
100
AcDbEntity
  8
0
  6
Continuous
 62
     7
370
    15
100
AcDbSpline
210
0.0
220
0.0
230
1.0
 70
     8
 71
     3
 72
     9
 73
     5
 74
     0
 42
0.00000001
 43
0.00000001
 12
1.0
 22
0.0
 32
0.0
 13
1.0
 23
0.0
 33
0.0
 40
0.0
 40
0.0
 40
0.0
 40
0.0
 40
0.4999320736386921
 40
1.0
 40
1.0
 40
1.0
 40
1.0
 10
93.26630414399594
 20
105.1055018655939
 30
0.0
 10
92.45282775622273
 20
104.4528787150022
 30
0.0
 10
90.82565392468116
 20
103.1474550684622
 30
0.0
 10
89.19805906335262
 20
101.8425948159433
 30
0.0
 10
88.38415107609173
 20
101.1900760552749
 30
0.0
  0
SPLINE
  5
8F
330
1F
100
AcDbEntity
  8
0
  6
Continuous
 62
     7
370
    15
100
AcDbSpline
210
0.0
220
0.0
230
1.0
 70
     8
 71
     3
 72
     9
 73
     5
 74
     0
 42
0.00000001
 43
0.00000001
 12
1.0
 22
0.0
 32
0.0
 13
1.0
 23
0.0
 33
0.0
 40
0.0
 40
0.0
 40
0.0
 40
0.0
 40
0.5157033120029008
 40
1.0
 40
1.0
 40
1.0
 40
1.0
 10
148.257722541978
 20
106.1898419752274
 30
0.0
 10
147.443860761669
 20
106.8423229596404
 30
0.0
 10
145.8657018447754
 20
108.1075484666842
 30
0.0
 10
144.2879593116105
 20
109.3733081605672
 30
0.0
 10
143.5238638282866
 20
109.9863113881149
 30
0.0
  0
SPLINE
  5
90
330
1F
100
AcDbEntity
  8
0
  6
Continuous
 62
     7
370
    15
100
AcDbSpline
210
0.0
220
0.0
230
1.0
 70
     8
 71
     3
 72
     9
 73
     5
 74
     0
 42
0.00000001
 43
0.00000001
 12
1.0
 22
0.0
 32
0.0
 13
1.0
 23
0.0
 33
0.0
 40
0.0
 40
0.0
 40
0.0
 40
0.0
 40
0.5156280987784891
 40
0.9999999999999999
 40
0.9999999999999999
 40
0.9999999999999999
 40
0.9999999999999999
 10
148.2581948264016
 20
96.18946568556989
 30
0.0
 10
147.4443701320771
 20
96.84191871827083
 30
0.0
 10
145.8660529374704
 20
98.10727457115513
 30
0.0
 10
144.288154460585
 20
99.37315549308026
 30
0.0
 10
143.5238647754016
 20
99.98631264195318
 30
0.0
  0
SPLINE
  5
91
330
1F
100
AcDbEntity
  8
0
  6
Continuous
 62
     7
370
    15
100
AcDbSpline
210
0.0
220
0.0
230
1.0
 70
     8
 71
     3
 72
     9
 73
     5
 74
     0
 42
0.00000001
 43
0.00000001
 12
1.0
 22
0.0
 32
0.0
 13
1.0
 23
0.0
 33
0.0
 40
0.0
 40
0.0
 40
0.0
 40
0.0
 40
0.5155434494438669
 40
1.0
 40
1.0
 40
1.0
 40
1.0
 10
148.2590761403936
 20
86.18875977638504
 30
0.0
 10
147.4452383014649
 20
86.84122564190812
 30
0.0
 10
145.8666364594541
 20
88.10681415094051
 30
0.0
 10
144.2884353479669
 20
89.37293225217876
 30
0.0
 10
143.5238654814119
 20
89.98631146010133
 30
0.0
  0
SPLINE
  5
92
330
1F
100
AcDbEntity
  8
0
  6
Continuous
 62
     7
370
    15
100
AcDbSpline
210
0.0
220
0.0
230
1.0
 70
     8
 71
     3
 72
     9
 73
     5
 74
     0
 42
0.00000001
 43
0.00000001
 12
1.0
 22
0.0
 32
0.0
 13
1.0
 23
0.0
 33
0.0
 40
0.0
 40
0.0
 40
0.0
 40
0.0
 40
0.5155013888384711
 40
0.9999999999999999
 40
0.9999999999999999
 40
0.9999999999999999
 40
0.9999999999999999
 10
148.2593564003717
 20
76.1885342648562
 30
0.0
 10
147.445536568254
 20
76.8409866172337
 30
0.0
 10
145.866840856199
 20
78.10665217411534
 30
0.0
 10
144.2885462236898
 20
79.37284293980188
 30
0.0
 10
143.5238646662354
 20
79.98631060724257
 30
0.0
  0
LINE
  5
93
330
1F
100
AcDbEntity
  8
0
  6
Continuous
 62
     7
370
    15
100
AcDbLine
 10
148.3207894737
 20
103.8818825941
 30
0.0
 11
148.3207894737
 21
106.0907407577
 31
0.0
  0
LINE
  5
94
330
1F
100
AcDbEntity
  8
0
  6
Continuous
 62
     7
370
    15
100
AcDbLine
 10
148.3207894737
 20
93.8818825941
 30
0.0
 11
148.3207894737
 21
96.0907407577
 31
0.0
  0
LINE
  5
95
330
1F
100
AcDbEntity
  8
0
  6
Continuous
 62
     7
370
    15
100
AcDbLine
 10
148.3207894737
 20
83.8818825941
 30
0.0
 11
148.3207894737
 21
86.0907407577
 31
0.0
  0
LINE
  5
96
330
1F
100
AcDbEntity
  8
0
  6
Continuous
 62
     7
370
    15
100
AcDbLine
 10
148.3207894737
 20
73.8818825941
 30
0.0
 11
148.3207894737
 21
76.0907407577
 31
0.0
  0
LINE
  5
97
330
1F
100
AcDbEntity
  8
0
  6
Continuous
 62
     7
370
    15
100
AcDbLine
 10
88.3207894737
 20
81.0907407577
 30
0.0
 11
88.3207894737
 21
78.8818825941
 31
0.0
  0
LINE
  5
98
330
1F
100
AcDbEntity
  8
0
  6
Continuous
 62
     7
370
    15
100
AcDbLine
 10
88.3207894737
 20
91.0907407577
 30
0.0
 11
88.3207894737
 21
88.8818825941
 31
0.0
  0
LINE
  5
99
330
1F
100
AcDbEntity
  8
0
  6
Continuous
 62
     7
370
    15
100
AcDbLine
 10
88.3207894737
 20
101.0907407577
 30
0.0
 11
88.3207894737
 21
98.8818825941
 31
0.0
  0
LINE
  5
9A
330
1F
100
AcDbEntity
  8
0
  6
Continuous
 62
     7
370
    15
100
AcDbLine
 10
88.3207894737
 20
117.4863116759
 30
0.0
 11
88.3207894737
 21
108.8818825941
 31
0.0
  0
LINE
  5
9B
330
1F
100
AcDbEntity
  8
0
  6
Continuous
 62
     7
370
    15
100
AcDbLine
 10
148.3207894737
 20
113.8818825941
 30
0.0
 11
148.3207894737
 21
117.4863116759
 31
0.0
  0
SPLINE
  5
9C
330
1F
100
AcDbEntity
  8
0
  6
Continuous
 62
     7
370
    15
100
AcDbSpline
210
0.0
220
0.0
230
1.0
 70
    24
 71
     3
 72
    18
 73
    14
 74
     0
 42
0.00000001
 43
0.00000001
 12
1.0
 22
0.0
 32
0.0
 13
1.0
 23
0.0
 33
0.0
 40
0.0
 40
0.0
 40
0.0
 40
0.0
 40
0.0851496117832926
 40
0.1706941290945874
 40
0.2566533128063789
 40
0.3430561397329355
 40
0.446629006684068
 40
0.5509591605479279
 40
0.6576850740023341
 40
0.7652407432897532
 40
0.8661851243310374
 40
0.9678304138792331
 40
1.0
 40
1.0
 40
1.0
 40
1.0
 10
137.4316809115751
 20
72.48631167592019
 30
0.0
 10
137.9139441273939
 20
72.48631167592019
 30
0.0
 10
138.8807071917759
 20
72.48631167592018
 30
0.0
 10
140.2107430924598
 20
72.4863116759202
 30
0.0
 10
141.4414964341996
 20
72.4863116759202
 30
0.0
 10
142.629815888489
 20
72.48631167592012
 30
0.0
 10
143.7417803638376
 20
72.4863116759202
 30
0.0
 10
144.7393250887779
 20
72.48631167592018
 30
0.0
 10
145.5442490701214
 20
72.48631167592023
 30
0.0
 10
146.1335832781492
 20
72.48631167592004
 30
0.0
 10
146.4917166763587
 20
72.48631167592052
 30
0.0
 10
146.6516295425351
 20
72.48631167591932
 30
0.0
 10
146.6246726083222
 20
72.48631167591968
 30
0.0
 10
146.6181920626251
 20
72.48631167591977
 30
0.0
  0
SPLINE
  5
9D
330
1F
100
AcDbEntity
  8
0
  6
Continuous
 62
     7
370
    15
100
AcDbSpline
210
0.0
220
0.0
230
1.0
 70
     8
 71
     3
 72
    25
 73
    21
 74
     0
 42
0.00000001
 43
0.00000001
 12
1.0
 22
0.0
 32
0.0
 13
1.0
 23
0.0
 33
0.0
 40
0.0
 40
0.0
 40
0.0
 40
0.0
 40
0.0541554137982833
 40
0.108707665155413
 40
0.1634758904418324
 40
0.218274852417823
 40
0.2729186871516545
 40
0.3272246827749819
 40
0.3810168988955181
 40
0.434129450395523
 40
0.4916819177924925
 40
0.5500156523304913
 40
0.6089182320282054
 40
0.6681641318313422
 40
0.7275197304719524
 40
0.7856942745297428
 40
0.8435257171545191
 40
0.9008008299137727
 40
0.9573187361859894
 40
1.0
 40
1.0
 40
1.0
 40
1.0
 10
114.3207894735966
 20
111.175117661706
 30
0.0
 10
113.5176577737414
 20
111.1320707354067
 30
0.0
 10
111.9055092223747
 20
111.0456614455147
 30
0.0
 10
109.5311425780666
 20
110.9130522263807
 30
0.0
 10
107.2047095803863
 20
110.7790700591489
 30
0.0
 10
104.9525608525707
 20
110.644815614494
 30
0.0
 10
102.7965048907961
 20
110.5116838446709
 30
0.0
 10
100.7570103420761
 20
110.3810780910308
 30
0.0
 10
98.85152884787328
 20
110.2538547859341
 30
0.0
 10
97.0361014976274
 20
110.1285271763678
 30
0.0
 10
95.3195302517376
 20
109.9995523205702
 30
0.0
 10
93.71918456206674
 20
109.861208057439
 30
0.0
 10
92.29439112360767
 20
109.7191050112674
 30
0.0
 10
91.06626788771695
 20
109.574419565844
 30
0.0
 10
90.05747919188772
 20
109.4298288305377
 30
0.0
 10
89.27598613055471
 20
109.2869608582253
 30
0.0
 10
88.72083485017463
 20
109.1475653717492
 30
0.0
 10
88.3979665563158
 20
109.011722863255
 30
0.0
 10
88.27824698147248
 20
108.8926659921511
 30
0.0
 10
88.36602146526896
 20
108.8164010714884
 30
0.0
 10
88.40378716326622
 20
108.7835874582724
 30
0.0
  0
SPLINE
  5
9E
330
1F
100
AcDbEntity
  8
0
  6
Continuous
 62
     7
370
    15
100
AcDbSpline
210
0.0
220
0.0
230
1.0
 70
     8
 71
     3
 72
    44
 73
    40
 74
     0
 42
0.00000001
 43
0.00000001
 12
1.0
 22
0.0
 32
0.0
 13
1.0
 23
0.0
 33
0.0
 40
0.0
 40
0.0
 40
0.0
 40
0.0
 40
0.026951039419453
 40
0.0542679356382292
 40
0.0818512143253243
 40
0.1095952651584843
 40
0.1373906864684758
 40
0.1646330359457944
 40
0.1917147156783691
 40
0.2185358736850462
 40
0.2450024421701304
 40
0.2719534815895833
 40
0.2992703778083595
 40
0.3268536564954546
 40
0.3545977073286145
 40
0.382393128638606
 40
0.4096354781159246
 40
0.4367171578484991
 40
0.4635383158551763
 40
0.4900048843402607
 40
0.5169559237597134
 40
0.5442728199784895
 40
0.5718560986655846
 40
0.5996001494987446
 40
0.6273955708087364
 40
0.6546379202860547
 40
0.6817196000186293
 40
0.7085407580253066
 40
0.7350073265103911
 40
0.7619583659298441
 40
0.7892752621486203
 40
0.8168585408357155
 40
0.8446025916688754
 40
0.872398012978867
 40
0.8996403624561852
 40
0.9267220421887598
 40
0.9535432001954369
 40
0.9800097686805215
 40
1.0
 40
1.0
 40
1.0
 40
1.0
 10
148.3207894736842
 20
103.8818825941034
 30
0.0
 10
148.2992009314875
 20
103.8379741750342
 30
0.0
 10
148.2557307854861
 20
103.7495612859082
 30
0.0
 10
147.9018264395715
 20
103.6112056398417
 30
0.0
 10
147.3313222579252
 20
103.4691055748721
 30
0.0
 10
146.524706223785
 20
103.3244197562004
 30
0.0
 10
145.500676641373
 20
103.1798275107884
 30
0.0
 10
144.2743566468723
 20
103.0369658200881
 30
0.0
 10
142.8668381426512
 20
102.897546995647
 30
0.0
 10
141.2907169560134
 20
102.7617903585843
 30
0.0
 10
139.5489538752453
 20
102.6311007163301
 30
0.0
 10
137.6395722383249
 20
102.4995592533404
 30
0.0
 10
135.5569969332096
 20
102.3612061934062
 30
0.0
 10
133.3204278754478
 20
102.2191054249726
 30
0.0
 10
130.952889287931
 20
102.0744197965751
 30
0.0
 10
128.495663591894
 20
101.9298275001988
 30
0.0
 10
125.9795498473877
 20
101.7869658228839
 30
0.0
 10
123.4354508916934
 20
101.6475469949074
 30
0.0
 10
120.8777004239983
 20
101.5117903587786
 30
0.0
 10
118.3052650445813
 20
101.3811007162773
 30
0.0
 10
115.7168896791497
 20
101.2495592533548
 30
0.0
 10
113.1126646499304
 20
101.1112061934025
 30
0.0
 10
110.5236978093924
 20
100.969105424973
 30
0.0
 10
107.9811578459632
 20
100.8244197965774
 30
0.0
 10
105.5304001975706
 20
100.6798275001891
 30
0.0
 10
103.1983311183803
 20
100.5369658229193
 30
0.0
 10
101.0079680537152
 20
100.3975469947766
 30
0.0
 10
98.96687913089829
 20
100.2617903592591
 30
0.0
 10
97.07067060051513
 20
100.1311007144964
 30
0.0
 10
95.31953576212607
 20
99.99955926017905
 30
0.0
 10
93.7191830609459
 20
99.8612061674568
 30
0.0
 10
92.29439153153653
 20
99.71910552304811
 30
0.0
 10
91.06626777242921
 20
99.57441942802438
 30
0.0
 10
90.0574792422187
 20
99.42982886658909
 30
0.0
 10
89.27598604426684
 20
99.28696084905786
 30
0.0
 10
88.72083514300184
 20
99.1475653728768
 30
0.0
 10
88.39796548777656
 20
99.01172286772365
 30
0.0
 10
88.27824531740595
 20
98.89266081705094
 30
0.0
 10
88.36602779244754
 20
98.81639067465396
 30
0.0
 10
88.40380034650336
 20
98.78357184521028
 30
0.0
  0
SPLINE
  5
9F
330
1F
100
AcDbEntity
  8
0
  6
Continuous
 62
     7
370
    15
100
AcDbSpline
210
0.0
220
0.0
230
1.0
 70
     8
 71
     3
 72
    44
 73
    40
 74
     0
 42
0.00000001
 43
0.00000001
 12
1.0
 22
0.0
 32
0.0
 13
1.0
 23
0.0
 33
0.0
 40
0.0
 40
0.0
 40
0.0
 40
0.0
 40
0.0269497258949376
 40
0.0542652907582773
 40
0.081847225107138
 40
0.1095899237664416
 40
0.1373839903989114
 40
0.1646250121540102
 40
0.1917053719949965
 40
0.2185252228072458
 40
0.2449905013796868
 40
0.2719402272746244
 40
0.2992557921379641
 40
0.3268377264868248
 40
0.3545804251461284
 40
0.3823744917785982
 40
0.4096155135336977
 40
0.4366958733746847
 40
0.4635157241869349
 40
0.4899810027593736
 40
0.5169307286543119
 40
0.5442462935176516
 40
0.5718282278665122
 40
0.5995709265258158
 40
0.6273649931582856
 40
0.6546060149133844
 40
0.6816863747543707
 40
0.7085062255666201
 40
0.7349715041390603
 40
0.7619212300339987
 40
0.7892367948973384
 40
0.8168187292461991
 40
0.8445614279055027
 40
0.8723554945379726
 40
0.8995965162930712
 40
0.9266768761340575
 40
0.9534967269463069
 40
0.9799620055187471
 40
1.0
 40
1.0
 40
1.0
 40
1.0
 10
148.3207894736842
 20
93.8818825941034
 30
0.0
 10
148.2992009314875
 20
93.83797417503422
 30
0.0
 10
148.255730785486
 20
93.74956128590821
 30
0.0
 10
147.9018264395715
 20
93.61120563984174
 30
0.0
 10
147.3313222579252
 20
93.46910557487217
 30
0.0
 10
146.5247062237851
 20
93.32441975620037
 30
0.0
 10
145.500676641373
 20
93.17982751078844
 30
0.0
 10
144.2743566468723
 20
93.03696582008808
 30
0.0
 10
142.8668381426513
 20
92.89754699564702
 30
0.0
 10
141.2907169560135
 20
92.76179035858429
 30
0.0
 10
139.5489538752453
 20
92.63110071633012
 30
0.0
 10
137.6395722383249
 20
92.49955925334032
 30
0.0
 10
135.5569969332097
 20
92.36120619340619
 30
0.0
 10
133.3204278754479
 20
92.21910542497262
 30
0.0
 10
130.9528892879311
 20
92.07441979657504
 30
0.0
 10
128.495663591894
 20
91.9298275001988
 30
0.0
 10
125.9795498473877
 20
91.78696582288393
 30
0.0
 10
123.4354508916933
 20
91.64754699490743
 30
0.0
 10
120.8777004239982
 20
91.51179035877863
 30
0.0
 10
118.3052650445812
 20
91.38110071627733
 30
0.0
 10
115.7168896791497
 20
91.24955925335475
 30
0.0
 10
113.1126646499305
 20
91.11120619340244
 30
0.0
 10
110.5236978093922
 20
90.96910542497297
 30
0.0
 10
107.9811578459638
 20
90.82441979657739
 30
0.0
 10
105.5304001975682
 20
90.67982750018915
 30
0.0
 10
103.1983311183889
 20
90.53696582291927
 30
0.0
 10
101.0079680536835
 20
90.39754699477677
 30
0.0
 10
98.96687913101488
 20
90.26179035925853
 30
0.0
 10
97.07067060008298
 20
90.13110071449847
 30
0.0
 10
95.319535763782
 20
89.9995592601711
 30
0.0
 10
93.7191830546502
 20
89.86120616748707
 30
0.0
 10
92.29439155533443
 20
89.71910552293366
 30
0.0
 10
91.06626768299991
 20
89.57441942845443
 30
0.0
 10
90.0574795737753
 20
89.42982886499469
 30
0.0
 10
89.27598483736057
 20
89.28696085486163
 30
0.0
 10
88.7208396024433
 20
89.14756535143219
 30
0.0
 10
88.39794911097215
 20
89.0117229464765
 30
0.0
 10
88.27821975293242
 20
88.89258136459992
 30
0.0
 10
88.36612491173041
 20
88.81623105685509
 30
0.0
 10
88.40400274206793
 20
88.78333214577272
 30
0.0
  0
SPLINE
  5
A0
330
1F
100
AcDbEntity
  8
0
  6
Continuous
 62
     7
370
    15
100
AcDbSpline
210
0.0
220
0.0
230
1.0
 70
     8
 71
     3
 72
    44
 73
    40
 74
     0
 42
0.00000001
 43
0.00000001
 12
1.0
 22
0.0
 32
0.0
 13
1.0
 23
0.0
 33
0.0
 40
0.0
 40
0.0
 40
0.0
 40
0.0
 40
0.0269487931139451
 40
0.0542634125339136
 40
0.0818443922198513
 40
0.109586130651875
 40
0.137379235279123
 40
0.1646193141709286
 40
0.1916987367094344
 40
0.2185176592359135
 40
0.2449820217949995
 40
0.2719308149089453
 40
0.2992454343289137
 40
0.3268264140148513
 40
0.354568152446875
 40
0.3823612570741222
 40
0.4096013359659268
 40
0.4366807585044317
 40
0.4634996810309101
 40
0.489964043589999
 40
0.5169128367039434
 40
0.544227456123912
 40
0.5718084358098497
 40
0.5995501742418735
 40
0.6273432788691224
 40
0.6545833577609288
 40
0.6816627802994338
 40
0.7084817028259124
 40
0.7349460653849985
 40
0.7618948584989442
 40
0.7892094779189127
 40
0.8167904576048504
 40
0.844532196036874
 40
0.8723253006641227
 40
0.8995653795559274
 40
0.9266448020944323
 40
0.9534637246209107
 40
0.9799280871799981
 40
1.0
 40
1.0
 40
1.0
 40
1.0
 10
148.3207894736842
 20
83.88188259410343
 30
0.0
 10
148.2992009314875
 20
83.83797417503425
 30
0.0
 10
148.2557307854861
 20
83.74956128590824
 30
0.0
 10
147.9018264395714
 20
83.61120563984173
 30
0.0
 10
147.3313222579252
 20
83.46910557487219
 30
0.0
 10
146.524706223785
 20
83.32441975620037
 30
0.0
 10
145.500676641373
 20
83.17982751078847
 30
0.0
 10
144.2743566468723
 20
83.03696582008807
 30
0.0
 10
142.8668381426513
 20
82.89754699564702
 30
0.0
 10
141.2907169560135
 20
82.76179035858435
 30
0.0
 10
139.5489538752453
 20
82.63110071633017
 30
0.0
 10
137.6395722383249
 20
82.49955925334034
 30
0.0
 10
135.5569969332097
 20
82.36120619340619
 30
0.0
 10
133.3204278754478
 20
82.21910542497261
 30
0.0
 10
130.9528892879311
 20
82.07441979657509
 30
0.0
 10
128.495663591894
 20
81.92982750019877
 30
0.0
 10
125.9795498473878
 20
81.78696582288394
 30
0.0
 10
123.4354508916936
 20
81.64754699490742
 30
0.0
 10
120.8777004239985
 20
81.51179035877864
 30
0.0
 10
118.3052650445814
 20
81.38110071627733
 30
0.0
 10
115.7168896791497
 20
81.24955925335473
 30
0.0
 10
113.1126646499306
 20
81.11120619340244
 30
0.0
 10
110.5236978093922
 20
80.96910542497297
 30
0.0
 10
107.9811578459643
 20
80.82441979657742
 30
0.0
 10
105.5304001975665
 20
80.67982750018915
 30
0.0
 10
103.1983311183949
 20
80.53696582291924
 30
0.0
 10
101.0079680536609
 20
80.39754699477689
 30
0.0
 10
98.96687913109749
 20
80.26179035925814
 30
0.0
 10
97.07067059977669
 20
80.13110071449998
 30
0.0
 10
95.31953576495575
 20
79.99955926016546
 30
0.0
 10
93.7191830501877
 20
79.86120616750856
 30
0.0
 10
92.29439157220284
 20
79.71910552285256
 30
0.0
 10
91.06626761961073
 20
79.57441942875927
 30
0.0
 10
90.05747980878891
 20
79.42982886386454
 30
0.0
 10
89.27598398188248
 20
79.28696085897548
 30
0.0
 10
88.72084276338022
 20
79.14756533623186
 30
0.0
 10
88.39793750278183
 20
79.01172300229803
 30
0.0
 10
88.27820157958901
 20
78.89252493793884
 30
0.0
 10
88.3661938646077
 20
78.81611769716784
 30
0.0
 10
88.40414648241695
 20
78.78316191239395
 30
0.0
  0
SPLINE
  5
A1
330
1F
100
AcDbEntity
  8
0
  6
Continuous
 62
     7
370
    15
100
AcDbSpline
210
0.0
220
0.0
230
1.0
 70
     8
 71
     3
 72
    12
 73
     8
 74
     0
 42
0.00000001
 43
0.00000001
 12
1.0
 22
0.0
 32
0.0
 13
1.0
 23
0.0
 33
0.0
 40
0.0
 40
0.0
 40
0.0
 40
0.0
 40
0.4999999999999997
 40
0.4999999999999997
 40
0.7499999999999997
 40
0.7499999999999997
 40
1.0
 40
1.0
 40
1.0
 40
1.0
 10
148.3207894736842
 20
73.88188259410342
 30
0.0
 10
148.320789473684
 20
73.66578252107685
 30
0.0
 10
147.3513696329825
 20
73.41990501887553
 30
0.0
 10
144.4901420804826
 20
73.05581701875822
 30
0.0
 10
143.3115450762606
 20
72.93550273118801
 30
0.0
 10
140.6117559334325
 20
72.7054448040807
 30
0.0
 10
139.1152567284507
 20
72.59997493533277
 30
0.0
 10
137.4316809115751
 20
72.48631167592019
 30
0.0
  0
LINE
  5
A2
330
1F
100
AcDbEntity
  8
0
  6
Continuous
 62
     7
370
    15
100
AcDbLine
 10
114.3207894737
 20
109.4863116759
 30
0.0
 11
114.3207894737
 21
111.1751176617
 31
0.0
  0
SPLINE
  5
A3
330
1F
100
AcDbEntity
  8
0
  6
Continuous
 62
     7
370
    15
100
AcDbSpline
210
0.0
220
0.0
230
1.0
 70
    24
 71
     3
 72
     8
 73
     4
 74
     0
 42
0.00000001
 43
0.00000001
 12
1.0
 22
0.0
 32
0.0
 13
1.0
 23
0.0
 33
0.0
 40
0.0
 40
0.0
 40
0.0
 40
0.0
 40
1.0
 40
1.0
 40
1.0
 40
1.0
 10
114.3207894736842
 20
109.4863116759201
 30
0.0
 10
117.0149436894276
 20
109.4863116759201
 30
0.0
 10
119.6824064223027
 20
109.4863116759202
 30
0.0
 10
122.3207894736842
 20
109.4863116759202
 30
0.0
  0
SPLINE
  5
A4
330
1F
100
AcDbEntity
  8
0
  6
Continuous
 62
     7
370
    15
100
AcDbSpline
210
0.0
220
0.0
230
1.0
 70
    24
 71
     3
 72
    11
 73
     7
 74
     0
 42
0.00000001
 43
0.00000001
 12
1.0
 22
0.0
 32
0.0
 13
1.0
 23
0.0
 33
0.0
 40
0.0
 40
0.0
 40
0.0
 40
0.0
 40
0.000170310684419
 40
0.000170310684419
 40
0.000170310684419
 40
0.000340621504199
 40
0.000340621504199
 40
0.000340621504199
 40
0.000340621504199
 10
122.3207894736842
 20
111.5886475264966
 30
0.0
 10
122.3207894736842
 20
111.2378740286088
 30
0.0
 10
122.3207894736842
 20
110.8872748824331
 30
0.0
 10
122.3207894736842
 20
110.5368761801605
 30
0.0
 10
122.3207894736842
 20
110.1864772061071
 30
0.0
 10
122.3207894736842
 20
109.8362785182034
 30
0.0
 10
122.3207894736842
 20
109.4863116759201
 30
0.0
  0
SPLINE
  5
A5
330
1F
100
AcDbEntity
  8
0
  6
Continuous
 62
     7
370
    15
100
AcDbSpline
210
0.0
220
0.0
230
1.0
 70
     8
 71
     3
 72
    16
 73
    12
 74
     0
 42
0.00000001
 43
0.00000001
 12
1.0
 22
0.0
 32
0.0
 13
1.0
 23
0.0
 33
0.0
 40
0.0
 40
0.0
 40
0.0
 40
0.0
 40
0.2499999999999999
 40
0.2499999999999999
 40
0.4999999999999999
 40
0.4999999999999999
 40
0.6249999999999999
 40
0.6249999999999999
 40
0.7499999999999999
 40
0.7499999999999999
 40
1.0
 40
1.0
 40
1.0
 40
1.0
 10
148.3207894736842
 20
113.8818825941034
 30
0.0
 10
148.3207894736841
 20
113.7060268736632
 30
0.0
 10
147.6895134677817
 20
113.5106677190057
 30
0.0
 10
145.1406228205949
 20
113.1152656261839
 30
0.0
 10
143.227280946063
 20
112.9160270158713
 30
0.0
 10
139.7314175799721
 20
112.6422782676697
 30
0.0
 10
138.4713922553991
 20
112.555872887781
 30
0.0
 10
135.6914157483649
 20
112.3696377134009
 30
0.0
 10
134.1835412811508
 20
112.2728923473864
 30
0.0
 10
129.4002504777101
 20
111.9784317971202
 30
0.0
 10
125.8630232041268
 20
111.7767363091053
 30
0.0
 10
122.3207894737718
 20
111.5886475265009
 30
0.0
  0
SPLINE
  5
A6
330
1F
100
AcDbEntity
  8
0
  6
Continuous
 62
     7
370
    15
100
AcDbSpline
210
0.0
220
0.0
230
1.0
 70
     8
 71
     3
 72
    43
 73
    39
 74
     0
 42
0.00000001
 43
0.00000001
 12
1.0
 22
0.0
 32
0.0
 13
1.0
 23
0.0
 33
0.0
 40
0.0
 40
0.0
 40
0.0
 40
0.0
 40
0.0030084810697736
 40
0.0323305606539105
 40
0.061939265385489
 40
0.0917209723457655
 40
0.1215579596358345
 40
0.1508010999669085
 40
0.1798713487678467
 40
0.2086612794230618
 40
0.2370697170974785
 40
0.2659981807127254
 40
0.2953202602968624
 40
0.3249289650284408
 40
0.3547106719887174
 40
0.3845476592787861
 40
0.4137907996098602
 40
0.4428610484107984
 40
0.4716509790660135
 40
0.5000594167404304
 40
0.528987880355677
 40
0.558309959939814
 40
0.5879186646713924
 40
0.617700371631669
 40
0.6475373589217381
 40
0.6767804992528121
 40
0.7058507480537504
 40
0.7346406787089654
 40
0.7630491163833821
 40
0.791977579998629
 40
0.8212996595827661
 40
0.8509083643143445
 40
0.8806900712746211
 40
0.9105270585646901
 40
0.9397701988957641
 40
0.9688404476967023
 40
0.9976303783519174
 40
0.9999999999999999
 40
0.9999999999999999
 40
0.9999999999999999
 40
0.9999999999999999
 10
143.3673252007161
 20
109.8675522636084
 30
0.0
 10
143.3643475160995
 20
109.8629631745731
 30
0.0
 10
143.3323479086981
 20
109.8136466530588
 30
0.0
 10
143.0903400320987
 20
109.7154257250632
 30
0.0
 10
142.6251741097772
 20
109.5735897796455
 30
0.0
 10
141.9460416632438
 20
109.4288333794655
 30
0.0
 10
141.089154850163
 20
109.2842609320183
 30
0.0
 10
140.0616490023004
 20
109.1413948950762
 30
0.0
 10
138.8826621606079
 20
109.001977900843
 30
0.0
 10
137.562363085909
 20
108.8662216321726
 30
0.0
 10
136.103296079832
 20
108.7355297910891
 30
0.0
 10
134.5038059929613
 20
108.6039859934097
 30
0.0
 10
132.7592736348564
 20
108.4656336922631
 30
0.0
 10
130.8857406140303
 20
108.3235334628343
 30
0.0
 10
128.9024995710721
 20
108.1788485482922
 30
0.0
 10
126.8441295572906
 20
108.0342569534816
 30
0.0
 10
124.736430283568
 20
107.8913959454603
 30
0.0
 10
122.6052861061358
 20
107.7519776230005
 30
0.0
 10
120.4627109814854
 20
107.6162217051748
 30
0.0
 10
118.3077844539655
 20
107.4855297712511
 30
0.0
 10
116.1395050001088
 20
107.3539859988447
 30
0.0
 10
113.9579994386615
 20
107.2156336907849
 30
0.0
 10
111.7892706714627
 20
107.0735334632272
 30
0.0
 10
109.6594351863112
 20
106.9288485482141
 30
0.0
 10
107.6064832975044
 20
106.7842569533992
 30
0.0
 10
105.6529538896234
 20
106.6413959458558
 30
0.0
 10
103.8181264301403
 20
106.5019776215135
 30
0.0
 10
102.1083462981326
 20
106.3662217106422
 30
0.0
 10
100.5198909745385
 20
106.2355297509836
 30
0.0
 10
99.05297512443248
 20
106.1039860765091
 30
0.0
 10
97.71237115518977
 20
105.9656333954962
 30
0.0
 10
96.5189416407108
 20
105.8235345794606
 30
0.0
 10
95.4898273937344
 20
105.6788443534899
 30
0.0
 10
94.64604909538697
 20
105.5342725052593
 30
0.0
 10
93.98678650603645
 20
105.3913393358828
 30
0.0
 10
93.5387607542261
 20
105.2521867863682
 30
0.0
 10
93.30624979597354
 20
105.1567243508025
 30
0.0
 10
93.2754633402009
 20
105.1091962740173
 30
0.0
 10
93.27312209179794
 20
105.1055818588118
 30
0.0
  0
SPLINE
  5
A7
330
1F
100
AcDbEntity
  8
0
  6
Continuous
 62
     7
370
    15
100
AcDbSpline
210
0.0
220
0.0
230
1.0
 70
     8
 71
     3
 72
    43
 73
    39
 74
     0
 42
0.00000001
 43
0.00000001
 12
1.0
 22
0.0
 32
0.0
 13
1.0
 23
0.0
 33
0.0
 40
0.0
 40
0.0
 40
0.0
 40
0.0
 40
0.0029880187616339
 40
0.0323020185271678
 40
0.0619025644594149
 40
0.0916760649488905
 40
0.1215048305354384
 40
0.1507399127999426
 40
0.1798021511752768
 40
0.208584148647696
 40
0.2369847582612636
 40
0.2659052505203927
 40
0.2952192502859266
 40
0.3248197962181736
 40
0.3545932967076492
 40
0.384422062294197
 40
0.4136571445587012
 40
0.4427193829340353
 40
0.4715013804064546
 40
0.4999019900200225
 40
0.5288224822791513
 40
0.5581364820446852
 40
0.5877370279769323
 40
0.6175105284664079
 40
0.6473392940529561
 40
0.6765743763174599
 40
0.705636614692794
 40
0.7344186121652133
 40
0.7628192217787813
 40
0.7917397140379105
 40
0.8210537138034445
 40
0.8506542597356916
 40
0.8804277602251672
 40
0.910256525811715
 40
0.9394916080762188
 40
0.968553846451553
 40
0.9973358439239721
 40
1.0
 40
1.0
 40
1.0
 40
1.0
 10
143.3672615561981
 20
99.8674622834978
 30
0.0
 10
143.3643017295201
 20
99.86290311835943
 30
0.0
 10
143.3323044819064
 20
99.81361619999754
 30
0.0
 10
143.0903255034442
 20
99.71542542438317
 30
0.0
 10
142.6251780440875
 20
99.57358986106873
 30
0.0
 10
141.9460406035447
 20
99.42883335753427
 30
0.0
 10
141.0891551281048
 20
99.28426093777053
 30
0.0
 10
140.0616489289202
 20
99.14139489355755
 30
0.0
 10
138.8826621800181
 20
99.00197790124469
 30
0.0
 10
137.562363080809
 20
98.86622163206711
 30
0.0
 10
136.1032960812179
 20
98.7355297911178
 30
0.0
 10
134.5038059925816
 20
98.6039859934018
 30
0.0
 10
132.7592736349598
 20
98.46563369226536
 30
0.0
 10
130.8857406140022
 20
98.32353346283365
 30
0.0
 10
128.9024995710797
 20
98.1788485482924
 30
0.0
 10
126.8441295572886
 20
98.03425695348155
 30
0.0
 10
124.7364302835685
 20
97.89139594546032
 30
0.0
 10
122.6052861061357
 20
97.75197762300051
 30
0.0
 10
120.4627109814854
 20
97.61622170517482
 30
0.0
 10
118.3077844539653
 20
97.4855297712511
 30
0.0
 10
116.1395050001094
 20
97.35398599884478
 30
0.0
 10
113.9579994386593
 20
97.2156336907848
 30
0.0
 10
111.7892706714711
 20
97.07353346322738
 30
0.0
 10
109.6594351862796
 20
96.92884854821345
 30
0.0
 10
107.6064832976214
 20
96.78425695340164
 30
0.0
 10
105.6529538891971
 20
96.64139594584698
 30
0.0
 10
103.8181264317151
 20
96.50197762154622
 30
0.0
 10
102.1083462923498
 20
96.36622171052201
 30
0.0
 10
100.5198909959739
 20
96.2355297514288
 30
0.0
 10
99.05297504229301
 20
96.10398607480315
 30
0.0
 10
97.71237146749309
 20
95.96563340198249
 30
0.0
 10
96.51894046015961
 20
95.82353455494145
 30
0.0
 10
95.48983183016013
 20
95.67884444563101
 30
0.0
 10
94.646032647423
 20
95.53427216364788
 30
0.0
 10
93.98684637789668
 20
95.39134057937487
 30
0.0
 10
93.53853953721648
 20
95.2521821918626
 30
0.0
 10
93.30561387279512
 20
95.15626682492102
 30
0.0
 10
93.27479353061388
 20
95.10829372609096
 30
0.0
 10
93.27218239403207
 20
95.10422938726693
 30
0.0
  0
SPLINE
  5
A8
330
1F
100
AcDbEntity
  8
0
  6
Continuous
 62
     7
370
    15
100
AcDbSpline
210
0.0
220
0.0
230
1.0
 70
     8
 71
     3
 72
    43
 73
    39
 74
     0
 42
0.00000001
 43
0.00000001
 12
1.0
 22
0.0
 32
0.0
 13
1.0
 23
0.0
 33
0.0
 40
0.0
 40
0.0
 40
0.0
 40
0.0
 40
0.0030769140693383
 40
0.0323890575180176
 40
0.0619877289877976
 40
0.0917593440624127
 40
0.121586220734423
 40
0.150819451679544
 40
0.1798798496808807
 40
0.2086600245256325
 40
0.2370588356630217
 40
0.2659774965242633
 40
0.2952896399729425
 40
0.3248883114427226
 40
0.3546599265173377
 40
0.3844868031893479
 40
0.4137200341344697
 40
0.4427804321358073
 40
0.4715606069805599
 40
0.4999594181179467
 40
0.5288780789791891
 40
0.5581902224278684
 40
0.5877888938976484
 40
0.6175605089722636
 40
0.6473873856442739
 40
0.6766206165893949
 40
0.7056810145907315
 40
0.7344611894354833
 40
0.7628600005728717
 40
0.791778661434114
 40
0.8210908048827934
 40
0.8506894763525734
 40
0.8804610914271885
 40
0.9102879680991988
 40
0.9395211990443196
 40
0.9685815970456564
 40
0.9973617718904081
 40
1.0
 40
1.0
 40
1.0
 40
1.0
 10
143.3675503562536
 20
89.86787058670703
 30
0.0
 10
143.3645096441449
 20
89.8631756388241
 30
0.0
 10
143.3325016656427
 20
89.81375438961223
 30
0.0
 10
143.0903912694254
 20
89.71542678545349
 30
0.0
 10
142.6251602348832
 20
89.57358949249549
 30
0.0
 10
141.9460454004203
 20
89.42883345680877
 30
0.0
 10
141.0891538699624
 20
89.28426091173245
 30
0.0
 10
140.0616492610858
 20
89.14139490043192
 30
0.0
 10
138.8826620921553
 20
89.00197789942631
 30
0.0
 10
137.5623631038947
 20
88.86622163254488
 30
0.0
 10
136.1032960749445
 20
88.73552979098794
 30
0.0
 10
134.5038059943006
 20
88.6039859934374
 30
0.0
 10
132.7592736344917
 20
88.46563369225565
 30
0.0
 10
130.8857406141291
 20
88.3235334628363
 30
0.0
 10
128.9024995710456
 20
88.1788485482917
 30
0.0
 10
126.8441295572976
 20
88.03425695348173
 30
0.0
 10
124.7364302835662
 20
87.89139594546026
 30
0.0
 10
122.6052861061362
 20
87.75197762300054
 30
0.0
 10
120.4627109814852
 20
87.61622170517481
 30
0.0
 10
118.3077844539653
 20
87.4855297712511
 30
0.0
 10
116.1395050001094
 20
87.35398599884476
 30
0.0
 10
113.9579994386595
 20
87.2156336907848
 30
0.0
 10
111.7892706714703
 20
87.07353346322732
 30
0.0
 10
109.6594351862824
 20
86.92884854821352
 30
0.0
 10
107.6064832976113
 20
86.78425695340141
 30
0.0
 10
105.652953889234
 20
86.64139594584772
 30
0.0
 10
103.818126431579
 20
86.50197762154339
 30
0.0
 10
102.1083462928495
 20
86.36622171053239
 30
0.0
 10
100.5198909941216
 20
86.23552975139032
 30
0.0
 10
99.05297504939126
 20
86.10398607495057
 30
0.0
 10
97.71237144050473
 20
85.96563340142197
 30
0.0
 10
96.5189405621795
 20
85.82353455706036
 30
0.0
 10
95.4898314467768
 20
85.67884443766846
 30
0.0
 10
94.64603406880944
 20
85.53427219316899
 30
0.0
 10
93.98684120394017
 20
85.3913404719158
 30
0.0
 10
93.53855865416364
 20
85.25218258890678
 30
0.0
 10
93.30566951709466
 20
85.15630675609225
 30
0.0
 10
93.27485215899222
 20
85.10837249472146
 30
0.0
 10
93.27226440109352
 20
85.1043474169368
 30
0.0
  0
SPLINE
  5
A9
330
1F
100
AcDbEntity
  8
0
  6
Continuous
 62
     7
370
    15
100
AcDbSpline
210
0.0
220
0.0
230
1.0
 70
     8
 71
     3
 72
    43
 73
    39
 74
     0
 42
0.00000001
 43
0.00000001
 12
1.0
 22
0.0
 32
0.0
 13
1.0
 23
0.0
 33
0.0
 40
0.0
 40
0.0
 40
0.0
 40
0.0
 40
0.0030944297493795
 40
0.0324105447668389
 40
0.0620132266277303
 40
0.091788875525978
 40
0.1216197935091408
 40
0.1508569853310078
 40
0.1799213207915632
 40
0.2087053951274626
 40
0.2371080540841653
 40
0.2660306332003397
 40
0.295346748217799
 40
0.3249494300786903
 40
0.3547250789769378
 40
0.3845559969600997
 40
0.4137931887819659
 40
0.4428575242425203
 40
0.471641598578419
 40
0.5000442575351248
 40
0.5289668366512977
 40
0.5582829516687572
 40
0.5878856335296486
 40
0.6176612824278963
 40
0.64749220041106
 40
0.6767293922329279
 40
0.7057937276934826
 40
0.7345778020293814
 40
0.7629804609860842
 40
0.7919030401022586
 40
0.8212191551197179
 40
0.8508218369806093
 40
0.8805974858788569
 40
0.9104284038620204
 40
0.9396655956838865
 40
0.968729931144441
 40
0.9975140054803395
 40
1.0
 40
1.0
 40
1.0
 40
1.0
 10
143.3676057806969
 20
79.86794894534185
 30
0.0
 10
143.3645495891099
 20
79.86322793990443
 30
0.0
 10
143.3325395445231
 20
79.81378091073708
 30
0.0
 10
143.0904038437359
 20
79.71542704568712
 30
0.0
 10
142.6251568298026
 20
79.5735894220251
 30
0.0
 10
141.9460463175723
 20
79.42883347578984
 30
0.0
 10
141.0891536294083
 20
79.28426090675399
 30
0.0
 10
140.0616493245952
 20
79.14139490174627
 30
0.0
 10
138.8826620753561
 20
79.00197789907863
 30
0.0
 10
137.5623631083086
 20
78.86622163263621
 30
0.0
 10
136.103296073745
 20
78.73552979096311
 30
0.0
 10
134.5038059946292
 20
78.60398599344417
 30
0.0
 10
132.7592736344022
 20
78.46563369225377
 30
0.0
 10
130.8857406141533
 20
78.32353346283676
 30
0.0
 10
128.902499571039
 20
78.17884854829154
 30
0.0
 10
126.8441295572993
 20
78.03425695348176
 30
0.0
 10
124.7364302835658
 20
77.89139594546025
 30
0.0
 10
122.6052861061366
 20
77.75197762300053
 30
0.0
 10
120.4627109814854
 20
77.6162217051748
 30
0.0
 10
118.3077844539656
 20
77.4855297712511
 30
0.0
 10
116.1395050001091
 20
77.35398599884475
 30
0.0
 10
113.9579994386607
 20
77.21563369078484
 30
0.0
 10
111.7892706714661
 20
77.07353346322724
 30
0.0
 10
109.6594351862987
 20
76.92884854821386
 30
0.0
 10
107.606483297551
 20
76.78425695340017
 30
0.0
 10
105.6529538894535
 20
76.64139594585227
 30
0.0
 10
103.8181264307677
 20
76.50197762152656
 30
0.0
 10
102.1083462958287
 20
76.36622171059429
 30
0.0
 10
100.5198909830786
 20
76.235529751161
 30
0.0
 10
99.05297509170713
 20
76.10398607582945
 30
0.0
 10
97.71237127961511
 20
75.96563339808043
 30
0.0
 10
96.51894117036522
 20
75.82353456969189
 30
0.0
 10
95.48982916125901
 20
75.67884439020003
 30
0.0
 10
94.64604254232313
 20
75.5342723691573
 30
0.0
 10
93.98681035969533
 20
75.39133983130478
 30
0.0
 10
93.53867261874704
 20
75.25218495586277
 30
0.0
 10
93.30599851865884
 20
75.15654325380987
 30
0.0
 10
93.27519873033647
 20
75.10883902196029
 30
0.0
 10
93.27275012348082
 20
75.10504649884528
 30
0.0
  0
SPLINE
  5
AA
330
1F
100
AcDbEntity
  8
0
  6
Continuous
 62
     7
370
    15
100
AcDbSpline
210
0.0
220
0.0
230
1.0
 70
     8
 71
     3
 72
    35
 73
    31
 74
     0
 42
0.00000001
 43
0.00000001
 12
1.0
 22
0.0
 32
0.0
 13
1.0
 23
0.0
 33
0.0
 40
0.0
 40
0.0
 40
0.0
 40
0.0
 40
0.0330501806394932
 40
0.0663860641170555
 40
0.099909703180829
 40
0.1335197456667797
 40
0.1671132529637173
 40
0.1999917598199813
 40
0.2326601035043557
 40
0.2650267381354672
 40
0.2970052436947493
 40
0.3341563033170555
 40
0.3718116836653005
 40
0.4098342628739988
 40
0.4480784608296071
 40
0.4863934711801599
 40
0.5239460914680814
 40
0.5612772341657114
 40
0.5982492568301179
 40
0.6347324903145156
 40
0.6718835499368199
 40
0.7095389302850649
 40
0.7475615094937633
 40
0.7858057074493717
 40
0.8241207177999268
 40
0.8616733380878484
 40
0.8990044807854786
 40
0.9359765034498853
 40
0.9724597369342822
 40
0.9999999999999999
 40
0.9999999999999999
 40
0.9999999999999999
 40
0.9999999999999999
 10
99.20989803579377
 20
72.48631167592016
 30
0.0
 10
99.81321456261979
 20
72.52658198437815
 30
0.0
 10
101.025062996056
 20
72.60747071864762
 30
0.0
 10
102.9825916029978
 20
72.73210626369186
 30
0.0
 10
105.0356157070363
 20
72.85864474692787
 30
0.0
 10
107.1770154958836
 20
72.98621579949469
 30
0.0
 10
109.3716259309287
 20
73.11282616693224
 30
0.0
 10
111.5987752273033
 20
73.23739132203401
 30
0.0
 10
113.8372349379644
 20
73.35877294758733
 30
0.0
 10
116.080685533963
 20
73.47708061940314
 30
0.0
 10
118.4410346841966
 20
73.59679630164557
 30
0.0
 10
120.9247037663802
 20
73.72307877498876
 30
0.0
 10
123.5289103488997
 20
73.86141316133107
 30
0.0
 10
126.117882207197
 20
74.00351900924254
 30
0.0
 10
128.6604208134135
 20
74.14820326373038
 30
0.0
 10
131.1111788253307
 20
74.29279592811552
 30
0.0
 10
133.4432478090457
 20
74.43565750873294
 30
0.0
 10
135.6336108989194
 20
74.57507636240382
 30
0.0
 10
137.6746998151095
 20
74.71083299117781
 30
0.0
 10
139.5709083471282
 20
74.84152263772559
 30
0.0
 10
141.322043185522
 20
74.97306409155483
 30
0.0
 10
142.9223958849886
 20
75.11141718441888
 30
0.0
 10
144.3471874213451
 20
75.25351782875785
 30
0.0
 10
145.57531115419
 20
75.39820392391766
 30
0.0
 10
146.5840997820799
 20
75.54279448488064
 30
0.0
 10
147.3655926230614
 20
75.68566250412916
 30
0.0
 10
147.9207448390952
 20
75.82505797398758
 30
0.0
 10
148.2436096596642
 20
75.96090050238968
 30
0.0
 10
148.3633277106346
 20
76.07994412508037
 30
0.0
 10
148.275573663029
 20
76.15619569260157
 30
0.0
 10
148.2378254973341
 20
76.1889959665926
 30
0.0
  0
SPLINE
  5
AB
330
1F
100
AcDbEntity
  8
0
  6
Continuous
 62
     7
370
    15
100
AcDbSpline
210
0.0
220
0.0
230
1.0
 70
     8
 71
     3
 72
    44
 73
    40
 74
     0
 42
0.00000001
 43
0.00000001
 12
1.0
 22
0.0
 32
0.0
 13
1.0
 23
0.0
 33
0.0
 40
0.0
 40
0.0
 40
0.0
 40
0.0
 40
0.0269501181609653
 40
0.0542660806152914
 40
0.0818484164322726
 40
0.1095915188996973
 40
0.1373859900879728
 40
0.1646274083490477
 40
0.1917081623575007
 40
0.2185284035453843
 40
0.2449940673324905
 40
0.2719441854934558
 40
0.2992601479477821
 40
0.3268424837647632
 40
0.354585586232188
 40
0.3823800574204634
 40
0.4096214756815391
 40
0.436702229689992
 40
0.4635224708778757
 40
0.4899881346649811
 40
0.5169382528259464
 40
0.5442542152802725
 40
0.5718365510972536
 40
0.5995796535646785
 40
0.6273741247529546
 40
0.6546155430140304
 40
0.6816962970224832
 40
0.708516538210367
 40
0.7349822019974716
 40
0.7619323201584377
 40
0.7892482826127638
 40
0.8168306184297449
 40
0.8445737208971696
 40
0.8723681920854459
 40
0.8996096103465208
 40
0.9266903643549729
 40
0.9535106055428559
 40
0.9799762693299621
 40
1.0
 40
1.0
 40
1.0
 40
1.0
 10
88.3207894736842
 20
81.09074075773681
 30
0.0
 10
88.34237801588085
 20
81.134649176806
 30
0.0
 10
88.38584816188214
 20
81.223062065932
 30
0.0
 10
88.73975250779657
 20
81.3614177119985
 30
0.0
 10
89.31025668944265
 20
81.50351777696805
 30
0.0
 10
90.11687272358262
 20
81.64820359563984
 30
0.0
 10
91.14090230599452
 20
81.79279584105174
 30
0.0
 10
92.36722230049499
 20
81.93565753175214
 30
0.0
 10
93.77474080471592
 20
82.07507635619321
 30
0.0
 10
95.3508619913536
 20
82.21083299325588
 30
0.0
 10
97.09262507212163
 20
82.34152263551007
 30
0.0
 10
99.00200670904191
 20
82.47306409849989
 30
0.0
 10
101.084582014157
 20
82.61141715843401
 30
0.0
 10
103.3211510719187
 20
82.75351792686762
 30
0.0
 10
105.6886896594354
 20
82.89820355526513
 30
0.0
 10
108.1459153554724
 20
83.04279585164142
 30
0.0
 10
110.6620290999786
 20
83.18565752895627
 30
0.0
 10
113.206128055673
 20
83.32507635693278
 30
0.0
 10
115.763878523368
 20
83.46083299306156
 30
0.0
 10
118.3363139027851
 20
83.59152263556287
 30
0.0
 10
120.9246892682166
 20
83.72306409848547
 30
0.0
 10
123.5289142974359
 20
83.86141715843777
 30
0.0
 10
126.1178811379741
 20
84.00351792686722
 30
0.0
 10
128.6604211014028
 20
84.14820355526281
 30
0.0
 10
131.1111787497976
 20
84.29279585165106
 30
0.0
 10
133.4432478289803
 20
84.43565752892094
 30
0.0
 10
135.6336108936738
 20
84.5750763570635
 30
0.0
 10
137.6746998163868
 20
84.71083299258153
 30
0.0
 10
139.570908347155
 20
84.84152263734235
 30
0.0
 10
141.3220431840792
 20
84.97306409166674
 30
0.0
 10
142.9223958908383
 20
85.11141718436215
 30
0.0
 10
144.3471873991345
 20
85.25351782887242
 30
0.0
 10
145.5753112376811
 20
85.39820392351409
 30
0.0
 10
146.5840994725318
 20
85.54279448636977
 30
0.0
 10
147.3655937498558
 20
85.68566249871049
 30
0.0
 10
147.9207406756616
 20
85.82505799400879
 30
0.0
 10
148.2436249494125
 20
85.96090042886426
 30
0.0
 10
148.3633515566617
 20
86.08001825906229
 30
0.0
 10
148.275483036382
 20
86.15634462571302
 30
0.0
 10
148.2376366500179
 20
86.18921962068087
 30
0.0
  0
SPLINE
  5
AC
330
1F
100
AcDbEntity
  8
0
  6
Continuous
 62
     7
370
    15
100
AcDbSpline
210
0.0
220
0.0
230
1.0
 70
     8
 71
     3
 72
    44
 73
    40
 74
     0
 42
0.00000001
 43
0.00000001
 12
1.0
 22
0.0
 32
0.0
 13
1.0
 23
0.0
 33
0.0
 40
0.0
 40
0.0
 40
0.0
 40
0.0
 40
0.0269462874073534
 40
0.0542583671060935
 40
0.0818367823045481
 40
0.1095759413016939
 40
0.1373664617180187
 40
0.1646040078193965
 40
0.1916809125053489
 40
0.2184973414006412
 40
0.2449592432956266
 40
0.2719055307029801
 40
0.2992176104017202
 40
0.3267960256001748
 40
0.3545351845973206
 40
0.3823257050136463
 40
0.4095632511150237
 40
0.4366401558009756
 40
0.4634565846962675
 40
0.4899184865912533
 40
0.516864773998607
 40
0.544176853697347
 40
0.5717552688958016
 40
0.5994944278929475
 40
0.6272849483092726
 40
0.65452249441065
 40
0.6815993990966019
 40
0.7084158279918938
 40
0.7348777298868799
 40
0.7618240172942333
 40
0.7891360969929734
 40
0.816714512191428
 40
0.8444536711885738
 40
0.8722441916048991
 40
0.8994817377062765
 40
0.9265586423922283
 40
0.9533750712875203
 40
0.9798369731825065
 40
1.0
 40
1.0
 40
1.0
 40
1.0
 10
88.32078947368419
 20
91.09074075773682
 30
0.0
 10
88.34237801588083
 20
91.13464917680601
 30
0.0
 10
88.38584816188214
 20
91.22306206593201
 30
0.0
 10
88.73975250779658
 20
91.36141771199847
 30
0.0
 10
89.31025668944265
 20
91.50351777696808
 30
0.0
 10
90.11687272358262
 20
91.64820359563986
 30
0.0
 10
91.14090230599453
 20
91.79279584105177
 30
0.0
 10
92.36722230049502
 20
91.93565753175214
 30
0.0
 10
93.77474080471598
 20
92.07507635619321
 30
0.0
 10
95.35086199135363
 20
92.2108329932559
 30
0.0
 10
97.09262507212165
 20
92.34152263551009
 30
0.0
 10
99.00200670904191
 20
92.47306409849986
 30
0.0
 10
101.084582014157
 20
92.61141715843404
 30
0.0
 10
103.3211510719187
 20
92.7535179268676
 30
0.0
 10
105.6886896594354
 20
92.89820355526514
 30
0.0
 10
108.1459153554724
 20
93.04279585164142
 30
0.0
 10
110.6620290999786
 20
93.18565752895627
 30
0.0
 10
113.206128055673
 20
93.32507635693278
 30
0.0
 10
115.763878523368
 20
93.46083299306157
 30
0.0
 10
118.336313902785
 20
93.5915226355629
 30
0.0
 10
120.9246892682167
 20
93.72306409848545
 30
0.0
 10
123.5289142974358
 20
93.86141715843779
 30
0.0
 10
126.1178811379746
 20
94.00351792686723
 30
0.0
 10
128.6604211014009
 20
94.14820355526284
 30
0.0
 10
131.1111787498044
 20
94.29279585165104
 30
0.0
 10
133.4432478289553
 20
94.43565752892103
 30
0.0
 10
135.633610893766
 20
94.57507635706308
 30
0.0
 10
137.6746998160479
 20
94.71083299258316
 30
0.0
 10
139.5709083484107
 20
94.84152263733631
 30
0.0
 10
141.3220431792672
 20
94.9730640916899
 30
0.0
 10
142.922395909133
 20
95.11141718427419
 30
0.0
 10
144.3471873299797
 20
95.25351782920497
 30
0.0
 10
145.5753114975552
 20
95.39820392226444
 30
0.0
 10
146.5840985090558
 20
95.54279449100294
 30
0.0
 10
147.365597257025
 20
95.68566248184518
 30
0.0
 10
147.9207277168953
 20
95.82505805632495
 30
0.0
 10
148.243672539045
 20
95.96090020001502
 30
0.0
 10
148.3634262646181
 20
96.08025001044639
 30
0.0
 10
148.2751999177753
 20
96.15681020845533
 30
0.0
 10
148.2370462895227
 20
96.18991879152958
 30
0.0
  0
SPLINE
  5
AD
330
1F
100
AcDbEntity
  8
0
  6
Continuous
 62
     7
370
    15
100
AcDbSpline
210
0.0
220
0.0
230
1.0
 70
     8
 71
     3
 72
    44
 73
    40
 74
     0
 42
0.00000001
 43
0.00000001
 12
1.0
 22
0.0
 32
0.0
 13
1.0
 23
0.0
 33
0.0
 40
0.0
 40
0.0
 40
0.0
 40
0.0
 40
0.0269442432617186
 40
0.0542542510658171
 40
0.0818305741654163
 40
0.1095676288696806
 40
0.1373560410968467
 40
0.1645915209577017
 40
0.1916663715893908
 40
0.2184807661901161
 40
0.2449406606849575
 40
0.2718849039466762
 40
0.2991949117507747
 40
0.326771234850374
 40
0.3545082895546383
 40
0.3822967017818044
 40
0.4095321816426597
 40
0.4366070322743489
 40
0.463421426875074
 40
0.4898813213699151
 40
0.516825564631634
 40
0.5441355724357324
 40
0.5717118955353316
 40
0.5994489502395959
 40
0.627237362466762
 40
0.654472842327617
 40
0.681547692959306
 40
0.708362087560031
 40
0.7348219820548726
 40
0.7617662253165912
 40
0.7890762331206898
 40
0.8166525562202891
 40
0.8443896109245533
 40
0.8721780231517196
 40
0.8994135030125747
 40
0.9264883536442637
 40
0.9533027482449888
 40
0.9797626427398304
 40
1.0
 40
1.0
 40
1.0
 40
1.0
 10
88.3207894736842
 20
101.0907407577368
 30
0.0
 10
88.34237801588085
 20
101.134649176806
 30
0.0
 10
88.38584816188215
 20
101.223062065932
 30
0.0
 10
88.73975250779657
 20
101.3614177119985
 30
0.0
 10
89.31025668944265
 20
101.5035177769681
 30
0.0
 10
90.11687272358263
 20
101.6482035956398
 30
0.0
 10
91.14090230599452
 20
101.7927958410518
 30
0.0
 10
92.36722230049502
 20
101.9356575317521
 30
0.0
 10
93.77474080471593
 20
102.0750763561932
 30
0.0
 10
95.35086199135361
 20
102.2108329932559
 30
0.0
 10
97.09262507212162
 20
102.34152263551
 30
0.0
 10
99.00200670904191
 20
102.4730640984999
 30
0.0
 10
101.084582014157
 20
102.611417158434
 30
0.0
 10
103.3211510719187
 20
102.7535179268676
 30
0.0
 10
105.6886896594354
 20
102.8982035552651
 30
0.0
 10
108.1459153554724
 20
103.0427958516414
 30
0.0
 10
110.6620290999786
 20
103.1856575289563
 30
0.0
 10
113.206128055673
 20
103.3250763569328
 30
0.0
 10
115.763878523368
 20
103.4608329930615
 30
0.0
 10
118.336313902785
 20
103.5915226355629
 30
0.0
 10
120.9246892682167
 20
103.7230640984854
 30
0.0
 10
123.5289142974357
 20
103.8614171584378
 30
0.0
 10
126.1178811379748
 20
104.0035179268672
 30
0.0
 10
128.6604211014
 20
104.1482035552628
 30
0.0
 10
131.111178749808
 20
104.292795851651
 30
0.0
 10
133.443247828942
 20
104.4356575289211
 30
0.0
 10
135.633610893815
 20
104.5750763570628
 30
0.0
 10
137.674699815868
 20
104.710832992584
 30
0.0
 10
139.5709083490776
 20
104.8415226373331
 30
0.0
 10
141.3220431767119
 20
104.9730640917021
 30
0.0
 10
142.9223959188483
 20
105.1114171842275
 30
0.0
 10
144.347187293256
 20
105.2535178293816
 30
0.0
 10
145.5753116355577
 20
105.3982039216008
 30
0.0
 10
146.5840979974154
 20
105.5427944934633
 30
0.0
 10
147.3655991194583
 20
105.6856624728891
 30
0.0
 10
147.9207208353234
 20
105.8250580894171
 30
0.0
 10
148.2436978108551
 20
105.9609000784878
 30
0.0
 10
148.3634662385861
 20
106.0803737028259
 30
0.0
 10
148.2750489268155
 20
106.1570587037546
 30
0.0
 10
148.2367311959204
 20
106.1902919605731
 30
0.0
  0
SPLINE
  5
AE
330
1F
100
AcDbEntity
  8
0
  6
Continuous
 62
     7
370
    15
100
AcDbSpline
210
0.0
220
0.0
230
1.0
 70
    24
 71
     3
 72
    18
 73
    14
 74
     0
 42
0.00000001
 43
0.00000001
 12
1.0
 22
0.0
 32
0.0
 13
1.0
 23
0.0
 33
0.0
 40
0.0
 40
0.0
 40
0.0
 40
0.0
 40
0.0183944440009551
 40
0.1153918188824112
 40
0.213008668429434
 40
0.3125717294818056
 40
0.4128054379237092
 40
0.5138804815109417
 40
0.6156572023903023
 40
0.7196459690438434
 40
0.8243985890262623
 40
0.9119865775415533
 40
1.0
 40
1.0
 40
1.0
 40
1.0
 10
90.0153251855631
 20
72.48631167592016
 30
0.0
 10
90.01090379047322
 20
72.48631167592016
 30
0.0
 10
89.98316754460512
 20
72.48631167592015
 30
0.0
 10
90.11290334900501
 20
72.48631167592015
 30
0.0
 10
90.4140725869143
 20
72.48631167592043
 30
0.0
 10
90.92307998229124
 20
72.48631167592012
 30
0.0
 10
91.6220377771974
 20
72.4863116759202
 30
0.0
 10
92.51411813125213
 20
72.4863116759202
 30
0.0
 10
93.60132673831609
 20
72.48631167592012
 30
0.0
 10
94.88248037109797
 20
72.4863116759202
 30
0.0
 10
96.27382121447411
 20
72.48631167592019
 30
0.0
 10
97.71969767106408
 20
72.4863116759202
 30
0.0
 10
98.71236292921023
 20
72.48631167592018
 30
0.0
 10
99.20989803579377
 20
72.48631167592015
 30
0.0
  0
LINE
  5
AF
330
1F
100
AcDbEntity
  8
0
  6
Continuous
 62
     7
370
    15
100
AcDbLine
 10
137.4316809116
 20
72.4863116759
 30
0.0
 11
99.2098980358
 21
72.4863116759
 31
0.0
  0
LINE
  5
B0
330
1F
100
AcDbEntity
  8
0
  6
Continuous
 62
     7
370
    15
100
AcDbLine
 10
114.3207894737
 20
117.4863116759
 30
0.0
 11
88.3207894737
 21
117.4863116759
 31
0.0
  0
LINE
  5
B1
330
1F
100
AcDbEntity
  8
0
  6
Continuous
 62
     7
370
    15
100
AcDbLine
 10
114.3207894737
 20
117.4863116759
 30
0.0
 11
114.3207894737
 21
111.1751176617
 31
0.0
  0
LINE
  5
B2
330
1F
100
AcDbEntity
  8
0
  6
Continuous
 62
     7
370
    15
100
AcDbLine
 10
148.3207894737
 20
117.4863116759
 30
0.0
 11
122.3207894737
 21
117.4863116759
 31
0.0
  0
LINE
  5
B3
330
1F
100
AcDbEntity
  8
0
  6
Continuous
 62
     7
370
    15
100
AcDbLine
 10
122.3207894737
 20
111.5886475265
 30
0.0
 11
122.3207894737
 21
117.4863116759
 31
0.0
  0
DIMENSION
  5
B4
330
1F
100
AcDbEntity
  8
0
  6
Continuous
 62
     7
370
     0
100
AcDbDimension
  2
_D
 10
122.3207894737
 20
140.5278947368
 30
0.0
 11
119.4596616541
 21
140.5278947368
 31
0.0
 70
   160
  1
<>
 71
     2
 42
-1.0
  3
SLDDIMSTYLE0
100
AcDbAlignedDimension
 13
114.3207894737
 23
117.4863116759
 33
0.0
 14
122.3207894737
 24
117.4863116759
 34
0.0
100
AcDbRotatedDimension
  0
DIMENSION
  5
C1
330
1F
100
AcDbEntity
  8
0
  6
Continuous
 62
     7
370
     0
100
AcDbDimension
  2
_D_1
 10
72.7659022556
 20
117.4863116759
 30
0.0
 11
72.7659022556
 21
112.9102443609
 31
0.0
 70
   160
  1
<>
 71
     2
 42
-1.0
  3
SLDDIMSTYLE0
100
AcDbAlignedDimension
 13
114.3207894737
 23
109.4863116759
 33
0.0
 14
88.3207894737
 24
117.4863116759
 34
0.0
 50
90.0
100
AcDbRotatedDimension
  0
INSERT
  5
D7
330
1F
100
AcDbEntity
  8
0
  6
Continuous
 62
     7
370
     0
100
AcDbBlockReference
  2
SW_NOTE_0
 10
167.5751879699
 20
124.3448590226
 30
0.0
  0
LEADER
  5
E1
330
1F
100
AcDbEntity
  8
0
  6
Continuous
 62
     7
370
     0
100
AcDbLeader
  3
SLDDIMSTYLE1
 76
     2
 10
145.3690037594
 20
107.2158834618
 30
0.0
 10
167.5751879699
 20
124.3448590226
 30
0.0
  0
ARC
  5
E2
330
1F
100
AcDbEntity
  8
0
  6
Continuous
 62
     7
370
    15
100
AcDbCircle
 10
118.3207894737
 20
199.1747157063
 30
0.0
 40
18.00000000000002
100
AcDbArc
 50
102.8395884069
 51
257.1604115931
  0
LINE
  5
E3
330
1F
100
AcDbEntity
  8
0
  6
Continuous
 62
     7
370
    15
100
AcDbLine
 10
114.3207894737
 20
181.6247869316
 30
0.0
 11
114.3207894737
 21
169.4425782117
 31
0.0
  0
LINE
  5
E4
330
1F
100
AcDbEntity
  8
0
  6
Continuous
 62
     7
370
    15
100
AcDbLine
 10
97.2362537673
 20
220.2592514127
 30
0.0
 11
97.1075860381
 21
220.3879191419
 31
0.0
  0
LINE
  5
E5
330
1F
100
AcDbEntity
  8
0
  6
Continuous
 62
     7
370
    15
100
AcDbLine
 10
114.3207894737
 20
228.906853201
 30
0.0
 11
114.3207894737
 21
216.7246444811
 31
0.0
  0
ARC
  5
E6
330
1F
100
AcDbEntity
  8
0
  6
Continuous
 62
     7
370
    15
100
AcDbCircle
 10
118.3207894737
 20
199.1747157063
 30
0.0
 40
30.00000000000001
100
AcDbArc
 50
135.0
 51
262.3377443392
  0
ARC
  5
E7
330
1F
100
AcDbEntity
  8
0
  6
Continuous
 62
     7
370
    15
100
AcDbCircle
 10
118.3207894737
 20
199.1747157063
 30
0.0
 40
30.0
100
AcDbArc
 50
97.6622556608
 51
129.5706876891
  0
SPLINE
  5
E8
330
1F
100
AcDbEntity
  8
0
  6
Continuous
 62
     7
370
    15
100
AcDbSpline
210
0.0
220
0.0
230
1.0
 70
     8
 71
     3
 72
     8
 73
     4
 74
     0
 42
0.00000001
 43
0.00000001
 12
1.0
 22
0.0
 32
0.0
 13
1.0
 23
0.0
 33
0.0
 40
0.0
 40
0.0
 40
0.0
 40
0.0
 40
1.0
 40
1.0
 40
1.0
 40
1.0
 10
97.23625376732718
 20
220.259251412706
 30
0.0
 10
97.8634488830532
 20
220.9711492574111
 30
0.0
 10
98.52141984425785
 20
221.6512706963045
 30
0.0
 10
99.20989803579317
 20
222.2998930775406
 30
0.0
  0
ARC
  5
E9
330
1F
100
AcDbEntity
  8
0
  6
Continuous
 62
     7
370
    15
100
AcDbCircle
 10
118.3207894737
 20
199.1747157063
 30
0.0
 40
17.99999999999999
100
AcDbArc
 50
282.8395884069
 51
77.1604115931
  0
LINE
  5
EA
330
1F
100
AcDbEntity
  8
0
  6
Continuous
 62
     7
370
    15
100
AcDbLine
 10
122.3207894737
 20
216.7246444811
 30
0.0
 11
122.3207894737
 21
228.906853201
 31
0.0
  0
LINE
  5
EB
330
1F
100
AcDbEntity
  8
0
  6
Continuous
 62
     7
370
    15
100
AcDbLine
 10
122.3207894737
 20
169.4425782117
 30
0.0
 11
122.3207894737
 21
181.6247869316
 31
0.0
  0
ARC
  5
EC
330
1F
100
AcDbEntity
  8
0
  6
Continuous
 62
     7
370
    15
100
AcDbCircle
 10
118.3207894737
 20
199.1747157063
 30
0.0
 40
30.0
100
AcDbArc
 50
277.6622556608
 51
82.3377443392
  0
ARC
  5
ED
330
1F
100
AcDbEntity
  8
0
  6
Continuous
 62
     7
370
    15
100
AcDbCircle
 10
118.3207894737
 20
199.1747157063
 30
0.0
 40
16.00000000000001
100
AcDbArc
 50
284.4775121859
 51
75.5224878141
  0
SPLINE
  5
EE
330
1F
100
AcDbEntity
  8
0
  6
Continuous
 62
     7
370
    15
100
AcDbSpline
210
0.0
220
0.0
230
1.0
 70
    24
 71
     3
 72
     8
 73
     4
 74
     0
 42
0.00000001
 43
0.00000001
 12
1.0
 22
0.0
 32
0.0
 13
1.0
 23
0.0
 33
0.0
 40
0.0
 40
0.0
 40
0.0
 40
0.0
 40
1.0
 40
1.0
 40
1.0
 40
1.0
 10
122.3207894736842
 20
181.6247869315632
 30
0.0
 10
122.3207894736842
 20
182.3096989094003
 30
0.0
 10
122.3207894736842
 20
182.9955574344079
 30
0.0
 10
122.3207894736842
 20
183.6827823215178
 30
0.0
  0
SPLINE
  5
EF
330
1F
100
AcDbEntity
  8
0
  6
Continuous
 62
     7
370
    15
100
AcDbSpline
210
0.0
220
0.0
230
1.0
 70
    24
 71
     3
 72
     8
 73
     4
 74
     0
 42
0.00000001
 43
0.00000001
 12
1.0
 22
0.0
 32
0.0
 13
1.0
 23
0.0
 33
0.0
 40
0.0
 40
0.0
 40
0.0
 40
0.0
 40
1.0
 40
1.0
 40
1.0
 40
1.0
 10
122.3207894736842
 20
214.6666490911772
 30
0.0
 10
122.3207894736842
 20
215.3538827539032
 30
0.0
 10
122.3207894736842
 20
216.0397402512374
 30
0.0
 10
122.3207894736842
 20
216.7246444811317
 30
0.0
  0
ARC
  5
F0
330
1F
100
AcDbEntity
  8
0
  6
Continuous
 62
     7
370
    15
100
AcDbCircle
 10
118.3207894737
 20
199.1747157063
 30
0.0
 40
16.00000000000001
100
AcDbArc
 50
104.4775121859
 51
255.5224878141
  0
SPLINE
  5
F1
330
1F
100
AcDbEntity
  8
0
  6
Continuous
 62
     7
370
    15
100
AcDbSpline
210
0.0
220
0.0
230
1.0
 70
    24
 71
     3
 72
     8
 73
     4
 74
     0
 42
0.00000001
 43
0.00000001
 12
1.0
 22
0.0
 32
0.0
 13
1.0
 23
0.0
 33
0.0
 40
0.0
 40
0.0
 40
0.0
 40
0.0
 40
1.0
 40
1.0
 40
1.0
 40
1.0
 10
114.3207894736842
 20
183.6827823215178
 30
0.0
 10
114.3207894736842
 20
182.9955486587917
 30
0.0
 10
114.3207894736842
 20
182.3096911614576
 30
0.0
 10
114.3207894736842
 20
181.6247869315632
 30
0.0
  0
SPLINE
  5
F2
330
1F
100
AcDbEntity
  8
0
  6
Continuous
 62
     7
370
    15
100
AcDbSpline
210
0.0
220
0.0
230
1.0
 70
    24
 71
     3
 72
     8
 73
     4
 74
     0
 42
0.00000001
 43
0.00000001
 12
1.0
 22
0.0
 32
0.0
 13
1.0
 23
0.0
 33
0.0
 40
0.0
 40
0.0
 40
0.0
 40
0.0
 40
1.0
 40
1.0
 40
1.0
 40
1.0
 10
114.3207894736842
 20
216.7246444811317
 30
0.0
 10
114.3207894736842
 20
216.0397325032947
 30
0.0
 10
114.3207894736842
 20
215.3538739782871
 30
0.0
 10
114.3207894736842
 20
214.6666490911772
 30
0.0
  0
SPLINE
  5
F3
330
1F
100
AcDbEntity
  8
0
  6
Continuous
 62
     7
370
    15
100
AcDbSpline
210
0.0
220
0.0
230
1.0
 70
     8
 71
     3
 72
     8
 73
     4
 74
     0
 42
0.00000001
 43
0.00000001
 12
1.0
 22
0.0
 32
0.0
 13
1.0
 23
0.0
 33
0.0
 40
0.0
 40
0.0
 40
0.0
 40
0.0
 40
1.0
 40
1.0
 40
1.0
 40
1.0
 10
122.3207894736842
 20
227.5028610494013
 30
0.0
 10
119.6799012853159
 20
228.0637102725159
 30
0.0
 10
117.012540710693
 20
228.2344332995263
 30
0.0
 10
114.3207894736842
 20
228.0457087026754
 30
0.0
  0
SPLINE
  5
F4
330
1F
100
AcDbEntity
  8
0
  6
Continuous
 62
     7
370
    15
100
AcDbSpline
210
0.0
220
0.0
230
1.0
 70
     8
 71
     3
 72
    11
 73
     7
 74
     0
 42
0.00000001
 43
0.00000001
 12
1.0
 22
0.0
 32
0.0
 13
1.0
 23
0.0
 33
0.0
 40
0.0
 40
0.0
 40
0.0
 40
0.0
 40
0.2159380314786657
 40
0.4938235789318618
 40
0.776795825512607
 40
0.9999999999999999
 40
0.9999999999999999
 40
0.9999999999999999
 40
0.9999999999999999
 10
122.8244250454534
 20
228.8146926839814
 30
0.0
 10
122.1717541496861
 20
228.9094290759826
 30
0.0
 10
120.6791765087516
 20
229.1260794910706
 30
0.0
 10
118.3052648622214
 20
229.2026782335066
 30
0.0
 10
115.9090309452749
 20
229.1236115579881
 30
0.0
 10
114.3797049092933
 20
228.8972697403632
 30
0.0
 10
113.7053314276857
 20
228.7974617752898
 30
0.0
  0
SPLINE
  5
F5
330
1F
100
AcDbEntity
  8
0
  6
Continuous
 62
     7
370
    15
100
AcDbSpline
210
0.0
220
0.0
230
1.0
 70
     8
 71
     3
 72
     9
 73
     5
 74
     0
 42
0.00000001
 43
0.00000001
 12
1.0
 22
0.0
 32
0.0
 13
1.0
 23
0.0
 33
0.0
 40
0.0
 40
0.0
 40
0.0
 40
0.0
 40
0.0793742623103812
 40
1.0
 40
1.0
 40
1.0
 40
1.0
 10
99.15533264183163
 20
222.2434754048347
 30
0.0
 10
99.09729259156389
 20
222.1989698479752
 30
0.0
 10
98.36607256408472
 20
221.6382647079965
 30
0.0
 10
97.71082438048491
 20
220.9872552262867
 30
0.0
 10
97.10758603808853
 20
220.3879191419447
 30
0.0
  0
ARC
  5
F6
330
1F
100
AcDbEntity
  8
0
  6
Continuous
 62
     7
370
    15
100
AcDbCircle
 10
118.3207894737
 20
199.1747157063
 30
0.0
 40
16.00000000000001
100
AcDbArc
 50
75.5224878141
 51
104.4775121859
  0
ARC
  5
F7
330
1F
100
AcDbEntity
  8
0
  6
Continuous
 62
     7
370
    15
100
AcDbCircle
 10
118.3207894737
 20
199.1747157063
 30
0.0
 40
15.99999999999998
100
AcDbArc
 50
255.5224878141
 51
284.4775121859
  0
SPLINE
  5
F8
330
1F
100
AcDbEntity
  8
0
  6
Continuous
 62
     7
370
    15
100
AcDbSpline
210
0.0
220
0.0
230
1.0
 70
     8
 71
     3
 72
     8
 73
     4
 74
     0
 42
0.00000001
 43
0.00000001
 12
1.0
 22
0.0
 32
0.0
 13
1.0
 23
0.0
 33
0.0
 40
0.0
 40
0.0
 40
0.0
 40
0.0
 40
1.0
 40
1.0
 40
1.0
 40
1.0
 10
114.3207894736842
 20
171.5539249291849
 30
0.0
 10
117.0149436894276
 20
171.3567877708316
 30
0.0
 10
119.6824064223027
 20
171.5351449666273
 30
0.0
 10
122.3207894736842
 20
172.1225935671709
 30
0.0
  0
LINE
  5
F9
330
1F
100
AcDbEntity
  8
0
  6
Continuous
 62
     7
370
    15
100
AcDbLine
 10
330.1096576331
 20
226.3256968472
 30
0.0
 11
330.1096576331
 21
228.1293196855
 31
0.0
  0
LINE
  5
FA
330
1F
100
AcDbEntity
  8
0
  6
Continuous
 62
     7
370
    15
100
AcDbLine
 10
330.1096576331
 20
218.1602887284
 30
0.0
 11
330.1096576331
 21
219.9639115666
 31
0.0
  0
LINE
  5
FB
330
1F
100
AcDbEntity
  8
0
  6
Continuous
 62
     7
370
    15
100
AcDbLine
 10
330.1096576331
 20
209.9948806095
 30
0.0
 11
330.1096576331
 21
211.7985034478
 31
0.0
  0
LINE
  5
FC
330
1F
100
AcDbEntity
  8
0
  6
Continuous
 62
     7
370
    15
100
AcDbLine
 10
330.1096576331
 20
201.8294724907
 30
0.0
 11
330.1096576331
 21
203.6330953289
 31
0.0
  0
LINE
  5
FD
330
1F
100
AcDbEntity
  8
0
  6
Continuous
 62
     7
370
    15
100
AcDbLine
 10
270.1096576331
 20
207.7157993884
 30
0.0
 11
270.1096576331
 21
205.9121765501
 31
0.0
  0
LINE
  5
FE
330
1F
100
AcDbEntity
  8
0
  6
Continuous
 62
     7
370
    15
100
AcDbLine
 10
270.1096576331
 20
215.8812075072
 30
0.0
 11
270.1096576331
 21
214.0775846689
 31
0.0
  0
LINE
  5
FF
330
1F
100
AcDbEntity
  8
0
  6
Continuous
 62
     7
370
    15
100
AcDbLine
 10
270.1096576331
 20
224.0466156261
 30
0.0
 11
270.1096576331
 21
222.2429927878
 31
0.0
  0
LINE
  5
100
330
1F
100
AcDbEntity
  8
0
  6
Continuous
 62
     7
370
    15
100
AcDbLine
 10
270.1096576331
 20
236.4135924001
 30
0.0
 11
270.1096576331
 21
230.4084009067
 31
0.0
  0
LINE
  5
101
330
1F
100
AcDbEntity
  8
0
  6
Continuous
 62
     7
370
    15
100
AcDbLine
 10
330.1096576331
 20
234.4911049661
 30
0.0
 11
330.1096576331
 21
236.4135924001
 31
0.0
  0
SPLINE
  5
102
330
1F
100
AcDbEntity
  8
0
  6
Continuous
 62
     7
370
    15
100
AcDbSpline
210
0.0
220
0.0
230
1.0
 70
     8
 71
     3
 72
     9
 73
     5
 74
     0
 42
0.00000001
 43
0.00000001
 12
1.0
 22
0.0
 32
0.0
 13
1.0
 23
0.0
 33
0.0
 40
0.0
 40
0.0
 40
0.0
 40
0.0
 40
0.4894732516433146
 40
1.0
 40
1.0
 40
1.0
 40
1.0
 10
284.2200503169074
 20
192.533592255665
 30
0.0
 10
284.5877336228123
 20
192.4200035066941
 30
0.0
 10
285.3389152342087
 20
192.1879402660787
 30
0.0
 10
286.1019029339572
 20
191.9514934109689
 30
0.0
 10
286.4914285633459
 20
191.8307809668705
 30
0.0
  0
SPLINE
  5
103
330
1F
100
AcDbEntity
  8
0
  6
Continuous
 62
     7
370
    15
100
AcDbSpline
210
0.0
220
0.0
230
1.0
 70
     8
 71
     3
 72
     9
 73
     5
 74
     0
 42
0.00000001
 43
0.00000001
 12
1.0
 22
0.0
 32
0.0
 13
1.0
 23
0.0
 33
0.0
 40
0.0
 40
0.0
 40
0.0
 40
0.0
 40
0.5000921656692536
 40
1.0
 40
1.0
 40
1.0
 40
1.0
 10
284.220843825466
 20
200.6987553592271
 30
0.0
 10
284.591527972989
 20
200.5842421893277
 30
0.0
 10
285.3327596358105
 20
200.3552580584802
 30
0.0
 10
286.1051868030289
 20
200.1158845782446
 30
0.0
 10
286.4913291953713
 20
199.9962199001438
 30
0.0
  0
SPLINE
  5
104
330
1F
100
AcDbEntity
  8
0
  6
Continuous
 62
     7
370
    15
100
AcDbSpline
210
0.0
220
0.0
230
1.0
 70
     8
 71
     3
 72
     9
 73
     5
 74
     0
 42
0.00000001
 43
0.00000001
 12
1.0
 22
0.0
 32
0.0
 13
1.0
 23
0.0
 33
0.0
 40
0.0
 40
0.0
 40
0.0
 40
0.0
 40
0.5624448490224986
 40
1.0
 40
1.0
 40
1.0
 40
1.0
 10
284.218759679275
 20
208.8648070506709
 30
0.0
 10
284.6412515570095
 20
208.7342796591278
 30
0.0
 10
285.3924218779199
 20
208.5022082093314
 30
0.0
 10
286.1583336284218
 20
208.2648318685257
 30
0.0
 10
286.493462260048
 20
208.160966627886
 30
0.0
  0
SPLINE
  5
105
330
1F
100
AcDbEntity
  8
0
  6
Continuous
 62
     7
370
    15
100
AcDbSpline
210
0.0
220
0.0
230
1.0
 70
     8
 71
     3
 72
     9
 73
     5
 74
     0
 42
0.00000001
 43
0.00000001
 12
1.0
 22
0.0
 32
0.0
 13
1.0
 23
0.0
 33
0.0
 40
0.0
 40
0.0
 40
0.0
 40
0.0
 40
0.4375710907577716
 40
1.0
 40
1.0
 40
1.0
 40
1.0
 10
284.2220662502792
 20
217.029194180903
 30
0.0
 10
284.546378176221
 20
216.929010239686
 30
0.0
 10
285.2875421442977
 20
216.7000555776139
 30
0.0
 10
286.0576846307111
 20
216.4614103572434
 30
0.0
 10
286.4908350293056
 20
216.3271893862544
 30
0.0
  0
SPLINE
  5
106
330
1F
100
AcDbEntity
  8
0
  6
Continuous
 62
     7
370
    15
100
AcDbSpline
210
0.0
220
0.0
230
1.0
 70
     8
 71
     3
 72
     9
 73
     5
 74
     0
 42
0.00000001
 43
0.00000001
 12
1.0
 22
0.0
 32
0.0
 13
1.0
 23
0.0
 33
0.0
 40
0.0
 40
0.0
 40
0.0
 40
0.0
 40
0.5343259681342576
 40
1.0
 40
1.0
 40
1.0
 40
1.0
 10
310.1748179315118
 20
216.5119163999053
 30
0.0
 10
310.5729358721578
 20
216.6353445272171
 30
0.0
 10
311.3180202670567
 20
216.8663423350584
 30
0.0
 10
312.0793955348026
 20
217.1016230872748
 30
0.0
 10
312.4339482254967
 20
217.2111872237799
 30
0.0
  0
SPLINE
  5
107
330
1F
100
AcDbEntity
  8
0
  6
Continuous
 62
     7
370
    15
100
AcDbSpline
210
0.0
220
0.0
230
1.0
 70
     8
 71
     3
 72
     9
 73
     5
 74
     0
 42
0.00000001
 43
0.00000001
 12
1.0
 22
0.0
 32
0.0
 13
1.0
 23
0.0
 33
0.0
 40
0.0
 40
0.0
 40
0.0
 40
0.0
 40
0.4999444565997034
 40
1.0
 40
1.0
 40
1.0
 40
1.0
 10
310.1735971560418
 20
208.3461295724726
 30
0.0
 10
310.5444630330818
 20
208.4611160130373
 30
0.0
 10
311.2862771929234
 20
208.6911144439564
 30
0.0
 10
312.0528277504882
 20
208.9280012656006
 30
0.0
 10
312.4361456060952
 20
209.0464578339223
 30
0.0
  0
SPLINE
  5
108
330
1F
100
AcDbEntity
  8
0
  6
Continuous
 62
     7
370
    15
100
AcDbSpline
210
0.0
220
0.0
230
1.0
 70
     8
 71
     3
 72
     9
 73
     5
 74
     0
 42
0.00000001
 43
0.00000001
 12
1.0
 22
0.0
 32
0.0
 13
1.0
 23
0.0
 33
0.0
 40
0.0
 40
0.0
 40
0.0
 40
0.0
 40
0.4999465886222139
 40
1.0
 40
1.0
 40
1.0
 40
1.0
 10
310.1758101056288
 20
200.181407988061
 30
0.0
 10
310.5458525881938
 20
200.2961387970504
 30
0.0
 10
311.2860166196853
 20
200.5256249293702
 30
0.0
 10
312.0504480528632
 20
200.7618578377069
 30
0.0
 10
312.4327045987882
 20
200.8799869094003
 30
0.0
  0
SPLINE
  5
109
330
1F
100
AcDbEntity
  8
0
  6
Continuous
 62
     7
370
    15
100
AcDbSpline
210
0.0
220
0.0
230
1.0
 70
     8
 71
     3
 72
     9
 73
     5
 74
     0
 42
0.00000001
 43
0.00000001
 12
1.0
 22
0.0
 32
0.0
 13
1.0
 23
0.0
 33
0.0
 40
0.0
 40
0.0
 40
0.0
 40
0.0
 40
0.4375910822723555
 40
0.9999999999999999
 40
0.9999999999999999
 40
0.9999999999999999
 40
0.9999999999999999
 10
310.1732402422545
 20
192.0152026217792
 30
0.0
 10
310.5018491930472
 20
192.1170930734241
 30
0.0
 10
311.2527990275055
 20
192.349937058991
 30
0.0
 10
312.0098593265574
 20
192.5839010093001
 30
0.0
 10
312.4356367900018
 20
192.7154844213807
 30
0.0
  0
LINE
  5
10A
330
1F
100
AcDbEntity
  8
0
  6
Continuous
 62
     7
370
    15
100
AcDbLine
 10
311.9521324021
 20
184.4005792047
 30
0.0
 11
312.4353471866
 21
184.5499868462
 31
0.0
  0
SPLINE
  5
10B
330
1F
100
AcDbEntity
  8
0
  6
Continuous
 62
     7
370
    15
100
AcDbSpline
210
0.0
220
0.0
230
1.0
 70
     8
 71
     3
 72
    10
 73
     6
 74
     0
 42
0.00000001
 43
0.00000001
 12
1.0
 22
0.0
 32
0.0
 13
1.0
 23
0.0
 33
0.0
 40
0.0
 40
0.0
 40
0.0
 40
0.0
 40
0.5
 40
0.5
 40
1.0
 40
1.0
 40
1.0
 40
1.0
 10
276.2574344667001
 20
220.7562820232013
 30
0.0
 10
274.2945344679559
 20
222.1026656182523
 30
0.0
 10
272.717469586653
 20
223.6600143614309
 30
0.0
 10
270.6241684933536
 20
226.9664394519762
 30
0.0
 10
270.1096576331284
 20
228.7107422140244
 30
0.0
 10
270.1096576331286
 20
230.4084009066529
 30
0.0
  0
SPLINE
  5
10C
330
1F
100
AcDbEntity
  8
0
  6
Continuous
 62
     7
370
    15
100
AcDbSpline
210
0.0
220
0.0
230
1.0
 70
     8
 71
     3
 72
    22
 73
    18
 74
     0
 42
0.00000001
 43
0.00000001
 12
1.0
 22
0.0
 32
0.0
 13
1.0
 23
0.0
 33
0.0
 40
0.0
 40
0.0
 40
0.0
 40
0.0
 40
0.125
 40
0.125
 40
0.25
 40
0.25
 40
0.375
 40
0.375
 40
0.5
 40
0.5
 40
0.625
 40
0.625
 40
0.75
 40
0.75
 40
0.875
 40
0.875
 40
1.0
 40
1.0
 40
1.0
 40
1.0
 10
330.1096576331286
 20
226.3256968472229
 30
0.0
 10
330.1096576331284
 20
223.9593488027501
 30
0.0
 10
329.3484529582412
 20
221.4864244682682
 30
0.0
 10
326.3036342586923
 20
216.8891866239353
 30
0.0
 10
324.0288415694553
 20
214.7781920604822
 30
0.0
 10
318.6168805679931
 20
211.3396062495683
 30
0.0
 10
315.2655819037889
 20
209.8500653574504
 30
0.0
 10
307.9147393043715
 20
207.7386421984585
 30
0.0
 10
303.9364919567784
 20
207.1228770681847
 30
0.0
 10
296.2828233094766
 20
206.808549841701
 30
0.0
 10
292.3045759618834
 20
207.0716529218161
 30
0.0
 10
284.9537333624663
 20
208.4757026043794
 30
0.0
 10
281.6024346982622
 20
209.6125814463386
 30
0.0
 10
276.1904736968005
 20
212.422512804285
 30
0.0
 10
273.9156810075637
 20
214.1808453175793
 30
0.0
 10
270.8708623080154
 20
218.0707096854835
 30
0.0
 10
270.1096576331284
 20
220.1909719698065
 30
0.0
 10
270.1096576331286
 20
222.2429927877954
 30
0.0
  0
SPLINE
  5
10D
330
1F
100
AcDbEntity
  8
0
  6
Continuous
 62
     7
370
    15
100
AcDbSpline
210
0.0
220
0.0
230
1.0
 70
     8
 71
     3
 72
    22
 73
    18
 74
     0
 42
0.00000001
 43
0.00000001
 12
1.0
 22
0.0
 32
0.0
 13
1.0
 23
0.0
 33
0.0
 40
0.0
 40
0.0
 40
0.0
 40
0.0
 40
0.125
 40
0.125
 40
0.25
 40
0.25
 40
0.375
 40
0.375
 40
0.5
 40
0.5
 40
0.625
 40
0.625
 40
0.75
 40
0.75
 40
0.875
 40
0.875
 40
1.0
 40
1.0
 40
1.0
 40
1.0
 10
330.1096576331286
 20
218.1602887283654
 30
0.0
 10
330.1096576331284
 20
215.7939406838926
 30
0.0
 10
329.3484529582412
 20
213.3210163494107
 30
0.0
 10
326.3036342586923
 20
208.7237785050778
 30
0.0
 10
324.0288415694553
 20
206.6127839416247
 30
0.0
 10
318.6168805679931
 20
203.1741981307108
 30
0.0
 10
315.2655819037889
 20
201.6846572385929
 30
0.0
 10
307.9147393043716
 20
199.573234079601
 30
0.0
 10
303.9364919567784
 20
198.9574689493273
 30
0.0
 10
296.2828233094766
 20
198.6431417228435
 30
0.0
 10
292.3045759618834
 20
198.9062448029586
 30
0.0
 10
284.9537333624662
 20
200.310294485522
 30
0.0
 10
281.6024346982622
 20
201.4471733274811
 30
0.0
 10
276.1904736968005
 20
204.2571046854275
 30
0.0
 10
273.9156810075637
 20
206.0154371987218
 30
0.0
 10
270.8708623080154
 20
209.905301566626
 30
0.0
 10
270.1096576331284
 20
212.025563850949
 30
0.0
 10
270.1096576331286
 20
214.0775846689379
 30
0.0
  0
SPLINE
  5
10E
330
1F
100
AcDbEntity
  8
0
  6
Continuous
 62
     7
370
    15
100
AcDbSpline
210
0.0
220
0.0
230
1.0
 70
     8
 71
     3
 72
    22
 73
    18
 74
     0
 42
0.00000001
 43
0.00000001
 12
1.0
 22
0.0
 32
0.0
 13
1.0
 23
0.0
 33
0.0
 40
0.0
 40
0.0
 40
0.0
 40
0.0
 40
0.125
 40
0.125
 40
0.25
 40
0.25
 40
0.375
 40
0.375
 40
0.5
 40
0.5
 40
0.625
 40
0.625
 40
0.75
 40
0.75
 40
0.875
 40
0.875
 40
1.0
 40
1.0
 40
1.0
 40
1.0
 10
330.1096576331286
 20
209.9948806095079
 30
0.0
 10
330.1096576331284
 20
207.628532565035
 30
0.0
 10
329.3484529582412
 20
205.1556082305533
 30
0.0
 10
326.3036342586923
 20
200.5583703862204
 30
0.0
 10
324.0288415694553
 20
198.4473758227672
 30
0.0
 10
318.6168805679931
 20
195.0087900118533
 30
0.0
 10
315.265581903789
 20
193.5192491197355
 30
0.0
 10
307.9147393043716
 20
191.4078259607435
 30
0.0
 10
303.9364919567784
 20
190.7920608304698
 30
0.0
 10
296.2828233094766
 20
190.477733603986
 30
0.0
 10
292.3045759618835
 20
190.7408366841011
 30
0.0
 10
284.9537333624663
 20
192.1448863666644
 30
0.0
 10
281.6024346982622
 20
193.2817652086236
 30
0.0
 10
276.1904736968005
 20
196.09169656657
 30
0.0
 10
273.9156810075637
 20
197.8500290798643
 30
0.0
 10
270.8708623080154
 20
201.7398934477685
 30
0.0
 10
270.1096576331284
 20
203.8601557320916
 30
0.0
 10
270.1096576331286
 20
205.9121765500805
 30
0.0
  0
SPLINE
  5
10F
330
1F
100
AcDbEntity
  8
0
  6
Continuous
 62
     7
370
    15
100
AcDbSpline
210
0.0
220
0.0
230
1.0
 70
     8
 71
     3
 72
    18
 73
    14
 74
     0
 42
0.00000001
 43
0.00000001
 12
1.0
 22
0.0
 32
0.0
 13
1.0
 23
0.0
 33
0.0
 40
0.0
 40
0.0
 40
0.0
 40
0.0
 40
0.25
 40
0.25
 40
0.375
 40
0.375
 40
0.5
 40
0.5
 40
0.75
 40
0.75
 40
0.875
 40
0.875
 40
1.0
 40
1.0
 40
1.0
 40
1.0
 10
330.1096576331286
 20
201.8294724906504
 30
0.0
 10
330.1096576331284
 20
199.3178967435869
 30
0.0
 10
329.2478614499072
 20
196.6862377428573
 30
0.0
 10
326.6823572740403
 20
193.0624905033131
 30
0.0
 10
325.622671970492
 20
191.9093778439718
 30
0.0
 10
323.1786813219692
 20
189.7826350033756
 30
0.0
 10
321.8141524767849
 20
188.8216689402428
 30
0.0
 10
317.2678014003082
 20
186.1767194608811
 30
0.0
 10
313.5353757139397
 20
184.7101490826325
 30
0.0
 10
307.5303279074406
 20
183.2829045626828
 30
0.0
 10
305.4665646916318
 20
182.9329756201009
 30
0.0
 10
301.3529497282333
 20
182.4934652336249
 30
0.0
 10
299.3265600608259
 20
182.4032818098731
 30
0.0
 10
297.2711288280686
 20
182.4283212715972
 30
0.0
  0
ARC
  5
110
330
1F
100
AcDbEntity
  8
0
  6
Continuous
 62
     7
370
    15
100
AcDbCircle
 10
294.6022769202
 20
209.0148792815
 30
0.0
 40
26.72017659595006
100
AcDbArc
 50
204.2730284993
 51
275.7323480334
  0
SPLINE
  5
111
330
1F
100
AcDbEntity
  8
0
  6
Continuous
 62
     7
370
    15
100
AcDbSpline
210
0.0
220
0.0
230
1.0
 70
     8
 71
     3
 72
    45
 73
    41
 74
     0
 42
0.00000001
 43
0.00000001
 12
1.0
 22
0.0
 32
0.0
 13
1.0
 23
0.0
 33
0.0
 40
0.0
 40
0.0
 40
0.0
 40
0.0
 40
0.0238782973348241
 40
0.0479630110094326
 40
0.0721833754922085
 40
0.0964661652496902
 40
0.1207370085623383
 40
0.1444912739687063
 40
0.1680936993968923
 40
0.1914781442167118
 40
0.214582171162798
 40
0.241423296711902
 40
0.2686287869940596
 40
0.2960995733623886
 40
0.3237304762030422
 40
0.3514125400173655
 40
0.3785437875805101
 40
0.40551502065503
 40
0.4322267944840548
 40
0.4585854249066454
 40
0.4854265504557481
 40
0.5126320407379057
 40
0.5401028271062348
 40
0.5677337299468885
 40
0.5954157937612135
 40
0.6225470413243581
 40
0.6495182743988781
 40
0.676230048227903
 40
0.702588678650493
 40
0.7294298041995965
 40
0.756635294481754
 40
0.7841060808500832
 40
0.8117369836907369
 40
0.8394190475050611
 40
0.866550295068205
 40
0.8935215281427251
 40
0.92023330197175
 40
0.9465919323943409
 40
0.9734330579434444
 40
1.0
 40
1.0
 40
1.0
 40
1.0
 10
270.2442469675636
 20
198.0306080656541
 30
0.0
 10
270.3339621340292
 20
197.6227293727081
 30
0.0
 10
270.5141680112139
 20
196.8034460726483
 30
0.0
 10
271.0097922096544
 20
195.5931916075282
 30
0.0
 10
271.671361723206
 20
194.4023258619237
 30
0.0
 10
272.511292711806
 20
193.243118513208
 30
0.0
 10
273.512105562951
 20
192.1325602450304
 30
0.0
 10
274.6615743762738
 20
191.0795842474661
 30
0.0
 10
275.943891029271
 20
190.0914662795494
 30
0.0
 10
277.3518287247039
 20
189.1692831878548
 30
0.0
 10
278.9587479685377
 20
188.2676824690236
 30
0.0
 10
280.7908841882909
 20
187.4007794030832
 30
0.0
 10
282.8734476353774
 20
186.5898779840428
 30
0.0
 10
285.1100199186881
 20
185.8834012783715
 30
0.0
 10
287.4775576337522
 20
185.2925431652558
 30
0.0
 10
289.9347835634729
 20
184.8283165901223
 30
0.0
 10
292.4508972466033
 20
184.4935703795707
 30
0.0
 10
294.9949962185083
 20
184.2878584344469
 30
0.0
 10
297.5527466819216
 20
184.2089056622117
 30
0.0
 10
300.1251820624705
 20
184.2525742712528
 30
0.0
 10
302.7135574275985
 20
184.4245803337462
 30
0.0
 10
305.3177824568835
 20
184.7343955925148
 30
0.0
 10
307.9067492974692
 20
185.1818010262283
 30
0.0
 10
310.4492892606391
 20
185.7650433818954
 30
0.0
 10
312.9000469100174
 20
186.4744156061178
 30
0.0
 10
315.2321159856006
 20
187.298968846371
 30
0.0
 10
317.4224790635532
 20
188.2253633452827
 30
0.0
 10
319.4635679375098
 20
189.2460868783209
 30
0.0
 10
321.3597766486498
 20
190.3582994441866
 30
0.0
 10
323.1109107992025
 20
191.5679707711203
 30
0.0
 10
324.711266119759
 20
192.883186909995
 30
0.0
 10
326.136047735904
 20
194.2903616827725
 30
0.0
 10
327.3642087936714
 20
195.7752548077042
 30
0.0
 10
328.3728586451026
 20
197.311844784955
 30
0.0
 10
329.1548586347345
 20
198.8810250549602
 30
0.0
 10
329.7081429599809
 20
200.4635199587173
 30
0.0
 10
330.0378763727478
 20
202.0510144772614
 30
0.0
 10
330.1435768300288
 20
203.6424459400643
 30
0.0
 10
330.0458117163741
 20
205.232570365935
 30
0.0
 10
329.7913615448055
 20
206.2886559935028
 30
0.0
 10
329.6647896003896
 20
206.8139879692169
 30
0.0
  0
SPLINE
  5
112
330
1F
100
AcDbEntity
  8
0
  6
Continuous
 62
     7
370
    15
100
AcDbSpline
210
0.0
220
0.0
230
1.0
 70
     8
 71
     3
 72
    48
 73
    44
 74
     0
 42
0.00000001
 43
0.00000001
 12
1.0
 22
0.0
 32
0.0
 13
1.0
 23
0.0
 33
0.0
 40
0.0
 40
0.0
 40
0.0
 40
0.0
 40
0.0082728663151995
 40
0.032744921030943
 40
0.0568934425803735
 40
0.0814840031801358
 40
0.1064083773911126
 40
0.1315758032383533
 40
0.1568899201700836
 40
0.18225090834874
 40
0.2071072649172508
 40
0.2318170238338798
 40
0.2562890785496233
 40
0.2804376000990531
 40
0.3050281606988154
 40
0.3299525349097921
 40
0.3551199607570328
 40
0.3804340776887631
 40
0.4057950658674203
 40
0.4306514224359311
 40
0.4553611813525601
 40
0.4798332360683036
 40
0.5039817576177327
 40
0.5285723182174956
 40
0.5534966924284723
 40
0.5786641182757131
 40
0.6039782352074434
 40
0.6293392233861005
 40
0.6541955799546106
 40
0.6789053388712389
 40
0.7033773935869817
 40
0.7275259151364122
 40
0.7521164757361752
 40
0.777040849947152
 40
0.8022082757943926
 40
0.8275223927261228
 40
0.8528833809047793
 40
0.8777397374732901
 40
0.9024494963899192
 40
0.9269215511056627
 40
0.9510700726550917
 40
0.9756606332548546
 40
0.9999999999999999
 40
0.9999999999999999
 40
0.9999999999999999
 40
0.9999999999999999
 10
270.731667579654
 20
210.8966920286455
 30
0.0
 10
270.6671594239357
 20
210.7458275211663
 30
0.0
 10
270.4118289998284
 20
210.1486890934971
 30
0.0
 10
270.1915091312071
 20
209.0845861610335
 30
0.0
 10
270.0704415256199
 20
207.707804990117
 30
0.0
 10
270.1855674448892
 20
206.3205572363821
 30
0.0
 10
270.5256653925624
 20
204.9302558197266
 30
0.0
 10
271.0999251068203
 20
203.5516769328077
 30
0.0
 10
271.905525337505
 20
202.2020500194003
 30
0.0
 10
272.9298269997126
 20
200.9053209924737
 30
0.0
 10
274.156075533913
 20
199.6756991551475
 30
0.0
 10
275.5636129124421
 20
198.5250704723857
 30
0.0
 10
277.139729113354
 20
197.4576258176087
 30
0.0
 10
278.8814935134926
 20
196.4696812593602
 30
0.0
 10
280.7908747912414
 20
195.566181953089
 30
0.0
 10
282.8734501946388
 20
194.7552876195624
 30
0.0
 10
285.1100192256663
 20
194.0488089865326
 30
0.0
 10
287.4775578204141
 20
193.4579513947324
 30
0.0
 10
289.9347835145143
 20
192.9937246799662
 30
0.0
 10
292.4508972595293
 20
192.6589785060883
 30
0.0
 10
294.9949962150892
 20
192.4532665512782
 30
0.0
 10
297.55274668282
 20
192.3743137816016
 30
0.0
 10
300.1251820622264
 20
192.4179823899656
 30
0.0
 10
302.7135574276654
 20
192.5899884526434
 30
0.0
 10
305.3177824568654
 20
192.8998037113615
 30
0.0
 10
307.9067492974742
 20
193.3472091450888
 30
0.0
 10
310.4492892606379
 20
193.9304515007522
 30
0.0
 10
312.9000469100177
 20
194.6398237249755
 30
0.0
 10
315.2321159856005
 20
195.4643769652284
 30
0.0
 10
317.4224790635531
 20
196.3907714641402
 30
0.0
 10
319.4635679375097
 20
197.4114949971783
 30
0.0
 10
321.3597766486498
 20
198.5237075630441
 30
0.0
 10
323.1109107992025
 20
199.7333788899778
 30
0.0
 10
324.711266119759
 20
201.0485950288525
 30
0.0
 10
326.136047735904
 20
202.45576980163
 30
0.0
 10
327.3642087936714
 20
203.9406629265617
 30
0.0
 10
328.3728586451026
 20
205.4772529038125
 30
0.0
 10
329.1548586347346
 20
207.0464331738178
 30
0.0
 10
329.7081429599809
 20
208.6289280775748
 30
0.0
 10
330.0378763727478
 20
210.2164225961189
 30
0.0
 10
330.1435768300287
 20
211.8078540589218
 30
0.0
 10
330.0458117163741
 20
213.3979784847926
 30
0.0
 10
329.7913615448055
 20
214.4540641123603
 30
0.0
 10
329.6647896003896
 20
214.9793960880744
 30
0.0
  0
SPLINE
  5
113
330
1F
100
AcDbEntity
  8
0
  6
Continuous
 62
     7
370
    15
100
AcDbSpline
210
0.0
220
0.0
230
1.0
 70
     8
 71
     3
 72
    48
 73
    44
 74
     0
 42
0.00000001
 43
0.00000001
 12
1.0
 22
0.0
 32
0.0
 13
1.0
 23
0.0
 33
0.0
 40
0.0
 40
0.0
 40
0.0
 40
0.0
 40
0.0082728663151995
 40
0.032744921030943
 40
0.0568934425803728
 40
0.0814840031801351
 40
0.1064083773911119
 40
0.1315758032383526
 40
0.1568899201700829
 40
0.1822509083487401
 40
0.2071072649172506
 40
0.2318170238338792
 40
0.2562890785496224
 40
0.2804376000990524
 40
0.3050281606988151
 40
0.3299525349097918
 40
0.3551199607570325
 40
0.3804340776887628
 40
0.4057950658674194
 40
0.4306514224359299
 40
0.4553611813525586
 40
0.4798332360683017
 40
0.5039817576177321
 40
0.5285723182174944
 40
0.5534966924284711
 40
0.5786641182757118
 40
0.6039782352074422
 40
0.6293392233860989
 40
0.6541955799546095
 40
0.6789053388712382
 40
0.7033773935869814
 40
0.7275259151364118
 40
0.7521164757361741
 40
0.7770408499471508
 40
0.8022082757943915
 40
0.8275223927261218
 40
0.8528833809047789
 40
0.8777397374732894
 40
0.902449496389918
 40
0.926921551105661
 40
0.9510700726550912
 40
0.9756606332548539
 40
1.0
 40
1.0
 40
1.0
 40
1.0
 10
270.7316675796539
 20
219.0621001475029
 30
0.0
 10
270.6671594239357
 20
218.9112356400238
 30
0.0
 10
270.4118289998284
 20
218.3140972123546
 30
0.0
 10
270.1915091312071
 20
217.2499942798911
 30
0.0
 10
270.0704415256199
 20
215.8732131089745
 30
0.0
 10
270.1855674448892
 20
214.4859653552396
 30
0.0
 10
270.5256653925624
 20
213.0956639385841
 30
0.0
 10
271.0999251068203
 20
211.7170850516653
 30
0.0
 10
271.905525337505
 20
210.3674581382578
 30
0.0
 10
272.9298269997127
 20
209.0707291113312
 30
0.0
 10
274.1560755339131
 20
207.841107274005
 30
0.0
 10
275.5636129124421
 20
206.6904785912432
 30
0.0
 10
277.139729113354
 20
205.6230339364662
 30
0.0
 10
278.8814935134926
 20
204.6350893782177
 30
0.0
 10
280.7908747912414
 20
203.7315900719465
 30
0.0
 10
282.8734501946388
 20
202.9206957384199
 30
0.0
 10
285.1100192256663
 20
202.2142171053901
 30
0.0
 10
287.4775578204141
 20
201.6233595135899
 30
0.0
 10
289.9347835145143
 20
201.1591327988237
 30
0.0
 10
292.4508972595292
 20
200.8243866249458
 30
0.0
 10
294.9949962150891
 20
200.6186746701357
 30
0.0
 10
297.55274668282
 20
200.5397219004591
 30
0.0
 10
300.1251820622263
 20
200.5833905088231
 30
0.0
 10
302.7135574276654
 20
200.7553965715009
 30
0.0
 10
305.3177824568653
 20
201.065211830219
 30
0.0
 10
307.9067492974742
 20
201.5126172639463
 30
0.0
 10
310.4492892606378
 20
202.0958596196097
 30
0.0
 10
312.9000469100177
 20
202.805231843833
 30
0.0
 10
315.2321159856004
 20
203.6297850840859
 30
0.0
 10
317.4224790635531
 20
204.5561795829977
 30
0.0
 10
319.4635679375097
 20
205.5769031160359
 30
0.0
 10
321.3597766486498
 20
206.6891156819016
 30
0.0
 10
323.1109107992025
 20
207.8987870088353
 30
0.0
 10
324.7112661197589
 20
209.2140031477099
 30
0.0
 10
326.136047735904
 20
210.6211779204875
 30
0.0
 10
327.3642087936714
 20
212.1060710454192
 30
0.0
 10
328.3728586451026
 20
213.64266102267
 30
0.0
 10
329.1548586347345
 20
215.2118412926752
 30
0.0
 10
329.7081429599809
 20
216.7943361964323
 30
0.0
 10
330.0378763727478
 20
218.3818307149764
 30
0.0
 10
330.1435768300288
 20
219.9732621777793
 30
0.0
 10
330.0458117163741
 20
221.56338660365
 30
0.0
 10
329.7913615448055
 20
222.6194722312177
 30
0.0
 10
329.6647896003896
 20
223.1448042069319
 30
0.0
  0
SPLINE
  5
114
330
1F
100
AcDbEntity
  8
0
  6
Continuous
 62
     7
370
    15
100
AcDbSpline
210
0.0
220
0.0
230
1.0
 70
     8
 71
     3
 72
    48
 73
    44
 74
     0
 42
0.00000001
 43
0.00000001
 12
1.0
 22
0.0
 32
0.0
 13
1.0
 23
0.0
 33
0.0
 40
0.0
 40
0.0
 40
0.0
 40
0.0
 40
0.0082662264679101
 40
0.0327384450298369
 40
0.0568871282593204
 40
0.0814778534986913
 40
0.1064023945842376
 40
0.131569988933336
 40
0.1568842753490554
 40
0.1822454333255154
 40
0.2071019563132013
 40
0.2318118806674994
 40
0.2562840992294262
 40
0.2804327824589093
 40
0.3050235076982804
 40
0.3299480487838267
 40
0.355115643132925
 40
0.3804299295486444
 40
0.4057910875251045
 40
0.4306476105127901
 40
0.4553575348670881
 40
0.4798297534290147
 40
0.5039784366584983
 40
0.5285691618978692
 40
0.5534937029834155
 40
0.5786612973325138
 40
0.6039755837482332
 40
0.6293367417246932
 40
0.654193264712379
 40
0.6789031890666771
 40
0.7033754076286038
 40
0.7275240908580872
 40
0.7521148160974581
 40
0.7770393571830043
 40
0.8022069515321026
 40
0.8275212379478221
 40
0.852882395924282
 40
0.8777389189119678
 40
0.9024488432662656
 40
0.9269210618281924
 40
0.951069745057676
 40
0.975660470297047
 40
1.0
 40
1.0
 40
1.0
 40
1.0
 10
270.7315176005075
 20
227.2271411940113
 30
0.0
 10
270.6670632413752
 20
227.0763985910772
 30
0.0
 10
270.4117913223713
 20
226.4793815072882
 30
0.0
 10
270.191513438305
 20
225.4154018858826
 30
0.0
 10
270.070440355161
 20
224.0386213672039
 30
0.0
 10
270.1855677655823
 20
222.6513734359106
 30
0.0
 10
270.5256653052225
 20
221.2610720678416
 30
0.0
 10
271.099925130471
 20
219.8824931677066
 30
0.0
 10
271.9055253311347
 20
218.5328662578738
 30
0.0
 10
272.9298270013834
 20
217.2361372299898
 30
0.0
 10
274.1560755334719
 20
216.006515392915
 30
0.0
 10
275.5636129125588
 20
214.8558867100868
 30
0.0
 10
277.1397291133234
 20
213.7884420553274
 30
0.0
 10
278.8814935135009
 20
212.8004974970741
 30
0.0
 10
280.7908747912391
 20
211.8969981908042
 30
0.0
 10
282.8734501946394
 20
211.0861038572773
 30
0.0
 10
285.1100192256661
 20
210.3796252242476
 30
0.0
 10
287.4775578204142
 20
209.7887676324473
 30
0.0
 10
289.9347835145143
 20
209.3245409176812
 30
0.0
 10
292.4508972595292
 20
208.9897947438033
 30
0.0
 10
294.9949962150891
 20
208.7840827889932
 30
0.0
 10
297.5527466828199
 20
208.7051300193166
 30
0.0
 10
300.1251820622263
 20
208.7487986276806
 30
0.0
 10
302.7135574276654
 20
208.9208046903584
 30
0.0
 10
305.3177824568653
 20
209.2306199490765
 30
0.0
 10
307.9067492974742
 20
209.6780253828037
 30
0.0
 10
310.4492892606378
 20
210.2612677384672
 30
0.0
 10
312.9000469100177
 20
210.9706399626905
 30
0.0
 10
315.2321159856004
 20
211.7951932029434
 30
0.0
 10
317.4224790635531
 20
212.7215877018552
 30
0.0
 10
319.4635679375097
 20
213.7423112348933
 30
0.0
 10
321.3597766486498
 20
214.854523800759
 30
0.0
 10
323.1109107992025
 20
216.0641951276928
 30
0.0
 10
324.7112661197589
 20
217.3794112665674
 30
0.0
 10
326.136047735904
 20
218.786586039345
 30
0.0
 10
327.3642087936714
 20
220.2714791642766
 30
0.0
 10
328.3728586451026
 20
221.8080691415275
 30
0.0
 10
329.1548586347345
 20
223.3772494115327
 30
0.0
 10
329.7081429599809
 20
224.9597443152898
 30
0.0
 10
330.0378763727478
 20
226.5472388338338
 30
0.0
 10
330.1435768300288
 20
228.1386702966367
 30
0.0
 10
330.0458117163741
 20
229.7287947225075
 30
0.0
 10
329.7913615448055
 20
230.7848803500753
 30
0.0
 10
329.6647896003896
 20
231.3102123257894
 30
0.0
  0
SPLINE
  5
115
330
1F
100
AcDbEntity
  8
0
  6
Continuous
 62
     7
370
    15
100
AcDbSpline
210
0.0
220
0.0
230
1.0
 70
     8
 71
     3
 72
    10
 73
     6
 74
     0
 42
0.00000001
 43
0.00000001
 12
1.0
 22
0.0
 32
0.0
 13
1.0
 23
0.0
 33
0.0
 40
0.0
 40
0.0
 40
0.0
 40
0.0
 40
0.1635088077833768
 40
0.9625061202919113
 40
1.0
 40
1.0
 40
1.0
 40
1.0
 10
317.7609491312284
 20
243.3378336370773
 30
0.0
 10
317.6180725698336
 20
243.4096115058368
 30
0.0
 10
316.7770196219644
 20
243.8321369888313
 30
0.0
 10
315.8425410830407
 20
244.2300858384667
 30
0.0
 10
315.0205119583086
 20
244.5163636539661
 30
0.0
 10
314.9836663089987
 20
244.529195428021
 30
0.0
  0
LWPOLYLINE
  5
116
330
1F
100
AcDbEntity
  8
0
  6
Continuous
 62
     7
370
    15
100
AcDbPolyline
 90
       48
 70
   128
 43
0.0
 10
276.2574344668
 20
225.9096295075
 10
275.4240226768
 20
226.5722433771
 10
274.6457978762
 20
227.2568584803
 10
273.9244998573
 20
227.9619442977
 10
273.2617411477
 20
228.6859245455
 10
272.659003405
 20
229.4271806999
 10
272.1176341044
 20
230.1840556151
 10
271.6388435263
 20
230.9548572281
 10
271.2237020509
 20
231.7378623417
 10
270.8731377646
 20
232.5313204764
 10
270.5879343861
 20
233.3334577842
 10
270.3687295134
 20
234.142481014
 10
270.216013199
 20
234.9565815205
 10
270.1301268542
 20
235.7739393077
 10
270.1112624858
 20
236.5927270978
 10
270.1594622668
 20
237.4111144159
 10
270.2746184421
 20
238.2272716826
 10
270.4564735696
 20
239.0393743037
 10
270.7046210957
 20
239.8456067499
 10
271.0185062638
 20
240.6441666148
 10
271.397427355
 20
241.433268645
 10
271.8405372567
 20
242.2111487311
 10
272.3468453563
 20
242.9760678509
 10
272.9152197557
 20
243.7263159582
 10
273.5443898022
 20
244.4602158047
 10
274.2329489288
 20
245.1761266905
 10
274.9793577986
 20
245.8724481314
 10
275.7819477465
 20
246.5476234372
 10
276.6389245095
 20
247.2001431921
 10
277.5483722379
 20
247.8285486285
 10
278.5082577782
 20
248.4314348888
 10
279.5164352188
 20
249.0074541657
 10
280.5706506871
 20
249.5553187155
 10
281.668547388
 20
250.0738037372
 10
282.8076708735
 20
250.56175011
 10
283.9854745289
 20
251.0180669855
 10
285.1993252669
 20
251.4417342255
 10
286.4465094133
 20
251.8318046833
 10
287.7242387741
 20
252.1874063208
 10
289.0296568688
 20
252.5077441581
 10
290.3598453162
 20
252.7921020508
 10
291.7118303585
 20
253.0398442907
 10
293.0825895099
 20
253.2504170276
 10
294.4690583133
 20
253.4233495069
 10
295.8681371911
 20
253.5582551222
 10
297.2766983748
 20
253.6548322797
 10
298.6915928974
 20
253.7128650724
 10
300.1096576331
 20
253.7322237626
  0
LINE
  5
117
330
1F
100
AcDbEntity
  8
0
  6
Continuous
 62
     7
370
    15
100
AcDbLine
 10
276.2574344668
 20
225.9096295075
 30
0.0
 11
276.2574344668
 21
220.7562820232
 31
0.0
  0
LWPOLYLINE
  5
118
330
1F
100
AcDbEntity
  8
0
  6
Continuous
 62
     7
370
    15
100
AcDbPolyline
 90
       61
 70
   128
 43
0.0
 10
323.9618807995
 20
246.9175552927
 10
324.8057843198
 20
246.2461652054
 10
325.5930305297
 20
245.552217446
 10
326.3218133463
 20
244.8373040541
 10
326.9904608121
 20
244.1030651683
 10
327.5974389307
 20
243.3511852633
 10
328.1413551864
 20
242.5833892855
 10
328.6209617384
 20
241.8014386953
 10
329.035158284
 20
241.0071274268
 10
329.3829945825
 20
240.2022777713
 10
329.6636726356
 20
239.3887361972
 10
329.8765485178
 20
238.5683691137
 10
330.021133854
 20
237.7430585888
 10
330.0970969397
 20
236.9146980319
 10
330.104263502
 20
236.0851878495
 10
330.0426170996
 20
235.2564310855
 10
329.9122991603
 20
234.4303290556
 10
329.7136086566
 20
233.6087769848
 10
329.4470014199
 20
232.7936596598
 10
329.1130890948
 20
231.9868471048
 10
328.7126377354
 20
231.1901902915
 10
328.2465660485
 20
230.4055168923
 10
327.7159432855
 20
229.6346270878
 10
327.1219867894
 20
228.8792894363
 10
326.4660592022
 20
228.1412368169
 10
325.7496653386
 20
227.4221624536
 10
324.9744487335
 20
226.723716031
 10
324.1421878718
 20
226.0474999096
 10
323.2547921081
 20
225.3950654494
 10
322.3142972863
 20
224.7679094513
 10
321.3228610687
 20
224.1674707227
 10
320.2827579867
 20
223.595126777
 10
319.1963742217
 20
223.0521906731
 10
318.0662021316
 20
222.539908003
 10
316.8948345323
 20
222.0594540343
 10
315.6849587494
 20
221.6119310139
 10
314.4393504536
 20
221.1983656394
 10
313.1608672917
 20
220.8197067033
 10
311.8524423319
 20
220.4768229167
 10
310.5170773338
 20
220.1705009158
 10
309.1578358625
 20
219.901443458
 10
307.7778362598
 20
219.670267809
 10
306.3802444904
 20
219.4775043267
 10
304.9682668787
 20
219.3235952451
 10
303.5451427525
 20
219.2088936588
 10
302.114137012
 20
219.1336627137
 10
300.678532639
 20
219.0980750031
 10
299.2416231655
 20
219.1022121715
 10
297.8067051176
 20
219.1460647274
 10
296.3770704526
 20
219.2295320654
 10
294.955999007
 20
219.3524226964
 10
293.5467509717
 20
219.5144546874
 10
292.1525594123
 20
219.7152563084
 10
290.7766228526
 20
219.9543668845
 10
289.4220979359
 20
220.2312378537
 10
288.0920921835
 20
220.5452340245
 10
286.7896568653
 20
220.8956350339
 10
285.5177799997
 20
221.2816369996
 10
284.2793794987
 20
221.7023543644
 10
283.0772964734
 20
222.1568219278
 10
281.9142887162
 20
222.6439970602
  0
SPLINE
  5
119
330
1F
100
AcDbEntity
  8
0
  6
Continuous
 62
     7
370
    15
100
AcDbSpline
210
0.0
220
0.0
230
1.0
 70
     8
 71
     3
 72
    26
 73
    22
 74
     0
 42
0.00000001
 43
0.00000001
 12
1.0
 22
0.0
 32
0.0
 13
1.0
 23
0.0
 33
0.0
 40
0.0
 40
0.0
 40
0.0
 40
0.0
 40
0.125
 40
0.125
 40
0.2500000000000001
 40
0.2500000000000001
 40
0.3125000000000001
 40
0.3125000000000001
 40
0.3750000000000001
 40
0.3750000000000001
 40
0.5000000000000001
 40
0.5000000000000001
 40
0.6250000000000001
 40
0.6250000000000001
 40
0.6875
 40
0.6875
 40
0.75
 40
0.75
 40
0.875
 40
0.875
 40
1.0
 40
1.0
 40
1.0
 40
1.0
 10
330.1096576331286
 20
234.4911049660804
 30
0.0
 10
330.1096576331285
 20
232.8185047045648
 30
0.0
 10
329.7368386005957
 20
231.0931675408025
 30
0.0
 10
328.2083985894103
 20
227.7327529931634
 30
0.0
 10
327.0529771376326
 20
226.1002639679843
 30
0.0
 10
324.8385964503386
 20
223.8634040644017
 30
0.0
 10
324.0216538339214
 20
223.1527615197635
 30
0.0
 10
322.2607966275058
 20
221.8182838691226
 30
0.0
 10
321.3263325931963
 20
221.2004663892658
 30
0.0
 10
318.3015274617138
 20
219.4378426420454
 30
0.0
 10
315.979933283368
 20
218.3901204210183
 30
0.0
 10
310.9500156036951
 20
216.6974028445108
 30
0.0
 10
308.245177743075
 20
216.0539558918084
 30
0.0
 10
304.1424902741118
 20
215.439262007786
 30
0.0
 10
302.7677572145677
 20
215.2919311239621
 30
0.0
 10
300.0433610809612
 20
215.1100379577152
 30
0.0
 10
298.6923655047416
 20
215.0740272528839
 30
0.0
 10
294.5862892165051
 20
215.1199648074736
 30
0.0
 10
291.8266028033517
 20
215.3676888346803
 30
0.0
 10
286.5878159300532
 20
216.2975067214205
 30
0.0
 10
284.1127108767757
 20
216.9789949135025
 30
0.0
 10
281.9142887163164
 20
217.8283135873776
 30
0.0
  0
LINE
  5
11A
330
1F
100
AcDbEntity
  8
0
  6
Continuous
 62
     7
370
    15
100
AcDbLine
 10
281.9142887162
 20
217.8283135874
 30
0.0
 11
281.9142887162
 21
222.6439970602
 31
0.0
  0
LWPOLYLINE
  5
11B
330
1F
100
AcDbEntity
  8
0
  6
Continuous
 62
     7
370
    15
100
AcDbPolyline
 90
       45
 70
   128
 43
0.0
 10
315.3477584039
 20
241.9447282833
 10
315.9053558995
 20
241.396221344
 10
316.4037833832
 20
240.8290496892
 10
316.8411737669
 20
240.2453379198
 10
317.2158886049
 20
239.6472725952
 10
317.5265242314
 20
239.0370940425
 10
317.7719170186
 20
238.4170879645
 10
317.9511477355
 20
237.7895768776
 10
318.0635449916
 20
237.1569114116
 10
318.1086877515
 20
236.5214615042
 10
318.0864069124
 20
235.8856075238
 10
317.9967859374
 20
235.2517313522
 10
317.8401605427
 20
234.6222074625
 10
317.6171174405
 20
233.9993940244
 10
317.3284921407
 20
233.3856240704
 10
316.9753658213
 20
232.7831967567
 10
316.5590612785
 20
232.1943687501
 10
316.0811379714
 20
231.6213457753
 10
315.5433861802
 20
231.066274352
 10
314.9478203002
 20
230.531233754
 10
314.2966712958
 20
230.0182282205
 10
313.5923783435
 20
229.5291794485
 10
312.8375796945
 20
229.0659193937
 10
312.0351027924
 20
228.6301834085
 10
311.1879536814
 20
228.2236037414
 10
310.2993057461
 20
227.8477034225
 10
309.3724878235
 20
227.5038905582
 10
308.4109717342
 20
227.193453057
 10
307.4183592764
 20
226.9175538045
 10
306.398368734
 20
226.6772263074
 10
305.3548209481
 20
226.4733708224
 10
304.2916250042
 20
226.3067509834
 10
303.2127635889
 20
226.1779909413
 10
302.122278071
 20
226.0875730255
 10
301.0242533628
 20
226.0358359379
 10
299.9228026181
 20
226.0229734833
 10
298.8220518242
 20
226.0490338439
 10
297.7261243468
 20
226.1139193987
 10
296.6391254834
 20
226.2173870892
 10
295.5651270854
 20
226.3590493299
 10
294.508152305
 20
226.53837546
 10
293.4721605246
 20
226.7546937315
 10
292.4610325252
 20
227.0071938254
 10
291.4785559492
 20
227.2949298871
 10
290.5284111119
 20
227.6168240696
  0
LINE
  5
11C
330
1F
100
AcDbEntity
  8
0
  6
Continuous
 62
     7
370
    15
100
AcDbLine
 10
315.3477584039
 20
241.9447282833
 30
0.0
 11
323.9618807995
 21
246.9175552927
 31
0.0
  0
LINE
  5
11D
330
1F
100
AcDbEntity
  8
0
  6
Continuous
 62
     7
370
    15
100
AcDbLine
 10
281.9142887162
 20
222.6439970602
 30
0.0
 11
290.5284111119
 21
227.6168240696
 31
0.0
  0
SPLINE
  5
11E
330
1F
100
AcDbEntity
  8
0
  6
Continuous
 62
     7
370
    15
100
AcDbSpline
210
0.0
220
0.0
230
1.0
 70
     8
 71
     3
 72
    14
 73
    10
 74
     0
 42
0.00000001
 43
0.00000001
 12
1.0
 22
0.0
 32
0.0
 13
1.0
 23
0.0
 33
0.0
 40
0.0
 40
0.0
 40
0.0
 40
0.0
 40
0.040815116217184
 40
0.188304447547185
 40
0.3365087226931083
 40
0.4854569627109486
 40
0.6640292246584991
 40
0.8439071416577035
 40
1.0
 40
1.0
 40
1.0
 40
1.0
 10
298.7326349436863
 20
182.4311412566901
 30
0.0
 10
298.9202198567879
 20
182.4308176804569
 30
0.0
 10
299.7856608184602
 20
182.4293248305162
 30
0.0
 10
301.3293147749974
 20
182.5048785877557
 30
0.0
 10
303.3541469752262
 20
182.665625108809
 30
0.0
 10
305.4939206981812
 20
182.9310414172784
 30
0.0
 10
307.7296165930393
 20
183.316988180845
 30
0.0
 10
309.940754013111
 20
183.8083616795492
 30
0.0
 10
311.3123658850358
 20
184.2186344635423
 30
0.0
 10
311.9496201742144
 20
184.4092482200169
 30
0.0
  0
LINE
  5
11F
330
1F
100
AcDbEntity
  8
0
  6
Continuous
 62
     7
370
    15
100
AcDbLine
 10
277.7503820481
 20
220.2391633059
 30
0.0
 11
276.2574344668
 21
220.7562820232
 31
0.0
  0
SPLINE
  5
120
330
1F
100
AcDbEntity
  8
0
  6
Continuous
 62
     7
370
    15
100
AcDbSpline
210
0.0
220
0.0
230
1.0
 70
     8
 71
     3
 72
    10
 73
     6
 74
     0
 42
0.00000001
 43
0.00000001
 12
1.0
 22
0.0
 32
0.0
 13
1.0
 23
0.0
 33
0.0
 40
0.0
 40
0.0
 40
0.0
 40
0.0
 40
0.3465997474570408
 40
0.6949141718034662
 40
1.0
 40
1.0
 40
1.0
 40
1.0
 10
277.7503820481159
 20
220.2391633059178
 30
0.0
 10
278.193701008043
 20
219.9553694707458
 30
0.0
 10
279.0825320881081
 20
219.3863778330471
 30
0.0
 10
280.4751885774252
 20
218.6293119478235
 30
0.0
 10
281.4562235794302
 20
218.1839541692276
 30
0.0
 10
281.9142887162458
 20
217.976007591004
 30
0.0
  0
SPLINE
  5
121
330
1F
100
AcDbEntity
  8
0
  6
Continuous
 62
     7
370
    15
100
AcDbSpline
210
0.0
220
0.0
230
1.0
 70
     8
 71
     3
 72
    19
 73
    15
 74
     0
 42
0.00000001
 43
0.00000001
 12
1.0
 22
0.0
 32
0.0
 13
1.0
 23
0.0
 33
0.0
 40
0.0
 40
0.0
 40
0.0
 40
0.0
 40
0.0682091617247429
 40
0.1568871041165753
 40
0.2450407640621368
 40
0.3323443772583961
 40
0.4184911375246646
 40
0.5062148430129959
 40
0.5951321636130618
 40
0.6849186565395297
 40
0.7752297675985396
 40
0.8657085127024989
 40
0.9543864550943313
 40
1.0
 40
1.0
 40
1.0
 40
1.0
 10
310.1690041184556
 20
216.5221801740505
 30
0.0
 10
309.651952436077
 20
216.364033156188
 30
0.0
 10
308.4626878405913
 20
216.0002810292048
 30
0.0
 10
306.5237398120414
 20
215.5559327832791
 30
0.0
 10
304.3945662497412
 20
215.1717529557135
 30
0.0
 10
302.2514719853049
 20
214.9026087377312
 30
0.0
 10
300.0966776931763
 20
214.7428888919144
 30
0.0
 10
297.9283817970586
 20
214.6896621722656
 30
0.0
 10
295.746806285647
 20
214.7414990343205
 30
0.0
 10
293.5783783104394
 20
214.9033368060822
 30
0.0
 10
291.4474013236414
 20
215.173756214427
 30
0.0
 10
289.3986962388107
 20
215.5549018355515
 30
0.0
 10
287.7430037466468
 20
215.9435029085189
 30
0.0
 10
286.8186563721681
 20
216.2383964812952
 30
0.0
 10
286.5046918661319
 20
216.3385602481499
 30
0.0
  0
SPLINE
  5
122
330
1F
100
AcDbEntity
  8
0
  6
Continuous
 62
     7
370
    15
100
AcDbSpline
210
0.0
220
0.0
230
1.0
 70
     8
 71
     3
 72
    19
 73
    15
 74
     0
 42
0.00000001
 43
0.00000001
 12
1.0
 22
0.0
 32
0.0
 13
1.0
 23
0.0
 33
0.0
 40
0.0
 40
0.0
 40
0.0
 40
0.0
 40
0.0681665470296577
 40
0.1568596297685265
 40
0.2450283405482417
 40
0.3323468594467034
 40
0.4185083279009529
 40
0.506247010815559
 40
0.5951795126326792
 40
0.6849813351735401
 40
0.7753078654171383
 40
0.865802058326531
 40
0.9544951410653999
 40
1.0
 40
1.0
 40
1.0
 40
1.0
 10
310.1677625472175
 20
208.3564066180019
 30
0.0
 10
309.6511207256665
 20
208.1983874866819
 30
0.0
 10
308.4622641914465
 20
207.8347659814821
 30
0.0
 10
306.5237381514944
 20
207.3905271888762
 30
0.0
 10
304.3945666883254
 20
207.0063441684658
 30
0.0
 10
302.2514718724755
 20
206.7372007968186
 30
0.0
 10
300.0966777149319
 20
206.57748071609
 30
0.0
 10
297.9283818252895
 20
206.5242541020782
 30
0.0
 10
295.7468061479747
 20
206.5760907765225
 30
0.0
 10
293.5783788390744
 20
206.7379291999542
 30
0.0
 10
291.4473993348579
 20
207.0083461721305
 30
0.0
 10
289.3987036127757
 20
207.3895008469136
 30
0.0
 10
287.7438401821217
 20
207.7778727799327
 30
0.0
 10
286.8202826059402
 20
208.0724992481288
 30
0.0
 10
286.5071156773118
 20
208.1724034322502
 30
0.0
  0
SPLINE
  5
123
330
1F
100
AcDbEntity
  8
0
  6
Continuous
 62
     7
370
    15
100
AcDbSpline
210
0.0
220
0.0
230
1.0
 70
     8
 71
     3
 72
    19
 73
    15
 74
     0
 42
0.00000001
 43
0.00000001
 12
1.0
 22
0.0
 32
0.0
 13
1.0
 23
0.0
 33
0.0
 40
0.0
 40
0.0
 40
0.0
 40
0.0
 40
0.0682500307576064
 40
0.1569255801035129
 40
0.2450768611513341
 40
0.3323781183890514
 40
0.4185225539153932
 40
0.506243892108651
 40
0.5951588132029771
 40
0.684942883168388
 40
0.7752515571090968
 40
0.8657278605710154
 40
0.9544034099169244
 40
1.0
 40
1.0
 40
1.0
 40
1.0
 10
310.1699815847053
 20
200.1916516383293
 30
0.0
 10
309.6526072272292
 20
200.0334039364831
 30
0.0
 10
308.4630213724481
 20
199.6695489735386
 30
0.0
 10
306.5237411186624
 20
199.2251145596073
 30
0.0
 10
304.3945659040318
 20
198.8409372432287
 30
0.0
 10
302.2514720764638
 20
198.5717923623278
 30
0.0
 10
300.0966776672027
 20
198.4120726904542
 30
0.0
 10
297.9283818087884
 20
198.3588459290773
 30
0.0
 10
295.7468062649156
 20
198.4106827811394
 30
0.0
 10
293.5783783823446
 20
198.5725206366542
 30
0.0
 10
291.4474010551668
 20
198.8429397174504
 30
0.0
 10
289.3986972337128
 20
199.2240865597477
 30
0.0
 10
287.7431166880113
 20
199.6126566942863
 30
0.0
 10
286.8188759571429
 20
199.9075142010416
 30
0.0
 10
286.5050191442352
 20
200.0076429166905
 30
0.0
  0
SPLINE
  5
124
330
1F
100
AcDbEntity
  8
0
  6
Continuous
 62
     7
370
    15
100
AcDbSpline
210
0.0
220
0.0
230
1.0
 70
     8
 71
     3
 72
    19
 73
    15
 74
     0
 42
0.00000001
 43
0.00000001
 12
1.0
 22
0.0
 32
0.0
 13
1.0
 23
0.0
 33
0.0
 40
0.0
 40
0.0
 40
0.0
 40
0.0
 40
0.0681407334256388
 40
0.1568265136422407
 40
0.244987965073721
 40
0.332299294624279
 40
0.4184536689960779
 40
0.5061851279686834
 40
0.5951103075510292
 40
0.6849047362818164
 40
0.7752238295136662
 40
0.8657105716068482
 40
0.9543963518234474
 40
1.0
 40
1.0
 40
1.0
 40
1.0
 10
310.1673002719482
 20
192.0254543167483
 30
0.0
 10
309.6508110545373
 20
191.867482801093
 30
0.0
 10
308.462106454098
 20
191.5039099305125
 30
0.0
 10
306.5237375326633
 20
191.0597118913439
 30
0.0
 10
304.3945668525928
 20
190.6755276826163
 30
0.0
 10
302.2514718271953
 20
190.4063846222507
 30
0.0
 10
300.0966777350781
 20
190.2466644687969
 30
0.0
 10
297.9283817896633
 20
190.1934378378769
 30
0.0
 10
295.746806272129
 20
190.2452746566876
 30
0.0
 10
293.5783783728132
 20
190.4071125119846
 30
0.0
 10
291.4474010862102
 20
190.6775316276917
 30
0.0
 10
289.3986971198898
 20
191.0586783310763
 30
0.0
 10
287.743103779023
 20
191.4472520016879
 30
0.0
 10
286.8188508589622
 20
191.7421136307431
 30
0.0
 10
286.5049817368954
 20
191.8422463526788
 30
0.0
  0
SPLINE
  5
125
330
1F
100
AcDbEntity
  8
0
  6
Continuous
 62
     7
370
    15
100
AcDbSpline
210
0.0
220
0.0
230
1.0
 70
     8
 71
     3
 72
    11
 73
     7
 74
     0
 42
0.00000001
 43
0.00000001
 12
1.0
 22
0.0
 32
0.0
 13
1.0
 23
0.0
 33
0.0
 40
0.0
 40
0.0
 40
0.0
 40
0.0
 40
0.090784592447387
 40
0.4305075339891605
 40
0.7145639051532975
 40
1.0
 40
1.0
 40
1.0
 40
1.0
 10
270.9383720238145
 20
202.2253770039518
 30
0.0
 10
270.884538751576
 20
202.1013145593571
 30
0.0
 10
270.629257225789
 20
201.5130008858219
 30
0.0
 10
270.4011968012944
 20
200.51235550568
 30
0.0
 10
270.2213640254001
 20
199.2353798917214
 30
0.0
 10
270.2366070103218
 20
198.4328467800433
 30
0.0
 10
270.2442469675636
 20
198.0306080656541
 30
0.0
  0
LWPOLYLINE
  5
126
330
1F
100
AcDbEntity
  8
0
  6
Continuous
 62
     7
370
    15
100
AcDbPolyline
 90
        4
 70
   128
 43
0.0
 10
314.824660295
 20
244.29392355
 10
315.7536892441
 20
243.9721369407
 10
316.7248978786
 20
243.6357388429
 10
317.6949560956
 20
243.2997366685
  0
ARC
  5
127
330
1F
100
AcDbEntity
  8
0
  6
Continuous
 62
     7
370
    15
100
AcDbCircle
 10
309.3971732944
 20
234.6640999996
 30
0.0
 40
6.58179313384803
100
AcDbArc
 50
294.1574143712
 51
46.9215042233
  0
SPLINE
  5
128
330
1F
100
AcDbEntity
  8
0
  6
Continuous
 62
     7
370
    15
100
AcDbSpline
210
0.0
220
0.0
230
1.0
 70
     8
 71
     3
 72
     8
 73
     4
 74
     0
 42
0.00000001
 43
0.00000001
 12
1.0
 22
0.0
 32
0.0
 13
1.0
 23
0.0
 33
0.0
 40
0.0
 40
0.0
 40
0.0
 40
0.0
 40
1.0
 40
1.0
 40
1.0
 40
1.0
 10
313.8925359079781
 20
239.4715645942542
 30
0.0
 10
314.3784834911514
 20
240.2954315092483
 30
0.0
 10
314.863457978444
 20
241.1198788620918
 30
0.0
 10
315.3477584038657
 20
241.944728283252
 30
0.0
  0
ARC
  5
129
330
1F
100
AcDbEntity
  8
0
  6
Continuous
 62
     7
370
    15
100
AcDbCircle
 10
303.7615369743
 20
223.5553399158
 30
0.0
 40
14.96699647445464
100
AcDbArc
 50
47.3989667281
 51
72.6064098046
  0
LINE
  5
12A
330
1F
100
AcDbEntity
  8
0
  6
Continuous
 62
     7
370
    15
100
AcDbLine
 10
313.892535908
 20
234.5723197229
 30
0.0
 11
313.892535908
 21
239.4715645943
 31
0.0
  0
LINE
  5
12B
330
1F
100
AcDbEntity
  8
0
  6
Continuous
 62
     7
370
    15
100
AcDbLine
 10
286.3267793583
 20
225.1912736875
 30
0.0
 11
286.3267793583
 21
230.0894569584
 31
0.0
  0
LWPOLYLINE
  5
12C
330
1F
100
AcDbEntity
  8
0
  6
Continuous
 62
     7
370
    15
100
AcDbPolyline
 90
       41
 70
   128
 43
0.0
 10
286.3267793583
 20
230.0894569584
 10
285.8215374817
 20
230.6236535052
 10
285.3783346649
 20
231.1758991386
 10
284.999095296
 20
231.7437960064
 10
284.6854660335
 20
232.3248782987
 10
284.4388086563
 20
232.9166229544
 10
284.2601941517
 20
233.5164606166
 10
284.1503980644
 20
234.1217867883
 10
284.1098971292
 20
234.7299731415
 10
284.1388672014
 20
235.3383789292
 10
284.2371824929
 20
235.9443624518
 10
284.4044161182
 20
236.545292527
 10
284.6398419486
 20
237.1385599146
 10
284.9424377644
 20
237.7215886459
 10
285.3108896936
 20
238.2918472084
 10
285.7435979169
 20
238.8468595377
 10
286.238683614
 20
239.3842157687
 10
286.7939971212
 20
239.901582699
 10
287.4071272657
 20
240.39671392
 10
288.0754118345
 20
240.8674595702
 10
288.7959491341
 20
241.3117756709
 10
289.5656105895
 20
241.7277330001
 10
290.3810543282
 20
242.1135254698
 10
291.2387396913
 20
242.4674779681
 10
292.1349426062
 20
242.7880536322
 10
293.0657717574
 20
243.0738605215
 10
294.0271854818
 20
243.3236576618
 10
295.0150093182
 20
243.536360433
 10
296.0249541327
 20
243.7110452792
 10
297.0526347418
 20
243.8469537182
 10
298.0935889534
 20
243.9434956352
 10
299.1432969411
 20
244.0002518448
 10
300.1972008698
 20
244.0169759115
 10
301.2507246855
 20
243.9935952193
 10
302.2992939848
 20
243.9302112873
 10
303.3383558764
 20
243.8270993286
 10
304.3633987508
 20
243.6847070556
 10
305.3699718687
 20
243.5036527362
 10
306.3537046867
 20
243.2847225086
 10
307.3103258339
 20
243.0288669685
 10
308.2356816585
 20
242.7371970415
  0
LINE
  5
12D
330
1F
100
AcDbEntity
  8
0
  6
Continuous
 62
     7
370
    15
100
AcDbLine
 10
308.2356816585
 20
242.7371970415
 30
0.0
 11
308.2356816585
 21
237.8379521702
 31
0.0
  0
LINE
  5
12E
330
1F
100
AcDbEntity
  8
0
  6
Continuous
 62
     7
370
    15
100
AcDbLine
 10
281.9142887162
 20
222.6429354597
 30
0.0
 11
277.7503820481
 21
220.2391633059
 31
0.0
  0
LINE
  5
12F
330
1F
100
AcDbEntity
  8
0
  6
Continuous
 62
     7
370
    15
100
AcDbLine
 10
284.8715568624
 20
230.8824565169
 30
0.0
 11
276.2574344668
 21
225.9096295075
 31
0.0
  0
SPLINE
  5
130
330
1F
100
AcDbEntity
  8
0
  6
Continuous
 62
     7
370
    15
100
AcDbSpline
210
0.0
220
0.0
230
1.0
 70
     8
 71
     3
 72
     8
 73
     4
 74
     0
 42
0.00000001
 43
0.00000001
 12
1.0
 22
0.0
 32
0.0
 13
1.0
 23
0.0
 33
0.0
 40
0.0
 40
0.0
 40
0.0
 40
0.0
 40
1.0
 40
1.0
 40
1.0
 40
1.0
 10
286.3267793582791
 20
230.0894569583531
 30
0.0
 10
285.8408317751058
 20
230.3522607363799
 30
0.0
 10
285.3558572878131
 20
230.6167684648454
 30
0.0
 10
284.8715568623915
 20
230.8824565168982
 30
0.0
  0
LWPOLYLINE
  5
131
330
1F
100
AcDbEntity
  8
0
  6
Continuous
 62
     7
370
    15
100
AcDbPolyline
 90
       45
 70
   128
 43
0.0
 10
284.8715568624
 20
230.8824565169
 10
284.3139593668
 20
231.4309634562
 10
283.8155318831
 20
231.9981351109
 10
283.3781414994
 20
232.5818468803
 10
283.0034266614
 20
233.179912205
 10
282.6927910349
 20
233.7900907577
 10
282.4473982477
 20
234.4100968357
 10
282.2681675308
 20
235.0376079225
 10
282.1557702747
 20
235.6702733886
 10
282.1106275147
 20
236.3057232959
 10
282.1329083538
 20
236.9415772764
 10
282.2225293289
 20
237.575453448
 10
282.3791547235
 20
238.2049773376
 10
282.6021978257
 20
238.8277907757
 10
282.8908231256
 20
239.4415607297
 10
283.2439494449
 20
240.0439880435
 10
283.6602539877
 20
240.6328160501
 10
284.1381772949
 20
241.2058390248
 10
284.6759290861
 20
241.7609104481
 10
285.2714949661
 20
242.2959510462
 10
285.9226439704
 20
242.8089565796
 10
286.6269369228
 20
243.2980053517
 10
287.3817355718
 20
243.7612654065
 10
288.1842124739
 20
244.1970013916
 10
289.0313615848
 20
244.6035810587
 10
289.9200095202
 20
244.9794813777
 10
290.8468274427
 20
245.3232942419
 10
291.808343532
 20
245.6337317432
 10
292.8009559898
 20
245.9096309957
 10
293.8209465322
 20
246.1499584927
 10
294.8644943181
 20
246.3538139777
 10
295.9276902621
 20
246.5204338167
 10
297.0065516774
 20
246.6491938589
 10
298.0970371953
 20
246.7396117746
 10
299.1950619034
 20
246.7913488623
 10
300.2965126482
 20
246.8042113169
 10
301.397263442
 20
246.7781509563
 10
302.4931909194
 20
246.7132654015
 10
303.5801897828
 20
246.6097977109
 10
304.6541881808
 20
246.4681354703
 10
305.7111629613
 20
246.2888093402
 10
306.7471547417
 20
246.0724910686
 10
307.7582827411
 20
245.8199909747
 10
308.7407593171
 20
245.532254913
 10
309.6909041544
 20
245.2103607305
  0
LINE
  5
132
330
1F
100
AcDbEntity
  8
0
  6
Continuous
 62
     7
370
    15
100
AcDbLine
 10
300.1096576331
 20
253.6271783848
 30
0.0
 11
300.1096576331
 21
253.7322237626
 31
0.0
  0
SPLINE
  5
133
330
1F
100
AcDbEntity
  8
0
  6
Continuous
 62
     7
370
    15
100
AcDbSpline
210
0.0
220
0.0
230
1.0
 70
     8
 71
     3
 72
     8
 73
     4
 74
     0
 42
0.00000001
 43
0.00000001
 12
1.0
 22
0.0
 32
0.0
 13
1.0
 23
0.0
 33
0.0
 40
0.0
 40
0.0
 40
0.0
 40
0.0
 40
1.0
 40
1.0
 40
1.0
 40
1.0
 10
300.1096576331297
 20
253.6271783847611
 30
0.0
 10
301.0565393460897
 20
253.6617543822772
 30
0.0
 10
302.0027135560532
 20
253.6707962971101
 30
0.0
 10
302.9481864381883
 20
253.6545269936943
 30
0.0
  0
ARC
  5
134
330
1F
100
AcDbEntity
  8
0
  6
Continuous
 62
     7
370
    15
100
AcDbCircle
 10
301.0223139792
 20
209.4304764403
 30
0.0
 40
44.26596471419718
100
AcDbArc
 50
67.0188096309
 51
87.5064543384
  0
LINE
  5
135
330
1F
100
AcDbEntity
  8
0
  6
Continuous
 62
     7
370
    15
100
AcDbLine
 10
318.30502655
 20
250.1831877399
 30
0.0
 11
309.6909041544
 21
245.2103607305
 31
0.0
  0
SPLINE
  5
136
330
1F
100
AcDbEntity
  8
0
  6
Continuous
 62
     7
370
    15
100
AcDbSpline
210
0.0
220
0.0
230
1.0
 70
     8
 71
     3
 72
     8
 73
     4
 74
     0
 42
0.00000001
 43
0.00000001
 12
1.0
 22
0.0
 32
0.0
 13
1.0
 23
0.0
 33
0.0
 40
0.0
 40
0.0
 40
0.0
 40
0.0
 40
1.0
 40
1.0
 40
1.0
 40
1.0
 10
309.6909041543733
 20
245.2103607305428
 30
0.0
 10
309.2065982503288
 20
244.3855019783173
 30
0.0
 10
308.7216230363613
 20
243.5610534361874
 30
0.0
 10
308.2356816584858
 20
242.737197041545
 30
0.0
  0
LINE
  5
137
330
1F
100
AcDbEntity
  8
0
  6
Continuous
 62
     7
370
    15
100
AcDbLine
 10
315.3468124224
 20
241.9431205793
 30
0.0
 11
308.2356816585
 21
237.8379521702
 31
0.0
  0
LINE
  5
138
330
1F
100
AcDbEntity
  8
0
  6
Continuous
 62
     7
370
    15
100
AcDbLine
 10
318.30502655
 20
249.4502083266
 30
0.0
 11
318.30502655
 21
250.1831877399
 31
0.0
  0
SPLINE
  5
139
330
1F
100
AcDbEntity
  8
0
  6
Continuous
 62
     7
370
    15
100
AcDbSpline
210
0.0
220
0.0
230
1.0
 70
     8
 71
     3
 72
    14
 73
    10
 74
     0
 42
0.00000001
 43
0.00000001
 12
1.0
 22
0.0
 32
0.0
 13
1.0
 23
0.0
 33
0.0
 40
0.0
 40
0.0
 40
0.0
 40
0.0
 40
0.0001682433678169
 40
0.0001682433678169
 40
0.0001682433678169
 40
0.000336486743136
 40
0.000336486743136
 40
0.000336486743136
 40
0.0006251464879391
 40
0.0006251464879391
 40
0.0006251464879391
 40
0.0006251464879391
 10
318.3050265500111
 20
249.4502083265742
 30
0.0
 10
317.9932284203446
 20
248.9872669413297
 30
0.0
 10
317.6813356911472
 20
248.5244098832521
 30
0.0
 10
317.3693346727046
 20
248.0616497646392
 30
0.0
 10
317.0573336460874
 20
247.598889633902
 30
0.0
 10
316.7452243107752
 20
247.1362263090753
 30
0.0
 10
316.4329902093416
 20
246.6736750433039
 30
0.0
 10
315.8972818331459
 20
245.880063498774
 30
0.0
 10
315.361208035589
 20
245.0867791435819
 30
0.0
 10
314.824660294955
 20
244.2939235500485
 30
0.0
  0
SPLINE
  5
13A
330
1F
100
AcDbEntity
  8
0
  6
Continuous
 62
     7
370
    15
100
AcDbSpline
210
0.0
220
0.0
230
1.0
 70
     8
 71
     3
 72
     9
 73
     5
 74
     0
 42
0.00000001
 43
0.00000001
 12
1.0
 22
0.0
 32
0.0
 13
1.0
 23
0.0
 33
0.0
 40
0.0
 40
0.0
 40
0.0
 40
0.0
 40
0.4504329927638144
 40
1.0
 40
1.0
 40
1.0
 40
1.0
 10
208.5382974026667
 20
76.28411849826838
 30
0.0
 10
209.250217553609
 20
75.71336559874385
 30
0.0
 10
210.8307415435904
 20
74.44624505319403
 30
0.0
 10
212.4108372302169
 20
73.17863761398176
 30
0.0
 10
213.2792056878631
 20
72.48200238726355
 30
0.0
  0
SPLINE
  5
13B
330
1F
100
AcDbEntity
  8
0
  6
Continuous
 62
     7
370
    15
100
AcDbSpline
210
0.0
220
0.0
230
1.0
 70
     8
 71
     3
 72
     9
 73
     5
 74
     0
 42
0.00000001
 43
0.00000001
 12
1.0
 22
0.0
 32
0.0
 13
1.0
 23
0.0
 33
0.0
 40
0.0
 40
0.0
 40
0.0
 40
0.0
 40
0.5157317621103387
 40
1.0
 40
1.0
 40
1.0
 40
1.0
 10
208.5399567366562
 20
86.28279014901234
 30
0.0
 10
209.3538621572583
 20
85.63027484054382
 30
0.0
 10
210.9320186339347
 20
84.36505257500318
 30
0.0
 10
212.5097709447699
 20
83.09928463065273
 30
0.0
 10
213.2738262761644
 20
82.48631341866492
 30
0.0
  0
SPLINE
  5
13C
330
1F
100
AcDbEntity
  8
0
  6
Continuous
 62
     7
370
    15
100
AcDbSpline
210
0.0
220
0.0
230
1.0
 70
     8
 71
     3
 72
     9
 73
     5
 74
     0
 42
0.00000001
 43
0.00000001
 12
1.0
 22
0.0
 32
0.0
 13
1.0
 23
0.0
 33
0.0
 40
0.0
 40
0.0
 40
0.0
 40
0.0
 40
0.5154038889429793
 40
1.0
 40
1.0
 40
1.0
 40
1.0
 10
208.5373776762295
 20
96.2848623287096
 30
0.0
 10
209.3512042432768
 20
95.63240172220264
 30
0.0
 10
210.9302116673696
 20
94.36648072217864
 30
0.0
 10
212.5088357649759
 20
93.10003147936433
 30
0.0
 10
213.2738308634968
 20
92.48631510144543
 30
0.0
  0
SPLINE
  5
13D
330
1F
100
AcDbEntity
  8
0
  6
Continuous
 62
     7
370
    15
100
AcDbSpline
210
0.0
220
0.0
230
1.0
 70
     8
 71
     3
 72
     9
 73
     5
 74
     0
 42
0.00000001
 43
0.00000001
 12
1.0
 22
0.0
 32
0.0
 13
1.0
 23
0.0
 33
0.0
 40
0.0
 40
0.0
 40
0.0
 40
0.0
 40
0.5157460890339844
 40
1.0
 40
1.0
 40
1.0
 40
1.0
 10
208.5400327490911
 20
106.2827297101775
 30
0.0
 10
209.3539475295744
 20
105.6302072783048
 30
0.0
 10
210.9320783148368
 20
104.3650063475621
 30
0.0
 10
212.5098062936618
 20
103.0992573630104
 30
0.0
 10
213.2738272378483
 20
102.48631346694
 30
0.0
  0
SPLINE
  5
13E
330
1F
100
AcDbEntity
  8
0
  6
Continuous
 62
     7
370
    15
100
AcDbSpline
210
0.0
220
0.0
230
1.0
 70
     8
 71
     3
 72
     9
 73
     5
 74
     0
 42
0.00000001
 43
0.00000001
 12
1.0
 22
0.0
 32
0.0
 13
1.0
 23
0.0
 33
0.0
 40
0.0
 40
0.0
 40
0.0
 40
0.0
 40
0.9245904607968304
 40
0.9999999999999999
 40
0.9999999999999999
 40
0.9999999999999999
 40
0.9999999999999999
 10
263.5326172687779
 20
107.3681039593728
 30
0.0
 10
264.3459750622432
 20
108.0206917274163
 30
0.0
 10
265.2256702656355
 20
108.7265045123342
 30
0.0
 10
266.105600443884
 20
109.4320254586856
 30
0.0
 10
266.1719555731567
 20
109.4852284681481
 30
0.0
  0
SPLINE
  5
13F
330
1F
100
AcDbEntity
  8
0
  6
Continuous
 62
     7
370
    15
100
AcDbSpline
210
0.0
220
0.0
230
1.0
 70
     8
 71
     3
 72
     9
 73
     5
 74
     0
 42
0.00000001
 43
0.00000001
 12
1.0
 22
0.0
 32
0.0
 13
1.0
 23
0.0
 33
0.0
 40
0.0
 40
0.0
 40
0.0
 40
0.0
 40
0.4999341953809518
 40
1.0
 40
1.0
 40
1.0
 40
1.0
 10
263.5323272807934
 20
97.36787183271002
 30
0.0
 10
264.3457384348495
 20
98.02044033186854
 30
0.0
 10
265.972774875988
 20
99.32574912088081
 30
0.0
 10
267.6002420826167
 20
100.6305121313252
 30
0.0
 10
268.4140827807905
 20
101.2829794959803
 30
0.0
  0
SPLINE
  5
140
330
1F
100
AcDbEntity
  8
0
  6
Continuous
 62
     7
370
    15
100
AcDbSpline
210
0.0
220
0.0
230
1.0
 70
     8
 71
     3
 72
     9
 73
     5
 74
     0
 42
0.00000001
 43
0.00000001
 12
1.0
 22
0.0
 32
0.0
 13
1.0
 23
0.0
 33
0.0
 40
0.0
 40
0.0
 40
0.0
 40
0.0
 40
0.4999340852487467
 40
1.0
 40
1.0
 40
1.0
 40
1.0
 10
263.5320356685201
 20
87.36763884522847
 30
0.0
 10
264.3454492566026
 20
88.02021031227338
 30
0.0
 10
265.9724909248615
 20
89.32552532539196
 30
0.0
 10
267.5999666809837
 20
90.6302936571581
 30
0.0
 10
268.4138118337044
 20
91.28276382652122
 30
0.0
  0
SPLINE
  5
141
330
1F
100
AcDbEntity
  8
0
  6
Continuous
 62
     7
370
    15
100
AcDbSpline
210
0.0
220
0.0
230
1.0
 70
     8
 71
     3
 72
     9
 73
     5
 74
     0
 42
0.00000001
 43
0.00000001
 12
1.0
 22
0.0
 32
0.0
 13
1.0
 23
0.0
 33
0.0
 40
0.0
 40
0.0
 40
0.0
 40
0.0
 40
0.4999333550193775
 40
1.0
 40
1.0
 40
1.0
 40
1.0
 10
263.5320213758655
 20
77.36762743720512
 30
0.0
 10
264.3454586693295
 20
78.02021764803338
 30
0.0
 10
265.9725501312155
 20
79.32557206032898
 30
0.0
 10
267.6000674739279
 20
80.63037371391604
 30
0.0
 10
268.4139346111458
 20
81.28286149919047
 30
0.0
  0
LINE
  5
142
330
1F
100
AcDbEntity
  8
0
  6
Continuous
 62
     7
370
    15
100
AcDbLine
 10
213.6305558355
 20
72.7196583987
 30
0.0
 11
213.3597927442
 21
72.4926157598
 31
0.0
  0
SPLINE
  5
143
330
1F
100
AcDbEntity
  8
0
  6
Continuous
 62
     7
370
    15
100
AcDbSpline
210
0.0
220
0.0
230
1.0
 70
     8
 71
     3
 72
     9
 73
     5
 74
     0
 42
0.00000001
 43
0.00000001
 12
1.0
 22
0.0
 32
0.0
 13
1.0
 23
0.0
 33
0.0
 40
0.0
 40
0.0
 40
0.0
 40
0.0
 40
0.499933669977996
 40
0.9999999999999999
 40
0.9999999999999999
 40
0.9999999999999999
 40
0.9999999999999999
 10
213.4209819708967
 20
82.60435709348265
 30
0.0
 10
212.6075518610361
 20
81.95177531975182
 30
0.0
 10
210.9804757933321
 20
80.64643860626427
 30
0.0
 10
209.3529828292716
 20
79.34165206822097
 30
0.0
 10
208.5391283955972
 20
78.68917225267951
 30
0.0
  0
SPLINE
  5
144
330
1F
100
AcDbEntity
  8
0
  6
Continuous
 62
     7
370
    15
100
AcDbSpline
210
0.0
220
0.0
230
1.0
 70
     8
 71
     3
 72
     9
 73
     5
 74
     0
 42
0.00000001
 43
0.00000001
 12
1.0
 22
0.0
 32
0.0
 13
1.0
 23
0.0
 33
0.0
 40
0.0
 40
0.0
 40
0.0
 40
0.0
 40
0.4999337538074053
 40
1.0
 40
1.0
 40
1.0
 40
1.0
 10
213.4217944018932
 20
92.60500717403868
 30
0.0
 10
212.6083701246531
 20
91.95242717727645
 30
0.0
 10
210.9813059965656
 20
90.64709423707727
 30
0.0
 10
209.353811151204
 20
89.3423107355703
 30
0.0
 10
208.5399559131862
 20
88.68983254787764
 30
0.0
  0
SPLINE
  5
145
330
1F
100
AcDbEntity
  8
0
  6
Continuous
 62
     7
370
    15
100
AcDbSpline
210
0.0
220
0.0
230
1.0
 70
     8
 71
     3
 72
     9
 73
     5
 74
     0
 42
0.00000001
 43
0.00000001
 12
1.0
 22
0.0
 32
0.0
 13
1.0
 23
0.0
 33
0.0
 40
0.0
 40
0.0
 40
0.0
 40
0.0
 40
0.4999327899882274
 40
1.0
 40
1.0
 40
1.0
 40
1.0
 10
213.4214658819277
 20
102.6047447155161
 30
0.0
 10
212.6080091335787
 20
101.952140218287
 30
0.0
 10
210.9808769177298
 20
100.6467557540184
 30
0.0
 10
209.3533303957967
 20
99.34192876699885
 30
0.0
 10
208.5394477474092
 20
98.6894275760519
 30
0.0
  0
LINE
  5
146
330
1F
100
AcDbEntity
  8
0
  6
Continuous
 62
     7
370
    15
100
AcDbLine
 10
209.5341431994
 20
109.4869980365
 30
0.0
 11
208.5386895234
 21
108.6888203255
 31
0.0
  0
SPLINE
  5
147
330
1F
100
AcDbEntity
  8
0
  6
Continuous
 62
     7
370
    15
100
AcDbSpline
210
0.0
220
0.0
230
1.0
 70
     8
 71
     3
 72
     9
 73
     5
 74
     0
 42
0.00000001
 43
0.00000001
 12
1.0
 22
0.0
 32
0.0
 13
1.0
 23
0.0
 33
0.0
 40
0.0
 40
0.0
 40
0.0
 40
0.0
 40
0.51555117775426
 40
1.0
 40
1.0
 40
1.0
 40
1.0
 10
268.4150863419646
 20
103.6888410517684
 30
0.0
 10
267.6012529818791
 20
104.3413030700948
 30
0.0
 10
266.022683491202
 20
105.6068651451704
 30
0.0
 10
264.4445176328958
 20
106.8729555054291
 30
0.0
 10
263.6799770415309
 20
107.4863114893132
 30
0.0
  0
SPLINE
  5
148
330
1F
100
AcDbEntity
  8
0
  6
Continuous
 62
     7
370
    15
100
AcDbSpline
210
0.0
220
0.0
230
1.0
 70
     8
 71
     3
 72
     9
 73
     5
 74
     0
 42
0.00000001
 43
0.00000001
 12
1.0
 22
0.0
 32
0.0
 13
1.0
 23
0.0
 33
0.0
 40
0.0
 40
0.0
 40
0.0
 40
0.0
 40
0.515419923240825
 40
1.0
 40
1.0
 40
1.0
 40
1.0
 10
268.416135154021
 20
93.68799521449965
 30
0.0
 10
267.6023303872379
 20
94.34043747381328
 30
0.0
 10
266.0234143809141
 20
95.60628349546344
 30
0.0
 10
264.4448926100645
 20
96.87265160759307
 30
0.0
 10
263.6799724091802
 20
97.48630836457424
 30
0.0
  0
SPLINE
  5
149
330
1F
100
AcDbEntity
  8
0
  6
Continuous
 62
     7
370
    15
100
AcDbSpline
210
0.0
220
0.0
230
1.0
 70
     8
 71
     3
 72
     9
 73
     5
 74
     0
 42
0.00000001
 43
0.00000001
 12
1.0
 22
0.0
 32
0.0
 13
1.0
 23
0.0
 33
0.0
 40
0.0
 40
0.0
 40
0.0
 40
0.0
 40
0.5155055762646911
 40
1.0
 40
1.0
 40
1.0
 40
1.0
 10
268.4157613335138
 20
83.68829750226138
 30
0.0
 10
267.6018892717846
 20
84.34079237222487
 30
0.0
 10
266.0231050661386
 20
85.60653012561916
 30
0.0
 10
264.4447023677687
 20
86.8728073192124
 30
0.0
 10
263.6799750619998
 20
87.48631155841153
 30
0.0
  0
SPLINE
  5
14A
330
1F
100
AcDbEntity
  8
0
  6
Continuous
 62
     7
370
    15
100
AcDbSpline
210
0.0
220
0.0
230
1.0
 70
     8
 71
     3
 72
     9
 73
     5
 74
     0
 42
0.00000001
 43
0.00000001
 12
1.0
 22
0.0
 32
0.0
 13
1.0
 23
0.0
 33
0.0
 40
0.0
 40
0.0
 40
0.0
 40
0.0
 40
0.5156032874969024
 40
1.0
 40
1.0
 40
1.0
 40
1.0
 10
268.4149822138401
 20
73.68892464421145
 30
0.0
 10
267.6010882762901
 20
74.3414343946116
 30
0.0
 10
266.0225608361309
 20
75.60696114012148
 30
0.0
 10
264.4444217826012
 20
76.87303206423721
 30
0.0
 10
263.6799764131986
 20
77.48631265767463
 30
0.0
  0
LINE
  5
14B
330
1F
100
AcDbEntity
  8
0
  6
Continuous
 62
     7
370
    15
100
AcDbLine
 10
268.476900835
 20
101.3818825941
 30
0.0
 11
268.476900835
 21
103.5907407577
 31
0.0
  0
LINE
  5
14C
330
1F
100
AcDbEntity
  8
0
  6
Continuous
 62
     7
370
    15
100
AcDbLine
 10
268.476900835
 20
91.3818825941
 30
0.0
 11
268.476900835
 21
93.5907407577
 31
0.0
  0
LINE
  5
14D
330
1F
100
AcDbEntity
  8
0
  6
Continuous
 62
     7
370
    15
100
AcDbLine
 10
268.476900835
 20
81.3818825941
 30
0.0
 11
268.476900835
 21
83.5907407577
 31
0.0
  0
LINE
  5
14E
330
1F
100
AcDbEntity
  8
0
  6
Continuous
 62
     7
370
    15
100
AcDbLine
 10
268.476900835
 20
72.4863116759
 30
0.0
 11
268.476900835
 21
73.5907407577
 31
0.0
  0
LINE
  5
14F
330
1F
100
AcDbEntity
  8
0
  6
Continuous
 62
     7
370
    15
100
AcDbLine
 10
208.476900835
 20
78.5907407577
 30
0.0
 11
208.476900835
 21
76.3818825941
 31
0.0
  0
LINE
  5
150
330
1F
100
AcDbEntity
  8
0
  6
Continuous
 62
     7
370
    15
100
AcDbLine
 10
208.476900835
 20
88.5907407577
 30
0.0
 11
208.476900835
 21
86.3818825941
 31
0.0
  0
LINE
  5
151
330
1F
100
AcDbEntity
  8
0
  6
Continuous
 62
     7
370
    15
100
AcDbLine
 10
208.476900835
 20
98.5907407577
 30
0.0
 11
208.476900835
 21
96.3818825941
 31
0.0
  0
LINE
  5
152
330
1F
100
AcDbEntity
  8
0
  6
Continuous
 62
     7
370
    15
100
AcDbLine
 10
208.476900835
 20
108.5907407577
 30
0.0
 11
208.476900835
 21
106.3818825941
 31
0.0
  0
SPLINE
  5
153
330
1F
100
AcDbEntity
  8
0
  6
Continuous
 62
     7
370
    15
100
AcDbSpline
210
0.0
220
0.0
230
1.0
 70
    24
 71
     3
 72
     9
 73
     5
 74
     0
 42
0.00000001
 43
0.00000001
 12
1.0
 22
0.0
 32
0.0
 13
1.0
 23
0.0
 33
0.0
 40
0.0
 40
0.0
 40
0.0
 40
0.0
 40
0.2546004982037272
 40
1.0
 40
1.0
 40
1.0
 40
1.0
 10
213.2826572788904
 20
72.48631167592019
 30
0.0
 10
213.2802823834115
 20
72.48631167592022
 30
0.0
 10
213.2709544539865
 20
72.4863116759203
 30
0.0
 10
213.3141594787793
 20
72.48631167591937
 30
0.0
 10
213.3463644827349
 20
72.48631167591871
 30
0.0
  0
LINE
  5
154
330
1F
100
AcDbEntity
  8
0
  6
Continuous
 62
     7
370
    15
100
AcDbLine
 10
266.0976916122
 20
109.4863116759
 30
0.0
 11
268.2090383296
 21
111.1751176617
 31
0.0
  0
SPLINE
  5
155
330
1F
100
AcDbEntity
  8
0
  6
Continuous
 62
     7
370
    15
100
AcDbSpline
210
0.0
220
0.0
230
1.0
 70
    24
 71
     3
 72
     9
 73
     5
 74
     0
 42
0.00000001
 43
0.00000001
 12
1.0
 22
0.0
 32
0.0
 13
1.0
 23
0.0
 33
0.0
 40
0.0
 40
0.0
 40
0.0
 40
0.0
 40
0.9687352943638606
 40
1.0
 40
1.0
 40
1.0
 40
1.0
 10
266.0976916121683
 20
109.4863116759201
 30
0.0
 10
266.1453495601174
 20
109.4863116759201
 30
0.0
 10
266.1945456080226
 20
109.4863116759201
 30
0.0
 10
266.1717984078641
 20
109.4863116759201
 30
0.0
 10
266.1710872233471
 20
109.4863116759201
 30
0.0
  0
LWPOLYLINE
  5
156
330
1F
100
AcDbEntity
  8
0
  6
Continuous
 62
     7
370
    15
100
AcDbPolyline
 90
        4
 70
   128
 43
0.0
 10
213.3565237502
 20
112.4863116759
 10
212.3528991606
 20
113.2890775074
 10
211.0390547994
 20
114.3399797922
 10
208.7447633404
 20
116.1751176617
  0
SPLINE
  5
157
330
1F
100
AcDbEntity
  8
0
  6
Continuous
 62
     7
370
    15
100
AcDbSpline
210
0.0
220
0.0
230
1.0
 70
    24
 71
     3
 72
    37
 73
    33
 74
     0
 42
0.00000001
 43
0.00000001
 12
1.0
 22
0.0
 32
0.0
 13
1.0
 23
0.0
 33
0.0
 40
0.0
 40
0.0
 40
0.0
 40
0.0
 40
0.0060566200477281
 40
0.0403339367697228
 40
0.0748599243738975
 40
0.1085721262971537
 40
0.1425207863756651
 40
0.176710858257231
 40
0.2114823402271362
 40
0.2384603678251028
 40
0.2655583328403662
 40
0.292894221426682
 40
0.3203414986119575
 40
0.3479790718110307
 40
0.3829675073330498
 40
0.4181908228584701
 40
0.4537774286075171
 40
0.4898610546019225
 40
0.5254395921051502
 40
0.5612648759895602
 40
0.597860152354281
 40
0.6347125570562331
 40
0.6708084438675539
 40
0.7071348574064082
 40
0.7441855197230652
 40
0.7814857518068674
 40
0.8190990721388134
 40
0.8569735094767162
 40
0.8956711211941718
 40
0.9346529876487613
 40
0.9672473349013861
 40
1.0
 40
1.0
 40
1.0
 40
1.0
 10
213.3649177592076
 20
72.48631167592019
 30
0.0
 10
213.3706979568966
 20
72.48631167592019
 30
0.0
 10
213.4091910646479
 20
72.48631167592018
 30
0.0
 10
213.6592086522957
 20
72.48631167592019
 30
0.0
 10
214.1219157579604
 20
72.48631167592019
 30
0.0
 10
214.7767600321811
 20
72.48631167592019
 30
0.0
 10
215.5954619516705
 20
72.4863116759202
 30
0.0
 10
216.5913225588375
 20
72.48631167592022
 30
0.0
 10
217.670931334219
 20
72.48631167592012
 30
0.0
 10
218.7892028002547
 20
72.48631167592022
 30
0.0
 10
219.9055408930501
 20
72.48631167592013
 30
0.0
 10
221.1108004372078
 20
72.48631167592019
 30
0.0
 10
222.4021145328097
 20
72.4863116759202
 30
0.0
 10
223.8934852720545
 20
72.48631167592012
 30
0.0
 10
225.6053685868349
 20
72.4863116759202
 30
0.0
 10
227.5548420074448
 20
72.48631167592018
 30
0.0
 10
229.6116809339588
 20
72.4863116759202
 30
0.0
 10
231.749615479105
 20
72.4863116759201
 30
0.0
 10
233.9516494368996
 20
72.48631167592032
 30
0.0
 10
236.2083479269047
 20
72.48631167591982
 30
0.0
 10
238.5211507763119
 20
72.48631167592033
 30
0.0
 10
240.852171478421
 20
72.48631167592012
 30
0.0
 10
243.1744081772866
 20
72.48631167592015
 30
0.0
 10
245.4831949603679
 20
72.48631167592043
 30
0.0
 10
247.7842038535811
 20
72.48631167592012
 30
0.0
 10
250.06236455434
 20
72.4863116759202
 30
0.0
 10
252.2914586121196
 20
72.4863116759202
 30
0.0
 10
254.4652814497979
 20
72.48631167592012
 30
0.0
 10
256.5654094439225
 20
72.4863116759202
 30
0.0
 10
258.455762095874
 20
72.48631167592018
 30
0.0
 10
260.1415146386983
 20
72.4863116759202
 30
0.0
 10
261.1144379751084
 20
72.48631167592018
 30
0.0
 10
261.6020782061994
 20
72.48631167592015
 30
0.0
  0
SPLINE
  5
158
330
1F
100
AcDbEntity
  8
0
  6
Continuous
 62
     7
370
    15
100
AcDbSpline
210
0.0
220
0.0
230
1.0
 70
    24
 71
     3
 72
     9
 73
     5
 74
     0
 42
0.00000001
 43
0.00000001
 12
1.0
 22
0.0
 32
0.0
 13
1.0
 23
0.0
 33
0.0
 40
0.0
 40
0.0
 40
0.0
 40
0.0
 40
0.0183245576415394
 40
0.9999999999999999
 40
0.9999999999999999
 40
0.9999999999999999
 40
0.9999999999999999
 10
209.5346954365346
 20
109.4863116759201
 30
0.0
 10
209.53426969925
 20
109.4863116759201
 30
0.0
 10
209.5110365444327
 20
109.48631167592
 30
0.0
 10
209.5589108290998
 20
109.4863116759201
 30
0.0
 10
209.6059078386779
 20
109.4863116759201
 30
0.0
  0
LWPOLYLINE
  5
159
330
1F
100
AcDbEntity
  8
0
  6
Continuous
 62
     7
370
    15
100
AcDbPolyline
 90
        4
 70
   128
 43
0.0
 10
213.6667445003
 20
112.7344469059
 10
212.3528991606
 20
111.6835458445
 10
210.9794027378
 20
110.5849297126
 10
209.6059078387
 20
109.4863116759
  0
LINE
  5
15A
330
1F
100
AcDbEntity
  8
0
  6
Continuous
 62
     7
370
    15
100
AcDbLine
 10
268.476900835
 20
72.4863116759
 30
0.0
 11
261.6020782062
 21
72.4863116759
 31
0.0
  0
LINE
  5
15B
330
1F
100
AcDbEntity
  8
0
  6
Continuous
 62
     7
370
    15
100
AcDbLine
 10
268.2090383296
 20
117.4863116759
 30
0.0
 11
217.2636973994
 21
117.4863116759
 31
0.0
  0
LINE
  5
15C
330
1F
100
AcDbEntity
  8
0
  6
Continuous
 62
     7
370
    15
100
AcDbLine
 10
268.2090383296
 20
117.4863116759
 30
0.0
 11
268.2090383296
 21
111.1751176617
 31
0.0
  0
SPLINE
  5
15D
330
1F
100
AcDbEntity
  8
0
  6
Continuous
 62
     7
370
    15
100
AcDbSpline
210
0.0
220
0.0
230
1.0
 70
     8
 71
     3
 72
    14
 73
    10
 74
     0
 42
0.00000001
 43
0.00000001
 12
1.0
 22
0.0
 32
0.0
 13
1.0
 23
0.0
 33
0.0
 40
0.0
 40
0.0
 40
0.0
 40
0.0
 40
0.0001682433678169
 40
0.0001682433678169
 40
0.0001682433678169
 40
0.000336486743136
 40
0.000336486743136
 40
0.000336486743136
 40
0.0006251464879391
 40
0.0006251464879391
 40
0.0006251464879391
 40
0.0006251464879391
 10
208.7447633403686
 20
116.5886475264964
 30
0.0
 10
209.1857124840656
 20
116.2421318934525
 30
0.0
 10
209.626795411702
 20
115.8957864151781
 30
0.0
 10
210.0680314834579
 20
115.5496362162003
 30
0.0
 10
210.5092675667741
 20
115.2034860081534
 30
0.0
 10
210.950656821716
 20
114.8575309295929
 30
0.0
 10
211.3922225225988
 20
114.5118012959843
 30
0.0
 10
212.1498285736916
 20
113.9186237417941
 30
0.0
 10
212.9079514086293
 20
113.3261052392907
 30
0.0
 10
213.6667445002946
 20
112.7344469058849
 30
0.0
  0
SPLINE
  5
15E
330
1F
100
AcDbEntity
  8
0
  6
Continuous
 62
     7
370
    15
100
AcDbSpline
210
0.0
220
0.0
230
1.0
 70
     8
 71
     3
 72
    10
 73
     6
 74
     0
 42
0.00000001
 43
0.00000001
 12
1.0
 22
0.0
 32
0.0
 13
1.0
 23
0.0
 33
0.0
 40
0.0
 40
0.0
 40
0.0
 40
0.0
 40
0.5
 40
0.5
 40
1.0
 40
1.0
 40
1.0
 40
1.0
 10
215.3517234637953
 20
117.4863116759188
 30
0.0
 10
213.6055003584029
 20
117.3436552680076
 30
0.0
 10
212.1178383395859
 20
117.1918774301714
 30
0.0
 10
209.8703096101964
 20
116.8867830015475
 30
0.0
 10
209.1122576929352
 20
116.733692436175
 30
0.0
 10
208.7447633403805
 20
116.5886475265009
 30
0.0
  0
LINE
  5
15F
330
1F
100
AcDbEntity
  8
0
  6
Continuous
 62
     7
370
    15
100
AcDbLine
 10
217.2301060316
 20
117.4863116759
 30
0.0
 11
215.3517234638
 21
117.4863116759
 31
0.0
  0
LINE
  5
160
330
1F
100
AcDbEntity
  8
0
  6
Continuous
 62
     7
370
    15
100
AcDbLine
 10
208.7447633404
 20
116.5886475265
 30
0.0
 11
208.7447633404
 21
117.4863116759
 31
0.0
  0
LINE
  5
161
330
1F
100
AcDbEntity
  8
0
  6
Continuous
 62
     7
370
    15
100
AcDbLine
 10
215.3517234638
 20
117.4863116759
 30
0.0
 11
208.7447633404
 21
117.4863116759
 31
0.0
  0
LINE
  5
162
330
1F
100
AcDbEntity
  8
0
  6
Continuous
 62
     7
370
    15
100
AcDbLine
 10
208.7447633404
 20
116.5886475265
 30
0.0
 11
208.7447633404
 21
116.1751176617
 31
0.0
  0
SPLINE
  5
163
330
1F
100
AcDbEntity
  8
0
  6
HIDDEN
 62
     7
370
     0
100
AcDbSpline
210
0.0
220
0.0
230
1.0
 70
     8
 71
     3
 72
    11
 73
     7
 74
     0
 42
0.00000001
 43
0.00000001
 12
1.0
 22
0.0
 32
0.0
 13
1.0
 23
0.0
 33
0.0
 40
0.0
 40
0.0
 40
0.0
 40
0.0
 40
0.000170310684419
 40
0.000170310684419
 40
0.000170310684419
 40
0.000340621504199
 40
0.000340621504199
 40
0.000340621504199
 40
0.000340621504199
 10
268.2090383296431
 20
111.5886475264966
 30
0.0
 10
267.7626709546229
 20
111.2378740286088
 30
0.0
 10
267.316166494713
 20
110.8872748824331
 30
0.0
 10
266.8695048445251
 20
110.5368761801605
 30
0.0
 10
266.4228428478918
 20
110.1864772061071
 30
0.0
 10
265.976023633641
 20
109.8362785182034
 30
0.0
 10
265.5290229741823
 20
109.4863116759201
 30
0.0
  0
LINE
  5
164
330
1F
100
AcDbEntity
  8
0
  6
HIDDEN
 62
     7
370
     0
100
AcDbLine
 10
213.6667445003
 20
112.238176446
 30
0.0
 11
213.3565237502
 21
112.4863116759
 31
0.0
  0
SPLINE
  5
165
330
1F
100
AcDbEntity
  8
0
  6
HIDDEN
 62
     7
370
     0
100
AcDbSpline
210
0.0
220
0.0
230
1.0
 70
     8
 71
     3
 72
    11
 73
     7
 74
     0
 42
0.00000001
 43
0.00000001
 12
1.0
 22
0.0
 32
0.0
 13
1.0
 23
0.0
 33
0.0
 40
0.0
 40
0.0
 40
0.0
 40
0.0
 40
0.0001682433725432
 40
0.0001682433725432
 40
0.0001682433725432
 40
0.0004466432981014
 40
0.0004466432981014
 40
0.0004466432981014
 40
0.0004466432981014
 10
210.148755491952
 20
109.4863116759202
 30
0.0
 10
210.5900103745927
 20
109.8324379209333
 30
0.0
 10
211.0314197289414
 20
110.1783673593557
 30
0.0
 10
211.4730070986069
 20
110.5240693175407
 30
0.0
 10
212.2037214843137
 20
111.0961178211113
 30
0.0
 10
212.9349211198088
 20
111.6675473688042
 30
0.0
 10
213.6667445002946
 20
112.2381764459554
 30
0.0
  0
LINE
  5
166
330
1F
100
AcDbEntity
  8
0
  6
HIDDEN
 62
     7
370
     0
100
AcDbLine
 10
254.476900835
 20
74.4863116759
 30
0.0
 11
222.476900835
 21
74.4863116759
 31
0.0
  0
LINE
  5
167
330
1F
100
AcDbEntity
  8
0
  6
HIDDEN
 62
     7
370
     0
100
AcDbLine
 10
253.9688342198
 20
109.4863116759
 30
0.0
 11
253.9688342198
 21
115.4863116759
 31
0.0
  0
LINE
  5
168
330
1F
100
AcDbEntity
  8
0
  6
HIDDEN
 62
     7
370
     0
100
AcDbLine
 10
222.9849674502
 20
115.4863116759
 30
0.0
 11
222.9849674502
 21
109.4863116759
 31
0.0
  0
LINE
  5
169
330
1F
100
AcDbEntity
  8
0
  6
HIDDEN
 62
     7
370
     0
100
AcDbLine
 10
253.9688342198
 20
115.4863116759
 30
0.0
 11
222.9849674502
 21
115.4863116759
 31
0.0
  0
SPLINE
  5
16A
330
1F
100
AcDbEntity
  8
0
  6
HIDDEN
 62
     7
370
     0
100
AcDbSpline
210
0.0
220
0.0
230
1.0
 70
     8
 71
     3
 72
     8
 73
     4
 74
     0
 42
0.00000001
 43
0.00000001
 12
1.0
 22
0.0
 32
0.0
 13
1.0
 23
0.0
 33
0.0
 40
0.0
 40
0.0
 40
0.0
 40
0.0
 40
1.0
 40
1.0
 40
1.0
 40
1.0
 10
253.9688342198354
 20
115.4863116759202
 30
0.0
 10
254.6560678825615
 20
116.151722808593
 30
0.0
 10
255.3419253798957
 20
116.8185327619094
 30
0.0
 10
256.02682960979
 20
117.4863116759202
 30
0.0
  0
SPLINE
  5
16B
330
1F
100
AcDbEntity
  8
0
  6
HIDDEN
 62
     7
370
     0
100
AcDbSpline
210
0.0
220
0.0
230
1.0
 70
     8
 71
     3
 72
     8
 73
     4
 74
     0
 42
0.00000001
 43
0.00000001
 12
1.0
 22
0.0
 32
0.0
 13
1.0
 23
0.0
 33
0.0
 40
0.0
 40
0.0
 40
0.0
 40
0.0
 40
1.0
 40
1.0
 40
1.0
 40
1.0
 10
220.9269720602215
 20
117.4863116759202
 30
0.0
 10
221.6118840380586
 20
116.8185252076959
 30
0.0
 10
222.2977425630662
 20
116.1517143116392
 30
0.0
 10
222.9849674501761
 20
115.4863116759202
 30
0.0
  0
LINE
  5
16C
330
1F
100
AcDbEntity
  8
0
  6
HIDDEN
 62
     7
370
     0
100
AcDbLine
 10
213.2738262762
 20
82.4863134187
 30
0.0
 11
213.422094932
 21
82.3673765675
 31
0.0
  0
LINE
  5
16D
330
1F
100
AcDbEntity
  8
0
  6
HIDDEN
 62
     7
370
     0
100
AcDbLine
 10
213.2738308635
 20
92.4863151014
 30
0.0
 11
213.4190975577
 21
92.3697874971
 31
0.0
  0
LINE
  5
16E
330
1F
100
AcDbEntity
  8
0
  6
HIDDEN
 62
     7
370
     0
100
AcDbLine
 10
213.2738272378
 20
102.4863134669
 30
0.0
 11
213.4222262994
 21
102.3672719746
 31
0.0
  0
LINE
  5
16F
330
1F
100
AcDbEntity
  8
0
  6
HIDDEN
 62
     7
370
     0
100
AcDbLine
 10
263.6799770415
 20
107.4863114893
 30
0.0
 11
263.5333579711
 21
107.6039244872
 31
0.0
  0
LINE
  5
170
330
1F
100
AcDbEntity
  8
0
  6
HIDDEN
 62
     7
370
     0
100
AcDbLine
 10
263.6799724092
 20
97.4863083646
 30
0.0
 11
263.5345557135
 21
97.602956344
 31
0.0
  0
LINE
  5
171
330
1F
100
AcDbEntity
  8
0
  6
HIDDEN
 62
     7
370
     0
100
AcDbLine
 10
263.679975062
 20
87.4863115584
 30
0.0
 11
263.5337795482
 21
87.6035845986
 31
0.0
  0
LINE
  5
172
330
1F
100
AcDbEntity
  8
0
  6
HIDDEN
 62
     7
370
     0
100
AcDbLine
 10
263.6799764132
 20
77.4863126577
 30
0.0
 11
263.532885995
 21
77.604303894
 31
0.0
  0
LINE
  5
173
330
1F
100
AcDbEntity
  8
0
  6
HIDDEN
 62
     7
370
     0
100
AcDbLine
 10
256.476900835
 20
72.4863116759
 30
0.0
 11
254.476900835
 21
74.4863116759
 31
0.0
  0
LINE
  5
174
330
1F
100
AcDbEntity
  8
0
  6
HIDDEN
 62
     7
370
     0
100
AcDbLine
 10
222.476900835
 20
74.4863116759
 30
0.0
 11
220.476900835
 21
72.4863116759
 31
0.0
  0
LINE
  5
175
330
1F
100
AcDbEntity
  8
0
  6
HIDDEN
 62
     7
370
     0
100
AcDbLine
 10
254.476900835
 20
74.4863116759
 30
0.0
 11
254.476900835
 21
109.4863116759
 31
0.0
  0
LINE
  5
176
330
1F
100
AcDbEntity
  8
0
  6
HIDDEN
 62
     7
370
     0
100
AcDbLine
 10
222.476900835
 20
109.4863116759
 30
0.0
 11
222.476900835
 21
74.4863116759
 31
0.0
  0
DIMENSION
  5
177
330
1F
100
AcDbEntity
  8
0
  6
Continuous
 62
     7
370
     0
100
AcDbDimension
  2
_D_2
 10
278.476900835
 20
72.4863116759
 30
0.0
 11
278.476900835
 21
90.7022368421
 31
0.0
 70
   160
  1
<>
 71
     2
 42
-1.0
  3
SLDDIMSTYLE2
100
AcDbAlignedDimension
 13
268.2090383296
 23
117.4863116759
 33
0.0
 14
261.6020782062
 24
72.4863116759
 34
0.0
 50
90.0
100
AcDbRotatedDimension
  0
DIMENSION
  5
182
330
1F
100
AcDbEntity
  8
0
  6
Continuous
 62
     7
370
     0
100
AcDbDimension
  2
_D_3
 10
222.476900835
 20
139.6318825941
 30
0.0
 11
239.6106766917
 21
139.6318825941
 31
0.0
 70
   160
  1
%%c<>
 71
     2
 42
-1.0
  3
SLDDIMSTYLE2
100
AcDbAlignedDimension
 13
254.476900835
 23
109.4863116759
 33
0.0
 14
222.476900835
 24
109.4863116759
 34
0.0
100
AcDbRotatedDimension
  0
ENDSEC
  0
SECTION
  2
OBJECTS
  0
DICTIONARY
  5
C
330
0
100
AcDbDictionary
281
     1
  3
ACAD_GROUP
350
D
  3
ACAD_LAYOUT
350
1A
  3
ACAD_MLINESTYLE
350
17
  3
ACAD_PLOTSETTINGS
350
19
  3
ACAD_PLOTSTYLENAME
350
E
  0
DICTIONARY
  5
D
102
{ACAD_REACTORS
330
C
102
}
330
C
100
AcDbDictionary
281
     1
  0
DICTIONARY
  5
1A
102
{ACAD_REACTORS
330
C
102
}
330
C
100
AcDbDictionary
281
     1
  3
Layout1
350
1E
  3
Layout2
350
26
  3
Model
350
22
  0
DICTIONARY
  5
17
102
{ACAD_REACTORS
330
C
102
}
330
C
100
AcDbDictionary
281
     1
  3
Standard
350
18
  0
DICTIONARY
  5
19
102
{ACAD_REACTORS
330
C
102
}
330
C
100
AcDbDictionary
281
     1
  0
ACDBDICTIONARYWDFLT
  5
E
102
{ACAD_REACTORS
330
C
102
}
330
C
100
AcDbDictionary
281
     1
  3
Normal
350
F
100
AcDbDictionaryWithDefault
340
F
  0
LAYOUT
  5
1E
102
{ACAD_REACTORS
330
1A
102
}
330
1A
100
AcDbPlotSettings
  1

  2
none_device
  4

  6

 40
0.0
 41
0.0
 42
0.0
 43
0.0
 44
0.0
 45
0.0
 46
0.0
 47
0.0
 48
0.0
 49
0.0
140
0.0
141
0.0
142
1.0
143
1.0
 70
   688
 72
     0
 73
     0
 74
     5
  7

 75
    16
147
1.0
148
0.0
149
0.0
100
AcDbLayout
  1
Layout1
 70
     1
 71
     1
 10
0.0
 20
0.0
 11
420.0
 21
297.0
 12
0.0
 22
0.0
 32
0.0
 14
1.0000000000E+20
 24
1.0000000000E+20
 34
1.0000000000E+20
 15
-1.0000000000E+20
 25
-1.0000000000E+20
 35
-1.0000000000E+20
146
0.0
 13
0.0
 23
0.0
 33
0.0
 16
1.0
 26
0.0
 36
0.0
 17
0.0
 27
1.0
 37
0.0
 76
     0
330
1B
  0
LAYOUT
  5
26
102
{ACAD_REACTORS
330
1A
102
}
330
1A
100
AcDbPlotSettings
  1

  2
none_device
  4

  6

 40
0.0
 41
0.0
 42
0.0
 43
0.0
 44
0.0
 45
0.0
 46
0.0
 47
0.0
 48
0.0
 49
0.0
140
0.0
141
0.0
142
1.0
143
1.0
 70
   688
 72
     0
 73
     0
 74
     5
  7

 75
    16
147
1.0
148
0.0
149
0.0
100
AcDbLayout
  1
Layout2
 70
     1
 71
     2
 10
0.0
 20
0.0
 11
0.0
 21
0.0
 12
0.0
 22
0.0
 32
0.0
 14
0.0
 24
0.0
 34
0.0
 15
0.0
 25
0.0
 35
0.0
146
0.0
 13
0.0
 23
0.0
 33
0.0
 16
1.0
 26
0.0
 36
0.0
 17
0.0
 27
1.0
 37
0.0
 76
     0
330
23
  0
LAYOUT
  5
22
102
{ACAD_REACTORS
330
1A
102
}
330
1A
100
AcDbPlotSettings
  1

  2
none_device
  4

  6

 40
0.0
 41
0.0
 42
0.0
 43
0.0
 44
0.0
 45
0.0
 46
0.0
 47
0.0
 48
0.0
 49
0.0
140
0.0
141
0.0
142
1.0
143
1.0
 70
  1712
 72
     0
 73
     0
 74
     0
  7

 75
     0
147
1.0
148
0.0
149
0.0
100
AcDbLayout
  1
Model
 70
     1
 71
     0
 10
0.0
 20
0.0
 11
420.0
 21
297.0
 12
0.0
 22
0.0
 32
0.0
 14
0.0
 24
0.0
 34
0.0
 15
420.0
 25
297.0
 35
0.0
146
0.0
 13
0.0
 23
0.0
 33
0.0
 16
1.0
 26
0.0
 36
0.0
 17
0.0
 27
1.0
 37
0.0
 76
     0
330
1F
331
29
  0
MLINESTYLE
  5
18
102
{ACAD_REACTORS
330
17
102
}
330
17
100
AcDbMlineStyle
  2
Standard
 70
     0
  3

 62
   256
 51
90.0
 52
90.0
 71
     2
 49
0.5
 62
   256
  6
BYLAYER
 49
-0.5
 62
   256
  6
BYLAYER
  0
ACDBPLACEHOLDER
  5
F
102
{ACAD_REACTORS
330
E
102
}
330
E
  0
ENDSEC
  0
EOF
