<?xml version="1.0" encoding="UTF-8" standalone="no"?>
<!-- Created with Inkscape (http://www.inkscape.org/) -->

<svg
   xmlns:dc="http://purl.org/dc/elements/1.1/"
   xmlns:cc="http://creativecommons.org/ns#"
   xmlns:rdf="http://www.w3.org/1999/02/22-rdf-syntax-ns#"
   xmlns:svg="http://www.w3.org/2000/svg"
   xmlns="http://www.w3.org/2000/svg"
   xmlns:sodipodi="http://sodipodi.sourceforge.net/DTD/sodipodi-0.dtd"
   xmlns:inkscape="http://www.inkscape.org/namespaces/inkscape"
   width="236.68199mm"
   height="236.64206mm"
   viewBox="0 0 838.63698 838.49548"
   id="svg4106"
   version="1.1"
   inkscape:version="0.91 r13725"
   sodipodi:docname="mini.bed.plate.for.200mm.svg">
  <sodipodi:namedview
     id="base"
     pagecolor="#ffffff"
     bordercolor="#666666"
     borderopacity="1.0"
     inkscape:pageopacity="0.0"
     inkscape:pageshadow="2"
     inkscape:zoom="0.59664991"
     inkscape:cx="89.503727"
     inkscape:cy="558.23011"
     inkscape:document-units="px"
     inkscape:current-layer="layer1"
     showgrid="false"
     fit-margin-top="0"
     fit-margin-left="0"
     fit-margin-right="0"
     fit-margin-bottom="0"
     inkscape:window-width="1366"
     inkscape:window-height="706"
     inkscape:window-x="-8"
     inkscape:window-y="-8"
     inkscape:window-maximized="1" />
  <defs
     id="defs4108">
    <marker
       refY="0"
       refX="0"
       style="overflow:visible"
       id="DistanceX"
       orient="auto">
      <path
         inkscape:connector-curvature="0"
         style="stroke:#000000;stroke-width:0.5"
         d="M 3,-3 -3,3 M 0,-5 0,5"
         id="path4121" />
    </marker>
    <pattern
       height="8"
       width="8"
       patternUnits="userSpaceOnUse"
       y="0"
       x="0"
       id="Hatch">
      <path
         linecap="square"
         stroke="#000000"
         stroke-width="0.25"
         d="M8 4 l-4,4"
         id="path4124" />
      <path
         linecap="square"
         stroke="#000000"
         stroke-width="0.25"
         d="M6 2 l-4,4"
         id="path4126" />
      <path
         linecap="square"
         stroke="#000000"
         stroke-width="0.25"
         d="M4 0 l-4,4"
         id="path4128" />
    </pattern>
    <symbol
       id="*MODEL_SPACE" />
    <symbol
       id="*PAPER_SPACE" />
  </defs>
  <metadata
     id="metadata4111">
    <rdf:RDF>
      <cc:Work
         rdf:about="">
        <dc:format>image/svg+xml</dc:format>
        <dc:type
           rdf:resource="http://purl.org/dc/dcmitype/StillImage" />
        <dc:title></dc:title>
      </cc:Work>
    </rdf:RDF>
  </metadata>
  <g
     transform="translate(-500.68147,-596.04344)"
     id="layer1"
     inkscape:groupmode="layer"
     inkscape:label="Layer 1">
    <g
       transform="translate(556.81161,326.04688)"
       id="g4132"
       inkscape:label="0" />
    <path
       inkscape:connector-curvature="0"
       style="fill:none;stroke:#000000;stroke-width:1.30769217"
       d="m 739.90167,881.8876 2.92844,-0.65244 2.60305,-1.6311 1.62692,-2.60976 0.65075,-2.93599 -0.65075,-3.26221 -1.62692,-2.28355 -2.60305,-1.95732 -2.92844,-0.32622 -2.92843,0.32622 -2.60305,1.95732 -1.6269,2.28355 -0.65077,3.26221 0.65077,2.93599 1.6269,2.60976 2.60305,1.6311 2.92843,0.65244"
       id="path4138" />
    <path
       inkscape:connector-curvature="0"
       style="fill:none;stroke:#000000;stroke-width:1.29486334"
       d="m 739.90167,1164.3406 2.93089,-0.6391 2.60524,-1.598 1.62829,-2.5566 0.6513,-2.8762 -0.6513,-3.1959 -1.62829,-2.5566 -2.60524,-1.598 -2.93089,-0.6391 -2.93088,0.6391 -2.60524,1.598 -1.62827,2.5566 -0.65132,3.1959 0.65132,2.8762 1.62827,2.5566 2.60524,1.598 2.93088,0.6391"
       id="path4142" />
    <path
       inkscape:connector-curvature="0"
       style="fill:none;stroke:#000000;stroke-width:1.00046003"
       d="m 662.18289,1155.6387 1.74386,-0.2493 1.49474,-0.9976 0.99649,-1.4964 0.24912,-1.7457 -0.24912,-1.7457 -0.99649,-1.247 -1.49474,-0.9975 -1.74386,-0.2494 -1.49474,0.2494 -1.49475,0.9975 -0.99649,1.247 -0.24912,1.7457 0.24912,1.7457 0.99649,1.4964 1.49475,0.9976 1.49474,0.2493"
       id="path4144" />
    <path
       inkscape:connector-curvature="0"
       style="fill:none;stroke:#000000;stroke-width:1.00036871"
       d="m 662.18291,1183.7967 1.74354,-0.2494 1.49447,-0.9976 0.99631,-1.4964 0.24908,-1.4963 -0.24908,-1.7457 -0.99631,-1.4964 -1.49447,-0.9975 -1.74354,-0.2494 -1.49447,0.2494 -1.49447,0.9975 -0.99631,1.4964 -0.24908,1.7457 0.24908,1.4963 0.99631,1.4964 1.49447,0.9976 1.49447,0.2494"
       id="path4146" />
    <path
       inkscape:connector-curvature="0"
       style="fill:none;stroke:#000000;stroke-width:0.987719"
       d="m 1114.2972,627.3677 1.4968,-0.48546 1.4968,-0.72822 0.9979,-1.45641 0.2495,-1.69914 -0.2495,-1.69915 -0.9979,-1.21369 -1.4968,-0.97093 -1.4968,-0.48547 -1.7464,0.48547 -1.4968,0.97093 -0.9979,1.21369 -0.2495,1.69915 0.2495,1.69914 0.9979,1.45641 1.4968,0.72822 1.7464,0.48546"
       id="path4148" />
    <path
       inkscape:connector-curvature="0"
       style="fill:none;stroke:#000000;stroke-width:0.98773503"
       d="m 725.70285,627.36758 1.74644,-0.48546 1.49695,-0.72819 0.99796,-1.45637 0.24949,-1.69909 -0.24949,-1.6991 -0.99796,-1.21365 -1.49695,-0.9709 -1.74644,-0.48546 -1.49694,0.48546 -1.49694,0.9709 -0.99796,1.21365 -0.24949,1.6991 0.24949,1.69909 0.99796,1.45637 1.49694,0.72819 1.49694,0.48546"
       id="path4150" />
    <path
       inkscape:connector-curvature="0"
       style="fill:none;stroke:#000000;stroke-width:1.0006274"
       d="m 1100.0983,882.04055 2.7399,-0.74856 2.4908,-1.49709 1.7436,-2.24566 0.9963,-2.74469 -0.2491,-2.9942 -1.4945,-2.74468 -1.9926,-1.74662 -2.7399,-1.24759 -2.989,0 -2.7399,1.24759 -2.2416,1.74662 -1.2454,2.74468 -0.2491,2.9942 0.7472,2.74469 1.7435,2.24566 2.4908,1.49709 2.989,0.74856"
       id="path4152" />
    <path
       inkscape:connector-curvature="0"
       style="fill:none;stroke:#000000"
       d="m 817.62046,882.02992 2.98918,-0.74755 2.24189,-1.49511 1.99279,-2.24267 0.74729,-2.74104 -0.2491,-2.99022 -1.49459,-2.74103 -1.99279,-1.7443 -2.74008,-1.24592 -2.98919,0 -2.74008,1.24592 -1.99279,1.7443 -1.4946,2.74103 -0.24909,2.99022 0.74729,2.74104 1.74369,2.24267 2.49099,1.49511 2.98919,0.74755"
       id="path4154" />
    <path
       inkscape:connector-curvature="0"
       style="fill:none;stroke:#000000"
       d="m 501.36675,1277.2375 63.52016,-63.5422 0,-396.95187 -63.52016,-63.5422"
       id="path4156" />
    <path
       inkscape:connector-curvature="0"
       style="fill:none;stroke:#000000;stroke-width:1.08333004"
       d="m 1303.2618,596.58511 -766.52367,0"
       id="path4158" />
    <path
       inkscape:connector-curvature="0"
       style="fill:none;stroke:#000000"
       d="m 1338.6332,631.96939 -35.372,-35.38428"
       id="path4160" />
    <path
       inkscape:connector-curvature="0"
       style="fill:none;stroke:#000000;stroke-width:1.37055171"
       d="m 1338.6332,753.20066 0,-121.23071"
       id="path4162" />
    <path
       inkscape:connector-curvature="0"
       style="fill:none;stroke:#000000"
       d="m 1338.6332,753.20123 -63.5201,63.5422 0,396.95187 63.5201,63.5422"
       id="path4164" />
    <path
       inkscape:connector-curvature="0"
       style="fill:none;stroke:#000000"
       d="m 1303.2612,1433.8536 35.372,-35.1351"
       id="path4166" />
    <path
       inkscape:connector-curvature="0"
       style="fill:none;stroke:#000000"
       d="m 1182.0518,1433.8536 -63.5202,-63.5422 -397.06322,0 -63.52016,63.5422"
       id="path4168" />
    <path
       inkscape:connector-curvature="0"
       style="fill:none;stroke:#000000;stroke-width:1.37055171"
       d="m 501.36675,631.96995 0,121.23071"
       id="path4170" />
    <path
       inkscape:connector-curvature="0"
       style="fill:none;stroke:#000000;stroke-width:1.36933231"
       d="m 1338.6332,1398.7192 0,-121.4823"
       id="path4172" />
    <path
       inkscape:connector-curvature="0"
       style="fill:none;stroke:#000000;stroke-width:1.37066925"
       d="m 536.73876,1433.8536 121.20945,0"
       id="path4174" />
    <path
       inkscape:connector-curvature="0"
       style="fill:none;stroke:#000000;stroke-width:1.00045514"
       d="m 662.18289,1236.873 1.74386,-0.2494 1.49474,-0.9976 0.99649,-1.4963 0.24912,-1.7457 -0.24912,-1.7456 -0.99649,-1.247 -1.49474,-0.9975 -1.74386,-0.2494 -1.49474,0.2494 -1.49475,0.9975 -0.99649,1.247 -0.24912,1.7456 0.24912,1.7457 0.99649,1.4963 1.49475,0.9976 1.49474,0.2494"
       id="path4176" />
    <path
       inkscape:connector-curvature="0"
       style="fill:none;stroke:#000000;stroke-width:1.37066984"
       d="m 1182.0518,1433.8536 121.2095,0"
       id="path4178" />
    <path
       inkscape:connector-curvature="0"
       style="fill:none;stroke:#000000"
       d="m 501.36675,1398.7185 35.37201,35.1351"
       id="path4180" />
    <path
       inkscape:connector-curvature="0"
       style="fill:none;stroke:#000000;stroke-width:1.36933231"
       d="m 501.36675,1277.2369 0,121.4823"
       id="path4182" />
    <path
       inkscape:connector-curvature="0"
       style="fill:none;stroke:#000000;stroke-width:1.01536715"
       d="m 872.42402,1100.9383 2.78107,-0.5062 2.52826,-1.5188 1.76977,-2.2779 0.75848,-3.0374 -0.25283,-2.7844 -1.26412,-2.7842 -2.27542,-2.025 -2.52826,-1.0124 -3.03389,0 -2.78109,1.0124 -2.27542,2.025 -1.26412,2.7842 -0.25283,2.7844 0.75848,3.0374 1.76977,2.2779 2.52825,1.5188 3.0339,0.5062"
       id="path4184" />
    <path
       inkscape:connector-curvature="0"
       style="fill:none;stroke:#000000;stroke-width:1.00787675"
       d="m 872.42408,945.57508 2.7824,-0.49856 2.52945,-1.74494 1.77062,-2.24348 0.75884,-2.74205 -0.25294,-2.99132 -1.26473,-2.49276 -2.27651,-1.99421 -2.52946,-1.24639 -3.03534,0 -2.7824,1.24639 -2.27651,1.99421 -1.26473,2.49276 -0.25294,2.99132 0.75884,2.74205 1.77062,2.24348 2.52944,1.74494 3.03535,0.49856"
       id="path4186" />
    <path
       inkscape:connector-curvature="0"
       style="fill:none;stroke:#000000;stroke-width:1.01536512"
       d="m 907.54321,1023.1925 3.0339,-0.5062 2.52825,-1.5187 1.76978,-2.2781 0.75848,-2.7842 -0.25284,-3.0373 -1.26412,-2.7844 -2.27542,-2.0248 -2.78108,-1.0125 -2.78109,0 -2.78107,1.0125 -2.27543,2.0248 -1.26412,2.7844 -0.25283,3.0373 0.75848,2.7842 1.76977,2.2781 2.52825,1.5187 2.78109,0.5062"
       id="path4188" />
    <path
       inkscape:connector-curvature="0"
       style="fill:none;stroke:#000000;stroke-width:1.00782454"
       d="m 1100.0983,1164.4842 2.7386,-0.5064 2.4897,-1.5195 1.7428,-2.279 0.9958,-3.0388 -0.2489,-2.7857 -1.4938,-2.7856 -1.9918,-2.0259 -2.7386,-1.0129 -2.9876,0 -2.7386,1.0129 -2.2406,2.0259 -1.2449,2.7856 -0.2489,2.7857 0.7469,3.0388 1.7426,2.279 2.4897,1.5195 2.9876,0.5064"
       id="path4190" />
    <path
       inkscape:connector-curvature="0"
       style="fill:none;stroke:#000000;stroke-width:1.00787842"
       d="m 1022.3795,1164.4842 2.9879,-0.5064 2.49,-1.5195 1.7429,-2.2791 0.747,-3.0387 -0.249,-2.7857 -1.4939,-2.7855 -1.992,-2.0259 -2.7389,-1.0129 -2.988,0 -2.7388,1.0129 -1.992,2.0259 -1.4939,2.7855 -0.249,2.7857 0.747,3.0387 1.9919,2.2791 2.49,1.5195 2.7388,0.5064"
       id="path4192" />
    <path
       inkscape:connector-curvature="0"
       style="fill:none;stroke:#000000;stroke-width:1.00789607"
       d="m 817.62046,1164.4843 2.98798,-0.5064 2.24099,-1.5195 1.99198,-2.2792 0.74699,-3.0387 -0.249,-2.7857 -1.49399,-2.7856 -1.99199,-2.0259 -2.73898,-1.0129 -2.98797,0 -2.73898,1.0129 -1.99199,2.0259 -1.494,2.7856 -0.24899,2.7857 0.74699,3.0387 1.74299,2.2792 2.48998,1.5195 2.98799,0.5064"
       id="path4194" />
    <path
       inkscape:connector-curvature="0"
       style="fill:none;stroke:#000000;stroke-width:1.00067997"
       d="m 1022.3795,882.0405 2.9893,-0.74854 2.4911,-1.49709 1.7437,-2.24565 0.7474,-2.74467 -0.2491,-2.99419 -1.4947,-2.74467 -1.9929,-1.74661 -2.7401,-1.24757 -2.9894,0 -2.74,1.24757 -1.9929,1.74661 -1.4947,2.74467 -0.2491,2.99419 0.7474,2.74467 1.9928,2.24565 2.4911,1.49709 2.7401,0.74854"
       id="path4196" />
    <path
       inkscape:connector-curvature="0"
       style="fill:none;stroke:#000000"
       d="m 536.73876,596.58511 -35.37201,35.38428"
       id="path4198" />
    <path
       inkscape:connector-curvature="0"
       style="fill:none;stroke:#000000;stroke-width:0.9865638"
       d="m 1316.7126,1381.0371 1.6929,-0.2496 1.2091,-0.9993 0.9674,-1.249 0.4837,-1.7488 -0.4837,-1.7487 -0.9674,-1.4988 -1.2091,-0.9993 -1.6929,-0.2497 -1.6929,0.2497 -1.4511,0.9993 -0.7255,1.4988 -0.4837,1.7487 0.4837,1.7488 0.7255,1.249 1.4511,0.9993 1.6929,0.2496"
       id="path4200" />
    <path
       inkscape:connector-curvature="0"
       style="fill:none;stroke:#000000;stroke-width:0.98726803"
       d="m 1281.3404,1381.0368 1.6955,-0.2497 1.4532,-0.9992 0.9689,-1.2489 0.2421,-1.7486 -0.2421,-1.7485 -0.9689,-1.4988 -1.4532,-0.999 -1.6955,-0.2498 -1.6954,0.2498 -1.211,0.999 -0.9688,1.4988 -0.4844,1.7485 0.4844,1.7486 0.9688,1.2489 1.211,0.9992 1.6954,0.2497"
       id="path4202" />
    <path
       inkscape:connector-curvature="0"
       style="fill:none;stroke:#000000;stroke-width:0.9869827"
       d="m 1281.3404,658.14446 1.6944,-0.24979 1.4524,-0.99919 0.9683,-1.49878 0.242,-1.74858 -0.242,-1.49878 -0.9683,-1.49878 -1.4524,-0.99919 -1.6944,-0.2498 -1.6944,0.2498 -1.2103,0.99919 -0.9682,1.49878 -0.4841,1.49878 0.4841,1.74858 0.9682,1.49878 1.2103,0.99919 1.6944,0.24979"
       id="path4204" />
    <path
       dxfpoint="1"
       inkscape:connector-curvature="0"
       style="fill:none;stroke:#000000;stroke-width:0.98698026"
       d="m 558.65955,658.14446 1.69442,-0.24979 1.2103,-0.99919 0.96825,-1.49878 0.48412,-1.74858 -0.48412,-1.49878 -0.96825,-1.49878 -1.2103,-0.99919 -1.69442,-0.2498 -1.69442,0.2498 -1.45236,0.99919 -0.96824,1.49878 -0.24206,1.49878 0.24206,1.74858 0.96824,1.49878 1.45236,0.99919 1.69442,0.24979"
       id="path4206" />
    <path
       inkscape:connector-curvature="0"
       style="fill:none;stroke:#000000;stroke-width:0.98718905"
       d="m 558.65954,1381.0369 1.69516,-0.2497 1.21083,-0.9993 0.96867,-1.2489 0.48433,-1.7486 -0.48433,-1.7485 -0.96867,-1.4988 -1.21083,-0.9991 -1.69516,-0.2498 -1.69517,0.2498 -1.45299,0.9991 -0.96867,1.4988 -0.24216,1.7485 0.24216,1.7486 0.96867,1.2489 1.45299,0.9993 1.69517,0.2497"
       id="path4208" />
    <path
       inkscape:connector-curvature="0"
       style="fill:none;stroke:#000000;stroke-width:0.98698437"
       d="m 558.65955,1416.4213 1.69442,-0.2497 1.2103,-0.9993 0.96825,-1.4988 0.48412,-1.7486 -0.48412,-1.4988 -0.96825,-1.4987 -1.2103,-0.9993 -1.69442,-0.2497 -1.69442,0.2497 -1.45236,0.9993 -0.96824,1.4987 -0.24205,1.4988 0.24205,1.7486 0.96824,1.4988 1.45236,0.9993 1.69442,0.2497"
       id="path4210" />
    <path
       inkscape:connector-curvature="0"
       style="fill:none;stroke:#000000;stroke-width:0.98611176"
       d="m 523.28743,658.14489 1.69127,-0.24982 1.44967,-0.99928 0.72483,-1.49893 0.48322,-1.74876 -0.48322,-1.49893 -0.72483,-1.49893 -1.44967,-0.99928 -1.69127,-0.24983 -1.69127,0.24983 -1.20805,0.99928 -0.96644,1.49893 -0.48322,1.49893 0.48322,1.74876 0.96644,1.49893 1.20805,0.99928 1.69127,0.24982"
       id="path4212" />
    <path
       inkscape:connector-curvature="0"
       style="fill:none;stroke:#000000;stroke-width:0.9869808"
       d="m 558.65955,622.76018 1.69442,-0.24979 1.2103,-0.99919 0.96825,-1.49879 0.48412,-1.49877 -0.48412,-1.74858 -0.96825,-1.49879 -1.2103,-0.99918 -1.69442,-0.2498 -1.69442,0.2498 -1.45236,0.99918 -0.96824,1.49879 -0.24206,1.74858 0.24206,1.49877 0.96824,1.49879 1.45236,0.99919 1.69442,0.24979"
       id="path4214" />
    <path
       inkscape:connector-curvature="0"
       style="fill:none;stroke:#000000;stroke-width:0.98698324"
       d="m 1281.3404,622.76018 1.6944,-0.24979 1.4524,-0.99919 0.9683,-1.49879 0.242,-1.49877 -0.242,-1.74858 -0.9683,-1.49878 -1.4524,-0.99919 -1.6944,-0.24979 -1.6944,0.24979 -1.2103,0.99919 -0.9682,1.49878 -0.4841,1.74858 0.4841,1.49877 0.9682,1.49879 1.2103,0.99919 1.6944,0.24979"
       id="path4216" />
    <path
       inkscape:connector-curvature="0"
       style="fill:none;stroke:#000000;stroke-width:0.9861142"
       d="m 1316.7126,658.14489 1.6913,-0.24982 1.208,-0.99928 0.9664,-1.49893 0.4832,-1.74876 -0.4832,-1.49893 -0.9664,-1.49893 -1.208,-0.99928 -1.6913,-0.24983 -1.6913,0.24983 -1.4497,0.99928 -0.7248,1.49893 -0.4832,1.49893 0.4832,1.74876 0.7248,1.49893 1.4497,0.99928 1.6913,0.24982"
       id="path4218" />
    <path
       inkscape:connector-curvature="0"
       style="fill:none;stroke:#000000;stroke-width:0.98644096"
       d="m 523.28743,1381.0372 1.69245,-0.2497 1.45068,-0.9993 0.72533,-1.249 0.48356,-1.7488 -0.48356,-1.7487 -0.72533,-1.4988 -1.45068,-0.9993 -1.69245,-0.2498 -1.69245,0.2498 -1.20889,0.9993 -0.96711,1.4988 -0.48356,1.7487 0.48356,1.7488 0.96711,1.249 1.20889,0.9993 1.69245,0.2497"
       id="path4220" />
    <path
       inkscape:connector-curvature="0"
       style="fill:none;stroke:#000000;stroke-width:0.98707557"
       d="m 1281.3404,1416.4212 1.6947,-0.2497 1.4527,-0.9992 0.9685,-1.4988 0.242,-1.7486 -0.242,-1.4988 -0.9685,-1.4987 -1.4527,-0.9992 -1.6947,-0.2497 -1.6947,0.2497 -1.2106,0.9992 -0.9683,1.4987 -0.4842,1.4988 0.4842,1.7486 0.9683,1.4988 1.2106,0.9992 1.6947,0.2497"
       id="path4222" />
    <g
       id="g3440"
       gcodetools="Gcodetools orientation group"
       transform="translate(500.68147,596.04344)" />
  </g>
</svg>
