  0
SECTION
  2
HEADER
  9
$ACADVER
  1
AC1009
  9
$MEASUREMENT
  70
1
  9
$INSUNITS
  70
4
  9
$DIMLFAC
  40
0.999999995904
  9
$INSBASE
  10
0.0
  20
0.0
  30
0.0
  9
$EXTMIN
  10
19.999999655936
  20
19.999999655936
  9
$EXTMAX
  10
256.295194066944
  20
256.295781269504
  9
$LIMMIN
  10
19.999999655936
  20
19.999999655936
  9
$LIMMAX
  10
256.295194066944
  20
256.295781269504
  9
$CLAYER
  8
0
  0
ENDSEC
  0
SECTION
  2
TABLES
  0
TABLE
  2
LTYPE
  70
2
  0
LTYPE
  2
CONTINUOUS
  70
65
  3
Solid line
  72
65
  73
0
  40
0
  0
LTYPE
  2
DASHED
  70
65
  3
 _ _ _ _ _ _ _ _ _ _ _ _ _ _ _ _ _ _ _ _ _ _
  72
65
  73
2
  40
1.999999991808
  49
0.999999995904
  49
-0.999999995904
  0
ENDTAB
  0
TABLE
  2
LAYER
  70
1
  0
LAYER
  2
0
  70
0
  62
7
  6
CONTINUOUS
  0
ENDTAB
  0
ENDSEC
  0
SECTION
  2
BLOCKS
  0
ENDSEC
  0
SECTION
  2
ENTITIES
  0
CIRCLE
  8
0
  10
87.319856021504
  20
98.299998633984
  30
0
  40
2.250000039936
  0
CIRCLE
  8
0
  10
124.6765252608
  20
116.228408475648
  30
0
  40
2.250000039936
  0
CIRCLE
  8
0
  10
36.14592466944
  20
240.156082700288
  30
0
  40
1.249499938816
  0
CIRCLE
  8
0
  10
26.186503684096
  20
240.161854062592
  30
0
  40
1.249499938816
  0
CIRCLE
  8
0
  10
36.14592466944
  20
250.142301093888
  30
0
  40
1.249499938816
  0
CIRCLE
  8
0
  10
83.319060430848
  20
248.83681558528
  30
0
  40
1.249499938816
  0
CIRCLE
  8
0
  10
192.979104956416
  20
248.8413454336
  30
0
  40
1.249499938816
  0
CIRCLE
  8
0
  10
240.158012080128
  20
250.133342060544
  30
0
  40
1.249499938816
  0
CIRCLE
  8
0
  10
240.153817776128
  20
240.145026514944
  30
0
  40
1.249499938816
  0
CIRCLE
  8
0
  10
250.08764092416
  20
240.144573530112
  30
0
  40
1.249499938816
  0
CIRCLE
  8
0
  10
65.42896136192
  20
99.742218452992
  30
0
  40
1.249499938816
  0
CIRCLE
  8
0
  10
65.436209119232
  20
91.841819049984
  30
0
  40
1.249499938816
  0
CIRCLE
  8
0
  10
65.427229114368
  20
76.830195318784
  30
0
  40
1.249499938816
  0
CIRCLE
  8
0
  10
26.178960228352
  20
36.11549499392
  30
0
  40
1.249499938816
  0
CIRCLE
  8
0
  10
36.154070007808
  20
36.09720782848
  30
0
  40
1.249499938816
  0
CIRCLE
  8
0
  10
36.141382238208
  20
26.142429937664
  30
0
  40
1.249499938816
  0
CIRCLE
  8
0
  10
240.153784221696
  20
26.142612389888
  30
0
  40
1.249499938816
  0
CIRCLE
  8
0
  10
240.148918829056
  20
36.128304398336
  30
0
  40
1.249499938816
  0
CIRCLE
  8
0
  10
250.09904943104
  20
36.153667354624
  30
0
  40
1.249499938816
  0
LINE
  8
0
  10
35.21826171875
  20
20
  30
3.175
  11
58.928966805938
  21
20
  31
3.175
  0
ARC
  8
0
  10
58.928966522217
  20
32.700000762939
  30
3.175
  40
12.7
  50
270
  51
315.00993973285
  0
LINE
  8
0
  10
67.910781860352
  20
23.721302032471
  30
3.175
  11
78.39755987725
  21
34.211719195566
  31
3.175
  0
ARC
  8
0
  10
87.379371643066
  20
25.233020782471
  30
3.175
  40
12.7
  50
90
  51
135.00993973285
  0
LINE
  8
0
  10
87.379371643066
  20
37.93302154541
  30
3.175
  11
188.915833335653
  21
37.93302154541
  31
3.175
  0
ARC
  8
0
  10
188.915832519531
  20
25.233020782471
  30
3.175
  40
12.7
  50
44.990079443721
  51
90
  0
LINE
  8
0
  10
197.897644042969
  20
34.211723327637
  30
3.175
  11
208.384435089841
  21
23.721300152219
  31
3.175
  0
ARC
  8
0
  10
217.366241455078
  20
32.700000762939
  30
3.175
  40
12.7
  50
224.990079443721
  51
270
  0
LINE
  8
0
  10
217.366241455078
  20
20
  30
3.175
  11
241.076930544037
  21
20
  31
3.175
  0
ARC
  8
0
  10
241.076934814453
  20
32.700000762939
  30
3.175
  40
12.7
  50
270
  51
314.807205299832
  0
LINE
  8
0
  10
250.026931762695
  20
23.689577102661
  30
3.175
  11
252.545192265096
  21
26.190946975527
  31
3.175
  0
ARC
  8
0
  10
243.595199584961
  20
35.201370239258
  30
3.175
  40
12.7
  50
314.807205299832
  51
360
  0
LINE
  8
0
  10
256.295196533203
  20
35.201370239258
  30
3.175
  11
256.295196533203
  21
58.941393189194
  31
3.175
  0
ARC
  8
0
  10
243.595199584961
  20
58.941394805908
  30
3.175
  40
12.7
  50
0
  51
44.990168088856
  0
LINE
  8
0
  10
252.576995849609
  20
67.920104980469
  30
3.175
  11
242.086618862008
  21
78.41408286706
  31
3.175
  0
ARC
  8
0
  10
251.068420410156
  20
87.392799377441
  30
3.175
  40
12.7
  50
180
  51
224.990168088856
  0
LINE
  8
0
  10
238.368408203125
  20
87.392799377441
  30
3.175
  11
238.368408203125
  21
188.903000245588
  31
3.175
  0
ARC
  8
0
  10
251.068420410156
  20
188.90299987793
  30
3.175
  40
12.7
  50
135.010095497633
  51
180
  0
LINE
  8
0
  10
242.086578369141
  20
197.88166809082
  30
3.175
  11
252.577037968849
  21
208.375825173171
  31
3.175
  0
ARC
  8
0
  10
243.595199584961
  20
217.354507446289
  30
3.175
  40
12.7
  50
315.010095497633
  51
360
  0
LINE
  8
0
  10
256.295196533203
  20
217.354507446289
  30
3.175
  11
256.295196533203
  21
241.050306376279
  31
3.175
  0
ARC
  8
0
  10
243.595199584961
  20
241.050308227539
  30
3.175
  40
12.7
  50
0
  51
44.989586100996
  0
LINE
  8
0
  10
252.577087402344
  20
250.028930664062
  30
3.175
  11
250.032543431621
  21
252.574399779416
  31
3.175
  0
ARC
  8
0
  10
241.050659179688
  20
243.595779418945
  30
3.175
  40
12.7
  50
44.989586100996
  51
90
  0
LINE
  8
0
  10
241.050659179688
  20
256.295776367188
  30
3.175
  11
35.244548807457
  21
256.295776367188
  31
3.175
  0
ARC
  8
0
  10
35.24454498291
  20
243.595779418945
  30
3.175
  40
12.7
  50
90
  51
135.010415333884
  0
LINE
  8
0
  10
26.262655258179
  20
252.574401855469
  30
3.175
  11
23.718111601132
  21
250.028932926411
  31
3.175
  0
ARC
  8
0
  10
32.700000762939
  20
241.050308227539
  30
3.175
  40
12.7
  50
135.010415333884
  51
180
  0
LINE
  8
0
  10
20
  20
241.050308227539
  30
3.175
  11
20
  21
217.354512845915
  31
3.175
  0
ARC
  8
0
  10
32.700000762939
  20
217.354507446289
  30
3.175
  40
12.7
  50
180
  51
224.989933267244
  0
LINE
  8
0
  10
23.718166351318
  20
208.375839233398
  30
3.175
  11
34.208634935685
  21
197.881683700239
  31
3.175
  0
ARC
  8
0
  10
25.226800918579
  20
188.90299987793
  30
3.175
  40
12.7
  50
0
  51
44.989933267244
  0
LINE
  8
0
  10
37.92679977417
  20
188.90299987793
  30
3.175
  11
37.92679977417
  21
87.392806479114
  31
3.175
  0
ARC
  8
0
  10
25.226800918579
  20
87.392807006836
  30
3.175
  40
12.7
  50
-44.990196853734
  51
0
  0
LINE
  8
0
  10
34.208591461182
  20
78.414085388184
  30
3.175
  11
23.718205488963
  21
67.920109050728
  31
3.175
  0
ARC
  8
0
  10
32.700000762939
  20
58.941390991211
  30
3.175
  40
12.7
  50
135.009803146266
  51
180
  0
LINE
  8
0
  10
20
  20
58.941390991211
  30
3.175
  11
20
  21
35.20137326846
  31
3.175
  0
ARC
  8
0
  10
32.700000762939
  20
35.201370239258
  30
3.175
  40
12.7
  50
180
  51
225.192806178847
  0
LINE
  8
0
  10
23.75001335144
  20
26.190946578979
  30
3.175
  11
26.26827636548
  21
23.689575213597
  31
3.175
  0
ARC
  8
0
  10
35.21826171875
  20
32.700000762939
  30
3.175
  40
12.7
  50
225.192806178847
  51
270
  0
CIRCLE
  8
0
  10
87.316253662109
  20
178.022155761719
  30
0
  40
2.25
  0
CIRCLE
  8
0
  10
109.25382232666
  20
98.281478881836
  30
0
  40
2.25
  0
CIRCLE
  8
0
  10
134.654891967773
  20
138.157760620117
  30
0
  40
2.25
  0
CIRCLE
  8
0
  10
124.686973571777
  20
160.043823242188
  30
0
  40
2.25
  0
CIRCLE
  8
0
  10
109.237739562988
  20
178.021347045898
  30
0
  40
2.25
  0
CIRCLE
  8
0
  10
167.041397094727
  20
178.037673950195
  30
0
  40
2.25
  0
CIRCLE
  8
0
  10
188.974243164062
  20
178.01921081543
  30
0
  40
2.25
  0
CIRCLE
  8
0
  10
167.041397094727
  20
98.281471252441
  30
0
  40
2.25
  0
CIRCLE
  8
0
  10
188.944702148438
  20
98.282867431641
  30
0
  40
2.25
  0
ENDSEC
  0
EOF
