  0
SECTION
  2
HEADER
  9
$ACADVER
  1
AC1009
  9
$MEASUREMENT
  70
1
  9
$INSUNITS
  70
4
  9
$DIMLFAC
  40
0.999999995904
  9
$INSBASE
  10
0.0
  20
0.0
  30
0.0
  9
$EXTMIN
  10
-30.799999008768
  20
-50.800000761856
  9
$EXTMAX
  10
1462.772311261184
  20
256.295781269504
  9
$LIMMIN
  10
-30.799999008768
  20
-50.800000761856
  9
$LIMMAX
  10
1462.772311261184
  20
256.295781269504
  9
$CLAYER
  8
0
  0
ENDSEC
  0
SECTION
  2
TABLES
  0
TABLE
  2
LTYPE
  70
2
  0
LTYPE
  2
CONTINUOUS
  70
65
  3
Solid line
  72
65
  73
0
  40
0
  0
LTYPE
  2
DASHED
  70
65
  3
 _ _ _ _ _ _ _ _ _ _ _ _ _ _ _ _ _ _ _ _ _ _
  72
65
  73
2
  40
1.999999991808
  49
0.999999995904
  49
-0.999999995904
  0
ENDTAB
  0
TABLE
  2
LAYER
  70
1
  0
LAYER
  2
0
  70
0
  62
7
  6
CONTINUOUS
  0
ENDTAB
  0
ENDSEC
  0
SECTION
  2
BLOCKS
  0
ENDSEC
  0
SECTION
  2
ENTITIES
  0
CIRCLE
  8
0
  10
87.319856021504
  20
98.299998633984
  30
0
  40
2.250000039936
  0
CIRCLE
  8
0
  10
124.6765252608
  20
116.228408475648
  30
0
  40
2.250000039936
  0
CIRCLE
  8
0
  10
36.14592466944
  20
240.156082700288
  30
0
  40
1.249499938816
  0
CIRCLE
  8
0
  10
26.186503684096
  20
240.161854062592
  30
0
  40
1.249499938816
  0
CIRCLE
  8
0
  10
36.14592466944
  20
250.142301093888
  30
0
  40
1.249499938816
  0
CIRCLE
  8
0
  10
83.319060430848
  20
248.83681558528
  30
0
  40
1.249499938816
  0
CIRCLE
  8
0
  10
192.979104956416
  20
248.8413454336
  30
0
  40
1.249499938816
  0
CIRCLE
  8
0
  10
240.158012080128
  20
250.133342060544
  30
0
  40
1.249499938816
  0
CIRCLE
  8
0
  10
240.153817776128
  20
240.145026514944
  30
0
  40
1.249499938816
  0
CIRCLE
  8
0
  10
250.08764092416
  20
240.144573530112
  30
0
  40
1.249499938816
  0
CIRCLE
  8
0
  10
65.42896136192
  20
99.742218452992
  30
0
  40
1.249499938816
  0
CIRCLE
  8
0
  10
65.436209119232
  20
91.841819049984
  30
0
  40
1.249499938816
  0
CIRCLE
  8
0
  10
65.427229114368
  20
76.830195318784
  30
0
  40
1.249499938816
  0
CIRCLE
  8
0
  10
26.178960228352
  20
36.11549499392
  30
0
  40
1.249499938816
  0
CIRCLE
  8
0
  10
36.154070007808
  20
36.09720782848
  30
0
  40
1.249499938816
  0
CIRCLE
  8
0
  10
36.141382238208
  20
26.142429937664
  30
0
  40
1.249499938816
  0
CIRCLE
  8
0
  10
240.153784221696
  20
26.142612389888
  30
0
  40
1.249499938816
  0
CIRCLE
  8
0
  10
240.148918829056
  20
36.128304398336
  30
0
  40
1.249499938816
  0
CIRCLE
  8
0
  10
250.09904943104
  20
36.153667354624
  30
0
  40
1.249499938816
  0
LINE
  8
0
  10
35.21826171875
  20
20
  30
3.175
  11
58.928966805938
  21
20
  31
3.175
  0
ARC
  8
0
  10
58.928966522217
  20
32.700000762939
  30
3.175
  40
12.7
  50
270
  51
315.00993973285
  0
LINE
  8
0
  10
67.910781860352
  20
23.721302032471
  30
3.175
  11
78.39755987725
  21
34.211719195566
  31
3.175
  0
ARC
  8
0
  10
87.379371643066
  20
25.233020782471
  30
3.175
  40
12.7
  50
90
  51
135.00993973285
  0
LINE
  8
0
  10
87.379371643066
  20
37.93302154541
  30
3.175
  11
188.915833335653
  21
37.93302154541
  31
3.175
  0
ARC
  8
0
  10
188.915832519531
  20
25.233020782471
  30
3.175
  40
12.7
  50
44.990079443721
  51
90
  0
LINE
  8
0
  10
197.897644042969
  20
34.211723327637
  30
3.175
  11
208.384435089841
  21
23.721300152219
  31
3.175
  0
ARC
  8
0
  10
217.366241455078
  20
32.700000762939
  30
3.175
  40
12.7
  50
224.990079443721
  51
270
  0
LINE
  8
0
  10
217.366241455078
  20
20
  30
3.175
  11
241.076930544037
  21
20
  31
3.175
  0
ARC
  8
0
  10
241.076934814453
  20
32.700000762939
  30
3.175
  40
12.7
  50
270
  51
314.807205299832
  0
LINE
  8
0
  10
250.026931762695
  20
23.689577102661
  30
3.175
  11
252.545192265096
  21
26.190946975527
  31
3.175
  0
ARC
  8
0
  10
243.595199584961
  20
35.201370239258
  30
3.175
  40
12.7
  50
314.807205299832
  51
360
  0
LINE
  8
0
  10
256.295196533203
  20
35.201370239258
  30
3.175
  11
256.295196533203
  21
58.941393189194
  31
3.175
  0
ARC
  8
0
  10
243.595199584961
  20
58.941394805908
  30
3.175
  40
12.7
  50
0
  51
44.990168088856
  0
LINE
  8
0
  10
252.576995849609
  20
67.920104980469
  30
3.175
  11
242.086618862008
  21
78.41408286706
  31
3.175
  0
ARC
  8
0
  10
251.068420410156
  20
87.392799377441
  30
3.175
  40
12.7
  50
180
  51
224.990168088856
  0
LINE
  8
0
  10
238.368408203125
  20
87.392799377441
  30
3.175
  11
238.368408203125
  21
188.903000245588
  31
3.175
  0
ARC
  8
0
  10
251.068420410156
  20
188.90299987793
  30
3.175
  40
12.7
  50
135.010095497633
  51
180
  0
LINE
  8
0
  10
242.086578369141
  20
197.88166809082
  30
3.175
  11
252.577037968849
  21
208.375825173171
  31
3.175
  0
ARC
  8
0
  10
243.595199584961
  20
217.354507446289
  30
3.175
  40
12.7
  50
315.010095497633
  51
360
  0
LINE
  8
0
  10
256.295196533203
  20
217.354507446289
  30
3.175
  11
256.295196533203
  21
241.050306376279
  31
3.175
  0
ARC
  8
0
  10
243.595199584961
  20
241.050308227539
  30
3.175
  40
12.7
  50
0
  51
44.989586100996
  0
LINE
  8
0
  10
252.577087402344
  20
250.028930664062
  30
3.175
  11
250.032543431621
  21
252.574399779416
  31
3.175
  0
ARC
  8
0
  10
241.050659179688
  20
243.595779418945
  30
3.175
  40
12.7
  50
44.989586100996
  51
90
  0
LINE
  8
0
  10
241.050659179688
  20
256.295776367188
  30
3.175
  11
35.244548807457
  21
256.295776367188
  31
3.175
  0
ARC
  8
0
  10
35.24454498291
  20
243.595779418945
  30
3.175
  40
12.7
  50
90
  51
135.010415333884
  0
LINE
  8
0
  10
26.262655258179
  20
252.574401855469
  30
3.175
  11
23.718111601132
  21
250.028932926411
  31
3.175
  0
ARC
  8
0
  10
32.700000762939
  20
241.050308227539
  30
3.175
  40
12.7
  50
135.010415333884
  51
180
  0
LINE
  8
0
  10
20
  20
241.050308227539
  30
3.175
  11
20
  21
217.354512845915
  31
3.175
  0
ARC
  8
0
  10
32.700000762939
  20
217.354507446289
  30
3.175
  40
12.7
  50
180
  51
224.989933267244
  0
LINE
  8
0
  10
23.718166351318
  20
208.375839233398
  30
3.175
  11
34.208634935685
  21
197.881683700239
  31
3.175
  0
ARC
  8
0
  10
25.226800918579
  20
188.90299987793
  30
3.175
  40
12.7
  50
0
  51
44.989933267244
  0
LINE
  8
0
  10
37.92679977417
  20
188.90299987793
  30
3.175
  11
37.92679977417
  21
87.392806479114
  31
3.175
  0
ARC
  8
0
  10
25.226800918579
  20
87.392807006836
  30
3.175
  40
12.7
  50
-44.990196853734
  51
0
  0
LINE
  8
0
  10
34.208591461182
  20
78.414085388184
  30
3.175
  11
23.718205488963
  21
67.920109050728
  31
3.175
  0
ARC
  8
0
  10
32.700000762939
  20
58.941390991211
  30
3.175
  40
12.7
  50
135.009803146266
  51
180
  0
LINE
  8
0
  10
20
  20
58.941390991211
  30
3.175
  11
20
  21
35.20137326846
  31
3.175
  0
ARC
  8
0
  10
32.700000762939
  20
35.201370239258
  30
3.175
  40
12.7
  50
180
  51
225.192806178847
  0
LINE
  8
0
  10
23.75001335144
  20
26.190946578979
  30
3.175
  11
26.26827636548
  21
23.689575213597
  31
3.175
  0
ARC
  8
0
  10
35.21826171875
  20
32.700000762939
  30
3.175
  40
12.7
  50
225.192806178847
  51
270
  0
CIRCLE
  8
0
  10
87.316253662109
  20
178.022155761719
  30
0
  40
2.25
  0
CIRCLE
  8
0
  10
109.25382232666
  20
98.281478881836
  30
0
  40
2.25
  0
CIRCLE
  8
0
  10
134.654891967773
  20
138.157760620117
  30
0
  40
2.25
  0
CIRCLE
  8
0
  10
124.686973571777
  20
160.043823242188
  30
0
  40
2.25
  0
CIRCLE
  8
0
  10
109.237739562988
  20
178.021347045898
  30
0
  40
2.25
  0
CIRCLE
  8
0
  10
167.041397094727
  20
178.037673950195
  30
0
  40
2.25
  0
CIRCLE
  8
0
  10
188.974243164062
  20
178.01921081543
  30
0
  40
2.25
  0
CIRCLE
  8
0
  10
167.041397094727
  20
98.281471252441
  30
0
  40
2.25
  0
CIRCLE
  8
0
  10
188.944702148438
  20
98.282867431641
  30
0
  40
2.25
  0
TEXT
  8
0
  40
2.54
  72
0
  10
134.647598266602
  20
10
  30
0
  1
Top
  50
0
  0
LINE
  8
0
  6
DASHED
  10
276.513458251953
  20
256.295776367188
  30
3.175
  11
300.224163339141
  21
256.295776367188
  31
3.175
  0
ARC
  8
0
  6
DASHED
  10
300.22416305542
  20
243.595775604248
  30
3.175
  40
12.7
  50
44.99006026715
  51
90
  0
LINE
  8
0
  6
DASHED
  10
309.205978393555
  20
252.574474334717
  30
3.175
  11
319.692756410453
  21
242.084057171621
  31
3.175
  0
ARC
  8
0
  6
DASHED
  10
328.67456817627
  20
251.062755584717
  30
3.175
  40
12.7
  50
224.99006026715
  51
270
  0
LINE
  8
0
  6
DASHED
  10
328.67456817627
  20
238.362754821777
  30
3.175
  11
430.211029868857
  21
238.362754821777
  31
3.175
  0
ARC
  8
0
  6
DASHED
  10
430.211029052734
  20
251.062755584717
  30
3.175
  40
12.7
  50
270
  51
315.009920556279
  0
LINE
  8
0
  6
DASHED
  10
439.192840576172
  20
242.084053039551
  30
3.175
  11
449.679631623044
  21
252.574476214969
  31
3.175
  0
ARC
  8
0
  6
DASHED
  10
458.661437988281
  20
243.595775604248
  30
3.175
  40
12.7
  50
90
  51
135.009920556279
  0
LINE
  8
0
  6
DASHED
  10
458.661437988281
  20
256.295776367188
  30
3.175
  11
482.37212707724
  21
256.295776367188
  31
3.175
  0
ARC
  8
0
  6
DASHED
  10
482.372131347656
  20
243.595775604248
  30
3.175
  40
12.7
  50
45.192794700168
  51
90
  0
LINE
  8
0
  6
DASHED
  10
491.322128295898
  20
252.606199264526
  30
3.175
  11
493.840388798299
  21
250.10482939166
  31
3.175
  0
ARC
  8
0
  6
DASHED
  10
484.890396118164
  20
241.09440612793
  30
3.175
  40
12.7
  50
0
  51
45.192794700168
  0
LINE
  8
0
  6
DASHED
  10
497.590393066406
  20
241.09440612793
  30
3.175
  11
497.590393066406
  21
217.354383177994
  31
3.175
  0
ARC
  8
0
  6
DASHED
  10
484.890396118164
  20
217.354381561279
  30
3.175
  40
12.7
  50
315.009831911144
  51
360
  0
LINE
  8
0
  6
DASHED
  10
493.872192382812
  20
208.375671386719
  30
3.175
  11
483.381815395211
  21
197.881693500128
  31
3.175
  0
ARC
  8
0
  6
DASHED
  10
492.363616943359
  20
188.902976989746
  30
3.175
  40
12.7
  50
135.009831911144
  51
180
  0
LINE
  8
0
  6
DASHED
  10
479.663604736328
  20
188.902976989746
  30
3.175
  11
479.663604736328
  21
87.3927761216
  31
3.175
  0
ARC
  8
0
  6
DASHED
  10
492.363616943359
  20
87.392776489258
  30
3.175
  40
12.7
  50
180
  51
224.989904502367
  0
LINE
  8
0
  6
DASHED
  10
483.381774902344
  20
78.414108276367
  30
3.175
  11
493.872234502052
  21
67.919951194017
  31
3.175
  0
ARC
  8
0
  6
DASHED
  10
484.890396118164
  20
58.941268920898
  30
3.175
  40
12.7
  50
0
  51
44.989904502367
  0
LINE
  8
0
  6
DASHED
  10
497.590393066406
  20
58.941268920898
  30
3.175
  11
497.590393066406
  21
35.245469990908
  31
3.175
  0
ARC
  8
0
  6
DASHED
  10
484.890396118164
  20
35.245468139648
  30
3.175
  40
12.7
  50
315.010413899004
  51
360
  0
LINE
  8
0
  6
DASHED
  10
493.872283935547
  20
26.266845703125
  30
3.175
  11
491.327739964824
  21
23.721376587771
  31
3.175
  0
ARC
  8
0
  6
DASHED
  10
482.345855712891
  20
32.699996948242
  30
3.175
  40
12.7
  50
270
  51
315.010413899004
  0
LINE
  8
0
  6
DASHED
  10
482.345855712891
  20
20
  30
3.175
  11
276.53974534066
  21
20
  31
3.175
  0
ARC
  8
0
  6
DASHED
  10
276.539741516113
  20
32.699996948242
  30
3.175
  40
12.7
  50
224.989584666116
  51
270
  0
LINE
  8
0
  6
DASHED
  10
267.557851791382
  20
23.721374511719
  30
3.175
  11
265.013308134335
  21
26.266843440777
  31
3.175
  0
ARC
  8
0
  6
DASHED
  10
273.995197296143
  20
35.245468139648
  30
3.175
  40
12.7
  50
180
  51
224.989584666116
  0
LINE
  8
0
  6
DASHED
  10
261.295196533203
  20
35.245468139648
  30
3.175
  11
261.295196533203
  21
58.941263521273
  31
3.175
  0
ARC
  8
0
  6
DASHED
  10
273.995197296143
  20
58.941268920898
  30
3.175
  40
12.7
  50
135.010066732756
  51
180
  0
LINE
  8
0
  6
DASHED
  10
265.013362884521
  20
67.919937133789
  30
3.175
  11
275.503831468888
  21
78.414092666949
  31
3.175
  0
ARC
  8
0
  6
DASHED
  10
266.521997451782
  20
87.392776489258
  30
3.175
  40
12.7
  50
-44.989933267244
  51
0
  0
LINE
  8
0
  6
DASHED
  10
279.221996307373
  20
87.392776489258
  30
3.175
  11
279.221996307373
  21
188.902969888073
  31
3.175
  0
ARC
  8
0
  6
DASHED
  10
266.521997451782
  20
188.902969360352
  30
3.175
  40
12.7
  50
0
  51
44.990196853734
  0
LINE
  8
0
  6
DASHED
  10
275.503787994385
  20
197.881690979004
  30
3.175
  11
265.013402022167
  21
208.37566731646
  31
3.175
  0
ARC
  8
0
  6
DASHED
  10
273.995197296143
  20
217.354385375977
  30
3.175
  40
12.7
  50
180
  51
224.990196853734
  0
LINE
  8
0
  6
DASHED
  10
261.295196533203
  20
217.354385375977
  30
3.175
  11
261.295196533203
  21
241.094403098727
  31
3.175
  0
ARC
  8
0
  6
DASHED
  10
273.995197296143
  20
241.09440612793
  30
3.175
  40
12.7
  50
134.807193821153
  51
180
  0
LINE
  8
0
  6
DASHED
  10
265.045209884644
  20
250.104829788208
  30
3.175
  11
267.563472898683
  21
252.60620115359
  31
3.175
  0
ARC
  8
0
  6
DASHED
  10
276.513458251953
  20
243.595775604248
  30
3.175
  40
12.7
  50
90
  51
134.807193821153
  0
CIRCLE
  8
0
  10
365.98217010498
  20
116.251953125
  30
0
  40
2.25
  0
CIRCLE
  8
0
  10
350.532936096191
  20
98.274429321289
  30
0
  40
2.25
  0
CIRCLE
  8
0
  10
375.950088500977
  20
138.13801574707
  30
0
  40
2.25
  0
CIRCLE
  8
0
  10
328.611450195312
  20
98.273620605469
  30
0
  40
2.25
  0
CIRCLE
  8
0
  10
350.549018859863
  20
178.014297485352
  30
0
  40
2.25
  0
CIRCLE
  8
0
  10
430.239898681641
  20
178.012908935547
  30
0
  40
2.25
  0
CIRCLE
  8
0
  10
365.971725463867
  20
160.067367553711
  30
0
  40
2.25
  0
CIRCLE
  8
0
  10
328.615051269531
  20
177.995780944824
  30
0
  40
2.25
  0
CIRCLE
  8
0
  10
408.33659362793
  20
98.258102416992
  30
0
  40
2.25
  0
CIRCLE
  8
0
  10
430.269439697266
  20
98.276565551758
  30
0
  40
2.25
  0
CIRCLE
  8
0
  10
408.33659362793
  20
178.014305114746
  30
0
  40
2.25
  0
CIRCLE
  8
0
  10
267.474157333374
  20
240.180282592773
  30
0
  40
1.2495
  0
CIRCLE
  8
0
  10
306.722427368164
  20
199.46558380127
  30
0
  40
1.2495
  0
CIRCLE
  8
0
  10
306.724159240723
  20
176.553558349609
  30
0
  40
1.2495
  0
CIRCLE
  8
0
  10
306.731407165527
  20
184.453956604004
  30
0
  40
1.2495
  0
CIRCLE
  8
0
  10
277.449268341064
  20
240.198566436768
  30
0
  40
1.2495
  0
CIRCLE
  8
0
  10
481.444122314453
  20
240.167472839355
  30
0
  40
1.2495
  0
CIRCLE
  8
0
  10
491.394241333008
  20
240.142108917236
  30
0
  40
1.2495
  0
CIRCLE
  8
0
  10
277.436580657959
  20
250.153347015381
  30
0
  40
1.2495
  0
CIRCLE
  8
0
  10
481.448974609375
  20
250.153163909912
  30
0
  40
1.2495
  0
CIRCLE
  8
0
  10
481.453216552734
  20
26.16242980957
  30
0
  40
1.2495
  0
CIRCLE
  8
0
  10
491.382843017578
  20
36.15119934082
  30
0
  40
1.2495
  0
CIRCLE
  8
0
  10
481.449020385742
  20
36.150756835938
  30
0
  40
1.2495
  0
CIRCLE
  8
0
  10
434.274307250977
  20
27.454437255859
  30
0
  40
1.2495
  0
CIRCLE
  8
0
  10
324.6142578125
  20
27.458953857422
  30
0
  40
1.2495
  0
CIRCLE
  8
0
  10
277.441120147705
  20
26.153472900391
  30
0
  40
1.2495
  0
CIRCLE
  8
0
  10
267.481700897217
  20
36.133926391602
  30
0
  40
1.2495
  0
CIRCLE
  8
0
  10
277.441120147705
  20
36.139694213867
  30
0
  40
1.2495
  0
TEXT
  8
0
  40
2.54
  72
0
  10
375.942794799805
  20
10
  30
0
  1
Bottom
  50
0
  0
LINE
  8
0
  10
738.886169433594
  20
23.175000429153
  30
236.295196533203
  11
738.886169433594
  21
20.000000476837
  31
236.295196533203
  0
LINE
  8
0
  10
502.590393066406
  20
20.000000476837
  30
236.295196533203
  11
502.590393066406
  21
23.175000429153
  31
236.295196533203
  0
LINE
  8
0
  10
502.590393066406
  20
23.175000429153
  30
236.295196533203
  11
738.886169433594
  21
23.175000429153
  31
236.295196533203
  0
LINE
  8
0
  10
738.886169433594
  20
20.000000476837
  30
236.295196533203
  11
502.590393066406
  21
20.000000476837
  31
236.295196533203
  0
LINE
  8
0
  6
DASHED
  10
662.83617401123
  20
23.174999952316
  30
171.225341796875
  11
662.836173456096
  21
20
  31
171.225341796875
  0
LINE
  8
0
  6
DASHED
  10
658.336173456096
  20
20.000000953674
  30
171.225341796875
  11
658.33617401123
  21
23.175000905991
  31
171.225341796875
  0
LINE
  8
0
  6
DASHED
  10
658.33617401123
  20
23.175000739121
  30
171.225341796875
  11
662.83617401123
  21
23.174999952316
  31
171.225341796875
  0
LINE
  8
0
  6
DASHED
  10
662.83617401123
  20
20
  30
171.225341796875
  11
658.33617401123
  21
20.000000786805
  31
171.225341796875
  0
LINE
  8
0
  6
DASHED
  10
644.907760620117
  20
23.174999952316
  30
133.868667602539
  11
644.907760064983
  21
20
  31
133.868667602539
  0
LINE
  8
0
  6
DASHED
  10
640.407760064983
  20
20.000000953674
  30
133.868667602539
  11
640.407760620117
  21
23.175000905991
  31
133.868667602539
  0
LINE
  8
0
  6
DASHED
  10
640.407760620117
  20
23.175000739121
  30
133.868667602539
  11
644.907760620117
  21
23.174999952316
  31
133.868667602539
  0
LINE
  8
0
  6
DASHED
  10
644.907760620117
  20
20
  30
133.868667602539
  11
640.407760620117
  21
20.000000786805
  31
133.868667602539
  0
LINE
  8
0
  6
DASHED
  10
583.098495483398
  20
23.174999952316
  30
91.503799438477
  11
583.098494928264
  21
20
  31
91.503799438477
  0
LINE
  8
0
  6
DASHED
  10
578.598494928264
  20
20.000000953674
  30
91.503799438477
  11
578.598495483398
  21
23.175000905991
  31
91.503799438477
  0
LINE
  8
0
  6
DASHED
  10
578.598495483398
  20
23.175000739121
  30
91.503799438477
  11
583.098495483398
  21
23.174999952316
  31
91.503799438477
  0
LINE
  8
0
  6
DASHED
  10
583.098495483398
  20
20
  30
91.503799438477
  11
578.598495483398
  21
20.000000786805
  31
91.503799438477
  0
LINE
  8
0
  6
DASHED
  10
662.854698181152
  20
23.174999952316
  30
91.503799438477
  11
662.854697626018
  21
20
  31
91.503799438477
  0
LINE
  8
0
  6
DASHED
  10
658.354697626018
  20
20.000000953674
  30
91.503799438477
  11
658.354698181152
  21
23.175000905991
  31
91.503799438477
  0
LINE
  8
0
  6
DASHED
  10
658.354698181152
  20
23.175000739121
  30
91.503799438477
  11
662.854698181152
  21
23.174999952316
  31
91.503799438477
  0
LINE
  8
0
  6
DASHED
  10
662.854698181152
  20
20
  30
91.503799438477
  11
658.354698181152
  21
20.000000786805
  31
91.503799438477
  0
LINE
  8
0
  6
DASHED
  10
583.116958618164
  20
23.174999952316
  30
69.570953369141
  11
583.116958063029
  21
20
  31
69.570953369141
  0
LINE
  8
0
  6
DASHED
  10
578.616958063029
  20
20.000000953674
  30
69.570953369141
  11
578.616958618164
  21
23.175000905991
  31
69.570953369141
  0
LINE
  8
0
  6
DASHED
  10
578.616958618164
  20
23.175000739121
  30
69.570953369141
  11
583.116958618164
  21
23.174999952316
  31
69.570953369141
  0
LINE
  8
0
  6
DASHED
  10
583.116958618164
  20
20
  30
69.570953369141
  11
578.616958618164
  21
20.000000786805
  31
69.570953369141
  0
LINE
  8
0
  6
DASHED
  10
662.853302001953
  20
23.174999952316
  30
69.600494384766
  11
662.853301446818
  21
20
  31
69.600494384766
  0
LINE
  8
0
  6
DASHED
  10
658.353301446818
  20
20.000000953674
  30
69.600494384766
  11
658.353302001953
  21
23.175000905991
  31
69.600494384766
  0
LINE
  8
0
  6
DASHED
  10
658.353302001953
  20
23.175000739121
  30
69.600494384766
  11
662.853302001953
  21
23.174999952316
  31
69.600494384766
  0
LINE
  8
0
  6
DASHED
  10
662.853302001953
  20
20
  30
69.600494384766
  11
658.353302001953
  21
20.000000786805
  31
69.600494384766
  0
LINE
  8
0
  6
DASHED
  10
583.114822387695
  20
23.174999952316
  30
149.307464599609
  11
583.114821832561
  21
20
  31
149.307464599609
  0
LINE
  8
0
  6
DASHED
  10
578.614821832561
  20
20.000000953674
  30
149.307464599609
  11
578.614822387695
  21
23.175000905991
  31
149.307464599609
  0
LINE
  8
0
  6
DASHED
  10
578.614822387695
  20
23.175000739121
  30
149.307464599609
  11
583.114822387695
  21
23.174999952316
  31
149.307464599609
  0
LINE
  8
0
  6
DASHED
  10
583.114822387695
  20
20
  30
149.307464599609
  11
578.614822387695
  21
20.000000786805
  31
149.307464599609
  0
LINE
  8
0
  6
DASHED
  10
601.092346191406
  20
23.174999952316
  30
133.858215332031
  11
601.092345636272
  21
20
  31
133.858215332031
  0
LINE
  8
0
  6
DASHED
  10
596.592345636272
  20
20.000000953674
  30
133.858215332031
  11
596.592346191406
  21
23.175000905991
  31
133.858215332031
  0
LINE
  8
0
  6
DASHED
  10
596.592346191406
  20
23.175000739121
  30
133.858215332031
  11
601.092346191406
  21
23.174999952316
  31
133.858215332031
  0
LINE
  8
0
  6
DASHED
  10
601.092346191406
  20
20
  30
133.858215332031
  11
596.592346191406
  21
20.000000786805
  31
133.858215332031
  0
LINE
  8
0
  6
DASHED
  10
622.978408813477
  20
23.174999952316
  30
123.89030456543
  11
622.978408258342
  21
20
  31
123.89030456543
  0
LINE
  8
0
  6
DASHED
  10
618.478408258342
  20
20.000000953674
  30
123.89030456543
  11
618.478408813477
  21
23.175000905991
  31
123.89030456543
  0
LINE
  8
0
  6
DASHED
  10
618.478408813477
  20
23.175000739121
  30
123.89030456543
  11
622.978408813477
  21
23.174999952316
  31
123.89030456543
  0
LINE
  8
0
  6
DASHED
  10
622.978408813477
  20
20
  30
123.89030456543
  11
618.478408813477
  21
20.000000786805
  31
123.89030456543
  0
LINE
  8
0
  6
DASHED
  10
662.854690551758
  20
23.174999952316
  30
149.291381835938
  11
662.854689996623
  21
20
  31
149.291381835938
  0
LINE
  8
0
  6
DASHED
  10
658.354689996623
  20
20.000000953674
  30
149.291381835938
  11
658.354690551758
  21
23.175000905991
  31
149.291381835938
  0
LINE
  8
0
  6
DASHED
  10
658.354690551758
  20
23.175000739121
  30
149.291381835938
  11
662.854690551758
  21
23.174999952316
  31
149.291381835938
  0
LINE
  8
0
  6
DASHED
  10
662.854690551758
  20
20
  30
149.291381835938
  11
658.354690551758
  21
20.000000786805
  31
149.291381835938
  0
LINE
  8
0
  6
DASHED
  10
583.114013671875
  20
23.174999952316
  30
171.228942871094
  11
583.11401311674
  21
20
  31
171.228942871094
  0
LINE
  8
0
  6
DASHED
  10
578.61401311674
  20
20.000000953674
  30
171.228942871094
  11
578.614013671875
  21
23.175000905991
  31
171.228942871094
  0
LINE
  8
0
  6
DASHED
  10
578.614013671875
  20
23.175000739121
  30
171.228942871094
  11
583.114013671875
  21
23.174999952316
  31
171.228942871094
  0
LINE
  8
0
  6
DASHED
  10
583.114013671875
  20
20
  30
171.228942871094
  11
578.614013671875
  21
20.000000786805
  31
171.228942871094
  0
LINE
  8
0
  6
DASHED
  10
519.990646362305
  20
23.175000190735
  30
17.390869140625
  11
519.99064580717
  21
20.000000238419
  31
17.390869140625
  0
LINE
  8
0
  6
DASHED
  10
517.491652887248
  20
20.000000715256
  30
17.390869140625
  11
517.491653442383
  21
23.175000667572
  31
17.390869140625
  0
LINE
  8
0
  6
DASHED
  10
517.491653442383
  20
23.175000627673
  30
17.390869140625
  11
519.990646362305
  21
23.175000190735
  31
17.390869140625
  0
LINE
  8
0
  6
DASHED
  10
519.990646362305
  20
20.000000238419
  30
17.390869140625
  11
517.491653442383
  21
20.000000675356
  31
17.390869140625
  0
LINE
  8
0
  6
DASHED
  10
511.294326782227
  20
23.175000190735
  30
64.565582275391
  11
511.294326227092
  21
20.000000238419
  31
64.565582275391
  0
LINE
  8
0
  6
DASHED
  10
508.79533330717
  20
20.000000715256
  30
64.565582275391
  11
508.795333862305
  21
23.175000667572
  31
64.565582275391
  0
LINE
  8
0
  6
DASHED
  10
508.795333862305
  20
23.175000627673
  30
64.565582275391
  11
511.294326782227
  21
23.175000190735
  31
64.565582275391
  0
LINE
  8
0
  6
DASHED
  10
511.294326782227
  20
20.000000238419
  30
64.565582275391
  11
508.795333862305
  21
20.000000675356
  31
64.565582275391
  0
LINE
  8
0
  6
DASHED
  10
510.002319335938
  20
23.175000190735
  30
17.386672973633
  11
510.002318780803
  21
20.000000238419
  31
17.386672973633
  0
LINE
  8
0
  6
DASHED
  10
507.503325860881
  20
20.000000715256
  30
17.386672973633
  11
507.503326416016
  21
23.175000667572
  31
17.386672973633
  0
LINE
  8
0
  6
DASHED
  10
507.503326416016
  20
23.175000627673
  30
17.386672973633
  11
510.002319335938
  21
23.175000190735
  31
17.386672973633
  0
LINE
  8
0
  6
DASHED
  10
510.002319335938
  20
20.000000238419
  30
17.386672973633
  11
507.503326416016
  21
20.000000675356
  31
17.386672973633
  0
LINE
  8
0
  6
DASHED
  10
519.991088867188
  20
23.175000190735
  30
7.457046508789
  11
519.991088312053
  21
20.000000238419
  31
7.457046508789
  0
LINE
  8
0
  6
DASHED
  10
517.492095392131
  20
20.000000715256
  30
7.457046508789
  11
517.492095947266
  21
23.175000667572
  31
7.457046508789
  0
LINE
  8
0
  6
DASHED
  10
517.492095947266
  20
23.175000627673
  30
7.457046508789
  11
519.991088867188
  21
23.175000190735
  31
7.457046508789
  0
LINE
  8
0
  6
DASHED
  10
519.991088867188
  20
20.000000238419
  30
7.457046508789
  11
517.492095947266
  21
20.000000675356
  31
7.457046508789
  0
LINE
  8
0
  6
DASHED
  10
519.973815917969
  20
23.175000190735
  30
231.358184814453
  11
519.973815362834
  21
20.000000238419
  31
231.358184814453
  0
LINE
  8
0
  6
DASHED
  10
517.474822442912
  20
20.000000715256
  30
231.358184814453
  11
517.474822998047
  21
23.175000667572
  31
231.358184814453
  0
LINE
  8
0
  6
DASHED
  10
517.474822998047
  20
23.175000627673
  30
231.358184814453
  11
519.973815917969
  21
23.175000190735
  31
231.358184814453
  0
LINE
  8
0
  6
DASHED
  10
519.973815917969
  20
20.000000238419
  30
231.358184814453
  11
517.474822998047
  21
20.000000675356
  31
231.358184814453
  0
LINE
  8
0
  6
DASHED
  10
519.979583740234
  20
23.175000190735
  30
221.398773193359
  11
519.9795831851
  21
20.000000238419
  31
221.398773193359
  0
LINE
  8
0
  6
DASHED
  10
517.480590265178
  20
20.000000715256
  30
221.398773193359
  11
517.480590820312
  21
23.175000667572
  31
221.398773193359
  0
LINE
  8
0
  6
DASHED
  10
517.480590820312
  20
23.175000627673
  30
221.398773193359
  11
519.979583740234
  21
23.175000190735
  31
221.398773193359
  0
LINE
  8
0
  6
DASHED
  10
519.979583740234
  20
20.000000238419
  30
221.398773193359
  11
517.480590820312
  21
20.000000675356
  31
221.398773193359
  0
LINE
  8
0
  6
DASHED
  10
511.298843383789
  20
23.175000190735
  30
174.225631713867
  11
511.298842828654
  21
20.000000238419
  31
174.225631713867
  0
LINE
  8
0
  6
DASHED
  10
508.799849908733
  20
20.000000715256
  30
174.225631713867
  11
508.799850463867
  21
23.175000667572
  31
174.225631713867
  0
LINE
  8
0
  6
DASHED
  10
508.799850463867
  20
23.175000627673
  30
174.225631713867
  11
511.298843383789
  21
23.175000190735
  31
174.225631713867
  0
LINE
  8
0
  6
DASHED
  10
511.298843383789
  20
20.000000238419
  30
174.225631713867
  11
508.799850463867
  21
20.000000675356
  31
174.225631713867
  0
LINE
  8
0
  6
DASHED
  10
509.993362426758
  20
23.175000190735
  30
221.398773193359
  11
509.993361871623
  21
20.000000238419
  31
221.398773193359
  0
LINE
  8
0
  6
DASHED
  10
507.494368951701
  20
20.000000715256
  30
221.398773193359
  11
507.494369506836
  21
23.175000667572
  31
221.398773193359
  0
LINE
  8
0
  6
DASHED
  10
507.494369506836
  20
23.175000627673
  30
221.398773193359
  11
509.993362426758
  21
23.175000190735
  31
221.398773193359
  0
LINE
  8
0
  6
DASHED
  10
509.993362426758
  20
20.000000238419
  30
221.398773193359
  11
507.494369506836
  21
20.000000675356
  31
221.398773193359
  0
LINE
  8
0
  6
DASHED
  10
733.993057250977
  20
23.175000190735
  30
17.390914916992
  11
733.993056695842
  21
20.000000238419
  31
17.390914916992
  0
LINE
  8
0
  6
DASHED
  10
731.494056146526
  20
20.000000715256
  30
17.390914916992
  11
731.49405670166
  21
23.175000667572
  31
17.390914916992
  0
LINE
  8
0
  6
DASHED
  10
731.49405670166
  20
23.175000627674
  30
17.390914916992
  11
733.993057250977
  21
23.175000190735
  31
17.390914916992
  0
LINE
  8
0
  6
DASHED
  10
733.993056774139
  20
20.000000238419
  30
17.390914916992
  11
731.494056224823
  21
20.000000675358
  31
17.390914916992
  0
LINE
  8
0
  6
DASHED
  10
660.393447875977
  20
23.175000190735
  30
192.11572265625
  11
660.393447320842
  21
20.000000238419
  31
192.11572265625
  0
LINE
  8
0
  6
DASHED
  10
657.89445440092
  20
20.000000715256
  30
192.11572265625
  11
657.894454956055
  21
23.175000667572
  31
192.11572265625
  0
LINE
  8
0
  6
DASHED
  10
657.894454956055
  20
23.175000627673
  30
192.11572265625
  11
660.393447875977
  21
23.175000190735
  31
192.11572265625
  0
LINE
  8
0
  6
DASHED
  10
660.393447875977
  20
20.000000238419
  30
192.11572265625
  11
657.894454956055
  21
20.000000675356
  31
192.11572265625
  0
LINE
  8
0
  6
DASHED
  10
668.293846130371
  20
23.175000190735
  30
192.108489990234
  11
668.293845575236
  21
20.000000238419
  31
192.108489990234
  0
LINE
  8
0
  6
DASHED
  10
665.794852655315
  20
20.000000715256
  30
192.108489990234
  11
665.794853210449
  21
23.175000667572
  31
192.108489990234
  0
LINE
  8
0
  6
DASHED
  10
665.794853210449
  20
23.175000627673
  30
192.108489990234
  11
668.293846130371
  21
23.175000190735
  31
192.108489990234
  0
LINE
  8
0
  6
DASHED
  10
668.293846130371
  20
20.000000238419
  30
192.108489990234
  11
665.794853210449
  21
20.000000675356
  31
192.108489990234
  0
LINE
  8
0
  6
DASHED
  10
724.020175933838
  20
23.175000190735
  30
231.365737915039
  11
724.020175378703
  21
20.000000238419
  31
231.365737915039
  0
LINE
  8
0
  6
DASHED
  10
721.521174829387
  20
20.000000715256
  30
231.365737915039
  11
721.521175384521
  21
23.175000667572
  31
231.365737915039
  0
LINE
  8
0
  6
DASHED
  10
721.521175384521
  20
23.175000627674
  30
231.365737915039
  11
724.020175933838
  21
23.175000190735
  31
231.365737915039
  0
LINE
  8
0
  6
DASHED
  10
724.020174980164
  20
20.000000238419
  30
231.365737915039
  11
721.521174430847
  21
20.000000675358
  31
231.365737915039
  0
LINE
  8
0
  6
DASHED
  10
683.305473327637
  20
23.175000190735
  30
192.117462158203
  11
683.305472772502
  21
20.000000238419
  31
192.117462158203
  0
LINE
  8
0
  6
DASHED
  10
680.80647985258
  20
20.000000715256
  30
192.117462158203
  11
680.806480407715
  21
23.175000667572
  31
192.117462158203
  0
LINE
  8
0
  6
DASHED
  10
680.806480407715
  20
23.175000627673
  30
192.117462158203
  11
683.305473327637
  21
23.175000190735
  31
192.117462158203
  0
LINE
  8
0
  6
DASHED
  10
683.305473327637
  20
20.000000238419
  30
192.117462158203
  11
680.806480407715
  21
20.000000675356
  31
192.117462158203
  0
LINE
  8
0
  6
DASHED
  10
723.982002258301
  20
23.175000190735
  30
7.445648193359
  11
723.982001703166
  21
20.000000238419
  31
7.445648193359
  0
LINE
  8
0
  6
DASHED
  10
721.48300115385
  20
20.000000715256
  30
7.445648193359
  11
721.483001708984
  21
23.175000667572
  31
7.445648193359
  0
LINE
  8
0
  6
DASHED
  10
721.483001708984
  20
23.175000627674
  30
7.445648193359
  11
723.982002258301
  21
23.175000190735
  31
7.445648193359
  0
LINE
  8
0
  6
DASHED
  10
723.982001304626
  20
20.000000238419
  30
7.445648193359
  11
721.48300075531
  21
20.000000675358
  31
7.445648193359
  0
LINE
  8
0
  6
DASHED
  10
733.993240356445
  20
23.175000190735
  30
221.4033203125
  11
733.993239801311
  21
20.000000238419
  31
221.4033203125
  0
LINE
  8
0
  6
DASHED
  10
731.494239251994
  20
20.000000715256
  30
221.4033203125
  11
731.494239807129
  21
23.175000667572
  31
221.4033203125
  0
LINE
  8
0
  6
DASHED
  10
731.494239807129
  20
23.175000627674
  30
221.4033203125
  11
733.993240356445
  21
23.175000190735
  31
221.4033203125
  0
LINE
  8
0
  6
DASHED
  10
733.993239879608
  20
20.000000238419
  30
221.4033203125
  11
731.494239330292
  21
20.000000675358
  31
221.4033203125
  0
LINE
  8
0
  6
DASHED
  10
724.038459777832
  20
23.175000190735
  30
221.390625
  11
724.038459222697
  21
20.000000238419
  31
221.390625
  0
LINE
  8
0
  6
DASHED
  10
721.539458673381
  20
20.000000715256
  30
221.390625
  11
721.539459228516
  21
23.175000667572
  31
221.390625
  0
LINE
  8
0
  6
DASHED
  10
721.539459228516
  20
23.175000627674
  30
221.390625
  11
724.038459777832
  21
23.175000190735
  31
221.390625
  0
LINE
  8
0
  6
DASHED
  10
724.038458824158
  20
20.000000238419
  30
221.390625
  11
721.539458274841
  21
20.000000675358
  31
221.390625
  0
LINE
  8
0
  6
DASHED
  10
724.00736618042
  20
23.175000190735
  30
17.395767211914
  11
724.007365625285
  21
20.000000238419
  31
17.395767211914
  0
LINE
  8
0
  6
DASHED
  10
721.508365075969
  20
20.000000715256
  30
17.395767211914
  11
721.508365631104
  21
23.175000667572
  31
17.395767211914
  0
LINE
  8
0
  6
DASHED
  10
721.508365631104
  20
23.175000627674
  30
17.395767211914
  11
724.00736618042
  21
23.175000190735
  31
17.395767211914
  0
LINE
  8
0
  6
DASHED
  10
724.007365226746
  20
20.000000238419
  30
17.395767211914
  11
721.508364677429
  21
20.000000675358
  31
17.395767211914
  0
TEXT
  8
0
  40
2.54
  72
0
  10
617.23828125
  20
10
  30
0
  1
Left
  50
0
  0
LINE
  8
0
  10
743.886169433594
  20
23.175000429153
  30
236.295196533203
  11
743.886169433594
  21
20.000000476837
  31
236.295196533203
  0
LINE
  8
0
  10
980.181945800781
  20
20.000000476837
  30
236.295196533203
  11
980.181945800781
  21
23.175000429153
  31
236.295196533203
  0
LINE
  8
0
  10
980.181945800781
  20
23.175000429153
  30
236.295196533203
  11
743.886169433594
  21
23.175000429153
  31
236.295196533203
  0
LINE
  8
0
  10
743.886169433594
  20
20.000000476837
  30
236.295196533203
  11
980.181945800781
  21
20.000000476837
  31
236.295196533203
  0
LINE
  8
0
  6
DASHED
  10
819.936164855957
  20
23.174999952316
  30
69.569854736328
  11
819.936165411092
  21
20
  31
69.569854736328
  0
LINE
  8
0
  6
DASHED
  10
824.436165411092
  20
20.000000953674
  30
69.569854736328
  11
824.436164855957
  21
23.175000905991
  31
69.569854736328
  0
LINE
  8
0
  6
DASHED
  10
824.436164855957
  20
23.175000739121
  30
69.569854736328
  11
819.936164855957
  21
23.174999952316
  31
69.569854736328
  0
LINE
  8
0
  6
DASHED
  10
819.936164855957
  20
20
  30
69.569854736328
  11
824.436164855957
  21
20.000000786805
  31
69.569854736328
  0
LINE
  8
0
  6
DASHED
  10
837.86457824707
  20
23.174999952316
  30
106.926528930664
  11
837.864578802205
  21
20
  31
106.926528930664
  0
LINE
  8
0
  6
DASHED
  10
842.364578802205
  20
20.000000953674
  30
106.926528930664
  11
842.36457824707
  21
23.175000905991
  31
106.926528930664
  0
LINE
  8
0
  6
DASHED
  10
842.36457824707
  20
23.175000739121
  30
106.926528930664
  11
837.86457824707
  21
23.174999952316
  31
106.926528930664
  0
LINE
  8
0
  6
DASHED
  10
837.86457824707
  20
20
  30
106.926528930664
  11
842.36457824707
  21
20.000000786805
  31
106.926528930664
  0
LINE
  8
0
  6
DASHED
  10
899.673843383789
  20
23.174999952316
  30
149.291397094727
  11
899.673843938924
  21
20
  31
149.291397094727
  0
LINE
  8
0
  6
DASHED
  10
904.173843938924
  20
20.000000953674
  30
149.291397094727
  11
904.173843383789
  21
23.175000905991
  31
149.291397094727
  0
LINE
  8
0
  6
DASHED
  10
904.173843383789
  20
23.175000739121
  30
149.291397094727
  11
899.673843383789
  21
23.174999952316
  31
149.291397094727
  0
LINE
  8
0
  6
DASHED
  10
899.673843383789
  20
20
  30
149.291397094727
  11
904.173843383789
  21
20.000000786805
  31
149.291397094727
  0
LINE
  8
0
  6
DASHED
  10
819.917640686035
  20
23.174999952316
  30
149.291397094727
  11
819.91764124117
  21
20
  31
149.291397094727
  0
LINE
  8
0
  6
DASHED
  10
824.41764124117
  20
20.000000953674
  30
149.291397094727
  11
824.417640686035
  21
23.175000905991
  31
149.291397094727
  0
LINE
  8
0
  6
DASHED
  10
824.417640686035
  20
23.175000739121
  30
149.291397094727
  11
819.917640686035
  21
23.174999952316
  31
149.291397094727
  0
LINE
  8
0
  6
DASHED
  10
819.917640686035
  20
20
  30
149.291397094727
  11
824.417640686035
  21
20.000000786805
  31
149.291397094727
  0
LINE
  8
0
  6
DASHED
  10
899.655380249023
  20
23.174999952316
  30
171.224243164062
  11
899.655380804158
  21
20
  31
171.224243164062
  0
LINE
  8
0
  6
DASHED
  10
904.155380804158
  20
20.000000953674
  30
171.224243164062
  11
904.155380249023
  21
23.175000905991
  31
171.224243164062
  0
LINE
  8
0
  6
DASHED
  10
904.155380249023
  20
23.175000739121
  30
171.224243164062
  11
899.655380249023
  21
23.174999952316
  31
171.224243164062
  0
LINE
  8
0
  6
DASHED
  10
899.655380249023
  20
20
  30
171.224243164062
  11
904.155380249023
  21
20.000000786805
  31
171.224243164062
  0
LINE
  8
0
  6
DASHED
  10
819.919036865234
  20
23.174999952316
  30
171.194702148438
  11
819.919037420369
  21
20
  31
171.194702148438
  0
LINE
  8
0
  6
DASHED
  10
824.419037420369
  20
20.000000953674
  30
171.194702148438
  11
824.419036865234
  21
23.175000905991
  31
171.194702148438
  0
LINE
  8
0
  6
DASHED
  10
824.419036865234
  20
23.175000739121
  30
171.194702148438
  11
819.919036865234
  21
23.174999952316
  31
171.194702148438
  0
LINE
  8
0
  6
DASHED
  10
819.919036865234
  20
20
  30
171.194702148438
  11
824.419036865234
  21
20.000000786805
  31
171.194702148438
  0
LINE
  8
0
  6
DASHED
  10
899.657516479492
  20
23.174999952316
  30
91.487739562988
  11
899.657517034627
  21
20
  31
91.487739562988
  0
LINE
  8
0
  6
DASHED
  10
904.157517034627
  20
20.000000953674
  30
91.487739562988
  11
904.157516479492
  21
23.175000905991
  31
91.487739562988
  0
LINE
  8
0
  6
DASHED
  10
904.157516479492
  20
23.175000739121
  30
91.487739562988
  11
899.657516479492
  21
23.174999952316
  31
91.487739562988
  0
LINE
  8
0
  6
DASHED
  10
899.657516479492
  20
20
  30
91.487739562988
  11
904.157516479492
  21
20.000000786805
  31
91.487739562988
  0
LINE
  8
0
  6
DASHED
  10
881.679992675781
  20
23.174999952316
  30
106.936973571777
  11
881.679993230916
  21
20
  31
106.936973571777
  0
LINE
  8
0
  6
DASHED
  10
886.179993230916
  20
20.000000953674
  30
106.936973571777
  11
886.179992675781
  21
23.175000905991
  31
106.936973571777
  0
LINE
  8
0
  6
DASHED
  10
886.179992675781
  20
23.175000739121
  30
106.936973571777
  11
881.679992675781
  21
23.174999952316
  31
106.936973571777
  0
LINE
  8
0
  6
DASHED
  10
881.679992675781
  20
20
  30
106.936973571777
  11
886.179992675781
  21
20.000000786805
  31
106.936973571777
  0
LINE
  8
0
  6
DASHED
  10
859.793930053711
  20
23.174999952316
  30
116.904891967773
  11
859.793930608846
  21
20
  31
116.904891967773
  0
LINE
  8
0
  6
DASHED
  10
864.293930608846
  20
20.000000953674
  30
116.904891967773
  11
864.293930053711
  21
23.175000905991
  31
116.904891967773
  0
LINE
  8
0
  6
DASHED
  10
864.293930053711
  20
23.175000739121
  30
116.904891967773
  11
859.793930053711
  21
23.174999952316
  31
116.904891967773
  0
LINE
  8
0
  6
DASHED
  10
859.793930053711
  20
20
  30
116.904891967773
  11
864.293930053711
  21
20.000000786805
  31
116.904891967773
  0
LINE
  8
0
  6
DASHED
  10
819.91764831543
  20
23.174999952316
  30
91.50382232666
  11
819.917648870564
  21
20
  31
91.50382232666
  0
LINE
  8
0
  6
DASHED
  10
824.417648870564
  20
20.000000953674
  30
91.50382232666
  11
824.41764831543
  21
23.175000905991
  31
91.50382232666
  0
LINE
  8
0
  6
DASHED
  10
824.41764831543
  20
23.175000739121
  30
91.50382232666
  11
819.91764831543
  21
23.174999952316
  31
91.50382232666
  0
LINE
  8
0
  6
DASHED
  10
819.91764831543
  20
20
  30
91.50382232666
  11
824.41764831543
  21
20.000000786805
  31
91.50382232666
  0
LINE
  8
0
  6
DASHED
  10
899.658325195312
  20
23.174999952316
  30
69.566253662109
  11
899.658325750447
  21
20
  31
69.566253662109
  0
LINE
  8
0
  6
DASHED
  10
904.158325750447
  20
20.000000953674
  30
69.566253662109
  11
904.158325195312
  21
23.175000905991
  31
69.566253662109
  0
LINE
  8
0
  6
DASHED
  10
904.158325195312
  20
23.175000739121
  30
69.566253662109
  11
899.658325195312
  21
23.174999952316
  31
69.566253662109
  0
LINE
  8
0
  6
DASHED
  10
899.658325195312
  20
20
  30
69.566253662109
  11
904.158325195312
  21
20.000000786805
  31
69.566253662109
  0
LINE
  8
0
  6
DASHED
  10
962.781692504883
  20
23.175000190735
  30
221.4033203125
  11
962.781693060017
  21
20.000000238419
  31
221.4033203125
  0
LINE
  8
0
  6
DASHED
  10
965.280685979939
  20
20.000000715256
  30
221.4033203125
  11
965.280685424805
  21
23.175000667572
  31
221.4033203125
  0
LINE
  8
0
  6
DASHED
  10
965.280685424805
  20
23.175000627673
  30
221.4033203125
  11
962.781692504883
  21
23.175000190735
  31
221.4033203125
  0
LINE
  8
0
  6
DASHED
  10
962.781692504883
  20
20.000000238419
  30
221.4033203125
  11
965.280685424805
  21
20.000000675356
  31
221.4033203125
  0
LINE
  8
0
  6
DASHED
  10
971.478012084961
  20
23.175000190735
  30
174.228607177734
  11
971.478012640096
  21
20.000000238419
  31
174.228607177734
  0
LINE
  8
0
  6
DASHED
  10
973.977005560017
  20
20.000000715256
  30
174.228607177734
  11
973.977005004883
  21
23.175000667572
  31
174.228607177734
  0
LINE
  8
0
  6
DASHED
  10
973.977005004883
  20
23.175000627673
  30
174.228607177734
  11
971.478012084961
  21
23.175000190735
  31
174.228607177734
  0
LINE
  8
0
  6
DASHED
  10
971.478012084961
  20
20.000000238419
  30
174.228607177734
  11
973.977005004883
  21
20.000000675356
  31
174.228607177734
  0
LINE
  8
0
  6
DASHED
  10
972.77001953125
  20
23.175000190735
  30
221.407516479492
  11
972.770020086385
  21
20.000000238419
  31
221.407516479492
  0
LINE
  8
0
  6
DASHED
  10
975.269013006307
  20
20.000000715256
  30
221.407516479492
  11
975.269012451172
  21
23.175000667572
  31
221.407516479492
  0
LINE
  8
0
  6
DASHED
  10
975.269012451172
  20
23.175000627673
  30
221.407516479492
  11
972.77001953125
  21
23.175000190735
  31
221.407516479492
  0
LINE
  8
0
  6
DASHED
  10
972.77001953125
  20
20.000000238419
  30
221.407516479492
  11
975.269012451172
  21
20.000000675356
  31
221.407516479492
  0
LINE
  8
0
  6
DASHED
  10
962.78125
  20
23.175000190735
  30
231.337142944336
  11
962.781250555135
  21
20.000000238419
  31
231.337142944336
  0
LINE
  8
0
  6
DASHED
  10
965.280243475057
  20
20.000000715256
  30
231.337142944336
  11
965.280242919922
  21
23.175000667572
  31
231.337142944336
  0
LINE
  8
0
  6
DASHED
  10
965.280242919922
  20
23.175000627673
  30
231.337142944336
  11
962.78125
  21
23.175000190735
  31
231.337142944336
  0
LINE
  8
0
  6
DASHED
  10
962.78125
  20
20.000000238419
  30
231.337142944336
  11
965.280242919922
  21
20.000000675356
  31
231.337142944336
  0
LINE
  8
0
  6
DASHED
  10
962.798522949219
  20
23.175000190735
  30
7.436004638672
  11
962.798523504353
  21
20.000000238419
  31
7.436004638672
  0
LINE
  8
0
  6
DASHED
  10
965.297516424275
  20
20.000000715256
  30
7.436004638672
  11
965.297515869141
  21
23.175000667572
  31
7.436004638672
  0
LINE
  8
0
  6
DASHED
  10
965.297515869141
  20
23.175000627673
  30
7.436004638672
  11
962.798522949219
  21
23.175000190735
  31
7.436004638672
  0
LINE
  8
0
  6
DASHED
  10
962.798522949219
  20
20.000000238419
  30
7.436004638672
  11
965.297515869141
  21
20.000000675356
  31
7.436004638672
  0
LINE
  8
0
  6
DASHED
  10
962.792755126953
  20
23.175000190735
  30
17.39542388916
  11
962.792755682088
  21
20.000000238419
  31
17.39542388916
  0
LINE
  8
0
  6
DASHED
  10
965.29174860201
  20
20.000000715256
  30
17.39542388916
  11
965.291748046875
  21
23.175000667572
  31
17.39542388916
  0
LINE
  8
0
  6
DASHED
  10
965.291748046875
  20
23.175000627673
  30
17.39542388916
  11
962.792755126953
  21
23.175000190735
  31
17.39542388916
  0
LINE
  8
0
  6
DASHED
  10
962.792755126953
  20
20.000000238419
  30
17.39542388916
  11
965.291748046875
  21
20.000000675356
  31
17.39542388916
  0
LINE
  8
0
  6
DASHED
  10
971.473495483398
  20
23.175000190735
  30
64.568557739258
  11
971.473496038533
  21
20.000000238419
  31
64.568557739258
  0
LINE
  8
0
  6
DASHED
  10
973.972488958455
  20
20.000000715256
  30
64.568557739258
  11
973.97248840332
  21
23.175000667572
  31
64.568557739258
  0
LINE
  8
0
  6
DASHED
  10
973.97248840332
  20
23.175000627673
  30
64.568557739258
  11
971.473495483398
  21
23.175000190735
  31
64.568557739258
  0
LINE
  8
0
  6
DASHED
  10
971.473495483398
  20
20.000000238419
  30
64.568557739258
  11
973.97248840332
  21
20.000000675356
  31
64.568557739258
  0
LINE
  8
0
  6
DASHED
  10
972.77897644043
  20
23.175000190735
  30
17.39542388916
  11
972.778976995564
  21
20.000000238419
  31
17.39542388916
  0
LINE
  8
0
  6
DASHED
  10
975.277969915486
  20
20.000000715256
  30
17.39542388916
  11
975.277969360352
  21
23.175000667572
  31
17.39542388916
  0
LINE
  8
0
  6
DASHED
  10
975.277969360352
  20
23.175000627673
  30
17.39542388916
  11
972.77897644043
  21
23.175000190735
  31
17.39542388916
  0
LINE
  8
0
  6
DASHED
  10
972.77897644043
  20
20.000000238419
  30
17.39542388916
  11
975.277969360352
  21
20.000000675356
  31
17.39542388916
  0
LINE
  8
0
  6
DASHED
  10
748.779281616211
  20
23.175000190735
  30
221.403274536133
  11
748.779282171346
  21
20.000000238419
  31
221.403274536133
  0
LINE
  8
0
  6
DASHED
  10
751.278282720662
  20
20.000000715256
  30
221.403274536133
  11
751.278282165527
  21
23.175000667572
  31
221.403274536133
  0
LINE
  8
0
  6
DASHED
  10
751.278282165527
  20
23.175000627674
  30
221.403274536133
  11
748.779281616211
  21
23.175000190735
  31
221.403274536133
  0
LINE
  8
0
  6
DASHED
  10
748.779282093048
  20
20.000000238419
  30
221.403274536133
  11
751.278282642365
  21
20.000000675358
  31
221.403274536133
  0
LINE
  8
0
  6
DASHED
  10
822.378890991211
  20
23.175000190735
  30
46.67845916748
  11
822.378891546346
  21
20.000000238419
  31
46.67845916748
  0
LINE
  8
0
  6
DASHED
  10
824.877884466267
  20
20.000000715256
  30
46.67845916748
  11
824.877883911133
  21
23.175000667572
  31
46.67845916748
  0
LINE
  8
0
  6
DASHED
  10
824.877883911133
  20
23.175000627673
  30
46.67845916748
  11
822.378890991211
  21
23.175000190735
  31
46.67845916748
  0
LINE
  8
0
  6
DASHED
  10
822.378890991211
  20
20.000000238419
  30
46.67845916748
  11
824.877883911133
  21
20.000000675356
  31
46.67845916748
  0
LINE
  8
0
  6
DASHED
  10
814.478492736816
  20
23.175000190735
  30
46.685707092285
  11
814.478493291951
  21
20.000000238419
  31
46.685707092285
  0
LINE
  8
0
  6
DASHED
  10
816.977486211873
  20
20.000000715256
  30
46.685707092285
  11
816.977485656738
  21
23.175000667572
  31
46.685707092285
  0
LINE
  8
0
  6
DASHED
  10
816.977485656738
  20
23.175000627673
  30
46.685707092285
  11
814.478492736816
  21
23.175000190735
  31
46.685707092285
  0
LINE
  8
0
  6
DASHED
  10
814.478492736816
  20
20.000000238419
  30
46.685707092285
  11
816.977485656738
  21
20.000000675356
  31
46.685707092285
  0
LINE
  8
0
  6
DASHED
  10
758.75216293335
  20
23.175000190735
  30
7.428461074829
  11
758.752163488484
  21
20.000000238419
  31
7.428461074829
  0
LINE
  8
0
  6
DASHED
  10
761.251164037801
  20
20.000000715256
  30
7.428461074829
  11
761.251163482666
  21
23.175000667572
  31
7.428461074829
  0
LINE
  8
0
  6
DASHED
  10
761.251163482666
  20
23.175000627674
  30
7.428461074829
  11
758.75216293335
  21
23.175000190735
  31
7.428461074829
  0
LINE
  8
0
  6
DASHED
  10
758.752163887024
  20
20.000000238419
  30
7.428461074829
  11
761.25116443634
  21
20.000000675358
  31
7.428461074829
  0
LINE
  8
0
  6
DASHED
  10
799.466865539551
  20
23.175000190735
  30
46.676727294922
  11
799.466866094685
  21
20.000000238419
  31
46.676727294922
  0
LINE
  8
0
  6
DASHED
  10
801.965859014607
  20
20.000000715256
  30
46.676727294922
  11
801.965858459473
  21
23.175000667572
  31
46.676727294922
  0
LINE
  8
0
  6
DASHED
  10
801.965858459473
  20
23.175000627673
  30
46.676727294922
  11
799.466865539551
  21
23.175000190735
  31
46.676727294922
  0
LINE
  8
0
  6
DASHED
  10
799.466865539551
  20
20.000000238419
  30
46.676727294922
  11
801.965858459473
  21
20.000000675356
  31
46.676727294922
  0
LINE
  8
0
  6
DASHED
  10
758.790336608887
  20
23.175000190735
  30
231.348541259766
  11
758.790337164021
  21
20.000000238419
  31
231.348541259766
  0
LINE
  8
0
  6
DASHED
  10
761.289337713338
  20
20.000000715256
  30
231.348541259766
  11
761.289337158203
  21
23.175000667572
  31
231.348541259766
  0
LINE
  8
0
  6
DASHED
  10
761.289337158203
  20
23.175000627674
  30
231.348541259766
  11
758.790336608887
  21
23.175000190735
  31
231.348541259766
  0
LINE
  8
0
  6
DASHED
  10
758.790337562561
  20
20.000000238419
  30
231.348541259766
  11
761.289338111877
  21
20.000000675358
  31
231.348541259766
  0
LINE
  8
0
  6
DASHED
  10
748.779098510742
  20
23.175000190735
  30
17.390884399414
  11
748.779099065877
  21
20.000000238419
  31
17.390884399414
  0
LINE
  8
0
  6
DASHED
  10
751.278099615193
  20
20.000000715256
  30
17.390884399414
  11
751.278099060059
  21
23.175000667572
  31
17.390884399414
  0
LINE
  8
0
  6
DASHED
  10
751.278099060059
  20
23.175000627674
  30
17.390884399414
  11
748.779098510742
  21
23.175000190735
  31
17.390884399414
  0
LINE
  8
0
  6
DASHED
  10
748.779098987579
  20
20.000000238419
  30
17.390884399414
  11
751.278099536896
  21
20.000000675358
  31
17.390884399414
  0
LINE
  8
0
  6
DASHED
  10
758.733879089355
  20
23.175000190735
  30
17.40357208252
  11
758.73387964449
  21
20.000000238419
  31
17.40357208252
  0
LINE
  8
0
  6
DASHED
  10
761.232880193807
  20
20.000000715256
  30
17.40357208252
  11
761.232879638672
  21
23.175000667572
  31
17.40357208252
  0
LINE
  8
0
  6
DASHED
  10
761.232879638672
  20
23.175000627674
  30
17.40357208252
  11
758.733879089355
  21
23.175000190735
  31
17.40357208252
  0
LINE
  8
0
  6
DASHED
  10
758.73388004303
  20
20.000000238419
  30
17.40357208252
  11
761.232880592346
  21
20.000000675358
  31
17.40357208252
  0
LINE
  8
0
  6
DASHED
  10
758.764972686768
  20
23.175000190735
  30
221.398422241211
  11
758.764973241902
  21
20.000000238419
  31
221.398422241211
  0
LINE
  8
0
  6
DASHED
  10
761.263973791219
  20
20.000000715256
  30
221.398422241211
  11
761.263973236084
  21
23.175000667572
  31
221.398422241211
  0
LINE
  8
0
  6
DASHED
  10
761.263973236084
  20
23.175000627674
  30
221.398422241211
  11
758.764972686768
  21
23.175000190735
  31
221.398422241211
  0
LINE
  8
0
  6
DASHED
  10
758.764973640442
  20
20.000000238419
  30
221.398422241211
  11
761.263974189758
  21
20.000000675358
  31
221.398422241211
  0
TEXT
  8
0
  40
2.54
  72
0
  10
858.534057617188
  20
10
  30
0
  1
Right
  50
0
  0
LINE
  8
0
  10
985.181945800781
  20
23.175000429153
  30
236.295776367188
  11
985.181945800781
  21
20.000000476837
  31
236.295776367188
  0
LINE
  8
0
  10
1221.477142333984
  20
20.000000476837
  30
236.295776367188
  11
1221.477142333984
  21
23.175000429153
  31
236.295776367188
  0
LINE
  8
0
  10
1221.477142333984
  20
23.175000429153
  30
236.295776367188
  11
985.181945800781
  21
23.175000429153
  31
236.295776367188
  0
LINE
  8
0
  10
985.181945800781
  20
20.000000476837
  30
236.295776367188
  11
1221.477142333984
  21
20.000000476837
  31
236.295776367188
  0
LINE
  8
0
  6
DASHED
  10
1050.251800537109
  20
23.174999952316
  30
160.245788574219
  11
1050.251801092244
  21
20
  31
160.245788574219
  0
LINE
  8
0
  6
DASHED
  10
1054.751801092244
  20
20.000000953674
  30
160.245788574219
  11
1054.751800537109
  21
23.175000905991
  31
160.245788574219
  0
LINE
  8
0
  6
DASHED
  10
1054.751800537109
  20
23.175000739121
  30
160.245788574219
  11
1050.251800537109
  21
23.174999952316
  31
160.245788574219
  0
LINE
  8
0
  6
DASHED
  10
1050.251800537109
  20
20
  30
160.245788574219
  11
1054.751800537109
  21
20.000000786805
  31
160.245788574219
  0
LINE
  8
0
  6
DASHED
  10
1087.608474731445
  20
23.174999952316
  30
142.317367553711
  11
1087.60847528658
  21
20
  31
142.317367553711
  0
LINE
  8
0
  6
DASHED
  10
1092.10847528658
  20
20.000000953674
  30
142.317367553711
  11
1092.108474731445
  21
23.175000905991
  31
142.317367553711
  0
LINE
  8
0
  6
DASHED
  10
1092.108474731445
  20
23.175000739121
  30
142.317367553711
  11
1087.608474731445
  21
23.174999952316
  31
142.317367553711
  0
LINE
  8
0
  6
DASHED
  10
1087.608474731445
  20
20
  30
142.317367553711
  11
1092.108474731445
  21
20.000000786805
  31
142.317367553711
  0
LINE
  8
0
  6
DASHED
  10
1129.973342895508
  20
23.174999952316
  30
80.508102416992
  11
1129.973343450642
  21
20
  31
80.508102416992
  0
LINE
  8
0
  6
DASHED
  10
1134.473343450642
  20
20.000000953674
  30
80.508102416992
  11
1134.473342895508
  21
23.175000905991
  31
80.508102416992
  0
LINE
  8
0
  6
DASHED
  10
1134.473342895508
  20
23.175000739121
  30
80.508102416992
  11
1129.973342895508
  21
23.174999952316
  31
80.508102416992
  0
LINE
  8
0
  6
DASHED
  10
1129.973342895508
  20
20
  30
80.508102416992
  11
1134.473342895508
  21
20.000000786805
  31
80.508102416992
  0
LINE
  8
0
  6
DASHED
  10
1129.973342895508
  20
23.174999952316
  30
160.264312744141
  11
1129.973343450642
  21
20
  31
160.264312744141
  0
LINE
  8
0
  6
DASHED
  10
1134.473343450642
  20
20.000000953674
  30
160.264312744141
  11
1134.473342895508
  21
23.175000905991
  31
160.264312744141
  0
LINE
  8
0
  6
DASHED
  10
1134.473342895508
  20
23.175000739121
  30
160.264312744141
  11
1129.973342895508
  21
23.174999952316
  31
160.264312744141
  0
LINE
  8
0
  6
DASHED
  10
1129.973342895508
  20
20
  30
160.264312744141
  11
1134.473342895508
  21
20.000000786805
  31
160.264312744141
  0
LINE
  8
0
  6
DASHED
  10
1151.906188964844
  20
23.174999952316
  30
80.526565551758
  11
1151.906189519978
  21
20
  31
80.526565551758
  0
LINE
  8
0
  6
DASHED
  10
1156.406189519978
  20
20.000000953674
  30
80.526565551758
  11
1156.406188964844
  21
23.175000905991
  31
80.526565551758
  0
LINE
  8
0
  6
DASHED
  10
1156.406188964844
  20
23.175000739121
  30
80.526565551758
  11
1151.906188964844
  21
23.174999952316
  31
80.526565551758
  0
LINE
  8
0
  6
DASHED
  10
1151.906188964844
  20
20
  30
80.526565551758
  11
1156.406188964844
  21
20.000000786805
  31
80.526565551758
  0
LINE
  8
0
  6
DASHED
  10
1151.876647949219
  20
23.174999952316
  30
160.262908935547
  11
1151.876648504353
  21
20
  31
160.262908935547
  0
LINE
  8
0
  6
DASHED
  10
1156.376648504353
  20
20.000000953674
  30
160.262908935547
  11
1156.376647949219
  21
23.175000905991
  31
160.262908935547
  0
LINE
  8
0
  6
DASHED
  10
1156.376647949219
  20
23.175000739121
  30
160.262908935547
  11
1151.876647949219
  21
23.174999952316
  31
160.262908935547
  0
LINE
  8
0
  6
DASHED
  10
1151.876647949219
  20
20
  30
160.262908935547
  11
1156.376647949219
  21
20.000000786805
  31
160.262908935547
  0
LINE
  8
0
  6
DASHED
  10
1072.16968536377
  20
23.174999952316
  30
80.524429321289
  11
1072.169685918904
  21
20
  31
80.524429321289
  0
LINE
  8
0
  6
DASHED
  10
1076.669685918904
  20
20.000000953674
  30
80.524429321289
  11
1076.66968536377
  21
23.175000905991
  31
80.524429321289
  0
LINE
  8
0
  6
DASHED
  10
1076.66968536377
  20
23.175000739121
  30
80.524429321289
  11
1072.16968536377
  21
23.174999952316
  31
80.524429321289
  0
LINE
  8
0
  6
DASHED
  10
1072.16968536377
  20
20
  30
80.524429321289
  11
1076.66968536377
  21
20.000000786805
  31
80.524429321289
  0
LINE
  8
0
  6
DASHED
  10
1087.618919372559
  20
23.174999952316
  30
98.501953125
  11
1087.618919927693
  21
20
  31
98.501953125
  0
LINE
  8
0
  6
DASHED
  10
1092.118919927693
  20
20.000000953674
  30
98.501953125
  11
1092.118919372559
  21
23.175000905991
  31
98.501953125
  0
LINE
  8
0
  6
DASHED
  10
1092.118919372559
  20
23.175000739121
  30
98.501953125
  11
1087.618919372559
  21
23.174999952316
  31
98.501953125
  0
LINE
  8
0
  6
DASHED
  10
1087.618919372559
  20
20
  30
98.501953125
  11
1092.118919372559
  21
20.000000786805
  31
98.501953125
  0
LINE
  8
0
  6
DASHED
  10
1097.586837768555
  20
23.174999952316
  30
120.38801574707
  11
1097.586838323689
  21
20
  31
120.38801574707
  0
LINE
  8
0
  6
DASHED
  10
1102.086838323689
  20
20.000000953674
  30
120.38801574707
  11
1102.086837768555
  21
23.175000905991
  31
120.38801574707
  0
LINE
  8
0
  6
DASHED
  10
1102.086837768555
  20
23.175000739121
  30
120.38801574707
  11
1097.586837768555
  21
23.174999952316
  31
120.38801574707
  0
LINE
  8
0
  6
DASHED
  10
1097.586837768555
  20
20
  30
120.38801574707
  11
1102.086837768555
  21
20.000000786805
  31
120.38801574707
  0
LINE
  8
0
  6
DASHED
  10
1072.185768127441
  20
23.174999952316
  30
160.264297485352
  11
1072.185768682576
  21
20
  31
160.264297485352
  0
LINE
  8
0
  6
DASHED
  10
1076.685768682576
  20
20.000000953674
  30
160.264297485352
  11
1076.685768127441
  21
23.175000905991
  31
160.264297485352
  0
LINE
  8
0
  6
DASHED
  10
1076.685768127441
  20
23.175000739121
  30
160.264297485352
  11
1072.185768127441
  21
23.174999952316
  31
160.264297485352
  0
LINE
  8
0
  6
DASHED
  10
1072.185768127441
  20
20
  30
160.264297485352
  11
1076.685768127441
  21
20.000000786805
  31
160.264297485352
  0
LINE
  8
0
  6
DASHED
  10
1050.248199462891
  20
23.174999952316
  30
80.523620605469
  11
1050.248200018025
  21
20
  31
80.523620605469
  0
LINE
  8
0
  6
DASHED
  10
1054.748200018025
  20
20.000000953674
  30
80.523620605469
  11
1054.748199462891
  21
23.175000905991
  31
80.523620605469
  0
LINE
  8
0
  6
DASHED
  10
1054.748199462891
  20
23.175000739121
  30
80.523620605469
  11
1050.248199462891
  21
23.174999952316
  31
80.523620605469
  0
LINE
  8
0
  6
DASHED
  10
1050.248199462891
  20
20
  30
80.523620605469
  11
1054.748199462891
  21
20.000000786805
  31
80.523620605469
  0
LINE
  8
0
  6
DASHED
  10
1204.086273193359
  20
23.175000190735
  30
17.400253295898
  11
1204.086273748494
  21
20.000000238419
  31
17.400253295898
  0
LINE
  8
0
  6
DASHED
  10
1206.585266668416
  20
20.000000715256
  30
17.400253295898
  11
1206.585266113281
  21
23.175000667572
  31
17.400253295898
  0
LINE
  8
0
  6
DASHED
  10
1206.585266113281
  20
23.175000627673
  30
17.400253295898
  11
1204.086273193359
  21
23.175000190735
  31
17.400253295898
  0
LINE
  8
0
  6
DASHED
  10
1204.086273193359
  20
20.000000238419
  30
17.400253295898
  11
1206.585266113281
  21
20.000000675356
  31
17.400253295898
  0
LINE
  8
0
  6
DASHED
  10
1156.911560058594
  20
23.175000190735
  30
8.70393371582
  11
1156.911560613728
  21
20.000000238419
  31
8.70393371582
  0
LINE
  8
0
  6
DASHED
  10
1159.41055353365
  20
20.000000715256
  30
8.70393371582
  11
1159.410552978516
  21
23.175000667572
  31
8.70393371582
  0
LINE
  8
0
  6
DASHED
  10
1159.410552978516
  20
23.175000627673
  30
8.70393371582
  11
1156.911560058594
  21
23.175000190735
  31
8.70393371582
  0
LINE
  8
0
  6
DASHED
  10
1156.911560058594
  20
20.000000238419
  30
8.70393371582
  11
1159.410552978516
  21
20.000000675356
  31
8.70393371582
  0
LINE
  8
0
  6
DASHED
  10
1204.090469360352
  20
23.175000190735
  30
7.411926269531
  11
1204.090469915486
  21
20.000000238419
  31
7.411926269531
  0
LINE
  8
0
  6
DASHED
  10
1206.589462835408
  20
20.000000715256
  30
7.411926269531
  11
1206.589462280273
  21
23.175000667572
  31
7.411926269531
  0
LINE
  8
0
  6
DASHED
  10
1206.589462280273
  20
23.175000627673
  30
7.411926269531
  11
1204.090469360352
  21
23.175000190735
  31
7.411926269531
  0
LINE
  8
0
  6
DASHED
  10
1204.090469360352
  20
20.000000238419
  30
7.411926269531
  11
1206.589462280273
  21
20.000000675356
  31
7.411926269531
  0
LINE
  8
0
  6
DASHED
  10
1214.020095825195
  20
23.175000190735
  30
17.400695800781
  11
1214.02009638033
  21
20.000000238419
  31
17.400695800781
  0
LINE
  8
0
  6
DASHED
  10
1216.519089300252
  20
20.000000715256
  30
17.400695800781
  11
1216.519088745117
  21
23.175000667572
  31
17.400695800781
  0
LINE
  8
0
  6
DASHED
  10
1216.519088745117
  20
23.175000627673
  30
17.400695800781
  11
1214.020095825195
  21
23.175000190735
  31
17.400695800781
  0
LINE
  8
0
  6
DASHED
  10
1214.020095825195
  20
20.000000238419
  30
17.400695800781
  11
1216.519088745117
  21
20.000000675356
  31
17.400695800781
  0
LINE
  8
0
  6
DASHED
  10
990.118949890137
  20
23.175000190735
  30
17.383422851562
  11
990.118950445271
  21
20.000000238419
  31
17.383422851562
  0
LINE
  8
0
  6
DASHED
  10
992.617950994588
  20
20.000000715256
  30
17.383422851562
  11
992.617950439453
  21
23.175000667572
  31
17.383422851562
  0
LINE
  8
0
  6
DASHED
  10
992.617950439453
  20
23.175000627674
  30
17.383422851562
  11
990.118949890137
  21
23.175000190735
  31
17.383422851562
  0
LINE
  8
0
  6
DASHED
  10
990.118950366974
  20
20.000000238419
  30
17.383422851562
  11
992.61795091629
  21
20.000000675358
  31
17.383422851562
  0
LINE
  8
0
  6
DASHED
  10
1000.078369140625
  20
23.175000190735
  30
17.389190673828
  11
1000.07836969576
  21
20.000000238419
  31
17.389190673828
  0
LINE
  8
0
  6
DASHED
  10
1002.577370245076
  20
20.000000715256
  30
17.389190673828
  11
1002.577369689941
  21
23.175000667572
  31
17.389190673828
  0
LINE
  8
0
  6
DASHED
  10
1002.577369689941
  20
23.175000627674
  30
17.389190673828
  11
1000.078369140625
  21
23.175000190735
  31
17.389190673828
  0
LINE
  8
0
  6
DASHED
  10
1000.078370094299
  20
20.000000238419
  30
17.389190673828
  11
1002.577370643616
  21
20.000000675358
  31
17.389190673828
  0
LINE
  8
0
  6
DASHED
  10
1047.251510620117
  20
23.175000190735
  30
8.708450317383
  11
1047.251511175252
  21
20.000000238419
  31
8.708450317383
  0
LINE
  8
0
  6
DASHED
  10
1049.750504095174
  20
20.000000715256
  30
8.708450317383
  11
1049.750503540039
  21
23.175000667572
  31
8.708450317383
  0
LINE
  8
0
  6
DASHED
  10
1049.750503540039
  20
23.175000627673
  30
8.708450317383
  11
1047.251510620117
  21
23.175000190735
  31
8.708450317383
  0
LINE
  8
0
  6
DASHED
  10
1047.251510620117
  20
20.000000238419
  30
8.708450317383
  11
1049.750503540039
  21
20.000000675356
  31
8.708450317383
  0
LINE
  8
0
  6
DASHED
  10
1000.078369140625
  20
23.175000190735
  30
7.402969360352
  11
1000.07836969576
  21
20.000000238419
  31
7.402969360352
  0
LINE
  8
0
  6
DASHED
  10
1002.577370245076
  20
20.000000715256
  30
7.402969360352
  11
1002.577369689941
  21
23.175000667572
  31
7.402969360352
  0
LINE
  8
0
  6
DASHED
  10
1002.577369689941
  20
23.175000627674
  30
7.402969360352
  11
1000.078369140625
  21
23.175000190735
  31
7.402969360352
  0
LINE
  8
0
  6
DASHED
  10
1000.078370094299
  20
20.000000238419
  30
7.402969360352
  11
1002.577370643616
  21
20.000000675358
  31
7.402969360352
  0
LINE
  8
0
  6
DASHED
  10
1204.086227416992
  20
23.175000190735
  30
231.40266418457
  11
1204.086227972127
  21
20.000000238419
  31
231.40266418457
  0
LINE
  8
0
  6
DASHED
  10
1206.585220892049
  20
20.000000715256
  30
231.40266418457
  11
1206.585220336914
  21
23.175000667572
  31
231.40266418457
  0
LINE
  8
0
  6
DASHED
  10
1206.585220336914
  20
23.175000627673
  30
231.40266418457
  11
1204.086227416992
  21
23.175000190735
  31
231.40266418457
  0
LINE
  8
0
  6
DASHED
  10
1204.086227416992
  20
20.000000238419
  30
231.40266418457
  11
1206.585220336914
  21
20.000000675356
  31
231.40266418457
  0
LINE
  8
0
  6
DASHED
  10
1029.36141204834
  20
23.175000190735
  30
157.80305480957
  11
1029.361412603474
  21
20.000000238419
  31
157.80305480957
  0
LINE
  8
0
  6
DASHED
  10
1031.860405523396
  20
20.000000715256
  30
157.80305480957
  11
1031.860404968262
  21
23.175000667572
  31
157.80305480957
  0
LINE
  8
0
  6
DASHED
  10
1031.860404968262
  20
23.175000627673
  30
157.80305480957
  11
1029.36141204834
  21
23.175000190735
  31
157.80305480957
  0
LINE
  8
0
  6
DASHED
  10
1029.36141204834
  20
20.000000238419
  30
157.80305480957
  11
1031.860404968262
  21
20.000000675356
  31
157.80305480957
  0
LINE
  8
0
  6
DASHED
  10
1029.368659973145
  20
23.175000190735
  30
165.703460693359
  11
1029.368660528279
  21
20.000000238419
  31
165.703460693359
  0
LINE
  8
0
  6
DASHED
  10
1031.867653448201
  20
20.000000715256
  30
165.703460693359
  11
1031.867652893066
  21
23.175000667572
  31
165.703460693359
  0
LINE
  8
0
  6
DASHED
  10
1031.867652893066
  20
23.175000627673
  30
165.703460693359
  11
1029.368659973145
  21
23.175000190735
  31
165.703460693359
  0
LINE
  8
0
  6
DASHED
  10
1029.368659973145
  20
20.000000238419
  30
165.703460693359
  11
1031.867652893066
  21
20.000000675356
  31
165.703460693359
  0
LINE
  8
0
  6
DASHED
  10
990.111406326294
  20
23.175000190735
  30
221.429779052734
  11
990.111406881429
  21
20.000000238419
  31
221.429779052734
  0
LINE
  8
0
  6
DASHED
  10
992.610407430745
  20
20.000000715256
  30
221.429779052734
  11
992.61040687561
  21
23.175000667572
  31
221.429779052734
  0
LINE
  8
0
  6
DASHED
  10
992.61040687561
  20
23.175000627674
  30
221.429779052734
  11
990.111406326294
  21
23.175000190735
  31
221.429779052734
  0
LINE
  8
0
  6
DASHED
  10
990.111406803131
  20
20.000000238419
  30
221.429779052734
  11
992.610407352448
  21
20.000000675358
  31
221.429779052734
  0
LINE
  8
0
  6
DASHED
  10
1029.359680175781
  20
23.175000190735
  30
180.715087890625
  11
1029.359680730916
  21
20.000000238419
  31
180.715087890625
  0
LINE
  8
0
  6
DASHED
  10
1031.858673650838
  20
20.000000715256
  30
180.715087890625
  11
1031.858673095703
  21
23.175000667572
  31
180.715087890625
  0
LINE
  8
0
  6
DASHED
  10
1031.858673095703
  20
23.175000627673
  30
180.715087890625
  11
1029.359680175781
  21
23.175000190735
  31
180.715087890625
  0
LINE
  8
0
  6
DASHED
  10
1029.359680175781
  20
20.000000238419
  30
180.715087890625
  11
1031.858673095703
  21
20.000000675356
  31
180.715087890625
  0
LINE
  8
0
  6
DASHED
  10
1214.031494140625
  20
23.175000190735
  30
221.3916015625
  11
1214.03149469576
  21
20.000000238419
  31
221.3916015625
  0
LINE
  8
0
  6
DASHED
  10
1216.530487615682
  20
20.000000715256
  30
221.3916015625
  11
1216.530487060547
  21
23.175000667572
  31
221.3916015625
  0
LINE
  8
0
  6
DASHED
  10
1216.530487060547
  20
23.175000627673
  30
221.3916015625
  11
1214.031494140625
  21
23.175000190735
  31
221.3916015625
  0
LINE
  8
0
  6
DASHED
  10
1214.031494140625
  20
20.000000238419
  30
221.3916015625
  11
1216.530487060547
  21
20.000000675356
  31
221.3916015625
  0
LINE
  8
0
  6
DASHED
  10
1000.073829650879
  20
23.175000190735
  30
231.402847290039
  11
1000.073830206014
  21
20.000000238419
  31
231.402847290039
  0
LINE
  8
0
  6
DASHED
  10
1002.57283075533
  20
20.000000715256
  30
231.402847290039
  11
1002.572830200195
  21
23.175000667572
  31
231.402847290039
  0
LINE
  8
0
  6
DASHED
  10
1002.572830200195
  20
23.175000627674
  30
231.402847290039
  11
1000.073829650879
  21
23.175000190735
  31
231.402847290039
  0
LINE
  8
0
  6
DASHED
  10
1000.073830604553
  20
20.000000238419
  30
231.402847290039
  11
1002.57283115387
  21
20.000000675358
  31
231.402847290039
  0
LINE
  8
0
  6
DASHED
  10
1000.086517333984
  20
23.175000190735
  30
221.448059082031
  11
1000.086517889119
  21
20.000000238419
  31
221.448059082031
  0
LINE
  8
0
  6
DASHED
  10
1002.585518438435
  20
20.000000715256
  30
221.448059082031
  11
1002.585517883301
  21
23.175000667572
  31
221.448059082031
  0
LINE
  8
0
  6
DASHED
  10
1002.585517883301
  20
23.175000627674
  30
221.448059082031
  11
1000.086517333984
  21
23.175000190735
  31
221.448059082031
  0
LINE
  8
0
  6
DASHED
  10
1000.086518287659
  20
20.000000238419
  30
221.448059082031
  11
1002.585518836975
  21
20.000000675358
  31
221.448059082031
  0
LINE
  8
0
  6
DASHED
  10
1204.08137512207
  20
23.175000190735
  30
221.416976928711
  11
1204.081375677205
  21
20.000000238419
  31
221.416976928711
  0
LINE
  8
0
  6
DASHED
  10
1206.580368597127
  20
20.000000715256
  30
221.416976928711
  11
1206.580368041992
  21
23.175000667572
  31
221.416976928711
  0
LINE
  8
0
  6
DASHED
  10
1206.580368041992
  20
23.175000627673
  30
221.416976928711
  11
1204.08137512207
  21
23.175000190735
  31
221.416976928711
  0
LINE
  8
0
  6
DASHED
  10
1204.08137512207
  20
20.000000238419
  30
221.416976928711
  11
1206.580368041992
  21
20.000000675356
  31
221.416976928711
  0
TEXT
  8
0
  40
2.54
  72
0
  10
1099.829544067383
  20
10
  30
0
  1
Front
  50
0
  0
LINE
  8
0
  10
1226.477142333984
  20
20.000000476837
  30
236.295776367188
  11
1226.477142333984
  21
23.175000429153
  31
236.295776367188
  0
LINE
  8
0
  10
1462.772338867188
  20
23.175000429153
  30
236.295776367188
  11
1462.772338867188
  21
20.000000476837
  31
236.295776367188
  0
LINE
  8
0
  10
1462.772338867188
  20
20.000000476837
  30
236.295776367188
  11
1226.477142333984
  21
20.000000476837
  31
236.295776367188
  0
LINE
  8
0
  10
1226.477142333984
  20
23.175000429153
  30
236.295776367188
  11
1462.772338867188
  21
23.175000429153
  31
236.295776367188
  0
LINE
  8
0
  6
DASHED
  10
1291.546997070312
  20
20.000000953674
  30
80.549995422363
  11
1291.546997625447
  21
23.175000905991
  31
80.549995422363
  0
LINE
  8
0
  6
DASHED
  10
1296.046997625447
  20
23.174999952316
  30
80.549995422363
  11
1296.046997070312
  21
20
  31
80.549995422363
  0
LINE
  8
0
  6
DASHED
  10
1296.046997070312
  20
20.000000166869
  30
80.549995422363
  11
1291.546997070312
  21
20.000000953674
  31
80.549995422363
  0
LINE
  8
0
  6
DASHED
  10
1291.546997070312
  20
23.175000905991
  30
80.549995422363
  11
1296.046997070312
  21
23.175000119186
  31
80.549995422363
  0
LINE
  8
0
  6
DASHED
  10
1328.903671264648
  20
20.000000953674
  30
98.478408813477
  11
1328.903671819783
  21
23.175000905991
  31
98.478408813477
  0
LINE
  8
0
  6
DASHED
  10
1333.403671819783
  20
23.174999952316
  30
98.478408813477
  11
1333.403671264648
  21
20
  31
98.478408813477
  0
LINE
  8
0
  6
DASHED
  10
1333.403671264648
  20
20.000000166869
  30
98.478408813477
  11
1328.903671264648
  21
20.000000953674
  31
98.478408813477
  0
LINE
  8
0
  6
DASHED
  10
1328.903671264648
  20
23.175000905991
  30
98.478408813477
  11
1333.403671264648
  21
23.175000119186
  31
98.478408813477
  0
LINE
  8
0
  6
DASHED
  10
1371.268539428711
  20
20.000000953674
  30
160.287673950195
  11
1371.268539983846
  21
23.175000905991
  31
160.287673950195
  0
LINE
  8
0
  6
DASHED
  10
1375.768539983846
  20
23.174999952316
  30
160.287673950195
  11
1375.768539428711
  21
20
  31
160.287673950195
  0
LINE
  8
0
  6
DASHED
  10
1375.768539428711
  20
20.000000166869
  30
160.287673950195
  11
1371.268539428711
  21
20.000000953674
  31
160.287673950195
  0
LINE
  8
0
  6
DASHED
  10
1371.268539428711
  20
23.175000905991
  30
160.287673950195
  11
1375.768539428711
  21
23.175000119186
  31
160.287673950195
  0
LINE
  8
0
  6
DASHED
  10
1371.268539428711
  20
20.000000953674
  30
80.531471252441
  11
1371.268539983846
  21
23.175000905991
  31
80.531471252441
  0
LINE
  8
0
  6
DASHED
  10
1375.768539983846
  20
23.174999952316
  30
80.531471252441
  11
1375.768539428711
  21
20
  31
80.531471252441
  0
LINE
  8
0
  6
DASHED
  10
1375.768539428711
  20
20.000000166869
  30
80.531471252441
  11
1371.268539428711
  21
20.000000953674
  31
80.531471252441
  0
LINE
  8
0
  6
DASHED
  10
1371.268539428711
  20
23.175000905991
  30
80.531471252441
  11
1375.768539428711
  21
23.175000119186
  31
80.531471252441
  0
LINE
  8
0
  6
DASHED
  10
1393.201385498047
  20
20.000000953674
  30
160.26921081543
  11
1393.201386053182
  21
23.175000905991
  31
160.26921081543
  0
LINE
  8
0
  6
DASHED
  10
1397.701386053182
  20
23.174999952316
  30
160.26921081543
  11
1397.701385498047
  21
20
  31
160.26921081543
  0
LINE
  8
0
  6
DASHED
  10
1397.701385498047
  20
20.000000166869
  30
160.26921081543
  11
1393.201385498047
  21
20.000000953674
  31
160.26921081543
  0
LINE
  8
0
  6
DASHED
  10
1393.201385498047
  20
23.175000905991
  30
160.26921081543
  11
1397.701385498047
  21
23.175000119186
  31
160.26921081543
  0
LINE
  8
0
  6
DASHED
  10
1393.171844482422
  20
20.000000953674
  30
80.532867431641
  11
1393.171845037557
  21
23.175000905991
  31
80.532867431641
  0
LINE
  8
0
  6
DASHED
  10
1397.671845037557
  20
23.174999952316
  30
80.532867431641
  11
1397.671844482422
  21
20
  31
80.532867431641
  0
LINE
  8
0
  6
DASHED
  10
1397.671844482422
  20
20.000000166869
  30
80.532867431641
  11
1393.171844482422
  21
20.000000953674
  31
80.532867431641
  0
LINE
  8
0
  6
DASHED
  10
1393.171844482422
  20
23.175000905991
  30
80.532867431641
  11
1397.671844482422
  21
23.175000119186
  31
80.532867431641
  0
LINE
  8
0
  6
DASHED
  10
1313.464881896973
  20
20.000000953674
  30
160.271347045898
  11
1313.464882452107
  21
23.175000905991
  31
160.271347045898
  0
LINE
  8
0
  6
DASHED
  10
1317.964882452107
  20
23.174999952316
  30
160.271347045898
  11
1317.964881896973
  21
20
  31
160.271347045898
  0
LINE
  8
0
  6
DASHED
  10
1317.964881896973
  20
20.000000166869
  30
160.271347045898
  11
1313.464881896973
  21
20.000000953674
  31
160.271347045898
  0
LINE
  8
0
  6
DASHED
  10
1313.464881896973
  20
23.175000905991
  30
160.271347045898
  11
1317.964881896973
  21
23.175000119186
  31
160.271347045898
  0
LINE
  8
0
  6
DASHED
  10
1328.914115905762
  20
20.000000953674
  30
142.293823242188
  11
1328.914116460896
  21
23.175000905991
  31
142.293823242188
  0
LINE
  8
0
  6
DASHED
  10
1333.414116460896
  20
23.174999952316
  30
142.293823242188
  11
1333.414115905762
  21
20
  31
142.293823242188
  0
LINE
  8
0
  6
DASHED
  10
1333.414115905762
  20
20.000000166869
  30
142.293823242188
  11
1328.914115905762
  21
20.000000953674
  31
142.293823242188
  0
LINE
  8
0
  6
DASHED
  10
1328.914115905762
  20
23.175000905991
  30
142.293823242188
  11
1333.414115905762
  21
23.175000119186
  31
142.293823242188
  0
LINE
  8
0
  6
DASHED
  10
1338.882034301758
  20
20.000000953674
  30
120.407760620117
  11
1338.882034856892
  21
23.175000905991
  31
120.407760620117
  0
LINE
  8
0
  6
DASHED
  10
1343.382034856892
  20
23.174999952316
  30
120.407760620117
  11
1343.382034301758
  21
20
  31
120.407760620117
  0
LINE
  8
0
  6
DASHED
  10
1343.382034301758
  20
20.000000166869
  30
120.407760620117
  11
1338.882034301758
  21
20.000000953674
  31
120.407760620117
  0
LINE
  8
0
  6
DASHED
  10
1338.882034301758
  20
23.175000905991
  30
120.407760620117
  11
1343.382034301758
  21
23.175000119186
  31
120.407760620117
  0
LINE
  8
0
  6
DASHED
  10
1313.480964660645
  20
20.000000953674
  30
80.531478881836
  11
1313.480965215779
  21
23.175000905991
  31
80.531478881836
  0
LINE
  8
0
  6
DASHED
  10
1317.980965215779
  20
23.174999952316
  30
80.531478881836
  11
1317.980964660645
  21
20
  31
80.531478881836
  0
LINE
  8
0
  6
DASHED
  10
1317.980964660645
  20
20.000000166869
  30
80.531478881836
  11
1313.480964660645
  21
20.000000953674
  31
80.531478881836
  0
LINE
  8
0
  6
DASHED
  10
1313.480964660645
  20
23.175000905991
  30
80.531478881836
  11
1317.980964660645
  21
23.175000119186
  31
80.531478881836
  0
LINE
  8
0
  6
DASHED
  10
1291.543395996094
  20
20.000000953674
  30
160.272155761719
  11
1291.543396551228
  21
23.175000905991
  31
160.272155761719
  0
LINE
  8
0
  6
DASHED
  10
1296.043396551228
  20
23.174999952316
  30
160.272155761719
  11
1296.043395996094
  21
20
  31
160.272155761719
  0
LINE
  8
0
  6
DASHED
  10
1296.043395996094
  20
20.000000166869
  30
160.272155761719
  11
1291.543395996094
  21
20.000000953674
  31
160.272155761719
  0
LINE
  8
0
  6
DASHED
  10
1291.543395996094
  20
23.175000905991
  30
160.272155761719
  11
1296.043395996094
  21
23.175000119186
  31
160.272155761719
  0
LINE
  8
0
  6
DASHED
  10
1445.381469726562
  20
20.000000715256
  30
221.394515991211
  11
1445.381470281697
  21
23.175000667572
  31
221.394515991211
  0
LINE
  8
0
  6
DASHED
  10
1447.880463201619
  20
23.175000190735
  30
221.394515991211
  11
1447.880462646484
  21
20.000000238419
  31
221.394515991211
  0
LINE
  8
0
  6
DASHED
  10
1447.880462646484
  20
20.000000278318
  30
221.394515991211
  11
1445.381469726562
  21
20.000000715256
  31
221.394515991211
  0
LINE
  8
0
  6
DASHED
  10
1445.381469726562
  20
23.175000667572
  30
221.394515991211
  11
1447.880462646484
  21
23.175000230634
  31
221.394515991211
  0
LINE
  8
0
  6
DASHED
  10
1398.206756591797
  20
20.000000715256
  30
230.090835571289
  11
1398.206757146932
  21
23.175000667572
  31
230.090835571289
  0
LINE
  8
0
  6
DASHED
  10
1400.705750066853
  20
23.175000190735
  30
230.090835571289
  11
1400.705749511719
  21
20.000000238419
  31
230.090835571289
  0
LINE
  8
0
  6
DASHED
  10
1400.705749511719
  20
20.000000278318
  30
230.090835571289
  11
1398.206756591797
  21
20.000000715256
  31
230.090835571289
  0
LINE
  8
0
  6
DASHED
  10
1398.206756591797
  20
23.175000667572
  30
230.090835571289
  11
1400.705749511719
  21
23.175000230634
  31
230.090835571289
  0
LINE
  8
0
  6
DASHED
  10
1445.385665893555
  20
20.000000715256
  30
231.382843017578
  11
1445.385666448689
  21
23.175000667572
  31
231.382843017578
  0
LINE
  8
0
  6
DASHED
  10
1447.884659368611
  20
23.175000190735
  30
231.382843017578
  11
1447.884658813477
  21
20.000000238419
  31
231.382843017578
  0
LINE
  8
0
  6
DASHED
  10
1447.884658813477
  20
20.000000278318
  30
231.382843017578
  11
1445.385665893555
  21
20.000000715256
  31
231.382843017578
  0
LINE
  8
0
  6
DASHED
  10
1445.385665893555
  20
23.175000667572
  30
231.382843017578
  11
1447.884658813477
  21
23.175000230634
  31
231.382843017578
  0
LINE
  8
0
  6
DASHED
  10
1455.315292358398
  20
20.000000715256
  30
221.394073486328
  11
1455.315292913533
  21
23.175000667572
  31
221.394073486328
  0
LINE
  8
0
  6
DASHED
  10
1457.814285833455
  20
23.175000190735
  30
221.394073486328
  11
1457.81428527832
  21
20.000000238419
  31
221.394073486328
  0
LINE
  8
0
  6
DASHED
  10
1457.81428527832
  20
20.000000278318
  30
221.394073486328
  11
1455.315292358398
  21
20.000000715256
  31
221.394073486328
  0
LINE
  8
0
  6
DASHED
  10
1455.315292358398
  20
23.175000667572
  30
221.394073486328
  11
1457.81428527832
  21
23.175000230634
  31
221.394073486328
  0
LINE
  8
0
  6
DASHED
  10
1231.41414642334
  20
20.000000715256
  30
221.411346435547
  11
1231.414146978474
  21
23.175000667572
  31
221.411346435547
  0
LINE
  8
0
  6
DASHED
  10
1233.913147527791
  20
23.175000190735
  30
221.411346435547
  11
1233.913146972656
  21
20.000000238419
  31
221.411346435547
  0
LINE
  8
0
  6
DASHED
  10
1233.913146972656
  20
20.000000278317
  30
221.411346435547
  11
1231.41414642334
  21
20.000000715256
  31
221.411346435547
  0
LINE
  8
0
  6
DASHED
  10
1231.414146900177
  20
23.175000667572
  30
221.411346435547
  11
1233.913147449493
  21
23.175000230633
  31
221.411346435547
  0
LINE
  8
0
  6
DASHED
  10
1241.373565673828
  20
20.000000715256
  30
221.405578613281
  11
1241.373566228963
  21
23.175000667572
  31
221.405578613281
  0
LINE
  8
0
  6
DASHED
  10
1243.872566778279
  20
23.175000190735
  30
221.405578613281
  11
1243.872566223145
  21
20.000000238419
  31
221.405578613281
  0
LINE
  8
0
  6
DASHED
  10
1243.872566223145
  20
20.000000278317
  30
221.405578613281
  11
1241.373565673828
  21
20.000000715256
  31
221.405578613281
  0
LINE
  8
0
  6
DASHED
  10
1241.373566627502
  20
23.175000667572
  30
221.405578613281
  11
1243.872567176819
  21
23.175000230633
  31
221.405578613281
  0
LINE
  8
0
  6
DASHED
  10
1288.54670715332
  20
20.000000715256
  30
230.086318969727
  11
1288.546707708455
  21
23.175000667572
  31
230.086318969727
  0
LINE
  8
0
  6
DASHED
  10
1291.045700628377
  20
23.175000190735
  30
230.086318969727
  11
1291.045700073242
  21
20.000000238419
  31
230.086318969727
  0
LINE
  8
0
  6
DASHED
  10
1291.045700073242
  20
20.000000278318
  30
230.086318969727
  11
1288.54670715332
  21
20.000000715256
  31
230.086318969727
  0
LINE
  8
0
  6
DASHED
  10
1288.54670715332
  20
23.175000667572
  30
230.086318969727
  11
1291.045700073242
  21
23.175000230634
  31
230.086318969727
  0
LINE
  8
0
  6
DASHED
  10
1241.373565673828
  20
20.000000715256
  30
231.391799926758
  11
1241.373566228963
  21
23.175000667572
  31
231.391799926758
  0
LINE
  8
0
  6
DASHED
  10
1243.872566778279
  20
23.175000190735
  30
231.391799926758
  11
1243.872566223145
  21
20.000000238419
  31
231.391799926758
  0
LINE
  8
0
  6
DASHED
  10
1243.872566223145
  20
20.000000278317
  30
231.391799926758
  11
1241.373565673828
  21
20.000000715256
  31
231.391799926758
  0
LINE
  8
0
  6
DASHED
  10
1241.373566627502
  20
23.175000667572
  30
231.391799926758
  11
1243.872567176819
  21
23.175000230633
  31
231.391799926758
  0
LINE
  8
0
  6
DASHED
  10
1445.381423950195
  20
20.000000715256
  30
7.392112731934
  11
1445.38142450533
  21
23.175000667572
  31
7.392112731934
  0
LINE
  8
0
  6
DASHED
  10
1447.880417425252
  20
23.175000190735
  30
7.392112731934
  11
1447.880416870117
  21
20.000000238419
  31
7.392112731934
  0
LINE
  8
0
  6
DASHED
  10
1447.880416870117
  20
20.000000278318
  30
7.392112731934
  11
1445.381423950195
  21
20.000000715256
  31
7.392112731934
  0
LINE
  8
0
  6
DASHED
  10
1445.381423950195
  20
23.175000667572
  30
7.392112731934
  11
1447.880416870117
  21
23.175000230634
  31
7.392112731934
  0
LINE
  8
0
  6
DASHED
  10
1270.656608581543
  20
20.000000715256
  30
80.991714477539
  11
1270.656609136678
  21
23.175000667572
  31
80.991714477539
  0
LINE
  8
0
  6
DASHED
  10
1273.155602056599
  20
23.175000190735
  30
80.991714477539
  11
1273.155601501465
  21
20.000000238419
  31
80.991714477539
  0
LINE
  8
0
  6
DASHED
  10
1273.155601501465
  20
20.000000278318
  30
80.991714477539
  11
1270.656608581543
  21
20.000000715256
  31
80.991714477539
  0
LINE
  8
0
  6
DASHED
  10
1270.656608581543
  20
23.175000667572
  30
80.991714477539
  11
1273.155601501465
  21
23.175000230634
  31
80.991714477539
  0
LINE
  8
0
  6
DASHED
  10
1270.663856506348
  20
20.000000715256
  30
73.091316223145
  11
1270.663857061482
  21
23.175000667572
  31
73.091316223145
  0
LINE
  8
0
  6
DASHED
  10
1273.162849981404
  20
23.175000190735
  30
73.091316223145
  11
1273.16284942627
  21
20.000000238419
  31
73.091316223145
  0
LINE
  8
0
  6
DASHED
  10
1273.16284942627
  20
20.000000278318
  30
73.091316223145
  11
1270.663856506348
  21
20.000000715256
  31
73.091316223145
  0
LINE
  8
0
  6
DASHED
  10
1270.663856506348
  20
23.175000667572
  30
73.091316223145
  11
1273.16284942627
  21
23.175000230634
  31
73.091316223145
  0
LINE
  8
0
  6
DASHED
  10
1231.406602859497
  20
20.000000715256
  30
17.364994049072
  11
1231.406603414632
  21
23.175000667572
  31
17.364994049072
  0
LINE
  8
0
  6
DASHED
  10
1233.905603963948
  20
23.175000190735
  30
17.364994049072
  11
1233.905603408813
  21
20.000000238419
  31
17.364994049072
  0
LINE
  8
0
  6
DASHED
  10
1233.905603408813
  20
20.000000278317
  30
17.364994049072
  11
1231.406602859497
  21
20.000000715256
  31
17.364994049072
  0
LINE
  8
0
  6
DASHED
  10
1231.406603336334
  20
23.175000667572
  30
17.364994049072
  11
1233.905603885651
  21
23.175000230633
  31
17.364994049072
  0
LINE
  8
0
  6
DASHED
  10
1270.654876708984
  20
20.000000715256
  30
58.079689025879
  11
1270.654877264119
  21
23.175000667572
  31
58.079689025879
  0
LINE
  8
0
  6
DASHED
  10
1273.153870184041
  20
23.175000190735
  30
58.079689025879
  11
1273.153869628906
  21
20.000000238419
  31
58.079689025879
  0
LINE
  8
0
  6
DASHED
  10
1273.153869628906
  20
20.000000278318
  30
58.079689025879
  11
1270.654876708984
  21
20.000000715256
  31
58.079689025879
  0
LINE
  8
0
  6
DASHED
  10
1270.654876708984
  20
23.175000667572
  30
58.079689025879
  11
1273.153869628906
  21
23.175000230634
  31
58.079689025879
  0
LINE
  8
0
  6
DASHED
  10
1455.326690673828
  20
20.000000715256
  30
17.403167724609
  11
1455.326691228963
  21
23.175000667572
  31
17.403167724609
  0
LINE
  8
0
  6
DASHED
  10
1457.825684148885
  20
23.175000190735
  30
17.403167724609
  11
1457.82568359375
  21
20.000000238419
  31
17.403167724609
  0
LINE
  8
0
  6
DASHED
  10
1457.82568359375
  20
20.000000278318
  30
17.403167724609
  11
1455.326690673828
  21
20.000000715256
  31
17.403167724609
  0
LINE
  8
0
  6
DASHED
  10
1455.326690673828
  20
23.175000667572
  30
17.403167724609
  11
1457.82568359375
  21
23.175000230634
  31
17.403167724609
  0
LINE
  8
0
  6
DASHED
  10
1241.369026184082
  20
20.000000715256
  30
7.391929626465
  11
1241.369026739217
  21
23.175000667572
  31
7.391929626465
  0
LINE
  8
0
  6
DASHED
  10
1243.868027288533
  20
23.175000190735
  30
7.391929626465
  11
1243.868026733398
  21
20.000000238419
  31
7.391929626465
  0
LINE
  8
0
  6
DASHED
  10
1243.868026733398
  20
20.000000278317
  30
7.391929626465
  11
1241.369026184082
  21
20.000000715256
  31
7.391929626465
  0
LINE
  8
0
  6
DASHED
  10
1241.369027137756
  20
23.175000667572
  30
7.391929626465
  11
1243.868027687073
  21
23.175000230633
  31
7.391929626465
  0
LINE
  8
0
  6
DASHED
  10
1241.381713867188
  20
20.000000715256
  30
17.346710205078
  11
1241.381714422322
  21
23.175000667572
  31
17.346710205078
  0
LINE
  8
0
  6
DASHED
  10
1243.880714971639
  20
23.175000190735
  30
17.346710205078
  11
1243.880714416504
  21
20.000000238419
  31
17.346710205078
  0
LINE
  8
0
  6
DASHED
  10
1243.880714416504
  20
20.000000278317
  30
17.346710205078
  11
1241.381713867188
  21
20.000000715256
  31
17.346710205078
  0
LINE
  8
0
  6
DASHED
  10
1241.381714820862
  20
23.175000667572
  30
17.346710205078
  11
1243.880715370178
  21
23.175000230633
  31
17.346710205078
  0
LINE
  8
0
  6
DASHED
  10
1445.376571655273
  20
20.000000715256
  30
17.37780380249
  11
1445.376572210408
  21
23.175000667572
  31
17.37780380249
  0
LINE
  8
0
  6
DASHED
  10
1447.87556513033
  20
23.175000190735
  30
17.37780380249
  11
1447.875564575195
  21
20.000000238419
  31
17.37780380249
  0
LINE
  8
0
  6
DASHED
  10
1447.875564575195
  20
20.000000278318
  30
17.37780380249
  11
1445.376571655273
  21
20.000000715256
  31
17.37780380249
  0
LINE
  8
0
  6
DASHED
  10
1445.376571655273
  20
23.175000667572
  30
17.37780380249
  11
1447.875564575195
  21
23.175000230634
  31
17.37780380249
  0
TEXT
  8
0
  40
2.54
  72
0
  10
1341.124740600586
  20
10
  30
0
  1
Back
  50
0
  0
LINE
  8
0
  10
0
  20
10
  30
0
  11
0
  21
0
  31
0
  0
LINE
  8
0
  10
0
  20
10
  30
0
  11
10
  21
10
  31
0
  0
LINE
  8
0
  10
10
  20
0
  30
0
  11
10
  21
10
  31
0
  0
LINE
  8
0
  10
0
  20
0
  30
0
  11
10
  21
0
  31
0
  0
TEXT
  8
0
  40
1
  72
0
  10
0.5
  20
8
  30
0
  1
1 cm x 1 cm
  50
0
  0
TEXT
  8
0
  40
1
  72
0
  10
3
  20
5
  30
0
  1
scaling
  50
0
  0
TEXT
  8
0
  40
1
  72
0
  10
1.5
  20
2
  30
0
  1
reference
  50
0
  0
ENDSEC
  0
EOF
