  0
SECTION
  2
HEADER
  9
$ACADVER
  1
AC1014
  9
$HANDSEED
  5
FFFF
  9
$MEASUREMENT
 70
     1
  0
ENDSEC
  0
SECTION
  2
TABLES
  0
TABLE
  2
VPORT
  5
8
330
0
100
AcDbSymbolTable
 70
     4
  0
VPORT
  5
2E
330
8
100
AcDbSymbolTableRecord
100
AcDbViewportTableRecord
  2
*ACTIVE
 70
     0
 10
0.0
 20
0.0
 11
1.0
 21
1.0
 12
210.0
 22
148.5
 13
0.0
 23
0.0
 14
10.0
 24
10.0
 15
10.0
 25
10.0
 16
0.0
 26
0.0
 36
1.0
 17
0.0
 27
0.0
 37
0.0
 40
341.0
 41
1.24
 42
50.0
 43
0.0
 44
0.0
 50
0.0
 51
0.0
 71
     0
 72
   100
 73
     1
 74
     3
 75
     0
 76
     0
 77
     0
 78
     0
  0
ENDTAB
  0
TABLE
  2
LTYPE
  5
5
330
0
100
AcDbSymbolTable
 70
     1
  0
LTYPE
  5
14
330
5
100
AcDbSymbolTableRecord
100
AcDbLinetypeTableRecord
  2
BYBLOCK
 70
     0
  3

 72
    65
 73
     0
 40
0.0
  0
LTYPE
  5
15
330
5
100
AcDbSymbolTableRecord
100
AcDbLinetypeTableRecord
  2
BYLAYER
 70
     0
  3

 72
    65
 73
     0
 40
0.0
  0
LTYPE
  5
16
330
5
100
AcDbSymbolTableRecord
100
AcDbLinetypeTableRecord
  2
CONTINUOUS
 70
     0
  3
Solid line
 72
    65
 73
     0
 40
0.0
  0
ENDTAB
  0
TABLE
  2
LAYER
  5
2
100
AcDbSymbolTable
 70
2
  0
LAYER
  5
50
100
AcDbSymbolTableRecord
100
AcDbLayerTableRecord
  2
0
 70
0
  6
CONTINUOUS
  0
LAYER
  5
51
100
AcDbSymbolTableRecord
100
AcDbLayerTableRecord
  2
Layer_1
 70
0
  6
CONTINUOUS
  0
ENDTAB
  0
TABLE
  2
STYLE
  5
3
330
0
100
AcDbSymbolTable
 70
     1
  0
STYLE
  5
11
330
3
100
AcDbSymbolTableRecord
100
AcDbTextStyleTableRecord
  2
STANDARD
 70
     0
 40
0.0
 41
1.0
 50
0.0
 71
     0
 42
2.5
  3
txt
  4

  0
ENDTAB
  0
TABLE
  2
VIEW
  5
6
330
0
100
AcDbSymbolTable
 70
     0
  0
ENDTAB
  0
TABLE
  2
UCS
  5
7
330
0
100
AcDbSymbolTable
 70
     0
  0
ENDTAB
  0
TABLE
  2
APPID
  5
9
330
0
100
AcDbSymbolTable
 70
     2
  0
APPID
  5
12
330
9
100
AcDbSymbolTableRecord
100
AcDbRegAppTableRecord
  2
ACAD
 70
     0
  0
ENDTAB
  0
TABLE
  2
DIMSTYLE
  5
A
330
0
100
AcDbSymbolTable
 70
     1
  0
DIMSTYLE
105
27
330
A
100
AcDbSymbolTableRecord
100
AcDbDimStyleTableRecord
  2
ISO-25
 70
     0
  3

  4

  5

  6

  7

 40
1.0
 41
2.5
 42
0.625
 43
3.75
 44
1.25
 45
0.0
 46
0.0
 47
0.0
 48
0.0
140
2.5
141
2.5
142
0.0
143
0.03937007874016
144
1.0
145
0.0
146
1.0
147
0.625
 71
     0
 72
     0
 73
     0
 74
     0
 75
     0
 76
     0
 77
     1
 78
     8
170
     0
171
     3
172
     1
173
     0
174
     0
175
     0
176
     0
177
     0
178
     0
270
     2
271
     2
272
     2
273
     2
274
     3
340
11
275
     0
280
     0
281
     0
282
     0
283
     0
284
     8
285
     0
286
     0
287
     3
288
     0
  0
ENDTAB
  0
TABLE
  2
BLOCK_RECORD
  5
1
330
0
100
AcDbSymbolTable
 70
     1
  0
BLOCK_RECORD
  5
1F
330
1
100
AcDbSymbolTableRecord
100
AcDbBlockTableRecord
  2
*MODEL_SPACE
  0
BLOCK_RECORD
  5
1B
330
1
100
AcDbSymbolTableRecord
100
AcDbBlockTableRecord
  2
*PAPER_SPACE
  0
ENDTAB
  0
ENDSEC
  0
SECTION
  2
BLOCKS
  0
BLOCK
  5
20
330
1F
100
AcDbEntity
  8
0
100
AcDbBlockBegin
  2
*MODEL_SPACE
 70
     0
 10
0.0
 20
0.0
 30
0.0
  3
*MODEL_SPACE
  1

  0
ENDBLK
  5
21
330
1F
100
AcDbEntity
  8
0
100
AcDbBlockEnd
  0
BLOCK
  5
1C
330
1B
100
AcDbEntity
 67
     1
  8
0
100
AcDbBlockBegin
  2
*PAPER_SPACE
  1

  0
ENDBLK
  5
1D
330
1B
100
AcDbEntity
 67
     1
  8
0
100
AcDbBlockEnd
  0
ENDSEC
  0
SECTION
  2
ENTITIES
  0
LWPOLYLINE
  5
100
100
AcDbEntity
  8
Layer_1
 62
7
100
AcDbPolyline
 90
17
 70
0
 10
67.513256
 20
155.970486
 30
0.0
 10
68.339727
 20
156.154619
 30
0.0
 10
69.074366
 20
156.614952
 30
0.0
 10
69.533519
 20
157.351484
 30
0.0
 10
69.717175
 20
158.180086
 30
0.0
 10
69.533519
 20
159.100754
 30
0.0
 10
69.074366
 20
159.745222
 30
0.0
 10
68.339727
 20
160.297621
 30
0.0
 10
67.513256
 20
160.389688
 30
0.0
 10
66.686788
 20
160.297621
 30
0.0
 10
65.952150
 20
159.745222
 30
0.0
 10
65.493003
 20
159.100754
 30
0.0
 10
65.309341
 20
158.180086
 30
0.0
 10
65.493003
 20
157.351484
 30
0.0
 10
65.952150
 20
156.614952
 30
0.0
 10
66.686788
 20
156.154619
 30
0.0
 10
67.513256
 20
155.970486
 30
0.0
  0
LWPOLYLINE
  5
101
100
AcDbEntity
  8
Layer_1
 62
7
100
AcDbPolyline
 90
17
 70
0
 10
67.513256
 20
76.255973
 30
0.0
 10
68.340419
 20
76.436341
 30
0.0
 10
69.075675
 20
76.887332
 30
0.0
 10
69.535215
 20
77.608861
 30
0.0
 10
69.719026
 20
78.420589
 30
0.0
 10
69.535215
 20
79.322543
 30
0.0
 10
69.075675
 20
80.044072
 30
0.0
 10
68.340419
 20
80.495063
 30
0.0
 10
67.513256
 20
80.675432
 30
0.0
 10
66.686097
 20
80.495063
 30
0.0
 10
65.950840
 20
80.044072
 30
0.0
 10
65.491306
 20
79.322543
 30
0.0
 10
65.307489
 20
78.420589
 30
0.0
 10
65.491306
 20
77.608861
 30
0.0
 10
65.950840
 20
76.887332
 30
0.0
 10
66.686097
 20
76.436341
 30
0.0
 10
67.513256
 20
76.255973
 30
0.0
  0
LWPOLYLINE
  5
102
100
AcDbEntity
  8
Layer_1
 62
7
100
AcDbPolyline
 90
17
 70
0
 10
45.579290
 20
78.711842
 30
0.0
 10
46.071446
 20
78.782200
 30
0.0
 10
46.493295
 20
79.063745
 30
0.0
 10
46.774526
 20
79.486062
 30
0.0
 10
46.844833
 20
79.978738
 30
0.0
 10
46.774526
 20
80.471413
 30
0.0
 10
46.493295
 20
80.823344
 30
0.0
 10
46.071446
 20
81.104861
 30
0.0
 10
45.579290
 20
81.175247
 30
0.0
 10
45.157441
 20
81.104861
 30
0.0
 10
44.735589
 20
80.823344
 30
0.0
 10
44.454358
 20
80.471413
 30
0.0
 10
44.384050
 20
79.978738
 30
0.0
 10
44.454358
 20
79.486062
 30
0.0
 10
44.735589
 20
79.063745
 30
0.0
 10
45.157441
 20
78.782200
 30
0.0
 10
45.579290
 20
78.711842
 30
0.0
  0
LWPOLYLINE
  5
103
100
AcDbEntity
  8
Layer_1
 62
7
100
AcDbPolyline
 90
17
 70
0
 10
45.579295
 20
70.765029
 30
0.0
 10
46.071361
 20
70.835415
 30
0.0
 10
46.493134
 20
71.116960
 30
0.0
 10
46.774314
 20
71.539277
 30
0.0
 10
46.844610
 20
71.961566
 30
0.0
 10
46.774314
 20
72.454242
 30
0.0
 10
46.493134
 20
72.876559
 30
0.0
 10
46.071361
 20
73.158076
 30
0.0
 10
45.579295
 20
73.228462
 30
0.0
 10
45.157523
 20
73.158076
 30
0.0
 10
44.735750
 20
72.876559
 30
0.0
 10
44.454569
 20
72.454242
 30
0.0
 10
44.384273
 20
71.961566
 30
0.0
 10
44.454569
 20
71.539277
 30
0.0
 10
44.735750
 20
71.116960
 30
0.0
 10
45.157523
 20
70.835415
 30
0.0
 10
45.579295
 20
70.765029
 30
0.0
  0
LWPOLYLINE
  5
104
100
AcDbEntity
  8
Layer_1
 62
7
100
AcDbPolyline
 90
17
 70
0
 10
173.175995
 20
227.801658
 30
0.0
 10
173.598425
 20
227.938665
 30
0.0
 10
174.020855
 20
228.144185
 30
0.0
 10
174.302485
 20
228.555216
 30
0.0
 10
174.372899
 20
229.034752
 30
0.0
 10
174.302485
 20
229.514289
 30
0.0
 10
174.020855
 20
229.856820
 30
0.0
 10
173.598425
 20
230.130838
 30
0.0
 10
173.175995
 20
230.267848
 30
0.0
 10
172.683122
 20
230.130838
 30
0.0
 10
172.260692
 20
229.856820
 30
0.0
 10
171.979062
 20
229.514289
 30
0.0
 10
171.908648
 20
229.034752
 30
0.0
 10
171.979062
 20
228.555216
 30
0.0
 10
172.260692
 20
228.144185
 30
0.0
 10
172.683122
 20
227.938665
 30
0.0
 10
173.175995
 20
227.801658
 30
0.0
  0
LWPOLYLINE
  5
105
100
AcDbEntity
  8
Layer_1
 62
7
100
AcDbPolyline
 90
17
 70
0
 10
63.506034
 20
227.801692
 30
0.0
 10
63.998918
 20
227.938699
 30
0.0
 10
64.421391
 20
228.144211
 30
0.0
 10
64.703037
 20
228.555231
 30
0.0
 10
64.773449
 20
229.034752
 30
0.0
 10
64.703037
 20
229.514275
 30
0.0
 10
64.421391
 20
229.856794
 30
0.0
 10
63.998918
 20
230.130804
 30
0.0
 10
63.506034
 20
230.267811
 30
0.0
 10
63.083564
 20
230.130804
 30
0.0
 10
62.661094
 20
229.856794
 30
0.0
 10
62.379448
 20
229.514275
 30
0.0
 10
62.309036
 20
229.034752
 30
0.0
 10
62.379448
 20
228.555231
 30
0.0
 10
62.661094
 20
228.144211
 30
0.0
 10
63.083564
 20
227.938699
 30
0.0
 10
63.506034
 20
227.801692
 30
0.0
  0
LWPOLYLINE
  5
106
100
AcDbEntity
  8
Layer_1
 62
7
100
AcDbPolyline
 90
18
 70
0
 10
169.168750
 20
155.927320
 30
0.0
 10
169.942010
 20
156.138580
 30
0.0
 10
170.644970
 20
156.561092
 30
0.0
 10
171.137052
 20
157.194868
 30
0.0
 10
171.418230
 20
157.969480
 30
0.0
 10
171.347929
 20
158.814510
 30
0.0
 10
170.926148
 20
159.589120
 30
0.0
 10
170.363792
 20
160.082055
 30
0.0
 10
169.590531
 20
160.434152
 30
0.0
 10
168.746969
 20
160.434152
 30
0.0
 10
167.973708
 20
160.082055
 30
0.0
 10
167.341079
 20
159.589120
 30
0.0
 10
166.989599
 20
158.814510
 30
0.0
 10
166.919298
 20
157.969480
 30
0.0
 10
167.130174
 20
157.194868
 30
0.0
 10
167.622228
 20
156.561092
 30
0.0
 10
168.325188
 20
156.138580
 30
0.0
 10
169.168750
 20
155.927320
 30
0.0
  0
LWPOLYLINE
  5
107
100
AcDbEntity
  8
Layer_1
 62
7
100
AcDbPolyline
 90
18
 70
0
 10
89.447226
 20
155.930320
 30
0.0
 10
90.290839
 20
156.141295
 30
0.0
 10
90.923550
 20
156.563249
 30
0.0
 10
91.485960
 20
157.196180
 30
0.0
 10
91.696862
 20
157.969762
 30
0.0
 10
91.626560
 20
158.813669
 30
0.0
 10
91.204754
 20
159.587248
 30
0.0
 10
90.642344
 20
160.079529
 30
0.0
 10
89.869033
 20
160.431155
 30
0.0
 10
89.025417
 20
160.431155
 30
0.0
 10
88.252105
 20
160.079529
 30
0.0
 10
87.689696
 20
159.587248
 30
0.0
 10
87.267886
 20
158.813669
 30
0.0
 10
87.197588
 20
157.969762
 30
0.0
 10
87.408489
 20
157.196180
 30
0.0
 10
87.900597
 20
156.563249
 30
0.0
 10
88.603610
 20
156.141295
 30
0.0
 10
89.447226
 20
155.930320
 30
0.0
  0
LWPOLYLINE
  5
108
100
AcDbEntity
  8
Layer_1
 62
7
100
AcDbPolyline
 90
4
 70
0
 10
0.193401
 20
44.393959
 30
0.0
 10
18.120202
 20
62.326980
 30
0.0
 10
18.120202
 20
174.355618
 30
0.0
 10
0.193401
 20
192.288639
 30
0.0
  0
LWPOLYLINE
  5
109
100
AcDbEntity
  8
Layer_1
 62
7
100
AcDbPolyline
 90
2
 70
0
 10
226.506004
 20
236.489189
 30
0.0
 10
10.175991
 20
236.489189
 30
0.0
  0
LWPOLYLINE
  5
10a
100
AcDbEntity
  8
Layer_1
 62
7
100
AcDbPolyline
 90
2
 70
0
 10
236.488599
 20
226.502959
 30
0.0
 10
226.505835
 20
236.489189
 30
0.0
  0
LWPOLYLINE
  5
10b
100
AcDbEntity
  8
Layer_1
 62
7
100
AcDbPolyline
 90
2
 70
0
 10
236.488599
 20
192.288800
 30
0.0
 10
236.488599
 20
226.502801
 30
0.0
  0
LWPOLYLINE
  5
10c
100
AcDbEntity
  8
Layer_1
 62
7
100
AcDbPolyline
 90
4
 70
0
 10
236.488599
 20
192.288639
 30
0.0
 10
218.561816
 20
174.355618
 30
0.0
 10
218.561816
 20
62.326980
 30
0.0
 10
236.488599
 20
44.393959
 30
0.0
  0
LWPOLYLINE
  5
10d
100
AcDbEntity
  8
Layer_1
 62
7
100
AcDbPolyline
 90
2
 70
0
 10
226.505835
 20
0.193415
 30
0.0
 10
236.488599
 20
10.109321
 30
0.0
  0
LWPOLYLINE
  5
10e
100
AcDbEntity
  8
Layer_1
 62
7
100
AcDbPolyline
 90
4
 70
0
 10
192.297849
 20
0.193415
 30
0.0
 10
174.371037
 20
18.126436
 30
0.0
 10
62.310972
 20
18.126436
 30
0.0
 10
44.384172
 20
0.193415
 30
0.0
  0
LWPOLYLINE
  5
10f
100
AcDbEntity
  8
Layer_1
 62
7
100
AcDbPolyline
 90
2
 70
0
 10
0.193401
 20
226.502801
 30
0.0
 10
0.193401
 20
192.288800
 30
0.0
  0
LWPOLYLINE
  5
110
100
AcDbEntity
  8
Layer_1
 62
7
100
AcDbPolyline
 90
2
 70
0
 10
236.488599
 20
10.109123
 30
0.0
 10
236.488599
 20
44.394128
 30
0.0
  0
LWPOLYLINE
  5
111
100
AcDbEntity
  8
Layer_1
 62
7
100
AcDbPolyline
 90
2
 70
0
 10
10.176169
 20
0.193415
 30
0.0
 10
44.384169
 20
0.193415
 30
0.0
  0
LWPOLYLINE
  5
112
100
AcDbEntity
  8
Layer_1
 62
7
100
AcDbPolyline
 90
17
 70
0
 10
45.579290
 20
55.785718
 30
0.0
 10
46.071446
 20
55.856104
 30
0.0
 10
46.493295
 20
56.137649
 30
0.0
 10
46.774526
 20
56.559938
 30
0.0
 10
46.844833
 20
57.052613
 30
0.0
 10
46.774526
 20
57.545260
 30
0.0
 10
46.493295
 20
57.897191
 30
0.0
 10
46.071446
 20
58.178708
 30
0.0
 10
45.579290
 20
58.249094
 30
0.0
 10
45.157441
 20
58.178708
 30
0.0
 10
44.735589
 20
57.897191
 30
0.0
 10
44.454358
 20
57.545260
 30
0.0
 10
44.384050
 20
57.052613
 30
0.0
 10
44.454358
 20
56.559938
 30
0.0
 10
44.735589
 20
56.137649
 30
0.0
 10
45.157441
 20
55.856104
 30
0.0
 10
45.579290
 20
55.785718
 30
0.0
  0
LWPOLYLINE
  5
113
100
AcDbEntity
  8
Layer_1
 62
7
100
AcDbPolyline
 90
2
 70
0
 10
192.297849
 20
0.193415
 30
0.0
 10
226.505863
 20
0.193415
 30
0.0
  0
LWPOLYLINE
  5
114
100
AcDbEntity
  8
Layer_1
 62
7
100
AcDbPolyline
 90
2
 70
0
 10
0.193401
 20
10.109321
 30
0.0
 10
10.176169
 20
0.193415
 30
0.0
  0
LWPOLYLINE
  5
115
100
AcDbEntity
  8
Layer_1
 62
7
100
AcDbPolyline
 90
2
 70
0
 10
0.193401
 20
44.394128
 30
0.0
 10
0.193401
 20
10.109123
 30
0.0
  0
LWPOLYLINE
  5
116
100
AcDbEntity
  8
Layer_1
 62
7
100
AcDbPolyline
 90
18
 70
0
 10
104.914009
 20
94.149511
 30
0.0
 10
105.698888
 20
94.292372
 30
0.0
 10
106.412419
 20
94.721011
 30
0.0
 10
106.911888
 20
95.363885
 30
0.0
 10
107.125948
 20
96.221106
 30
0.0
 10
107.054594
 20
97.006926
 30
0.0
 10
106.697831
 20
97.792689
 30
0.0
 10
106.055657
 20
98.364189
 30
0.0
 10
105.342126
 20
98.649911
 30
0.0
 10
104.485894
 20
98.649911
 30
0.0
 10
103.701009
 20
98.364189
 30
0.0
 10
103.058835
 20
97.792689
 30
0.0
 10
102.702072
 20
97.006926
 30
0.0
 10
102.630718
 20
96.221106
 30
0.0
 10
102.844778
 20
95.363885
 30
0.0
 10
103.344246
 20
94.721011
 30
0.0
 10
104.057775
 20
94.292372
 30
0.0
 10
104.914009
 20
94.149511
 30
0.0
  0
LWPOLYLINE
  5
117
100
AcDbEntity
  8
Layer_1
 62
7
100
AcDbPolyline
 90
18
 70
0
 10
104.914025
 20
137.996464
 30
0.0
 10
105.699281
 20
138.137169
 30
0.0
 10
106.413148
 20
138.629629
 30
0.0
 10
106.912856
 20
139.262789
 30
0.0
 10
107.127017
 20
140.036657
 30
0.0
 10
107.055632
 20
140.880874
 30
0.0
 10
106.698697
 20
141.584386
 30
0.0
 10
106.056216
 20
142.147196
 30
0.0
 10
105.342346
 20
142.498955
 30
0.0
 10
104.485705
 20
142.498955
 30
0.0
 10
103.700450
 20
142.147196
 30
0.0
 10
103.057968
 20
141.584386
 30
0.0
 10
102.701034
 20
140.880874
 30
0.0
 10
102.629648
 20
140.036657
 30
0.0
 10
102.843810
 20
139.262789
 30
0.0
 10
103.343518
 20
138.629629
 30
0.0
 10
104.057382
 20
138.137169
 30
0.0
 10
104.914025
 20
137.996464
 30
0.0
  0
LWPOLYLINE
  5
118
100
AcDbEntity
  8
Layer_1
 62
7
100
AcDbPolyline
 90
18
 70
0
 10
114.825424
 20
116.091103
 30
0.0
 10
115.681658
 20
116.233964
 30
0.0
 10
116.395187
 20
116.662575
 30
0.0
 10
116.894658
 20
117.305505
 30
0.0
 10
117.108718
 20
118.091268
 30
0.0
 10
117.037361
 20
118.948462
 30
0.0
 10
116.680598
 20
119.734282
 30
0.0
 10
116.038424
 20
120.305725
 30
0.0
 10
115.253541
 20
120.591475
 30
0.0
 10
114.468656
 20
120.591475
 30
0.0
 10
113.683776
 20
120.305725
 30
0.0
 10
113.041599
 20
119.734282
 30
0.0
 10
112.684837
 20
118.948462
 30
0.0
 10
112.613482
 20
118.091268
 30
0.0
 10
112.827542
 20
117.305505
 30
0.0
 10
113.327011
 20
116.662575
 30
0.0
 10
114.040539
 20
116.233964
 30
0.0
 10
114.825424
 20
116.091103
 30
0.0
  0
LWPOLYLINE
  5
119
100
AcDbEntity
  8
Layer_1
 62
7
100
AcDbPolyline
 90
18
 70
0
 10
169.168750
 20
76.215446
 30
0.0
 10
169.941644
 20
76.358363
 30
0.0
 10
170.644292
 20
76.787200
 30
0.0
 10
171.136149
 20
77.430384
 30
0.0
 10
171.417186
 20
78.288001
 30
0.0
 10
171.346941
 20
79.074187
 30
0.0
 10
170.925357
 20
79.860346
 30
0.0
 10
170.363227
 20
80.432100
 30
0.0
 10
169.590333
 20
80.717962
 30
0.0
 10
168.747166
 20
80.717962
 30
0.0
 10
167.974272
 20
80.432100
 30
0.0
 10
167.341925
 20
79.860346
 30
0.0
 10
166.990587
 20
79.074187
 30
0.0
 10
166.920342
 20
78.288001
 30
0.0
 10
167.131134
 20
77.430384
 30
0.0
 10
167.622934
 20
76.787200
 30
0.0
 10
168.325583
 20
76.358363
 30
0.0
 10
169.168750
 20
76.215446
 30
0.0
  0
LWPOLYLINE
  5
11a
100
AcDbEntity
  8
Layer_1
 62
7
100
AcDbPolyline
 90
18
 70
0
 10
147.234777
 20
76.215446
 30
0.0
 10
148.078029
 20
76.358363
 30
0.0
 10
148.780762
 20
76.787200
 30
0.0
 10
149.272648
 20
77.430412
 30
0.0
 10
149.483468
 20
78.288001
 30
0.0
 10
149.413194
 20
79.074187
 30
0.0
 10
148.991582
 20
79.860317
 30
0.0
 10
148.429396
 20
80.432071
 30
0.0
 10
147.656417
 20
80.717934
 30
0.0
 10
146.813137
 20
80.717934
 30
0.0
 10
146.040187
 20
80.432071
 30
0.0
 10
145.478000
 20
79.860317
 30
0.0
 10
145.056389
 20
79.074187
 30
0.0
 10
144.986115
 20
78.288001
 30
0.0
 10
145.196935
 20
77.430412
 30
0.0
 10
145.759094
 20
76.787200
 30
0.0
 10
146.461827
 20
76.358363
 30
0.0
 10
147.234777
 20
76.215446
 30
0.0
  0
LWPOLYLINE
  5
11b
100
AcDbEntity
  8
Layer_1
 62
7
100
AcDbPolyline
 90
18
 70
0
 10
89.447226
 20
76.215417
 30
0.0
 10
90.290500
 20
76.358335
 30
0.0
 10
90.922958
 20
76.787171
 30
0.0
 10
91.485139
 20
77.430412
 30
0.0
 10
91.695956
 20
78.288001
 30
0.0
 10
91.625682
 20
79.074187
 30
0.0
 10
91.204045
 20
79.860346
 30
0.0
 10
90.641861
 20
80.432100
 30
0.0
 10
89.868860
 20
80.717962
 30
0.0
 10
89.025589
 20
80.717962
 30
0.0
 10
88.252588
 20
80.432100
 30
0.0
 10
87.690404
 20
79.860346
 30
0.0
 10
87.268764
 20
79.074187
 30
0.0
 10
87.198494
 20
78.288001
 30
0.0
 10
87.409311
 20
77.430412
 30
0.0
 10
87.901221
 20
76.787171
 30
0.0
 10
88.603949
 20
76.358335
 30
0.0
 10
89.447226
 20
76.215417
 30
0.0
  0
LWPOLYLINE
  5
11c
100
AcDbEntity
  8
Layer_1
 62
7
100
AcDbPolyline
 90
18
 70
0
 10
147.234777
 20
155.927334
 30
0.0
 10
148.078424
 20
156.138589
 30
0.0
 10
148.781468
 20
156.561101
 30
0.0
 10
149.273579
 20
157.194873
 30
0.0
 10
149.484512
 20
157.969480
 30
0.0
 10
149.414210
 20
158.814507
 30
0.0
 10
148.992373
 20
159.589114
 30
0.0
 10
148.429932
 20
160.082046
 30
0.0
 10
147.656615
 20
160.434138
 30
0.0
 10
146.812940
 20
160.434138
 30
0.0
 10
146.039651
 20
160.082046
 30
0.0
 10
145.477210
 20
159.589114
 30
0.0
 10
145.055373
 20
158.814507
 30
0.0
 10
144.985071
 20
157.969480
 30
0.0
 10
145.196004
 20
157.194873
 30
0.0
 10
145.758416
 20
156.561101
 30
0.0
 10
146.461460
 20
156.138589
 30
0.0
 10
147.234777
 20
155.927334
 30
0.0
  0
LWPOLYLINE
  5
11d
100
AcDbEntity
  8
Layer_1
 62
7
100
AcDbPolyline
 90
2
 70
0
 10
10.176169
 20
236.489189
 30
0.0
 10
0.193401
 20
226.502959
 30
0.0
  0
LWPOLYLINE
  5
11e
100
AcDbEntity
  8
Layer_1
 62
7
100
AcDbPolyline
 90
17
 70
0
 10
230.302119
 20
15.099405
 30
0.0
 10
230.779893
 20
15.169848
 30
0.0
 10
231.121128
 20
15.451872
 30
0.0
 10
231.394150
 20
15.804368
 30
0.0
 10
231.530660
 20
16.297918
 30
0.0
 10
231.394150
 20
16.791440
 30
0.0
 10
231.121128
 20
17.214435
 30
0.0
 10
230.779893
 20
17.496459
 30
0.0
 10
230.302119
 20
17.566930
 30
0.0
 10
229.824345
 20
17.496459
 30
0.0
 10
229.414812
 20
17.214435
 30
0.0
 10
229.210060
 20
16.791440
 30
0.0
 10
229.073549
 20
16.297918
 30
0.0
 10
229.210060
 20
15.804368
 30
0.0
 10
229.414812
 20
15.451872
 30
0.0
 10
229.824345
 20
15.169848
 30
0.0
 10
230.302119
 20
15.099405
 30
0.0
  0
LWPOLYLINE
  5
11f
100
AcDbEntity
  8
Layer_1
 62
7
100
AcDbPolyline
 90
17
 70
0
 10
220.319298
 20
15.099490
 30
0.0
 10
220.797806
 20
15.169960
 30
0.0
 10
221.207931
 20
15.451957
 30
0.0
 10
221.481376
 20
15.804424
 30
0.0
 10
221.549702
 20
16.297918
 30
0.0
 10
221.481376
 20
16.791384
 30
0.0
 10
221.207931
 20
17.214378
 30
0.0
 10
220.797806
 20
17.496318
 30
0.0
 10
220.319298
 20
17.566817
 30
0.0
 10
219.840818
 20
17.496318
 30
0.0
 10
219.499047
 20
17.214378
 30
0.0
 10
219.225630
 20
16.791384
 30
0.0
 10
219.088922
 20
16.297918
 30
0.0
 10
219.225630
 20
15.804424
 30
0.0
 10
219.499047
 20
15.451957
 30
0.0
 10
219.840818
 20
15.169960
 30
0.0
 10
220.319298
 20
15.099490
 30
0.0
  0
LWPOLYLINE
  5
120
100
AcDbEntity
  8
Layer_1
 62
7
100
AcDbPolyline
 90
17
 70
0
 10
220.319298
 20
219.115772
 30
0.0
 10
220.797495
 20
219.186268
 30
0.0
 10
221.207395
 20
219.468262
 30
0.0
 10
221.480671
 20
219.891251
 30
0.0
 10
221.548968
 20
220.384739
 30
0.0
 10
221.480671
 20
220.807728
 30
0.0
 10
221.207395
 20
221.230717
 30
0.0
 10
220.797495
 20
221.512711
 30
0.0
 10
220.319298
 20
221.583210
 30
0.0
 10
219.841101
 20
221.512711
 30
0.0
 10
219.499527
 20
221.230717
 30
0.0
 10
219.226280
 20
220.807728
 30
0.0
 10
219.089656
 20
220.384739
 30
0.0
 10
219.226280
 20
219.891251
 30
0.0
 10
219.499527
 20
219.468262
 30
0.0
 10
219.841101
 20
219.186268
 30
0.0
 10
220.319298
 20
219.115772
 30
0.0
  0
LWPOLYLINE
  5
121
100
AcDbEntity
  8
Layer_1
 62
7
100
AcDbPolyline
 90
17
 70
0
 10
16.362703
 20
219.115772
 30
0.0
 10
16.840906
 20
219.186268
 30
0.0
 10
17.182479
 20
219.468262
 30
0.0
 10
17.455741
 20
219.891251
 30
0.0
 10
17.592370
 20
220.384739
 30
0.0
 10
17.455741
 20
220.807728
 30
0.0
 10
17.182479
 20
221.230717
 30
0.0
 10
16.840906
 20
221.512711
 30
0.0
 10
16.362703
 20
221.583210
 30
0.0
 10
15.884500
 20
221.512711
 30
0.0
 10
15.474611
 20
221.230717
 30
0.0
 10
15.201352
 20
220.807728
 30
0.0
 10
15.133038
 20
220.384739
 30
0.0
 10
15.201352
 20
219.891251
 30
0.0
 10
15.474611
 20
219.468262
 30
0.0
 10
15.884500
 20
219.186268
 30
0.0
 10
16.362703
 20
219.115772
 30
0.0
  0
LWPOLYLINE
  5
122
100
AcDbEntity
  8
Layer_1
 62
7
100
AcDbPolyline
 90
17
 70
0
 10
16.362700
 20
15.099461
 30
0.0
 10
16.841112
 20
15.169932
 30
0.0
 10
17.182835
 20
15.451957
 30
0.0
 10
17.456215
 20
15.804424
 30
0.0
 10
17.592904
 20
16.297918
 30
0.0
 10
17.456215
 20
16.791384
 30
0.0
 10
17.182835
 20
17.214378
 30
0.0
 10
16.841112
 20
17.496346
 30
0.0
 10
16.362700
 20
17.566846
 30
0.0
 10
15.884285
 20
17.496346
 30
0.0
 10
15.474219
 20
17.214378
 30
0.0
 10
15.200839
 20
16.791384
 30
0.0
 10
15.132496
 20
16.297918
 30
0.0
 10
15.200839
 20
15.804424
 30
0.0
 10
15.474219
 20
15.451957
 30
0.0
 10
15.884285
 20
15.169932
 30
0.0
 10
16.362700
 20
15.099461
 30
0.0
  0
LWPOLYLINE
  5
123
100
AcDbEntity
  8
Layer_1
 62
7
100
AcDbPolyline
 90
17
 70
0
 10
16.362703
 20
5.113197
 30
0.0
 10
16.840906
 20
5.183668
 30
0.0
 10
17.182479
 20
5.465693
 30
0.0
 10
17.455741
 20
5.888688
 30
0.0
 10
17.592370
 20
6.382181
 30
0.0
 10
17.455741
 20
6.805176
 30
0.0
 10
17.182479
 20
7.228142
 30
0.0
 10
16.840906
 20
7.510167
 30
0.0
 10
16.362703
 20
7.580638
 30
0.0
 10
15.884500
 20
7.510167
 30
0.0
 10
15.474611
 20
7.228142
 30
0.0
 10
15.201352
 20
6.805176
 30
0.0
 10
15.133041
 20
6.382181
 30
0.0
 10
15.201352
 20
5.888688
 30
0.0
 10
15.474611
 20
5.465693
 30
0.0
 10
15.884500
 20
5.183668
 30
0.0
 10
16.362703
 20
5.113197
 30
0.0
  0
LWPOLYLINE
  5
124
100
AcDbEntity
  8
Layer_1
 62
7
100
AcDbPolyline
 90
17
 70
0
 10
6.379904
 20
219.115651
 30
0.0
 10
6.857218
 20
219.186156
 30
0.0
 10
7.266347
 20
219.468175
 30
0.0
 10
7.470910
 20
219.891206
 30
0.0
 10
7.607286
 20
220.384745
 30
0.0
 10
7.470910
 20
220.807776
 30
0.0
 10
7.266347
 20
221.230808
 30
0.0
 10
6.857218
 20
221.512827
 30
0.0
 10
6.379904
 20
221.583334
 30
0.0
 10
5.902590
 20
221.512827
 30
0.0
 10
5.561652
 20
221.230808
 30
0.0
 10
5.288901
 20
220.807776
 30
0.0
 10
5.152525
 20
220.384745
 30
0.0
 10
5.288901
 20
219.891206
 30
0.0
 10
5.561652
 20
219.468175
 30
0.0
 10
5.902590
 20
219.186156
 30
0.0
 10
6.379904
 20
219.115651
 30
0.0
  0
LWPOLYLINE
  5
125
100
AcDbEntity
  8
Layer_1
 62
7
100
AcDbPolyline
 90
17
 70
0
 10
16.362703
 20
229.102002
 30
0.0
 10
16.840906
 20
229.172499
 30
0.0
 10
17.182479
 20
229.454492
 30
0.0
 10
17.455741
 20
229.877484
 30
0.0
 10
17.592370
 20
230.300470
 30
0.0
 10
17.455741
 20
230.793958
 30
0.0
 10
17.182479
 20
231.216950
 30
0.0
 10
16.840906
 20
231.498941
 30
0.0
 10
16.362703
 20
231.569440
 30
0.0
 10
15.884500
 20
231.498941
 30
0.0
 10
15.474611
 20
231.216950
 30
0.0
 10
15.201352
 20
230.793958
 30
0.0
 10
15.133038
 20
230.300470
 30
0.0
 10
15.201352
 20
229.877484
 30
0.0
 10
15.474611
 20
229.454492
 30
0.0
 10
15.884500
 20
229.172499
 30
0.0
 10
16.362703
 20
229.102002
 30
0.0
  0
LWPOLYLINE
  5
126
100
AcDbEntity
  8
Layer_1
 62
7
100
AcDbPolyline
 90
17
 70
0
 10
220.319298
 20
229.102002
 30
0.0
 10
220.797495
 20
229.172499
 30
0.0
 10
221.207395
 20
229.454492
 30
0.0
 10
221.480671
 20
229.877484
 30
0.0
 10
221.548968
 20
230.300470
 30
0.0
 10
221.480671
 20
230.793958
 30
0.0
 10
221.207395
 20
231.216947
 30
0.0
 10
220.797495
 20
231.498941
 30
0.0
 10
220.319298
 20
231.569437
 30
0.0
 10
219.841101
 20
231.498941
 30
0.0
 10
219.499527
 20
231.216947
 30
0.0
 10
219.226280
 20
230.793958
 30
0.0
 10
219.089656
 20
230.300470
 30
0.0
 10
219.226280
 20
229.877484
 30
0.0
 10
219.499527
 20
229.454492
 30
0.0
 10
219.841101
 20
229.172499
 30
0.0
 10
220.319298
 20
229.102002
 30
0.0
  0
LWPOLYLINE
  5
127
100
AcDbEntity
  8
Layer_1
 62
7
100
AcDbPolyline
 90
17
 70
0
 10
230.302119
 20
219.115651
 30
0.0
 10
230.779441
 20
219.186156
 30
0.0
 10
231.120366
 20
219.468175
 30
0.0
 10
231.393105
 20
219.891206
 30
0.0
 10
231.529475
 20
220.384745
 30
0.0
 10
231.393105
 20
220.807776
 30
0.0
 10
231.120366
 20
221.230808
 30
0.0
 10
230.779441
 20
221.512827
 30
0.0
 10
230.302119
 20
221.583334
 30
0.0
 10
229.824796
 20
221.512827
 30
0.0
 10
229.415659
 20
221.230808
 30
0.0
 10
229.211104
 20
220.807776
 30
0.0
 10
229.074734
 20
220.384745
 30
0.0
 10
229.211104
 20
219.891206
 30
0.0
 10
229.415659
 20
219.468175
 30
0.0
 10
229.824796
 20
219.186156
 30
0.0
 10
230.302119
 20
219.115651
 30
0.0
  0
LWPOLYLINE
  5
128
100
AcDbEntity
  8
Layer_1
 62
7
100
AcDbPolyline
 90
17
 70
0
 10
6.379904
 20
15.099377
 30
0.0
 10
6.857551
 20
15.169848
 30
0.0
 10
7.266965
 20
15.451872
 30
0.0
 10
7.471670
 20
15.804368
 30
0.0
 10
7.608141
 20
16.297918
 30
0.0
 10
7.471670
 20
16.791440
 30
0.0
 10
7.266965
 20
17.214435
 30
0.0
 10
6.857551
 20
17.496459
 30
0.0
 10
6.379904
 20
17.566958
 30
0.0
 10
5.902257
 20
17.496459
 30
0.0
 10
5.561082
 20
17.214435
 30
0.0
 10
5.288142
 20
16.791440
 30
0.0
 10
5.151670
 20
16.297918
 30
0.0
 10
5.288142
 20
15.804368
 30
0.0
 10
5.561082
 20
15.451872
 30
0.0
 10
5.902257
 20
15.169848
 30
0.0
 10
6.379904
 20
15.099377
 30
0.0
  0
LWPOLYLINE
  5
129
100
AcDbEntity
  8
Layer_1
 62
7
100
AcDbPolyline
 90
17
 70
0
 10
220.319298
 20
5.113226
 30
0.0
 10
220.797580
 20
5.183696
 30
0.0
 10
221.207564
 20
5.465693
 30
0.0
 10
221.480896
 20
5.888688
 30
0.0
 10
221.549194
 20
6.382181
 30
0.0
 10
221.480896
 20
6.805176
 30
0.0
 10
221.207564
 20
7.228142
 30
0.0
 10
220.797580
 20
7.510139
 30
0.0
 10
220.319298
 20
7.580610
 30
0.0
 10
219.841016
 20
7.510139
 30
0.0
 10
219.499358
 20
7.228142
 30
0.0
 10
219.226082
 20
6.805176
 30
0.0
 10
219.089430
 20
6.382181
 30
0.0
 10
219.226082
 20
5.888688
 30
0.0
 10
219.499358
 20
5.465693
 30
0.0
 10
219.841016
 20
5.183696
 30
0.0
 10
220.319298
 20
5.113226
 30
0.0
  0
ENDSEC
  0
SECTION
  2
OBJECTS
  0
DICTIONARY
  5
C
330
0
100
AcDbDictionary
  3
ACAD_GROUP
350
D
  3
ACAD_MLINESTYLE
350
17
  0
DICTIONARY
  5
D
330
C
100
AcDbDictionary
  0
DICTIONARY
  5
1A
330
C
100
AcDbDictionary
  0
DICTIONARY
  5
17
330
C
100
AcDbDictionary
  3
STANDARD
350
18
  0
DICTIONARY
  5
19
330
C
100
AcDbDictionary
  0
ENDSEC
  0
EOF
